<?xml version="1.0" standalone="no"?>
 <!DOCTYPE svg PUBLIC "-//W3C//DTD SVG 1.1//EN" 
 "http://www.w3.org/Graphics/SVG/1.1/DTD/svg11.dtd"> 
<svg
  xmlns:svg="http://www.w3.org/2000/svg"
  xmlns="http://www.w3.org/2000/svg"
  xmlns:xlink="http://www.w3.org/1999/xlink"
  version="1.1"
  width="297.0022mm" height="210.0072mm" viewBox="0.0000 0.0000 297.0022 210.0072">
<title>SVG Image created as working-F_Courtyard.svg date 2023/08/07 18:14:23 </title>
  <desc>Image generated by PCBNEW </desc>
<g style="fill:#000000; fill-opacity:1.0000;stroke:#000000; stroke-opacity:1.0000;
stroke-linecap:round; stroke-linejoin:round;"
 transform="translate(0 0) scale(1 1)">
</g>
<g style="fill:#000000; fill-opacity:0.0; 
stroke:#000000; stroke-width:0.0000; stroke-opacity:1; 
stroke-linecap:round; stroke-linejoin:round;">
</g>
<g style="fill:#000000; fill-opacity:0.0; 
stroke:#000000; stroke-width:0.0500; stroke-opacity:1; 
stroke-linecap:round; stroke-linejoin:round;">
<path d="M163.5311 69.2236
L163.5311 66.2836
" />
<path d="M164.9711 69.2236
L163.5311 69.2236
" />
<path d="M163.9011 67.7536
L164.6011 67.7536
" />
<path d="M164.2511 67.4036
L164.2511 68.1036
" />
<path d="M163.5311 66.2836
L164.9711 66.2836
" />
<path d="M164.9711 66.2836
L164.9711 69.2236
" />
<circle cx="164.2511" cy="67.7536" r="0.2500" /> 
<path d="M166.8408 150.3976
L165.5120 146.3080
" />
<path d="M168.9902 149.6992
L166.8408 150.3976
" />
<path d="M166.9182 148.1118
L167.5840 147.8954
" />
<path d="M167.1429 147.6707
L167.3593 148.3365
" />
<path d="M165.5120 146.3080
L167.6614 145.6096
" />
<path d="M167.6614 145.6096
L168.9902 149.6992
" />
<circle cx="167.2511" cy="148.0036" r="0.2500" /> 
<path d="M153.9011 139.8036
L155.6011 139.8036
" />
<path d="M153.9011 140.7036
L153.9011 139.8036
" />
<path d="M154.7511 140.0286
L154.7511 140.4786
" />
<path d="M154.9761 140.2536
L154.5261 140.2536
" />
<path d="M155.6011 139.8036
L155.6011 140.7036
" />
<path d="M155.6011 140.7036
L153.9011 140.7036
" />
<circle cx="154.7511" cy="140.2536" r="0.1687" /> 
<path d="M124.9261 69.2286
L124.9261 67.5286
" />
<path d="M125.8261 69.2286
L124.9261 69.2286
" />
<path d="M125.1511 68.3786
L125.6011 68.3786
" />
<path d="M125.3761 68.1536
L125.3761 68.6036
" />
<path d="M124.9261 67.5286
L125.8261 67.5286
" />
<path d="M125.8261 67.5286
L125.8261 69.2286
" />
<circle cx="125.3761" cy="68.3786" r="0.1687" /> 
<path d="M159.2461 64.9036
L159.2461 60.6036
" />
<path d="M161.5061 64.9036
L159.2461 64.9036
" />
<path d="M160.0261 62.7536
L160.7261 62.7536
" />
<path d="M160.3761 62.4036
L160.3761 63.1036
" />
<path d="M159.2461 60.6036
L161.5061 60.6036
" />
<path d="M161.5061 60.6036
L161.5061 64.9036
" />
<circle cx="160.3761" cy="62.7536" r="0.2500" /> 
<path d="M159.4163 138.7992
L157.7422 139.0944
" />
<path d="M159.2600 137.9128
L159.4163 138.7992
" />
<path d="M158.5402 138.7252
L158.4620 138.2820
" />
<path d="M158.2795 138.5427
L158.7227 138.4645
" />
<path d="M157.7422 139.0944
L157.5859 138.2080
" />
<path d="M157.5859 138.2080
L159.2600 137.9128
" />
<circle cx="158.5011" cy="138.5036" r="0.1687" /> 
<path d="M160.0511 67.4786
L160.0511 65.7786
" />
<path d="M160.9511 67.4786
L160.0511 67.4786
" />
<path d="M160.2761 66.6286
L160.7261 66.6286
" />
<path d="M160.5011 66.4036
L160.5011 66.8536
" />
<path d="M160.0511 65.7786
L160.9511 65.7786
" />
<path d="M160.9511 65.7786
L160.9511 67.4786
" />
<circle cx="160.5011" cy="66.6286" r="0.1687" /> 
<path d="M147.6511 67.0536
L149.3511 67.0536
" />
<path d="M147.6511 67.9536
L147.6511 67.0536
" />
<path d="M148.5011 67.2786
L148.5011 67.7286
" />
<path d="M148.7261 67.5036
L148.2761 67.5036
" />
<path d="M149.3511 67.0536
L149.3511 67.9536
" />
<path d="M149.3511 67.9536
L147.6511 67.9536
" />
<circle cx="148.5011" cy="67.5036" r="0.1687" /> 
<path d="M158.8511 64.7036
L157.1511 64.7036
" />
<path d="M158.8511 63.8036
L158.8511 64.7036
" />
<path d="M158.0011 64.4786
L158.0011 64.0286
" />
<path d="M157.7761 64.2536
L158.2261 64.2536
" />
<path d="M157.1511 64.7036
L157.1511 63.8036
" />
<path d="M157.1511 63.8036
L158.8511 63.8036
" />
<circle cx="158.0011" cy="64.2536" r="0.1687" /> 
<path d="M164.4850 140.1155
L165.5777 138.8132
" />
<path d="M165.1745 140.6940
L164.4850 140.1155
" />
<path d="M165.2037 139.6090
L165.5485 139.8982
" />
<path d="M165.5207 139.5812
L165.2315 139.9260
" />
<path d="M165.5777 138.8132
L166.2672 139.3917
" />
<path d="M166.2672 139.3917
L165.1745 140.6940
" />
<circle cx="165.3761" cy="139.7536" r="0.1687" /> 
<path d="M158.8511 63.5786
L157.1511 63.5786
" />
<path d="M158.8511 62.6786
L158.8511 63.5786
" />
<path d="M158.0011 63.3536
L158.0011 62.9036
" />
<path d="M157.7761 63.1286
L158.2261 63.1286
" />
<path d="M157.1511 63.5786
L157.1511 62.6786
" />
<path d="M157.1511 62.6786
L158.8511 62.6786
" />
<circle cx="158.0011" cy="63.1286" r="0.1687" /> 
<path d="M162.6975 154.0506
L164.8475 150.3266
" />
<path d="M164.6547 155.1806
L162.6975 154.0506
" />
<path d="M164.4480 152.5786
L165.0542 152.9286
" />
<path d="M164.9261 152.4505
L164.5761 153.0567
" />
<path d="M164.8475 150.3266
L166.8047 151.4566
" />
<path d="M166.8047 151.4566
L164.6547 155.1806
" />
<circle cx="164.7511" cy="152.7536" r="0.2500" /> 
<path d="M153.2211 58.6786
L154.9211 58.6786
" />
<path d="M153.2211 59.5786
L153.2211 58.6786
" />
<path d="M154.0711 58.9036
L154.0711 59.3536
" />
<path d="M154.2961 59.1286
L153.8461 59.1286
" />
<path d="M154.9211 58.6786
L154.9211 59.5786
" />
<path d="M154.9211 59.5786
L153.2211 59.5786
" />
<circle cx="154.0711" cy="59.1286" r="0.1687" /> 
<path d="M163.3287 150.5107
L161.7313 151.0922
" />
<path d="M163.0209 149.6650
L163.3287 150.5107
" />
<path d="M162.4531 150.5900
L162.2991 150.1672
" />
<path d="M162.1647 150.4556
L162.5875 150.3016
" />
<path d="M161.7313 151.0922
L161.4235 150.2465
" />
<path d="M161.4235 150.2465
L163.0209 149.6650
" />
<circle cx="162.3761" cy="150.3786" r="0.1687" /> 
<path d="M155.2109 150.8330
L156.8850 150.5378
" />
<path d="M155.3672 151.7194
L155.2109 150.8330
" />
<path d="M156.0870 150.9070
L156.1652 151.3502
" />
<path d="M156.3477 151.0895
L155.9045 151.1677
" />
<path d="M156.8850 150.5378
L157.0413 151.4242
" />
<path d="M157.0413 151.4242
L155.3672 151.7194
" />
<circle cx="156.1261" cy="151.1286" r="0.1687" /> 
</g>
<g style="fill:#000000; fill-opacity:0.0; 
stroke:#000000; stroke-width:0.2000; stroke-opacity:1; 
stroke-linecap:round; stroke-linejoin:round;">
<path d="M151.5599 142.3506
L152.8106 149.4431
" />
<path d="M152.8106 149.4431
L162.9423 147.6566
" />
<path d="M161.6916 140.5641
L151.5599 142.3506
" />
<path d="M162.9423 147.6566
L161.6916 140.5641
" />
</g>
<g style="fill:#000000; fill-opacity:0.0; 
stroke:#000000; stroke-width:0.0500; stroke-opacity:1; 
stroke-linecap:round; stroke-linejoin:round;">
<path d="M168.6011 151.6236
L172.9011 151.6236
" />
<path d="M168.6011 153.8836
L168.6011 151.6236
" />
<path d="M170.7511 152.4036
L170.7511 153.1036
" />
<path d="M171.1011 152.7536
L170.4011 152.7536
" />
<path d="M172.9011 151.6236
L172.9011 153.8836
" />
<path d="M172.9011 153.8836
L168.6011 153.8836
" />
<circle cx="170.7511" cy="152.7536" r="0.2500" /> 
<path d="M151.3261 59.6536
L151.3261 61.3536
" />
<path d="M150.4261 59.6536
L151.3261 59.6536
" />
<path d="M151.1011 60.5036
L150.6511 60.5036
" />
<path d="M150.8761 60.7286
L150.8761 60.2786
" />
<path d="M151.3261 61.3536
L150.4261 61.3536
" />
<path d="M150.4261 61.3536
L150.4261 59.6536
" />
<circle cx="150.8761" cy="60.5036" r="0.1687" /> 
<path d="M147.6511 64.8036
L149.3511 64.8036
" />
<path d="M147.6511 65.7036
L147.6511 64.8036
" />
<path d="M148.5011 65.0286
L148.5011 65.4786
" />
<path d="M148.7261 65.2536
L148.2761 65.2536
" />
<path d="M149.3511 64.8036
L149.3511 65.7036
" />
<path d="M149.3511 65.7036
L147.6511 65.7036
" />
<circle cx="148.5011" cy="65.2536" r="0.1687" /> 
<path d="M158.8511 61.3286
L157.1511 61.3286
" />
<path d="M158.8511 60.4286
L158.8511 61.3286
" />
<path d="M158.0011 61.1036
L158.0011 60.6536
" />
<path d="M157.7761 60.8786
L158.2261 60.8786
" />
<path d="M157.1511 61.3286
L157.1511 60.4286
" />
<path d="M157.1511 60.4286
L158.8511 60.4286
" />
<circle cx="158.0011" cy="60.8786" r="0.1687" /> 
<path d="M147.6511 63.6786
L149.3511 63.6786
" />
<path d="M147.6511 64.5786
L147.6511 63.6786
" />
<path d="M148.5011 63.9036
L148.5011 64.3536
" />
<path d="M148.7261 64.1286
L148.2761 64.1286
" />
<path d="M149.3511 63.6786
L149.3511 64.5786
" />
<path d="M149.3511 64.5786
L147.6511 64.5786
" />
<circle cx="148.5011" cy="64.1286" r="0.1687" /> 
<path d="M154.9511 56.4036
L154.9511 58.1036
" />
<path d="M154.0511 56.4036
L154.9511 56.4036
" />
<path d="M154.7261 57.2536
L154.2761 57.2536
" />
<path d="M154.5011 57.4786
L154.5011 57.0286
" />
<path d="M154.9511 58.1036
L154.0511 58.1036
" />
<path d="M154.0511 58.1036
L154.0511 56.4036
" />
<circle cx="154.5011" cy="57.2536" r="0.1687" /> 
<path d="M157.1511 61.5536
L158.8511 61.5536
" />
<path d="M157.1511 62.4536
L157.1511 61.5536
" />
<path d="M158.0011 61.7786
L158.0011 62.2286
" />
<path d="M158.2261 62.0036
L157.7761 62.0036
" />
<path d="M158.8511 61.5536
L158.8511 62.4536
" />
<path d="M158.8511 62.4536
L157.1511 62.4536
" />
<circle cx="158.0011" cy="62.0036" r="0.1687" /> 
<path d="M156.7011 59.6536
L156.7011 61.3536
" />
<path d="M155.8011 59.6536
L156.7011 59.6536
" />
<path d="M156.4761 60.5036
L156.0261 60.5036
" />
<path d="M156.2511 60.7286
L156.2511 60.2786
" />
<path d="M156.7011 61.3536
L155.8011 61.3536
" />
<path d="M155.8011 61.3536
L155.8011 59.6536
" />
<circle cx="156.2511" cy="60.5036" r="0.1687" /> 
<path d="M158.9761 69.0786
L157.2761 69.0786
" />
<path d="M158.9761 68.1786
L158.9761 69.0786
" />
<path d="M158.1261 68.8536
L158.1261 68.4036
" />
<path d="M157.9011 68.6286
L158.3511 68.6286
" />
<path d="M157.2761 69.0786
L157.2761 68.1786
" />
<path d="M157.2761 68.1786
L158.9761 68.1786
" />
<circle cx="158.1261" cy="68.6286" r="0.1687" /> 
<path d="M121.8711 69.5286
L121.8711 65.2286
" />
<path d="M124.1311 69.5286
L121.8711 69.5286
" />
<path d="M122.6511 67.3786
L123.3511 67.3786
" />
<path d="M123.0011 67.0286
L123.0011 67.7286
" />
<path d="M121.8711 65.2286
L124.1311 65.2286
" />
<path d="M124.1311 65.2286
L124.1311 69.5286
" />
<circle cx="123.0011" cy="67.3786" r="0.2500" /> 
</g>
<g style="fill:#000000; fill-opacity:1.0000; 
stroke:#000000; stroke-width:0.0000; stroke-opacity:1; 
stroke-linecap:round; stroke-linejoin:round;">
<path style="fill:#000000; fill-opacity:1.0000; 
stroke:#000000; stroke-width:0.0000; stroke-opacity:1; 
stroke-linecap:round; stroke-linejoin:round;fill-rule:evenodd;"
d="M 184.4961,64.1636
172.7561,64.1636
172.7561,55.8436
184.4961,55.8436
Z" /> 
</g>
<g style="fill:#000000; fill-opacity:1.0000; 
stroke:#000000; stroke-width:0.0500; stroke-opacity:1; 
stroke-linecap:round; stroke-linejoin:round;">
</g>
<g style="fill:#000000; fill-opacity:0.0; 
stroke:#000000; stroke-width:0.0500; stroke-opacity:1; 
stroke-linecap:round; stroke-linejoin:round;">
<path d="M153.2211 54.9286
L154.9211 54.9286
" />
<path d="M153.2211 55.8286
L153.2211 54.9286
" />
<path d="M154.0711 55.1536
L154.0711 55.6036
" />
<path d="M154.2961 55.3786
L153.8461 55.3786
" />
<path d="M154.9211 54.9286
L154.9211 55.8286
" />
<path d="M154.9211 55.8286
L153.2211 55.8286
" />
<circle cx="154.0711" cy="55.3786" r="0.1687" /> 
<path d="M157.1511 59.3036
L158.8511 59.3036
" />
<path d="M157.1511 60.2036
L157.1511 59.3036
" />
<path d="M158.0011 59.5286
L158.0011 59.9786
" />
<path d="M158.2261 59.7536
L157.7761 59.7536
" />
<path d="M158.8511 59.3036
L158.8511 60.2036
" />
<path d="M158.8511 60.2036
L157.1511 60.2036
" />
<circle cx="158.0011" cy="59.7536" r="0.1687" /> 
<path d="M147.6511 65.9286
L149.3511 65.9286
" />
<path d="M147.6511 66.8286
L147.6511 65.9286
" />
<path d="M148.5011 66.1536
L148.5011 66.6036
" />
<path d="M148.7261 66.3786
L148.2761 66.3786
" />
<path d="M149.3511 65.9286
L149.3511 66.8286
" />
<path d="M149.3511 66.8286
L147.6511 66.8286
" />
<circle cx="148.5011" cy="66.3786" r="0.1687" /> 
<path d="M152.7011 59.6536
L152.7011 61.3536
" />
<path d="M151.8011 59.6536
L152.7011 59.6536
" />
<path d="M152.4761 60.5036
L152.0261 60.5036
" />
<path d="M152.2511 60.7286
L152.2511 60.2786
" />
<path d="M152.7011 61.3536
L151.8011 61.3536
" />
<path d="M151.8011 61.3536
L151.8011 59.6536
" />
<circle cx="152.2511" cy="60.5036" r="0.1687" /> 
<path d="M161.8596 151.8405
L160.3896 154.3867
" />
<path d="M160.6126 151.1205
L161.8596 151.8405
" />
<path d="M160.8042 152.9286
L160.1980 152.5786
" />
<path d="M160.3261 153.0567
L160.6761 152.4505
" />
<path d="M160.3896 154.3867
L159.1426 153.6667
" />
<path d="M159.1426 153.6667
L160.6126 151.1205
" />
<circle cx="160.5011" cy="152.7536" r="0.2500" /> 
<path d="M153.8380 152.8951
L156.3842 154.3651
" />
<path d="M153.1180 154.1421
L153.8380 152.8951
" />
<path d="M154.9261 153.9505
L154.5761 154.5567
" />
<path d="M155.0542 154.4286
L154.4480 154.0786
" />
<path d="M156.3842 154.3651
L155.6642 155.6121
" />
<path d="M155.6642 155.6121
L153.1180 154.1421
" />
<circle cx="154.7511" cy="154.2536" r="0.2500" /> 
<path d="M147.6511 62.4286
L149.3511 62.4286
" />
<path d="M147.6511 63.3286
L147.6511 62.4286
" />
<path d="M148.5011 62.6536
L148.5011 63.1036
" />
<path d="M148.7261 62.8786
L148.2761 62.8786
" />
<path d="M149.3511 62.4286
L149.3511 63.3286
" />
<path d="M149.3511 63.3286
L147.6511 63.3286
" />
<circle cx="148.5011" cy="62.8786" r="0.1687" /> 
<g >
</g>
<g >
</g>
<g >
</g>
<g >
</g>
<g >
</g>
<g >
</g>
<g >
</g>
<g >
</g>
<g >
</g>
<g >
</g>
<g >
</g>
<g >
</g>
<g >
</g>
<g >
</g>
<g >
</g>
<g >
</g>
<g >
</g>
<g >
</g>
<g >
</g>
<g >
</g>
<g >
</g>
<g >
</g>
<g >
</g>
<g >
</g>
<g >
</g>
<g >
</g>
<g >
</g>
<g >
</g>
<g >
</g>
<g >
</g>
<g >
</g>
<g >
</g>
<g >
</g>
<g >
</g>
<g >
</g>
<g >
</g>
<g >
</g>
<g >
</g>
<g >
</g>
<g >
</g>
<g >
</g>
<g >
</g>
<g >
</g>
<g >
</g>
<g >
</g>
<g >
</g>
<g >
</g>
<g >
</g>
<g >
</g>
<g >
</g>
<g >
</g>
<g >
</g>
<g >
</g>
<g >
</g>
<g >
</g>
<g >
</g>
<g >
</g>
<g >
</g>
<g >
</g>
<g >
</g>
<g >
</g>
<g >
</g>
<g >
</g>
<g >
</g>
<g >
</g>
<g >
</g>
<g >
</g>
<g >
</g>
<g >
</g>
<g >
</g>
<g >
</g>
<g >
</g>
<g >
</g>
<g >
</g>
<g >
</g>
<g >
</g>
<g >
</g>
<g >
</g>
<g >
</g>
</g> 
</svg>
