M48
; DRILL file {KiCad 7.0.6-7.0.6~ubuntu22.04.1} date Mon 07 Aug 2023 18:14:45 BST
; FORMAT={-:-/ absolute / metric / decimal}
; #@! TF.CreationDate,2023-08-07T18:14:45+01:00
; #@! TF.GenerationSoftware,Kicad,Pcbnew,7.0.6-7.0.6~ubuntu22.04.1
; #@! TF.FileFunction,MixedPlating,1,2
FMAT,2
METRIC
; #@! TA.AperFunction,Plated,PTH,ViaDrill
T1C0.250
; #@! TA.AperFunction,Plated,PTH,ViaDrill
T2C1.000
; #@! TA.AperFunction,NonPlated,NPTH,ComponentDrill
T3C0.650
; #@! TA.AperFunction,NonPlated,NPTH,ComponentDrill
T4C3.050
%
G90
G05
T1
X111.751Y-52.629
X114.001Y-52.629
X114.751Y-79.504
X115.501Y-80.004
X116.126Y-80.754
X116.501Y-52.629
X120.501Y-52.629
X122.751Y-68.004
X123.251Y-52.629
X123.251Y-68.004
X126.001Y-52.629
X129.001Y-52.629
X129.751Y-64.754
X129.751Y-76.129
X130.501Y-62.754
X130.501Y-77.004
X131.251Y-58.754
X131.251Y-70.504
X131.501Y-52.629
X134.001Y-52.629
X134.251Y-60.254
X135.501Y-58.754
X135.501Y-60.254
X135.501Y-61.629
X136.501Y-52.629
X136.751Y-60.254
X138.376Y-71.254
X139.001Y-52.629
X139.501Y-56.754
X139.501Y-72.006
X140.251Y-54.754
X140.251Y-58.754
X140.251Y-75.254
X141.001Y-60.754
X141.001Y-74.379
X141.501Y-52.629
X141.751Y-62.754
X141.751Y-73.504
X144.001Y-52.629
X144.876Y-77.754
X145.876Y-63.504
X146.376Y-52.754
X146.651Y-64.066
X146.751Y-64.754
X146.751Y-72.754
X147.251Y-56.754
X147.501Y-54.254
X147.501Y-65.879
X147.626Y-68.379
X148.001Y-58.379
X148.026Y-62.129
X148.439Y-61.566
X148.501Y-55.504
X149.376Y-70.504
X149.751Y-69.629
X149.876Y-58.504
X149.978Y-65.004
X149.998Y-62.879
X149.998Y-67.004
X150.001Y-53.754
X150.126Y-61.004
X150.376Y-55.129
X150.376Y-56.379
X150.626Y-73.504
X150.876Y-62.879
X150.876Y-67.504
X151.126Y-57.629
X151.376Y-74.379
X151.626Y-60.629
X151.751Y-53.754
X151.751Y-56.129
X151.751Y-59.254
X152.126Y-54.879
X152.126Y-76.129
X152.714Y-63.629
X152.714Y-64.691
X152.751Y-56.754
X152.876Y-77.004
X153.501Y-53.754
X153.651Y-54.629
X153.651Y-58.379
X153.651Y-59.816
X153.651Y-60.754
X153.651Y-61.504
X153.714Y-56.316
X153.776Y-57.379
X153.839Y-63.629
X153.839Y-64.691
X153.839Y-65.816
X153.839Y-66.879
X153.876Y-145.879
X155.001Y-68.754
X155.001Y-75.254
X155.164Y-59.004
X155.226Y-56.879
X155.226Y-57.941
X155.289Y-55.816
X155.351Y-54.629
X155.351Y-59.879
X155.351Y-60.754
X155.351Y-61.504
X155.501Y-53.754
X155.751Y-67.754
X155.751Y-72.004
X156.251Y-58.254
X156.626Y-67.254
X156.626Y-71.129
X156.751Y-56.254
X156.901Y-60.754
X157.039Y-66.004
X157.251Y-54.754
X157.251Y-57.754
X157.626Y-53.754
X157.631Y-156.004
X158.251Y-56.254
X158.251Y-145.879
X158.751Y-54.754
X158.751Y-58.254
X158.78Y-156.004
X159.251Y-60.254
X159.626Y-53.754
X160.126Y-63.379
X160.626Y-63.379
X161.164Y-67.816
X161.751Y-53.754
X165.501Y-53.754
X166.726Y-70.254
X168.226Y-69.629
X168.876Y-53.754
X169.351Y-67.379
X169.351Y-70.629
X169.726Y-65.879
X169.851Y-68.879
X172.751Y-53.754
X174.251Y-53.754
X175.039Y-68.441
X176.501Y-53.754
X176.726Y-58.754
X179.001Y-60.629
X179.001Y-62.754
X180.501Y-53.754
X181.414Y-69.941
X182.751Y-53.754
X183.164Y-64.566
X184.619Y-87.504
X184.619Y-102.504
X185.251Y-53.754
T2
X118.501Y-87.504
X118.501Y-92.504
X118.501Y-102.504
X118.501Y-107.504
X178.501Y-87.504
X178.501Y-92.504
X178.501Y-102.504
X178.501Y-107.504
T3
X155.111Y-158.694
X160.891Y-158.694
T4
X118.501Y-52.504
X118.501Y-67.504
X118.501Y-82.504
X118.501Y-97.504
X118.501Y-112.504
X118.501Y-127.504
X118.501Y-157.504
X133.501Y-157.504
X148.501Y-52.504
X148.501Y-157.504
X178.501Y-52.504
X178.501Y-67.504
X178.501Y-82.504
X178.501Y-97.504
X178.501Y-112.504
X178.501Y-127.504
X178.501Y-142.504
X178.501Y-157.504
T0
M30
