%TF.GenerationSoftware,KiCad,Pcbnew,7.0.6-7.0.6~ubuntu22.04.1*%
%TF.CreationDate,2023-08-07T18:14:45+01:00*%
%TF.ProjectId,working,776f726b-696e-4672-9e6b-696361645f70,rev?*%
%TF.SameCoordinates,Original*%
%TF.FileFunction,Soldermask,Top*%
%TF.FilePolarity,Negative*%
%FSLAX46Y46*%
G04 Gerber Fmt 4.6, Leading zero omitted, Abs format (unit mm)*
G04 Created by KiCad (PCBNEW 7.0.6-7.0.6~ubuntu22.04.1) date 2023-08-07 18:14:45*
%MOMM*%
%LPD*%
G01*
G04 APERTURE LIST*
G04 Aperture macros list*
%AMRoundRect*
0 Rectangle with rounded corners*
0 $1 Rounding radius*
0 $2 $3 $4 $5 $6 $7 $8 $9 X,Y pos of 4 corners*
0 Add a 4 corners polygon primitive as box body*
4,1,4,$2,$3,$4,$5,$6,$7,$8,$9,$2,$3,0*
0 Add four circle primitives for the rounded corners*
1,1,$1+$1,$2,$3*
1,1,$1+$1,$4,$5*
1,1,$1+$1,$6,$7*
1,1,$1+$1,$8,$9*
0 Add four rect primitives between the rounded corners*
20,1,$1+$1,$2,$3,$4,$5,0*
20,1,$1+$1,$4,$5,$6,$7,0*
20,1,$1+$1,$6,$7,$8,$9,0*
20,1,$1+$1,$8,$9,$2,$3,0*%
G04 Aperture macros list end*
%ADD10C,0.100000*%
%ADD11C,3.050000*%
%ADD12RoundRect,0.303050X-0.263550X0.193550X-0.263550X-0.193550X0.263550X-0.193550X0.263550X0.193550X0*%
%ADD13RoundRect,0.303050X0.263550X-0.193550X0.263550X0.193550X-0.263550X0.193550X-0.263550X-0.193550X0*%
%ADD14RoundRect,0.331100X-0.658269X0.017963X-0.521992X-0.401453X0.658269X-0.017963X0.521992X0.401453X0*%
%ADD15RoundRect,0.331100X0.658269X-0.017963X0.521992X0.401453X-0.658269X0.017963X-0.521992X-0.401453X0*%
%ADD16RoundRect,0.326600X0.929331X-0.112223X-0.240469X0.904668X-0.929331X0.112223X0.240469X-0.904668X0*%
%ADD17RoundRect,0.242000X0.129600X0.159600X-0.129600X0.159600X-0.129600X-0.159600X0.129600X-0.159600X0*%
%ADD18RoundRect,0.242000X-0.129600X-0.159600X0.129600X-0.159600X0.129600X0.159600X-0.129600X0.159600X0*%
%ADD19RoundRect,0.242000X-0.159600X0.129600X-0.159600X-0.129600X0.159600X-0.129600X0.159600X0.129600X0*%
%ADD20RoundRect,0.242000X0.159600X-0.129600X0.159600X0.129600X-0.159600X0.129600X-0.159600X-0.129600X0*%
%ADD21C,0.650000*%
%ADD22RoundRect,0.101600X-0.150000X-0.725000X0.150000X-0.725000X0.150000X0.725000X-0.150000X0.725000X0*%
%ADD23RoundRect,0.101600X-0.300000X-0.725000X0.300000X-0.725000X0.300000X0.725000X-0.300000X0.725000X0*%
%ADD24RoundRect,0.601600X0.000000X-0.550000X0.000000X0.550000X0.000000X0.550000X0.000000X-0.550000X0*%
%ADD25RoundRect,0.601600X0.000000X-0.300000X0.000000X0.300000X0.000000X0.300000X0.000000X-0.300000X0*%
%ADD26RoundRect,0.331100X-0.620500X0.220500X-0.620500X-0.220500X0.620500X-0.220500X0.620500X0.220500X0*%
%ADD27RoundRect,0.331100X0.620500X-0.220500X0.620500X0.220500X-0.620500X0.220500X-0.620500X-0.220500X0*%
%ADD28RoundRect,0.221600X-0.880000X-0.480000X0.880000X-0.480000X0.880000X0.480000X-0.880000X0.480000X0*%
%ADD29RoundRect,0.101600X-1.800000X-1.800000X1.800000X-1.800000X1.800000X1.800000X-1.800000X1.800000X0*%
%ADD30RoundRect,0.242000X-0.099917X-0.179680X0.155345X-0.134671X0.099917X0.179680X-0.155345X0.134671X0*%
%ADD31RoundRect,0.242000X0.099917X0.179680X-0.155345X0.134671X-0.099917X-0.179680X0.155345X-0.134671X0*%
%ADD32RoundRect,0.101600X0.600000X-0.450000X0.600000X0.450000X-0.600000X0.450000X-0.600000X-0.450000X0*%
%ADD33RoundRect,0.161600X-0.840000X-0.240000X0.840000X-0.240000X0.840000X0.240000X-0.840000X0.240000X0*%
%ADD34RoundRect,0.326600X0.933670X0.067163X-0.408670X0.842163X-0.933670X-0.067163X0.408670X-0.842163X0*%
%ADD35RoundRect,0.101600X-0.750000X-0.450000X0.750000X-0.450000X0.750000X0.450000X-0.750000X0.450000X0*%
%ADD36RoundRect,0.326600X0.525000X-0.775000X0.525000X0.775000X-0.525000X0.775000X-0.525000X-0.775000X0*%
%ADD37RoundRect,0.242000X-0.038955X0.201868X-0.205566X0.003310X0.038955X-0.201868X0.205566X-0.003310X0*%
%ADD38RoundRect,0.242000X0.038955X-0.201868X0.205566X-0.003310X-0.038955X0.201868X-0.205566X0.003310X0*%
%ADD39RoundRect,0.101600X0.509808X-0.283013X0.009808X0.583013X-0.509808X0.283013X-0.009808X-0.583013X0*%
%ADD40RoundRect,0.331100X-0.427119X0.501209X-0.647619X0.119291X0.427119X-0.501209X0.647619X-0.119291X0*%
%ADD41RoundRect,0.331100X0.427119X-0.501209X0.647619X-0.119291X-0.427119X0.501209X-0.647619X0.119291X0*%
%ADD42RoundRect,0.131600X-0.120000X0.370000X-0.120000X-0.370000X0.120000X-0.370000X0.120000X0.370000X0*%
%ADD43RoundRect,0.131600X-0.370000X-0.120000X0.370000X-0.120000X0.370000X0.120000X-0.370000X0.120000X0*%
%ADD44RoundRect,0.476600X-1.500000X-1.500000X1.500000X-1.500000X1.500000X1.500000X-1.500000X1.500000X0*%
%ADD45RoundRect,0.242000X-0.067198X-0.194301X0.176371X-0.105649X0.067198X0.194301X-0.176371X0.105649X0*%
%ADD46RoundRect,0.242000X0.067198X0.194301X-0.176371X0.105649X-0.067198X-0.194301X0.176371X-0.105649X0*%
%ADD47RoundRect,0.193040X-0.093677X-0.697422X0.326560X-0.623323X0.093677X0.697422X-0.326560X0.623323X0*%
%ADD48RoundRect,0.326600X-0.775000X-0.525000X0.775000X-0.525000X0.775000X0.525000X-0.775000X0.525000X0*%
%ADD49RoundRect,0.101600X1.150000X-1.150000X1.150000X1.150000X-1.150000X1.150000X-1.150000X-1.150000X0*%
%ADD50RoundRect,0.101600X-0.452918X0.367240X-0.110898X-0.572452X0.452918X-0.367240X0.110898X0.572452X0*%
%ADD51RoundRect,0.331100X0.220500X0.620500X-0.220500X0.620500X-0.220500X-0.620500X0.220500X-0.620500X0*%
%ADD52RoundRect,0.331100X-0.220500X-0.620500X0.220500X-0.620500X0.220500X0.620500X-0.220500X0.620500X0*%
%ADD53RoundRect,0.326600X0.758404X-0.548701X0.228273X0.907822X-0.758404X0.548701X-0.228273X-0.907822X0*%
%ADD54RoundRect,0.326600X0.911668X0.212395X-0.535382X0.767865X-0.911668X-0.212395X0.535382X-0.767865X0*%
%ADD55RoundRect,0.234950X0.311150X0.749300X-0.311150X0.749300X-0.311150X-0.749300X0.311150X-0.749300X0*%
%ADD56RoundRect,0.387350X-1.365250X0.666750X-1.365250X-0.666750X1.365250X-0.666750X1.365250X0.666750X0*%
%ADD57RoundRect,0.101600X-1.550000X-0.500000X1.550000X-0.500000X1.550000X0.500000X-1.550000X0.500000X0*%
%ADD58RoundRect,0.326600X0.842163X-0.408670X0.067163X0.933670X-0.842163X0.408670X-0.067163X-0.933670X0*%
%ADD59RoundRect,0.207850X0.368750X0.318750X-0.368750X0.318750X-0.368750X-0.318750X0.368750X-0.318750X0*%
%ADD60RoundRect,0.101600X0.300000X-0.500000X0.300000X0.500000X-0.300000X0.500000X-0.300000X-0.500000X0*%
%ADD61RoundRect,0.101600X-0.775000X-0.300000X0.775000X-0.300000X0.775000X0.300000X-0.775000X0.300000X0*%
%ADD62RoundRect,0.101600X-0.900000X-0.600000X0.900000X-0.600000X0.900000X0.600000X-0.900000X0.600000X0*%
%ADD63RoundRect,0.303050X0.131466X-0.299394X0.325016X0.035844X-0.131466X0.299394X-0.325016X-0.035844X0*%
%ADD64RoundRect,0.303050X-0.131466X0.299394X-0.325016X-0.035844X0.131466X-0.299394X0.325016X0.035844X0*%
%ADD65RoundRect,0.303050X0.299394X0.131466X-0.035844X0.325016X-0.299394X-0.131466X0.035844X-0.325016X0*%
%ADD66RoundRect,0.303050X-0.299394X-0.131466X0.035844X-0.325016X0.299394X0.131466X-0.035844X0.325016X0*%
G04 APERTURE END LIST*
D10*
X179251100Y-131503600D02*
X177251100Y-131503600D01*
X177251100Y-138503600D02*
X179251100Y-138503600D01*
X176251100Y-132503600D02*
X176251100Y-137503600D01*
X176251100Y-137503600D02*
G75*
G03*
X177251100Y-138503600I1000000J0D01*
G01*
X179251100Y-138503600D02*
G75*
G03*
X180251100Y-137503600I0J1000000D01*
G01*
X179251100Y-136503600D02*
G75*
G03*
X179251100Y-136503600I-1000000J0D01*
G01*
X180251100Y-132503600D02*
G75*
G03*
X179251100Y-131503600I-1000000J0D01*
G01*
X177251100Y-131503600D02*
G75*
G03*
X176251100Y-132503600I0J-1000000D01*
G01*
X179251100Y-133503600D02*
G75*
G03*
X179251100Y-133503600I-1000000J0D01*
G01*
X180251100Y-137503600D02*
X180251100Y-132503600D01*
%TO.C,SJ3*%
G36*
X170975700Y-68613200D02*
G01*
X170715260Y-68613200D01*
X170714389Y-68626490D01*
X170613442Y-68613200D01*
X170518500Y-68613200D01*
X170518500Y-68600700D01*
X170462098Y-68593275D01*
X170314863Y-68532288D01*
X170188429Y-68435272D01*
X170087253Y-68303417D01*
X170032807Y-68100221D01*
X169997211Y-68097889D01*
X170030424Y-67845598D01*
X170091412Y-67698362D01*
X170188427Y-67571928D01*
X170320283Y-67470752D01*
X170606724Y-67394000D01*
X170975700Y-67394000D01*
X170975700Y-68613200D01*
G37*
G36*
X171388758Y-67394000D02*
G01*
X171483700Y-67394000D01*
X171483700Y-67406500D01*
X171540102Y-67413925D01*
X171687337Y-67474912D01*
X171813771Y-67571928D01*
X171910787Y-67698362D01*
X171971774Y-67845597D01*
X171979946Y-67907670D01*
X172004989Y-67909311D01*
X171992576Y-68003598D01*
X172004991Y-68097887D01*
X171979947Y-68099528D01*
X171971776Y-68161602D01*
X171910788Y-68308838D01*
X171813773Y-68435272D01*
X171687338Y-68532288D01*
X171540103Y-68593276D01*
X171395361Y-68612331D01*
X171382100Y-68613200D01*
X171026500Y-68613200D01*
X171026500Y-67394000D01*
X171286940Y-67394000D01*
X171287811Y-67380710D01*
X171388758Y-67394000D01*
G37*
%TO.C,SJ4*%
G36*
X171388758Y-68894000D02*
G01*
X171483700Y-68894000D01*
X171483700Y-68906500D01*
X171540102Y-68913925D01*
X171687337Y-68974912D01*
X171813771Y-69071928D01*
X171914947Y-69203783D01*
X171969393Y-69406979D01*
X172004989Y-69409311D01*
X171971776Y-69661602D01*
X171910788Y-69808838D01*
X171813773Y-69935272D01*
X171681917Y-70036448D01*
X171395476Y-70113200D01*
X171026500Y-70113200D01*
X171026500Y-68894000D01*
X171286940Y-68894000D01*
X171287811Y-68880710D01*
X171388758Y-68894000D01*
G37*
G36*
X170975700Y-70113200D02*
G01*
X170715260Y-70113200D01*
X170714389Y-70126490D01*
X170613442Y-70113200D01*
X170518500Y-70113200D01*
X170518500Y-70100700D01*
X170462098Y-70093275D01*
X170314863Y-70032288D01*
X170188429Y-69935272D01*
X170091413Y-69808838D01*
X170030426Y-69661603D01*
X170022254Y-69599530D01*
X169997211Y-69597889D01*
X170009624Y-69503602D01*
X169997209Y-69409313D01*
X170022253Y-69407672D01*
X170030424Y-69345598D01*
X170091412Y-69198362D01*
X170188427Y-69071928D01*
X170314862Y-68974912D01*
X170462097Y-68913924D01*
X170606839Y-68894869D01*
X170620100Y-68894000D01*
X170975700Y-68894000D01*
X170975700Y-70113200D01*
G37*
%TO.C,SJ1*%
G36*
X170975700Y-65613200D02*
G01*
X170715260Y-65613200D01*
X170714389Y-65626490D01*
X170613442Y-65613200D01*
X170518500Y-65613200D01*
X170518500Y-65600700D01*
X170462098Y-65593275D01*
X170314863Y-65532288D01*
X170188429Y-65435272D01*
X170087253Y-65303417D01*
X170032807Y-65100221D01*
X169997211Y-65097889D01*
X170030424Y-64845598D01*
X170091412Y-64698362D01*
X170188427Y-64571928D01*
X170320283Y-64470752D01*
X170606724Y-64394000D01*
X170975700Y-64394000D01*
X170975700Y-65613200D01*
G37*
G36*
X171388758Y-64394000D02*
G01*
X171483700Y-64394000D01*
X171483700Y-64406500D01*
X171540102Y-64413925D01*
X171687337Y-64474912D01*
X171813771Y-64571928D01*
X171910787Y-64698362D01*
X171971774Y-64845597D01*
X171979946Y-64907670D01*
X172004989Y-64909311D01*
X171992576Y-65003598D01*
X172004991Y-65097887D01*
X171979947Y-65099528D01*
X171971776Y-65161602D01*
X171910788Y-65308838D01*
X171813773Y-65435272D01*
X171687338Y-65532288D01*
X171540103Y-65593276D01*
X171395361Y-65612331D01*
X171382100Y-65613200D01*
X171026500Y-65613200D01*
X171026500Y-64394000D01*
X171286940Y-64394000D01*
X171287811Y-64380710D01*
X171388758Y-64394000D01*
G37*
%TO.C,SJ2*%
G36*
X170975700Y-67113200D02*
G01*
X170715260Y-67113200D01*
X170714389Y-67126490D01*
X170613442Y-67113200D01*
X170518500Y-67113200D01*
X170518500Y-67100700D01*
X170462098Y-67093275D01*
X170314863Y-67032288D01*
X170188429Y-66935272D01*
X170087253Y-66803417D01*
X170032807Y-66600221D01*
X169997211Y-66597889D01*
X170030424Y-66345598D01*
X170091412Y-66198362D01*
X170188427Y-66071928D01*
X170320283Y-65970752D01*
X170606724Y-65894000D01*
X170975700Y-65894000D01*
X170975700Y-67113200D01*
G37*
G36*
X171388758Y-65894000D02*
G01*
X171483700Y-65894000D01*
X171483700Y-65906500D01*
X171540102Y-65913925D01*
X171687337Y-65974912D01*
X171813771Y-66071928D01*
X171910787Y-66198362D01*
X171971774Y-66345597D01*
X171979946Y-66407670D01*
X172004989Y-66409311D01*
X171992576Y-66503598D01*
X172004991Y-66597887D01*
X171979947Y-66599528D01*
X171971776Y-66661602D01*
X171910788Y-66808838D01*
X171813773Y-66935272D01*
X171687338Y-67032288D01*
X171540103Y-67093276D01*
X171395361Y-67112331D01*
X171382100Y-67113200D01*
X171026500Y-67113200D01*
X171026500Y-65894000D01*
X171286940Y-65894000D01*
X171287811Y-65880710D01*
X171388758Y-65894000D01*
G37*
%TD*%
D11*
%TO.C,@HOLE8*%
X118501100Y-52503600D03*
%TD*%
D12*
%TO.C,R1*%
X164251100Y-68573600D03*
D13*
X164251100Y-66933600D03*
%TD*%
D14*
%TO.C,C3*%
X167699175Y-149382632D03*
D15*
X166803025Y-146624568D03*
%TD*%
D11*
%TO.C,@HOLE4*%
X178501100Y-142503600D03*
%TD*%
D16*
%TO.C,SW4*%
X153743806Y-136025933D03*
X147706129Y-130777460D03*
X156696071Y-132629740D03*
X150658394Y-127381267D03*
%TD*%
D17*
%TO.C,C5*%
X154321100Y-140253600D03*
D18*
X155181100Y-140253600D03*
%TD*%
D11*
%TO.C,@HOLE6*%
X178501100Y-67503600D03*
%TD*%
D19*
%TO.C,C19*%
X125376100Y-68808600D03*
D20*
X125376100Y-67948600D03*
%TD*%
D11*
%TO.C,@HOLE2*%
X148501100Y-157503600D03*
%TD*%
D21*
%TO.C,CON1*%
X155111100Y-158693600D03*
X160891100Y-158693600D03*
D22*
X156751100Y-157248600D03*
X159751100Y-157248600D03*
X158251100Y-157248600D03*
X157251100Y-157248600D03*
X157751100Y-157248600D03*
X158751100Y-157248600D03*
D23*
X154751100Y-157248600D03*
X161251100Y-157248600D03*
D24*
X162321100Y-158163600D03*
X153681100Y-158163600D03*
D25*
X153681100Y-162343600D03*
X162321100Y-162343600D03*
D22*
X159251100Y-157248600D03*
X156251100Y-157248600D03*
D23*
X155551100Y-157248600D03*
X160451100Y-157248600D03*
%TD*%
D26*
%TO.C,C10*%
X160376100Y-64203600D03*
D27*
X160376100Y-61303600D03*
%TD*%
D11*
%TO.C,@HOLE17*%
X148501100Y-52503600D03*
%TD*%
D28*
%TO.C,MOD1*%
X128101100Y-56703600D03*
X128101100Y-58703600D03*
D29*
X135501100Y-60203600D03*
D28*
X143901100Y-68703600D03*
X143901100Y-62703600D03*
X143901100Y-64703600D03*
X143901100Y-60703600D03*
X143901100Y-58703600D03*
X128101100Y-64703600D03*
X128101100Y-66703600D03*
X128101100Y-62703600D03*
X143901100Y-66703600D03*
X128101100Y-60703600D03*
X128101100Y-54703600D03*
X143901100Y-56703600D03*
X143901100Y-54703600D03*
X128101100Y-68703600D03*
%TD*%
D30*
%TO.C,R5*%
X158924567Y-138428931D03*
D31*
X158077633Y-138578269D03*
%TD*%
D32*
%TO.C,D1*%
X164726100Y-64066100D03*
X168276100Y-64066100D03*
%TD*%
D33*
%TO.C,ANT1*%
X154501100Y-51353600D03*
X154501100Y-48153600D03*
%TD*%
D11*
%TO.C,@HOLE10*%
X118501100Y-127503600D03*
%TD*%
D34*
%TO.C,SW3*%
X148460202Y-143572157D03*
X141531998Y-139572157D03*
X150710202Y-139675043D03*
X143781998Y-135675043D03*
%TD*%
D19*
%TO.C,C7*%
X160501100Y-67058600D03*
D20*
X160501100Y-66198600D03*
%TD*%
D35*
%TO.C,LED1*%
X119551100Y-58353600D03*
X119551100Y-61653600D03*
X124451100Y-61653600D03*
X124451100Y-58353600D03*
%TD*%
D17*
%TO.C,C17*%
X148071100Y-67503600D03*
D18*
X148931100Y-67503600D03*
%TD*%
%TO.C,C15*%
X158431100Y-64253600D03*
D17*
X157571100Y-64253600D03*
%TD*%
D11*
%TO.C,@HOLE15*%
X118501100Y-97503600D03*
%TD*%
D36*
%TO.C,SW1*%
X138751100Y-162753600D03*
X138751100Y-154753600D03*
X143251100Y-162753600D03*
X143251100Y-154753600D03*
%TD*%
D11*
%TO.C,@HOLE13*%
X178501100Y-112503600D03*
%TD*%
D37*
%TO.C,R4*%
X165099701Y-140082999D03*
D38*
X165652499Y-139424201D03*
%TD*%
D11*
%TO.C,@HOLE1*%
X133501100Y-157503600D03*
%TD*%
D18*
%TO.C,C14*%
X158431100Y-63128600D03*
D17*
X157571100Y-63128600D03*
%TD*%
D39*
%TO.C,Q1*%
X162149046Y-138520330D03*
X163803154Y-137565330D03*
X161776100Y-135964370D03*
%TD*%
D11*
%TO.C,@HOLE14*%
X118501100Y-82503600D03*
%TD*%
D40*
%TO.C,C1*%
X164026100Y-154009337D03*
D41*
X165476100Y-151497863D03*
%TD*%
D17*
%TO.C,C9*%
X153641100Y-59128600D03*
D18*
X154501100Y-59128600D03*
%TD*%
D42*
%TO.C,IC3*%
X155001100Y-62753600D03*
X154501100Y-62753600D03*
X154001100Y-62753600D03*
X153501100Y-62753600D03*
X153001100Y-62753600D03*
X152501100Y-62753600D03*
X152001100Y-62753600D03*
X151501100Y-62753600D03*
D43*
X150751100Y-63503600D03*
X150751100Y-64003600D03*
X150751100Y-64503600D03*
X150751100Y-65003600D03*
X150751100Y-65503600D03*
X150751100Y-66003600D03*
X150751100Y-66503600D03*
X150751100Y-67003600D03*
D42*
X151501100Y-67753600D03*
X152001100Y-67753600D03*
X152501100Y-67753600D03*
X153001100Y-67753600D03*
X153501100Y-67753600D03*
X154001100Y-67753600D03*
X154501100Y-67753600D03*
X155001100Y-67753600D03*
D43*
X155751100Y-67003600D03*
X155751100Y-66503600D03*
X155751100Y-66003600D03*
X155751100Y-65503600D03*
X155751100Y-65003600D03*
X155751100Y-64503600D03*
X155751100Y-64003600D03*
X155751100Y-63503600D03*
D44*
X153251100Y-65253600D03*
%TD*%
D45*
%TO.C,C4*%
X162780168Y-150231531D03*
D46*
X161972032Y-150525669D03*
%TD*%
D31*
%TO.C,C6*%
X155702633Y-151203269D03*
D30*
X156549567Y-151053931D03*
%TD*%
D47*
%TO.C,IC1*%
X153358803Y-148527019D03*
X154609508Y-148306486D03*
X155860214Y-148085953D03*
X157110920Y-147865419D03*
X158361626Y-147644886D03*
X159612332Y-147424353D03*
X160863038Y-147203820D03*
X162113743Y-146983287D03*
X161165451Y-141605252D03*
X159914745Y-141825785D03*
X158664039Y-142046318D03*
X157413333Y-142266851D03*
X156162627Y-142487384D03*
X154911922Y-142707918D03*
X153661216Y-142928451D03*
X152410510Y-143148984D03*
%TD*%
D48*
%TO.C,SW7*%
X175251100Y-118253600D03*
X183251100Y-118253600D03*
X175251100Y-122753600D03*
X183251100Y-122753600D03*
%TD*%
D49*
%TO.C,P1*%
X163701100Y-61803600D03*
X170801100Y-61803600D03*
X163701100Y-54703600D03*
X170801100Y-54703600D03*
%TD*%
D50*
%TO.C,Q2*%
X165738082Y-131549340D03*
X163943269Y-132202598D03*
X165661524Y-134131231D03*
%TD*%
D51*
%TO.C,C2*%
X169301100Y-152753600D03*
D52*
X172201100Y-152753600D03*
%TD*%
D11*
%TO.C,@HOLE5*%
X178501100Y-127503600D03*
%TD*%
D20*
%TO.C,R7*%
X150876100Y-60073600D03*
D19*
X150876100Y-60933600D03*
%TD*%
D17*
%TO.C,R9*%
X148071100Y-65253600D03*
D18*
X148931100Y-65253600D03*
%TD*%
%TO.C,C20*%
X158431100Y-60878600D03*
D17*
X157571100Y-60878600D03*
%TD*%
D11*
%TO.C,@HOLE9*%
X118501100Y-67503600D03*
%TD*%
D53*
%TO.C,SW6*%
X168604872Y-126331916D03*
X165868711Y-118814375D03*
X172833489Y-124792825D03*
X170097328Y-117275284D03*
%TD*%
D11*
%TO.C,@HOLE0*%
X118501100Y-157503600D03*
%TD*%
D54*
%TO.C,SW2*%
X145229094Y-152387628D03*
X137760450Y-149520684D03*
X146841750Y-148186516D03*
X139373106Y-145319572D03*
%TD*%
D17*
%TO.C,R10*%
X148071100Y-64128600D03*
D18*
X148931100Y-64128600D03*
%TD*%
D20*
%TO.C,L1*%
X154501100Y-56823600D03*
D19*
X154501100Y-57683600D03*
%TD*%
D17*
%TO.C,R6*%
X157571100Y-62003600D03*
D18*
X158431100Y-62003600D03*
%TD*%
D11*
%TO.C,@HOLE3*%
X178501100Y-157503600D03*
%TD*%
%TO.C,@HOLE7*%
X178501100Y-52503600D03*
%TD*%
D55*
%TO.C,IC2*%
X171812500Y-155885750D03*
X169501100Y-155885750D03*
X167189700Y-155885750D03*
D56*
X169501100Y-162127800D03*
%TD*%
D20*
%TO.C,C12*%
X156251100Y-60073600D03*
D19*
X156251100Y-60933600D03*
%TD*%
D18*
%TO.C,C11*%
X158556100Y-68628600D03*
D17*
X157696100Y-68628600D03*
%TD*%
D26*
%TO.C,C18*%
X123001100Y-68828600D03*
D27*
X123001100Y-65928600D03*
%TD*%
D57*
%TO.C,J1*%
X175926100Y-57463600D03*
X181326100Y-57463600D03*
X175926100Y-60003600D03*
X181326100Y-60003600D03*
X175926100Y-62543600D03*
X181326100Y-62543600D03*
%TD*%
D11*
%TO.C,@HOLE16*%
X118501100Y-112503600D03*
%TD*%
D17*
%TO.C,C8*%
X153641100Y-55378600D03*
D18*
X154501100Y-55378600D03*
%TD*%
D58*
%TO.C,SW5*%
X160182543Y-130212702D03*
X156182543Y-123284498D03*
X164079657Y-127962702D03*
X160079657Y-121034498D03*
%TD*%
D17*
%TO.C,R11*%
X157571100Y-59753600D03*
D18*
X158431100Y-59753600D03*
%TD*%
D11*
%TO.C,@HOLE11*%
X178501100Y-82503600D03*
%TD*%
D17*
%TO.C,R8*%
X148071100Y-66378600D03*
D18*
X148931100Y-66378600D03*
%TD*%
D11*
%TO.C,@HOLE12*%
X178501100Y-97503600D03*
%TD*%
D20*
%TO.C,C13*%
X152251100Y-60073600D03*
D19*
X152251100Y-60933600D03*
%TD*%
D59*
%TO.C,XT1*%
X159101100Y-66178600D03*
X157651100Y-66178600D03*
X157651100Y-67328600D03*
X159101100Y-67328600D03*
%TD*%
D60*
%TO.C,Q3*%
X166296100Y-68578600D03*
X168206100Y-68578600D03*
X167251100Y-66178600D03*
%TD*%
D61*
%TO.C,CON2*%
X116015100Y-58503600D03*
X116015100Y-59503600D03*
X116015100Y-60503600D03*
X116015100Y-61503600D03*
D62*
X112115100Y-57203600D03*
X112115100Y-62803600D03*
%TD*%
D63*
%TO.C,R2*%
X160911100Y-152043459D03*
D64*
X160091100Y-153463741D03*
%TD*%
D65*
%TO.C,R3*%
X154040959Y-153843600D03*
D66*
X155461241Y-154663600D03*
%TD*%
D17*
%TO.C,C16*%
X148071100Y-62878600D03*
D18*
X148931100Y-62878600D03*
%TD*%
M02*
