%TF.GenerationSoftware,KiCad,Pcbnew,7.0.6-7.0.6~ubuntu22.04.1*%
%TF.CreationDate,2023-08-07T18:14:45+01:00*%
%TF.ProjectId,working,776f726b-696e-4672-9e6b-696361645f70,rev?*%
%TF.SameCoordinates,Original*%
%TF.FileFunction,AssemblyDrawing,Top*%
%FSLAX46Y46*%
G04 Gerber Fmt 4.6, Leading zero omitted, Abs format (unit mm)*
G04 Created by KiCad (PCBNEW 7.0.6-7.0.6~ubuntu22.04.1) date 2023-08-07 18:14:45*
%MOMM*%
%LPD*%
G01*
G04 APERTURE LIST*
%ADD10C,0.037389*%
%ADD11C,0.044867*%
%ADD12C,0.093472*%
%ADD13C,0.071628*%
%ADD14C,0.074778*%
%ADD15C,0.081280*%
%ADD16C,0.120000*%
%ADD17C,0.000550*%
%ADD18C,0.025000*%
%ADD19C,0.000650*%
%ADD20C,0.050000*%
%ADD21C,0.100000*%
%ADD22C,0.152400*%
%ADD23C,0.200000*%
G04 APERTURE END LIST*
D10*
X165311078Y-69163361D02*
X165288668Y-69140951D01*
X165288668Y-69140951D02*
X165266258Y-69096131D01*
X165266258Y-69096131D02*
X165266258Y-68984081D01*
X165266258Y-68984081D02*
X165288668Y-68939261D01*
X165288668Y-68939261D02*
X165311078Y-68916851D01*
X165311078Y-68916851D02*
X165355898Y-68894441D01*
X165355898Y-68894441D02*
X165400718Y-68894441D01*
X165400718Y-68894441D02*
X165467948Y-68916851D01*
X165467948Y-68916851D02*
X165736869Y-69185771D01*
X165736869Y-69185771D02*
X165736869Y-68894441D01*
X165311078Y-68715160D02*
X165288668Y-68692750D01*
X165288668Y-68692750D02*
X165266258Y-68647930D01*
X165266258Y-68647930D02*
X165266258Y-68535880D01*
X165266258Y-68535880D02*
X165288668Y-68491060D01*
X165288668Y-68491060D02*
X165311078Y-68468650D01*
X165311078Y-68468650D02*
X165355898Y-68446240D01*
X165355898Y-68446240D02*
X165400718Y-68446240D01*
X165400718Y-68446240D02*
X165467948Y-68468650D01*
X165467948Y-68468650D02*
X165736869Y-68737570D01*
X165736869Y-68737570D02*
X165736869Y-68446240D01*
X165266258Y-68154909D02*
X165266258Y-68110089D01*
X165266258Y-68110089D02*
X165288668Y-68065269D01*
X165288668Y-68065269D02*
X165311078Y-68042859D01*
X165311078Y-68042859D02*
X165355898Y-68020449D01*
X165355898Y-68020449D02*
X165445538Y-67998039D01*
X165445538Y-67998039D02*
X165557588Y-67998039D01*
X165557588Y-67998039D02*
X165647228Y-68020449D01*
X165647228Y-68020449D02*
X165692048Y-68042859D01*
X165692048Y-68042859D02*
X165714459Y-68065269D01*
X165714459Y-68065269D02*
X165736869Y-68110089D01*
X165736869Y-68110089D02*
X165736869Y-68154909D01*
X165736869Y-68154909D02*
X165714459Y-68199729D01*
X165714459Y-68199729D02*
X165692048Y-68222139D01*
X165692048Y-68222139D02*
X165647228Y-68244549D01*
X165647228Y-68244549D02*
X165557588Y-68266959D01*
X165557588Y-68266959D02*
X165445538Y-68266959D01*
X165445538Y-68266959D02*
X165355898Y-68244549D01*
X165355898Y-68244549D02*
X165311078Y-68222139D01*
X165311078Y-68222139D02*
X165288668Y-68199729D01*
X165288668Y-68199729D02*
X165266258Y-68154909D01*
X170000547Y-149639660D02*
X169903595Y-149938045D01*
X169949381Y-149434529D02*
X169738939Y-149719602D01*
X169738939Y-149719602D02*
X170016011Y-149809628D01*
X170240841Y-149552794D02*
X170539226Y-149649745D01*
X170539226Y-149649745D02*
X170201981Y-150034997D01*
X170853076Y-149916664D02*
X170756124Y-150215049D01*
X170661257Y-149854338D02*
X170585081Y-150088783D01*
X170585081Y-150088783D02*
X170592544Y-150138335D01*
X170592544Y-150138335D02*
X170628245Y-150173498D01*
X170628245Y-150173498D02*
X170692185Y-150194274D01*
X170692185Y-150194274D02*
X170741736Y-150186811D01*
X170741736Y-150186811D02*
X170769975Y-150172422D01*
X154245258Y-141485369D02*
X153976338Y-141485369D01*
X154110798Y-141485369D02*
X154110798Y-141014758D01*
X154110798Y-141014758D02*
X154065978Y-141081988D01*
X154065978Y-141081988D02*
X154021158Y-141126808D01*
X154021158Y-141126808D02*
X153976338Y-141149218D01*
X154536589Y-141014758D02*
X154581409Y-141014758D01*
X154581409Y-141014758D02*
X154626229Y-141037168D01*
X154626229Y-141037168D02*
X154648639Y-141059578D01*
X154648639Y-141059578D02*
X154671049Y-141104398D01*
X154671049Y-141104398D02*
X154693459Y-141194038D01*
X154693459Y-141194038D02*
X154693459Y-141306088D01*
X154693459Y-141306088D02*
X154671049Y-141395728D01*
X154671049Y-141395728D02*
X154648639Y-141440548D01*
X154648639Y-141440548D02*
X154626229Y-141462959D01*
X154626229Y-141462959D02*
X154581409Y-141485369D01*
X154581409Y-141485369D02*
X154536589Y-141485369D01*
X154536589Y-141485369D02*
X154491769Y-141462959D01*
X154491769Y-141462959D02*
X154469359Y-141440548D01*
X154469359Y-141440548D02*
X154446949Y-141395728D01*
X154446949Y-141395728D02*
X154424539Y-141306088D01*
X154424539Y-141306088D02*
X154424539Y-141194038D01*
X154424539Y-141194038D02*
X154446949Y-141104398D01*
X154446949Y-141104398D02*
X154469359Y-141059578D01*
X154469359Y-141059578D02*
X154491769Y-141037168D01*
X154491769Y-141037168D02*
X154536589Y-141014758D01*
X154984790Y-141014758D02*
X155029610Y-141014758D01*
X155029610Y-141014758D02*
X155074430Y-141037168D01*
X155074430Y-141037168D02*
X155096840Y-141059578D01*
X155096840Y-141059578D02*
X155119250Y-141104398D01*
X155119250Y-141104398D02*
X155141660Y-141194038D01*
X155141660Y-141194038D02*
X155141660Y-141306088D01*
X155141660Y-141306088D02*
X155119250Y-141395728D01*
X155119250Y-141395728D02*
X155096840Y-141440548D01*
X155096840Y-141440548D02*
X155074430Y-141462959D01*
X155074430Y-141462959D02*
X155029610Y-141485369D01*
X155029610Y-141485369D02*
X154984790Y-141485369D01*
X154984790Y-141485369D02*
X154939970Y-141462959D01*
X154939970Y-141462959D02*
X154917560Y-141440548D01*
X154917560Y-141440548D02*
X154895150Y-141395728D01*
X154895150Y-141395728D02*
X154872740Y-141306088D01*
X154872740Y-141306088D02*
X154872740Y-141194038D01*
X154872740Y-141194038D02*
X154895150Y-141104398D01*
X154895150Y-141104398D02*
X154917560Y-141059578D01*
X154917560Y-141059578D02*
X154939970Y-141037168D01*
X154939970Y-141037168D02*
X154984790Y-141014758D01*
X155343351Y-141171628D02*
X155343351Y-141485369D01*
X155343351Y-141216448D02*
X155365761Y-141194038D01*
X155365761Y-141194038D02*
X155410581Y-141171628D01*
X155410581Y-141171628D02*
X155477811Y-141171628D01*
X155477811Y-141171628D02*
X155522631Y-141194038D01*
X155522631Y-141194038D02*
X155545041Y-141238858D01*
X155545041Y-141238858D02*
X155545041Y-141485369D01*
X125611869Y-66269441D02*
X125611869Y-66538361D01*
X125611869Y-66403901D02*
X125141258Y-66403901D01*
X125141258Y-66403901D02*
X125208488Y-66448721D01*
X125208488Y-66448721D02*
X125253308Y-66493541D01*
X125253308Y-66493541D02*
X125275718Y-66538361D01*
X125141258Y-65978110D02*
X125141258Y-65933290D01*
X125141258Y-65933290D02*
X125163668Y-65888470D01*
X125163668Y-65888470D02*
X125186078Y-65866060D01*
X125186078Y-65866060D02*
X125230898Y-65843650D01*
X125230898Y-65843650D02*
X125320538Y-65821240D01*
X125320538Y-65821240D02*
X125432588Y-65821240D01*
X125432588Y-65821240D02*
X125522228Y-65843650D01*
X125522228Y-65843650D02*
X125567048Y-65866060D01*
X125567048Y-65866060D02*
X125589459Y-65888470D01*
X125589459Y-65888470D02*
X125611869Y-65933290D01*
X125611869Y-65933290D02*
X125611869Y-65978110D01*
X125611869Y-65978110D02*
X125589459Y-66022930D01*
X125589459Y-66022930D02*
X125567048Y-66045340D01*
X125567048Y-66045340D02*
X125522228Y-66067750D01*
X125522228Y-66067750D02*
X125432588Y-66090160D01*
X125432588Y-66090160D02*
X125320538Y-66090160D01*
X125320538Y-66090160D02*
X125230898Y-66067750D01*
X125230898Y-66067750D02*
X125186078Y-66045340D01*
X125186078Y-66045340D02*
X125163668Y-66022930D01*
X125163668Y-66022930D02*
X125141258Y-65978110D01*
X125141258Y-65529909D02*
X125141258Y-65485089D01*
X125141258Y-65485089D02*
X125163668Y-65440269D01*
X125163668Y-65440269D02*
X125186078Y-65417859D01*
X125186078Y-65417859D02*
X125230898Y-65395449D01*
X125230898Y-65395449D02*
X125320538Y-65373039D01*
X125320538Y-65373039D02*
X125432588Y-65373039D01*
X125432588Y-65373039D02*
X125522228Y-65395449D01*
X125522228Y-65395449D02*
X125567048Y-65417859D01*
X125567048Y-65417859D02*
X125589459Y-65440269D01*
X125589459Y-65440269D02*
X125611869Y-65485089D01*
X125611869Y-65485089D02*
X125611869Y-65529909D01*
X125611869Y-65529909D02*
X125589459Y-65574729D01*
X125589459Y-65574729D02*
X125567048Y-65597139D01*
X125567048Y-65597139D02*
X125522228Y-65619549D01*
X125522228Y-65619549D02*
X125432588Y-65641959D01*
X125432588Y-65641959D02*
X125320538Y-65641959D01*
X125320538Y-65641959D02*
X125230898Y-65619549D01*
X125230898Y-65619549D02*
X125186078Y-65597139D01*
X125186078Y-65597139D02*
X125163668Y-65574729D01*
X125163668Y-65574729D02*
X125141258Y-65529909D01*
X125298128Y-65171348D02*
X125611869Y-65171348D01*
X125342948Y-65171348D02*
X125320538Y-65148938D01*
X125320538Y-65148938D02*
X125298128Y-65104118D01*
X125298128Y-65104118D02*
X125298128Y-65036888D01*
X125298128Y-65036888D02*
X125320538Y-64992068D01*
X125320538Y-64992068D02*
X125365358Y-64969658D01*
X125365358Y-64969658D02*
X125611869Y-64969658D01*
X162056128Y-64701261D02*
X162369869Y-64701261D01*
X161876848Y-64813311D02*
X162212998Y-64925361D01*
X162212998Y-64925361D02*
X162212998Y-64634031D01*
X161899258Y-64499570D02*
X161899258Y-64185830D01*
X161899258Y-64185830D02*
X162369869Y-64387520D01*
X162056128Y-63804859D02*
X162369869Y-63804859D01*
X162056128Y-64006549D02*
X162302638Y-64006549D01*
X162302638Y-64006549D02*
X162347459Y-63984139D01*
X162347459Y-63984139D02*
X162369869Y-63939319D01*
X162369869Y-63939319D02*
X162369869Y-63872089D01*
X162369869Y-63872089D02*
X162347459Y-63827269D01*
X162347459Y-63827269D02*
X162325048Y-63804859D01*
X159479184Y-137008793D02*
X159432487Y-137273628D01*
X159455836Y-137141210D02*
X158992374Y-137059489D01*
X158992374Y-137059489D02*
X159050800Y-137115303D01*
X159050800Y-137115303D02*
X159087156Y-137167225D01*
X159087156Y-137167225D02*
X159101443Y-137215256D01*
X159090994Y-136758298D02*
X159072816Y-136732337D01*
X159072816Y-136732337D02*
X159058529Y-136684306D01*
X159058529Y-136684306D02*
X159077986Y-136573958D01*
X159077986Y-136573958D02*
X159107839Y-136533711D01*
X159107839Y-136533711D02*
X159133800Y-136515533D01*
X159133800Y-136515533D02*
X159181831Y-136501246D01*
X159181831Y-136501246D02*
X159225970Y-136509029D01*
X159225970Y-136509029D02*
X159288287Y-136542773D01*
X159288287Y-136542773D02*
X159506425Y-136854306D01*
X159506425Y-136854306D02*
X159557014Y-136567401D01*
X159592037Y-136368775D02*
X159128575Y-136287054D01*
X159423263Y-136293504D02*
X159623169Y-136192218D01*
X159314194Y-136137737D02*
X159459619Y-136345426D01*
X159763261Y-135397712D02*
X159716564Y-135662547D01*
X159739913Y-135530130D02*
X159276451Y-135448409D01*
X159276451Y-135448409D02*
X159334877Y-135504223D01*
X159334877Y-135504223D02*
X159371233Y-135556145D01*
X159371233Y-135556145D02*
X159385520Y-135604175D01*
X159794393Y-135221155D02*
X159393195Y-134786321D01*
X159342606Y-135073226D02*
X159372459Y-135032978D01*
X159372459Y-135032978D02*
X159420489Y-135018692D01*
X159420489Y-135018692D02*
X159460737Y-135048544D01*
X159460737Y-135048544D02*
X159475024Y-135096575D01*
X159475024Y-135096575D02*
X159445171Y-135136822D01*
X159445171Y-135136822D02*
X159397140Y-135151109D01*
X159397140Y-135151109D02*
X159356893Y-135121257D01*
X159356893Y-135121257D02*
X159342606Y-135073226D01*
X159830695Y-134886220D02*
X159790448Y-134856368D01*
X159790448Y-134856368D02*
X159742417Y-134870654D01*
X159742417Y-134870654D02*
X159712565Y-134910902D01*
X159712565Y-134910902D02*
X159726851Y-134958933D01*
X159726851Y-134958933D02*
X159767099Y-134988785D01*
X159767099Y-134988785D02*
X159815130Y-134974499D01*
X159815130Y-134974499D02*
X159844982Y-134934251D01*
X159844982Y-134934251D02*
X159830695Y-134886220D01*
D11*
X156298670Y-50866514D02*
X156298670Y-50597594D01*
X156460023Y-50920298D02*
X155895290Y-50732054D01*
X155895290Y-50732054D02*
X156460023Y-50543810D01*
X156460023Y-50355565D02*
X155895290Y-50355565D01*
X155895290Y-50355565D02*
X156460023Y-50032861D01*
X156460023Y-50032861D02*
X155895290Y-50032861D01*
X155895290Y-49844616D02*
X155895290Y-49521912D01*
X156460023Y-49683264D02*
X155895290Y-49683264D01*
X155895290Y-49387451D02*
X155895290Y-49037855D01*
X155895290Y-49037855D02*
X156110426Y-49226099D01*
X156110426Y-49226099D02*
X156110426Y-49145423D01*
X156110426Y-49145423D02*
X156137318Y-49091639D01*
X156137318Y-49091639D02*
X156164210Y-49064747D01*
X156164210Y-49064747D02*
X156217994Y-49037855D01*
X156217994Y-49037855D02*
X156352454Y-49037855D01*
X156352454Y-49037855D02*
X156406238Y-49064747D01*
X156406238Y-49064747D02*
X156433131Y-49091639D01*
X156433131Y-49091639D02*
X156460023Y-49145423D01*
X156460023Y-49145423D02*
X156460023Y-49306775D01*
X156460023Y-49306775D02*
X156433131Y-49360559D01*
X156433131Y-49360559D02*
X156406238Y-49387451D01*
X155949074Y-48822718D02*
X155922182Y-48795826D01*
X155922182Y-48795826D02*
X155895290Y-48742042D01*
X155895290Y-48742042D02*
X155895290Y-48607582D01*
X155895290Y-48607582D02*
X155922182Y-48553798D01*
X155922182Y-48553798D02*
X155949074Y-48526906D01*
X155949074Y-48526906D02*
X156002858Y-48500014D01*
X156002858Y-48500014D02*
X156056642Y-48500014D01*
X156056642Y-48500014D02*
X156137318Y-48526906D01*
X156137318Y-48526906D02*
X156460023Y-48849610D01*
X156460023Y-48849610D02*
X156460023Y-48500014D01*
X156460023Y-47962173D02*
X156460023Y-48284877D01*
X156460023Y-48123525D02*
X155895290Y-48123525D01*
X155895290Y-48123525D02*
X155975966Y-48177309D01*
X155975966Y-48177309D02*
X156029750Y-48231093D01*
X156029750Y-48231093D02*
X156056642Y-48284877D01*
X155895290Y-47478116D02*
X155895290Y-47585684D01*
X155895290Y-47585684D02*
X155922182Y-47639468D01*
X155922182Y-47639468D02*
X155949074Y-47666360D01*
X155949074Y-47666360D02*
X156029750Y-47720144D01*
X156029750Y-47720144D02*
X156137318Y-47747036D01*
X156137318Y-47747036D02*
X156352454Y-47747036D01*
X156352454Y-47747036D02*
X156406238Y-47720144D01*
X156406238Y-47720144D02*
X156433131Y-47693252D01*
X156433131Y-47693252D02*
X156460023Y-47639468D01*
X156460023Y-47639468D02*
X156460023Y-47531900D01*
X156460023Y-47531900D02*
X156433131Y-47478116D01*
X156433131Y-47478116D02*
X156406238Y-47451224D01*
X156406238Y-47451224D02*
X156352454Y-47424332D01*
X156352454Y-47424332D02*
X156217994Y-47424332D01*
X156217994Y-47424332D02*
X156164210Y-47451224D01*
X156164210Y-47451224D02*
X156137318Y-47478116D01*
X156137318Y-47478116D02*
X156110426Y-47531900D01*
X156110426Y-47531900D02*
X156110426Y-47639468D01*
X156110426Y-47639468D02*
X156137318Y-47693252D01*
X156137318Y-47693252D02*
X156164210Y-47720144D01*
X156164210Y-47720144D02*
X156217994Y-47747036D01*
X156460023Y-46913383D02*
X156460023Y-47182303D01*
X156460023Y-47182303D02*
X155895290Y-47182303D01*
X156460023Y-46456218D02*
X156460023Y-46725138D01*
X156460023Y-46725138D02*
X155895290Y-46725138D01*
X155895290Y-46160405D02*
X155895290Y-46106621D01*
X155895290Y-46106621D02*
X155922182Y-46052837D01*
X155922182Y-46052837D02*
X155949074Y-46025945D01*
X155949074Y-46025945D02*
X156002858Y-45999053D01*
X156002858Y-45999053D02*
X156110426Y-45972161D01*
X156110426Y-45972161D02*
X156244886Y-45972161D01*
X156244886Y-45972161D02*
X156352454Y-45999053D01*
X156352454Y-45999053D02*
X156406238Y-46025945D01*
X156406238Y-46025945D02*
X156433131Y-46052837D01*
X156433131Y-46052837D02*
X156460023Y-46106621D01*
X156460023Y-46106621D02*
X156460023Y-46160405D01*
X156460023Y-46160405D02*
X156433131Y-46214189D01*
X156433131Y-46214189D02*
X156406238Y-46241081D01*
X156406238Y-46241081D02*
X156352454Y-46267973D01*
X156352454Y-46267973D02*
X156244886Y-46294865D01*
X156244886Y-46294865D02*
X156110426Y-46294865D01*
X156110426Y-46294865D02*
X156002858Y-46267973D01*
X156002858Y-46267973D02*
X155949074Y-46241081D01*
X155949074Y-46241081D02*
X155922182Y-46214189D01*
X155922182Y-46214189D02*
X155895290Y-46160405D01*
X155895290Y-45622564D02*
X155895290Y-45568780D01*
X155895290Y-45568780D02*
X155922182Y-45514996D01*
X155922182Y-45514996D02*
X155949074Y-45488104D01*
X155949074Y-45488104D02*
X156002858Y-45461212D01*
X156002858Y-45461212D02*
X156110426Y-45434320D01*
X156110426Y-45434320D02*
X156244886Y-45434320D01*
X156244886Y-45434320D02*
X156352454Y-45461212D01*
X156352454Y-45461212D02*
X156406238Y-45488104D01*
X156406238Y-45488104D02*
X156433131Y-45514996D01*
X156433131Y-45514996D02*
X156460023Y-45568780D01*
X156460023Y-45568780D02*
X156460023Y-45622564D01*
X156460023Y-45622564D02*
X156433131Y-45676348D01*
X156433131Y-45676348D02*
X156406238Y-45703240D01*
X156406238Y-45703240D02*
X156352454Y-45730132D01*
X156352454Y-45730132D02*
X156244886Y-45757024D01*
X156244886Y-45757024D02*
X156110426Y-45757024D01*
X156110426Y-45757024D02*
X156002858Y-45730132D01*
X156002858Y-45730132D02*
X155949074Y-45703240D01*
X155949074Y-45703240D02*
X155922182Y-45676348D01*
X155922182Y-45676348D02*
X155895290Y-45622564D01*
X156460023Y-44869587D02*
X156191102Y-45057831D01*
X156460023Y-45192291D02*
X155895290Y-45192291D01*
X155895290Y-45192291D02*
X155895290Y-44977155D01*
X155895290Y-44977155D02*
X155922182Y-44923371D01*
X155922182Y-44923371D02*
X155949074Y-44896479D01*
X155949074Y-44896479D02*
X156002858Y-44869587D01*
X156002858Y-44869587D02*
X156083534Y-44869587D01*
X156083534Y-44869587D02*
X156137318Y-44896479D01*
X156137318Y-44896479D02*
X156164210Y-44923371D01*
X156164210Y-44923371D02*
X156191102Y-44977155D01*
X156191102Y-44977155D02*
X156191102Y-45192291D01*
X155949074Y-44654450D02*
X155922182Y-44627558D01*
X155922182Y-44627558D02*
X155895290Y-44573774D01*
X155895290Y-44573774D02*
X155895290Y-44439314D01*
X155895290Y-44439314D02*
X155922182Y-44385530D01*
X155922182Y-44385530D02*
X155949074Y-44358638D01*
X155949074Y-44358638D02*
X156002858Y-44331746D01*
X156002858Y-44331746D02*
X156056642Y-44331746D01*
X156056642Y-44331746D02*
X156137318Y-44358638D01*
X156137318Y-44358638D02*
X156460023Y-44681342D01*
X156460023Y-44681342D02*
X156460023Y-44331746D01*
X156083534Y-43847689D02*
X156460023Y-43847689D01*
X155868398Y-43982149D02*
X156271778Y-44116609D01*
X156271778Y-44116609D02*
X156271778Y-43767013D01*
X155895290Y-43444308D02*
X155895290Y-43390524D01*
X155895290Y-43390524D02*
X155922182Y-43336740D01*
X155922182Y-43336740D02*
X155949074Y-43309848D01*
X155949074Y-43309848D02*
X156002858Y-43282956D01*
X156002858Y-43282956D02*
X156110426Y-43256064D01*
X156110426Y-43256064D02*
X156244886Y-43256064D01*
X156244886Y-43256064D02*
X156352454Y-43282956D01*
X156352454Y-43282956D02*
X156406238Y-43309848D01*
X156406238Y-43309848D02*
X156433131Y-43336740D01*
X156433131Y-43336740D02*
X156460023Y-43390524D01*
X156460023Y-43390524D02*
X156460023Y-43444308D01*
X156460023Y-43444308D02*
X156433131Y-43498092D01*
X156433131Y-43498092D02*
X156406238Y-43524984D01*
X156406238Y-43524984D02*
X156352454Y-43551876D01*
X156352454Y-43551876D02*
X156244886Y-43578768D01*
X156244886Y-43578768D02*
X156110426Y-43578768D01*
X156110426Y-43578768D02*
X156002858Y-43551876D01*
X156002858Y-43551876D02*
X155949074Y-43524984D01*
X155949074Y-43524984D02*
X155922182Y-43498092D01*
X155922182Y-43498092D02*
X155895290Y-43444308D01*
X155895290Y-42906467D02*
X155895290Y-42852683D01*
X155895290Y-42852683D02*
X155922182Y-42798899D01*
X155922182Y-42798899D02*
X155949074Y-42772007D01*
X155949074Y-42772007D02*
X156002858Y-42745115D01*
X156002858Y-42745115D02*
X156110426Y-42718223D01*
X156110426Y-42718223D02*
X156244886Y-42718223D01*
X156244886Y-42718223D02*
X156352454Y-42745115D01*
X156352454Y-42745115D02*
X156406238Y-42772007D01*
X156406238Y-42772007D02*
X156433131Y-42798899D01*
X156433131Y-42798899D02*
X156460023Y-42852683D01*
X156460023Y-42852683D02*
X156460023Y-42906467D01*
X156460023Y-42906467D02*
X156433131Y-42960251D01*
X156433131Y-42960251D02*
X156406238Y-42987143D01*
X156406238Y-42987143D02*
X156352454Y-43014035D01*
X156352454Y-43014035D02*
X156244886Y-43040927D01*
X156244886Y-43040927D02*
X156110426Y-43040927D01*
X156110426Y-43040927D02*
X156002858Y-43014035D01*
X156002858Y-43014035D02*
X155949074Y-42987143D01*
X155949074Y-42987143D02*
X155922182Y-42960251D01*
X155922182Y-42960251D02*
X155895290Y-42906467D01*
X156298670Y-42503086D02*
X156298670Y-42234166D01*
X156460023Y-42556870D02*
X155895290Y-42368626D01*
X155895290Y-42368626D02*
X156460023Y-42180382D01*
D10*
X161463948Y-67313721D02*
X161441538Y-67358541D01*
X161441538Y-67358541D02*
X161419128Y-67380951D01*
X161419128Y-67380951D02*
X161374308Y-67403361D01*
X161374308Y-67403361D02*
X161351898Y-67403361D01*
X161351898Y-67403361D02*
X161307078Y-67380951D01*
X161307078Y-67380951D02*
X161284668Y-67358541D01*
X161284668Y-67358541D02*
X161262258Y-67313721D01*
X161262258Y-67313721D02*
X161262258Y-67224081D01*
X161262258Y-67224081D02*
X161284668Y-67179261D01*
X161284668Y-67179261D02*
X161307078Y-67156851D01*
X161307078Y-67156851D02*
X161351898Y-67134441D01*
X161351898Y-67134441D02*
X161374308Y-67134441D01*
X161374308Y-67134441D02*
X161419128Y-67156851D01*
X161419128Y-67156851D02*
X161441538Y-67179261D01*
X161441538Y-67179261D02*
X161463948Y-67224081D01*
X161463948Y-67224081D02*
X161463948Y-67313721D01*
X161463948Y-67313721D02*
X161486358Y-67358541D01*
X161486358Y-67358541D02*
X161508768Y-67380951D01*
X161508768Y-67380951D02*
X161553588Y-67403361D01*
X161553588Y-67403361D02*
X161643228Y-67403361D01*
X161643228Y-67403361D02*
X161688048Y-67380951D01*
X161688048Y-67380951D02*
X161710459Y-67358541D01*
X161710459Y-67358541D02*
X161732869Y-67313721D01*
X161732869Y-67313721D02*
X161732869Y-67224081D01*
X161732869Y-67224081D02*
X161710459Y-67179261D01*
X161710459Y-67179261D02*
X161688048Y-67156851D01*
X161688048Y-67156851D02*
X161643228Y-67134441D01*
X161643228Y-67134441D02*
X161553588Y-67134441D01*
X161553588Y-67134441D02*
X161508768Y-67156851D01*
X161508768Y-67156851D02*
X161486358Y-67179261D01*
X161486358Y-67179261D02*
X161463948Y-67224081D01*
X161419128Y-66932750D02*
X161889739Y-66932750D01*
X161441538Y-66932750D02*
X161419128Y-66887930D01*
X161419128Y-66887930D02*
X161419128Y-66798290D01*
X161419128Y-66798290D02*
X161441538Y-66753470D01*
X161441538Y-66753470D02*
X161463948Y-66731060D01*
X161463948Y-66731060D02*
X161508768Y-66708650D01*
X161508768Y-66708650D02*
X161643228Y-66708650D01*
X161643228Y-66708650D02*
X161688048Y-66731060D01*
X161688048Y-66731060D02*
X161710459Y-66753470D01*
X161710459Y-66753470D02*
X161732869Y-66798290D01*
X161732869Y-66798290D02*
X161732869Y-66887930D01*
X161732869Y-66887930D02*
X161710459Y-66932750D01*
X147995258Y-68735369D02*
X147726338Y-68735369D01*
X147860798Y-68735369D02*
X147860798Y-68264758D01*
X147860798Y-68264758D02*
X147815978Y-68331988D01*
X147815978Y-68331988D02*
X147771158Y-68376808D01*
X147771158Y-68376808D02*
X147726338Y-68399218D01*
X148286589Y-68264758D02*
X148331409Y-68264758D01*
X148331409Y-68264758D02*
X148376229Y-68287168D01*
X148376229Y-68287168D02*
X148398639Y-68309578D01*
X148398639Y-68309578D02*
X148421049Y-68354398D01*
X148421049Y-68354398D02*
X148443459Y-68444038D01*
X148443459Y-68444038D02*
X148443459Y-68556088D01*
X148443459Y-68556088D02*
X148421049Y-68645728D01*
X148421049Y-68645728D02*
X148398639Y-68690548D01*
X148398639Y-68690548D02*
X148376229Y-68712959D01*
X148376229Y-68712959D02*
X148331409Y-68735369D01*
X148331409Y-68735369D02*
X148286589Y-68735369D01*
X148286589Y-68735369D02*
X148241769Y-68712959D01*
X148241769Y-68712959D02*
X148219359Y-68690548D01*
X148219359Y-68690548D02*
X148196949Y-68645728D01*
X148196949Y-68645728D02*
X148174539Y-68556088D01*
X148174539Y-68556088D02*
X148174539Y-68444038D01*
X148174539Y-68444038D02*
X148196949Y-68354398D01*
X148196949Y-68354398D02*
X148219359Y-68309578D01*
X148219359Y-68309578D02*
X148241769Y-68287168D01*
X148241769Y-68287168D02*
X148286589Y-68264758D01*
X148734790Y-68264758D02*
X148779610Y-68264758D01*
X148779610Y-68264758D02*
X148824430Y-68287168D01*
X148824430Y-68287168D02*
X148846840Y-68309578D01*
X148846840Y-68309578D02*
X148869250Y-68354398D01*
X148869250Y-68354398D02*
X148891660Y-68444038D01*
X148891660Y-68444038D02*
X148891660Y-68556088D01*
X148891660Y-68556088D02*
X148869250Y-68645728D01*
X148869250Y-68645728D02*
X148846840Y-68690548D01*
X148846840Y-68690548D02*
X148824430Y-68712959D01*
X148824430Y-68712959D02*
X148779610Y-68735369D01*
X148779610Y-68735369D02*
X148734790Y-68735369D01*
X148734790Y-68735369D02*
X148689970Y-68712959D01*
X148689970Y-68712959D02*
X148667560Y-68690548D01*
X148667560Y-68690548D02*
X148645150Y-68645728D01*
X148645150Y-68645728D02*
X148622740Y-68556088D01*
X148622740Y-68556088D02*
X148622740Y-68444038D01*
X148622740Y-68444038D02*
X148645150Y-68354398D01*
X148645150Y-68354398D02*
X148667560Y-68309578D01*
X148667560Y-68309578D02*
X148689970Y-68287168D01*
X148689970Y-68287168D02*
X148734790Y-68264758D01*
X149093351Y-68421628D02*
X149093351Y-68735369D01*
X149093351Y-68466448D02*
X149115761Y-68444038D01*
X149115761Y-68444038D02*
X149160581Y-68421628D01*
X149160581Y-68421628D02*
X149227811Y-68421628D01*
X149227811Y-68421628D02*
X149272631Y-68444038D01*
X149272631Y-68444038D02*
X149295041Y-68488858D01*
X149295041Y-68488858D02*
X149295041Y-68735369D01*
X157453668Y-63453369D02*
X157184748Y-63453369D01*
X157319208Y-63453369D02*
X157319208Y-62982758D01*
X157319208Y-62982758D02*
X157274388Y-63049988D01*
X157274388Y-63049988D02*
X157229568Y-63094808D01*
X157229568Y-63094808D02*
X157184748Y-63117218D01*
X157744999Y-62982758D02*
X157789819Y-62982758D01*
X157789819Y-62982758D02*
X157834639Y-63005168D01*
X157834639Y-63005168D02*
X157857049Y-63027578D01*
X157857049Y-63027578D02*
X157879459Y-63072398D01*
X157879459Y-63072398D02*
X157901869Y-63162038D01*
X157901869Y-63162038D02*
X157901869Y-63274088D01*
X157901869Y-63274088D02*
X157879459Y-63363728D01*
X157879459Y-63363728D02*
X157857049Y-63408548D01*
X157857049Y-63408548D02*
X157834639Y-63430959D01*
X157834639Y-63430959D02*
X157789819Y-63453369D01*
X157789819Y-63453369D02*
X157744999Y-63453369D01*
X157744999Y-63453369D02*
X157700179Y-63430959D01*
X157700179Y-63430959D02*
X157677769Y-63408548D01*
X157677769Y-63408548D02*
X157655359Y-63363728D01*
X157655359Y-63363728D02*
X157632949Y-63274088D01*
X157632949Y-63274088D02*
X157632949Y-63162038D01*
X157632949Y-63162038D02*
X157655359Y-63072398D01*
X157655359Y-63072398D02*
X157677769Y-63027578D01*
X157677769Y-63027578D02*
X157700179Y-63005168D01*
X157700179Y-63005168D02*
X157744999Y-62982758D01*
X158193200Y-62982758D02*
X158238020Y-62982758D01*
X158238020Y-62982758D02*
X158282840Y-63005168D01*
X158282840Y-63005168D02*
X158305250Y-63027578D01*
X158305250Y-63027578D02*
X158327660Y-63072398D01*
X158327660Y-63072398D02*
X158350070Y-63162038D01*
X158350070Y-63162038D02*
X158350070Y-63274088D01*
X158350070Y-63274088D02*
X158327660Y-63363728D01*
X158327660Y-63363728D02*
X158305250Y-63408548D01*
X158305250Y-63408548D02*
X158282840Y-63430959D01*
X158282840Y-63430959D02*
X158238020Y-63453369D01*
X158238020Y-63453369D02*
X158193200Y-63453369D01*
X158193200Y-63453369D02*
X158148380Y-63430959D01*
X158148380Y-63430959D02*
X158125970Y-63408548D01*
X158125970Y-63408548D02*
X158103560Y-63363728D01*
X158103560Y-63363728D02*
X158081150Y-63274088D01*
X158081150Y-63274088D02*
X158081150Y-63162038D01*
X158081150Y-63162038D02*
X158103560Y-63072398D01*
X158103560Y-63072398D02*
X158125970Y-63027578D01*
X158125970Y-63027578D02*
X158148380Y-63005168D01*
X158148380Y-63005168D02*
X158193200Y-62982758D01*
X158551761Y-63139628D02*
X158551761Y-63453369D01*
X158551761Y-63184448D02*
X158574171Y-63162038D01*
X158574171Y-63162038D02*
X158618991Y-63139628D01*
X158618991Y-63139628D02*
X158686221Y-63139628D01*
X158686221Y-63139628D02*
X158731041Y-63162038D01*
X158731041Y-63162038D02*
X158753451Y-63206858D01*
X158753451Y-63206858D02*
X158753451Y-63453369D01*
X166015175Y-141006683D02*
X165809170Y-141179542D01*
X165912172Y-141093113D02*
X165609669Y-140732604D01*
X165609669Y-140732604D02*
X165618550Y-140812915D01*
X165618550Y-140812915D02*
X165613025Y-140876059D01*
X165613025Y-140876059D02*
X165593096Y-140922036D01*
X165878818Y-140565269D02*
X165881581Y-140533697D01*
X165881581Y-140533697D02*
X165901510Y-140487721D01*
X165901510Y-140487721D02*
X165987345Y-140415696D01*
X165987345Y-140415696D02*
X166036084Y-140404053D01*
X166036084Y-140404053D02*
X166067656Y-140406816D01*
X166067656Y-140406816D02*
X166113633Y-140426745D01*
X166113633Y-140426745D02*
X166142443Y-140461079D01*
X166142443Y-140461079D02*
X166168491Y-140526985D01*
X166168491Y-140526985D02*
X166135344Y-140905849D01*
X166135344Y-140905849D02*
X166358517Y-140718585D01*
X166513021Y-140588941D02*
X166210518Y-140228432D01*
X166432116Y-140422795D02*
X166650357Y-140473702D01*
X166448689Y-140233363D02*
X166426591Y-140485939D01*
X167268373Y-139955125D02*
X167062368Y-140127984D01*
X167165370Y-140041555D02*
X166862867Y-139681046D01*
X166862867Y-139681046D02*
X166871748Y-139761357D01*
X166871748Y-139761357D02*
X166866224Y-139824501D01*
X166866224Y-139824501D02*
X166846294Y-139870478D01*
X167405710Y-139839886D02*
X167377880Y-139248899D01*
X167154708Y-139436162D02*
X167203447Y-139424520D01*
X167203447Y-139424520D02*
X167249424Y-139444449D01*
X167249424Y-139444449D02*
X167261067Y-139493188D01*
X167261067Y-139493188D02*
X167241138Y-139539165D01*
X167241138Y-139539165D02*
X167192398Y-139550808D01*
X167192398Y-139550808D02*
X167146422Y-139530878D01*
X167146422Y-139530878D02*
X167134779Y-139482139D01*
X167134779Y-139482139D02*
X167154708Y-139436162D01*
X167648811Y-139606646D02*
X167637169Y-139557906D01*
X167637169Y-139557906D02*
X167591192Y-139537977D01*
X167591192Y-139537977D02*
X167542453Y-139549620D01*
X167542453Y-139549620D02*
X167522523Y-139595597D01*
X167522523Y-139595597D02*
X167534166Y-139644336D01*
X167534166Y-139644336D02*
X167580143Y-139664265D01*
X167580143Y-139664265D02*
X167628882Y-139652622D01*
X167628882Y-139652622D02*
X167648811Y-139606646D01*
X157857049Y-62014628D02*
X157857049Y-62328369D01*
X157744999Y-61835348D02*
X157632949Y-62171498D01*
X157632949Y-62171498D02*
X157924279Y-62171498D01*
X158305250Y-62014628D02*
X158305250Y-62328369D01*
X158103560Y-62014628D02*
X158103560Y-62261138D01*
X158103560Y-62261138D02*
X158125970Y-62305959D01*
X158125970Y-62305959D02*
X158170790Y-62328369D01*
X158170790Y-62328369D02*
X158238020Y-62328369D01*
X158238020Y-62328369D02*
X158282840Y-62305959D01*
X158282840Y-62305959D02*
X158305250Y-62283548D01*
X158484531Y-61857758D02*
X158798271Y-61857758D01*
X158798271Y-61857758D02*
X158596581Y-62328369D01*
D12*
X162381732Y-137565033D02*
X162499277Y-137697590D01*
X162499277Y-137697590D02*
X162741873Y-137837652D01*
X162741873Y-137837652D02*
X162866924Y-137845158D01*
X162866924Y-137845158D02*
X162943456Y-137824652D01*
X162943456Y-137824652D02*
X163048000Y-137755626D01*
X163048000Y-137755626D02*
X163104025Y-137658587D01*
X163104025Y-137658587D02*
X163111531Y-137533537D01*
X163111531Y-137533537D02*
X163091025Y-137457005D01*
X163091025Y-137457005D02*
X163021999Y-137352460D01*
X163021999Y-137352460D02*
X162855935Y-137191891D01*
X162855935Y-137191891D02*
X162786909Y-137087347D01*
X162786909Y-137087347D02*
X162766402Y-137010815D01*
X162766402Y-137010815D02*
X162773908Y-136885764D01*
X162773908Y-136885764D02*
X162829933Y-136788725D01*
X162829933Y-136788725D02*
X162934478Y-136719700D01*
X162934478Y-136719700D02*
X163011009Y-136699193D01*
X163011009Y-136699193D02*
X163136060Y-136706699D01*
X163136060Y-136706699D02*
X163378656Y-136846762D01*
X163378656Y-136846762D02*
X163496201Y-136979319D01*
X163352116Y-138125284D02*
X163469661Y-138257841D01*
X163469661Y-138257841D02*
X163712257Y-138397904D01*
X163712257Y-138397904D02*
X163837308Y-138405410D01*
X163837308Y-138405410D02*
X163913840Y-138384903D01*
X163913840Y-138384903D02*
X164018384Y-138315877D01*
X164018384Y-138315877D02*
X164074409Y-138218839D01*
X164074409Y-138218839D02*
X164081915Y-138093788D01*
X164081915Y-138093788D02*
X164061409Y-138017256D01*
X164061409Y-138017256D02*
X163992383Y-137912712D01*
X163992383Y-137912712D02*
X163826319Y-137752142D01*
X163826319Y-137752142D02*
X163757293Y-137647598D01*
X163757293Y-137647598D02*
X163736786Y-137571066D01*
X163736786Y-137571066D02*
X163744292Y-137446015D01*
X163744292Y-137446015D02*
X163800317Y-137348977D01*
X163800317Y-137348977D02*
X163904862Y-137279951D01*
X163904862Y-137279951D02*
X163981393Y-137259445D01*
X163981393Y-137259445D02*
X164106444Y-137266950D01*
X164106444Y-137266950D02*
X164349040Y-137407013D01*
X164349040Y-137407013D02*
X164466585Y-137539570D01*
X164824715Y-138263875D02*
X164755690Y-138159330D01*
X164755690Y-138159330D02*
X164735183Y-138082799D01*
X164735183Y-138082799D02*
X164742689Y-137957748D01*
X164742689Y-137957748D02*
X164770701Y-137909228D01*
X164770701Y-137909228D02*
X164875246Y-137840203D01*
X164875246Y-137840203D02*
X164951778Y-137819696D01*
X164951778Y-137819696D02*
X165076828Y-137827202D01*
X165076828Y-137827202D02*
X165270905Y-137939252D01*
X165270905Y-137939252D02*
X165339931Y-138043797D01*
X165339931Y-138043797D02*
X165360438Y-138120328D01*
X165360438Y-138120328D02*
X165352932Y-138245379D01*
X165352932Y-138245379D02*
X165324919Y-138293899D01*
X165324919Y-138293899D02*
X165220375Y-138362924D01*
X165220375Y-138362924D02*
X165143843Y-138383431D01*
X165143843Y-138383431D02*
X165018792Y-138375925D01*
X165018792Y-138375925D02*
X164824715Y-138263875D01*
X164824715Y-138263875D02*
X164699664Y-138256369D01*
X164699664Y-138256369D02*
X164623133Y-138276875D01*
X164623133Y-138276875D02*
X164518588Y-138345901D01*
X164518588Y-138345901D02*
X164406538Y-138539978D01*
X164406538Y-138539978D02*
X164399032Y-138665029D01*
X164399032Y-138665029D02*
X164419539Y-138741561D01*
X164419539Y-138741561D02*
X164488564Y-138846105D01*
X164488564Y-138846105D02*
X164682641Y-138958155D01*
X164682641Y-138958155D02*
X164807692Y-138965661D01*
X164807692Y-138965661D02*
X164884224Y-138945155D01*
X164884224Y-138945155D02*
X164988768Y-138876129D01*
X164988768Y-138876129D02*
X165100819Y-138682052D01*
X165100819Y-138682052D02*
X165108325Y-138557001D01*
X165108325Y-138557001D02*
X165087818Y-138480469D01*
X165087818Y-138480469D02*
X165018792Y-138375925D01*
X166095732Y-138415466D02*
X166192770Y-138471491D01*
X166192770Y-138471491D02*
X166261796Y-138576036D01*
X166261796Y-138576036D02*
X166282303Y-138652567D01*
X166282303Y-138652567D02*
X166274797Y-138777618D01*
X166274797Y-138777618D02*
X166211266Y-138999708D01*
X166211266Y-138999708D02*
X166071203Y-139242304D01*
X166071203Y-139242304D02*
X165910633Y-139408368D01*
X165910633Y-139408368D02*
X165806089Y-139477394D01*
X165806089Y-139477394D02*
X165729557Y-139497900D01*
X165729557Y-139497900D02*
X165604506Y-139490394D01*
X165604506Y-139490394D02*
X165507468Y-139434369D01*
X165507468Y-139434369D02*
X165438442Y-139329825D01*
X165438442Y-139329825D02*
X165417935Y-139253293D01*
X165417935Y-139253293D02*
X165425441Y-139128242D01*
X165425441Y-139128242D02*
X165488972Y-138906153D01*
X165488972Y-138906153D02*
X165629035Y-138663557D01*
X165629035Y-138663557D02*
X165789605Y-138497493D01*
X165789605Y-138497493D02*
X165894149Y-138428467D01*
X165894149Y-138428467D02*
X165970681Y-138407960D01*
X165970681Y-138407960D02*
X166095732Y-138415466D01*
X167357231Y-139143793D02*
X166872039Y-138863667D01*
X166872039Y-138863667D02*
X166543394Y-139320847D01*
X166543394Y-139320847D02*
X166619926Y-139300340D01*
X166619926Y-139300340D02*
X166744977Y-139307846D01*
X166744977Y-139307846D02*
X166987573Y-139447909D01*
X166987573Y-139447909D02*
X167056599Y-139552453D01*
X167056599Y-139552453D02*
X167077105Y-139628985D01*
X167077105Y-139628985D02*
X167069599Y-139754036D01*
X167069599Y-139754036D02*
X166929536Y-139996632D01*
X166929536Y-139996632D02*
X166824992Y-140065658D01*
X166824992Y-140065658D02*
X166748460Y-140086164D01*
X166748460Y-140086164D02*
X166623409Y-140078658D01*
X166623409Y-140078658D02*
X166380813Y-139938596D01*
X166380813Y-139938596D02*
X166311788Y-139834051D01*
X166311788Y-139834051D02*
X166291281Y-139757519D01*
X168036500Y-139535969D02*
X168133538Y-139591994D01*
X168133538Y-139591994D02*
X168202564Y-139696539D01*
X168202564Y-139696539D02*
X168223071Y-139773070D01*
X168223071Y-139773070D02*
X168215565Y-139898121D01*
X168215565Y-139898121D02*
X168152034Y-140120211D01*
X168152034Y-140120211D02*
X168011971Y-140362807D01*
X168011971Y-140362807D02*
X167851401Y-140528871D01*
X167851401Y-140528871D02*
X167746857Y-140597897D01*
X167746857Y-140597897D02*
X167670325Y-140618403D01*
X167670325Y-140618403D02*
X167545274Y-140610897D01*
X167545274Y-140610897D02*
X167448236Y-140554872D01*
X167448236Y-140554872D02*
X167379210Y-140450328D01*
X167379210Y-140450328D02*
X167358703Y-140373796D01*
X167358703Y-140373796D02*
X167366209Y-140248745D01*
X167366209Y-140248745D02*
X167429740Y-140026656D01*
X167429740Y-140026656D02*
X167569803Y-139784060D01*
X167569803Y-139784060D02*
X167730373Y-139617996D01*
X167730373Y-139617996D02*
X167834917Y-139548970D01*
X167834917Y-139548970D02*
X167911449Y-139528463D01*
X167911449Y-139528463D02*
X168036500Y-139535969D01*
D10*
X165391914Y-155368326D02*
X165548784Y-155640034D01*
X165205235Y-155269090D02*
X165276272Y-155616230D01*
X165276272Y-155616230D02*
X165528572Y-155470565D01*
X165488147Y-155131627D02*
X165759855Y-154974757D01*
X165759855Y-154974757D02*
X165820491Y-155483163D01*
X166168220Y-154920125D02*
X166325091Y-155191833D01*
X165993551Y-155020970D02*
X166116807Y-155234455D01*
X166116807Y-155234455D02*
X166158624Y-155262065D01*
X166158624Y-155262065D02*
X166208645Y-155259063D01*
X166208645Y-155259063D02*
X166266868Y-155225448D01*
X166266868Y-155225448D02*
X166294478Y-155183630D01*
X166294478Y-155183630D02*
X166302681Y-155153017D01*
X153251518Y-59889758D02*
X153520438Y-59889758D01*
X153385978Y-60360369D02*
X153385978Y-59889758D01*
X153834179Y-60113858D02*
X153901409Y-60136268D01*
X153901409Y-60136268D02*
X153923819Y-60158678D01*
X153923819Y-60158678D02*
X153946229Y-60203498D01*
X153946229Y-60203498D02*
X153946229Y-60270728D01*
X153946229Y-60270728D02*
X153923819Y-60315548D01*
X153923819Y-60315548D02*
X153901409Y-60337959D01*
X153901409Y-60337959D02*
X153856589Y-60360369D01*
X153856589Y-60360369D02*
X153677309Y-60360369D01*
X153677309Y-60360369D02*
X153677309Y-59889758D01*
X153677309Y-59889758D02*
X153834179Y-59889758D01*
X153834179Y-59889758D02*
X153878999Y-59912168D01*
X153878999Y-59912168D02*
X153901409Y-59934578D01*
X153901409Y-59934578D02*
X153923819Y-59979398D01*
X153923819Y-59979398D02*
X153923819Y-60024218D01*
X153923819Y-60024218D02*
X153901409Y-60069038D01*
X153901409Y-60069038D02*
X153878999Y-60091448D01*
X153878999Y-60091448D02*
X153834179Y-60113858D01*
X153834179Y-60113858D02*
X153677309Y-60113858D01*
X154147920Y-60360369D02*
X154147920Y-59889758D01*
X154147920Y-59889758D02*
X154259970Y-59889758D01*
X154259970Y-59889758D02*
X154327200Y-59912168D01*
X154327200Y-59912168D02*
X154372020Y-59956988D01*
X154372020Y-59956988D02*
X154394430Y-60001808D01*
X154394430Y-60001808D02*
X154416840Y-60091448D01*
X154416840Y-60091448D02*
X154416840Y-60158678D01*
X154416840Y-60158678D02*
X154394430Y-60248318D01*
X154394430Y-60248318D02*
X154372020Y-60293138D01*
X154372020Y-60293138D02*
X154327200Y-60337959D01*
X154327200Y-60337959D02*
X154259970Y-60360369D01*
X154259970Y-60360369D02*
X154147920Y-60360369D01*
D12*
X148613996Y-83019039D02*
X149790524Y-82738913D01*
X149790524Y-82738913D02*
X148950147Y-82514813D01*
X148950147Y-82514813D02*
X149790524Y-82290712D01*
X149790524Y-82290712D02*
X148613996Y-82010587D01*
X149790524Y-81562386D02*
X148613996Y-81562386D01*
X148613996Y-81562386D02*
X149454373Y-81170210D01*
X149454373Y-81170210D02*
X148613996Y-80778034D01*
X148613996Y-80778034D02*
X149790524Y-80778034D01*
X149678473Y-79545481D02*
X149734499Y-79601506D01*
X149734499Y-79601506D02*
X149790524Y-79769582D01*
X149790524Y-79769582D02*
X149790524Y-79881632D01*
X149790524Y-79881632D02*
X149734499Y-80049707D01*
X149734499Y-80049707D02*
X149622448Y-80161758D01*
X149622448Y-80161758D02*
X149510398Y-80217783D01*
X149510398Y-80217783D02*
X149286297Y-80273808D01*
X149286297Y-80273808D02*
X149118222Y-80273808D01*
X149118222Y-80273808D02*
X148894121Y-80217783D01*
X148894121Y-80217783D02*
X148782071Y-80161758D01*
X148782071Y-80161758D02*
X148670021Y-80049707D01*
X148670021Y-80049707D02*
X148613996Y-79881632D01*
X148613996Y-79881632D02*
X148613996Y-79769582D01*
X148613996Y-79769582D02*
X148670021Y-79601506D01*
X148670021Y-79601506D02*
X148726046Y-79545481D01*
X148613996Y-79041255D02*
X149566423Y-79041255D01*
X149566423Y-79041255D02*
X149678473Y-78985230D01*
X149678473Y-78985230D02*
X149734499Y-78929205D01*
X149734499Y-78929205D02*
X149790524Y-78817154D01*
X149790524Y-78817154D02*
X149790524Y-78593054D01*
X149790524Y-78593054D02*
X149734499Y-78481003D01*
X149734499Y-78481003D02*
X149678473Y-78424978D01*
X149678473Y-78424978D02*
X149566423Y-78368953D01*
X149566423Y-78368953D02*
X148613996Y-78368953D01*
X149342323Y-77808702D02*
X149342323Y-76912300D01*
X149174247Y-76352048D02*
X149174247Y-75959872D01*
X149790524Y-75791796D02*
X149790524Y-76352048D01*
X149790524Y-76352048D02*
X148613996Y-76352048D01*
X148613996Y-76352048D02*
X148613996Y-75791796D01*
X149734499Y-75343595D02*
X149790524Y-75175520D01*
X149790524Y-75175520D02*
X149790524Y-74895394D01*
X149790524Y-74895394D02*
X149734499Y-74783344D01*
X149734499Y-74783344D02*
X149678473Y-74727318D01*
X149678473Y-74727318D02*
X149566423Y-74671293D01*
X149566423Y-74671293D02*
X149454373Y-74671293D01*
X149454373Y-74671293D02*
X149342323Y-74727318D01*
X149342323Y-74727318D02*
X149286297Y-74783344D01*
X149286297Y-74783344D02*
X149230272Y-74895394D01*
X149230272Y-74895394D02*
X149174247Y-75119494D01*
X149174247Y-75119494D02*
X149118222Y-75231545D01*
X149118222Y-75231545D02*
X149062197Y-75287570D01*
X149062197Y-75287570D02*
X148950147Y-75343595D01*
X148950147Y-75343595D02*
X148838096Y-75343595D01*
X148838096Y-75343595D02*
X148726046Y-75287570D01*
X148726046Y-75287570D02*
X148670021Y-75231545D01*
X148670021Y-75231545D02*
X148613996Y-75119494D01*
X148613996Y-75119494D02*
X148613996Y-74839369D01*
X148613996Y-74839369D02*
X148670021Y-74671293D01*
X149790524Y-74167067D02*
X148613996Y-74167067D01*
X148613996Y-74167067D02*
X148613996Y-73718866D01*
X148613996Y-73718866D02*
X148670021Y-73606815D01*
X148670021Y-73606815D02*
X148726046Y-73550790D01*
X148726046Y-73550790D02*
X148838096Y-73494765D01*
X148838096Y-73494765D02*
X149006172Y-73494765D01*
X149006172Y-73494765D02*
X149118222Y-73550790D01*
X149118222Y-73550790D02*
X149174247Y-73606815D01*
X149174247Y-73606815D02*
X149230272Y-73718866D01*
X149230272Y-73718866D02*
X149230272Y-74167067D01*
X149118222Y-72822463D02*
X149062197Y-72934514D01*
X149062197Y-72934514D02*
X149006172Y-72990539D01*
X149006172Y-72990539D02*
X148894121Y-73046564D01*
X148894121Y-73046564D02*
X148838096Y-73046564D01*
X148838096Y-73046564D02*
X148726046Y-72990539D01*
X148726046Y-72990539D02*
X148670021Y-72934514D01*
X148670021Y-72934514D02*
X148613996Y-72822463D01*
X148613996Y-72822463D02*
X148613996Y-72598363D01*
X148613996Y-72598363D02*
X148670021Y-72486313D01*
X148670021Y-72486313D02*
X148726046Y-72430287D01*
X148726046Y-72430287D02*
X148838096Y-72374262D01*
X148838096Y-72374262D02*
X148894121Y-72374262D01*
X148894121Y-72374262D02*
X149006172Y-72430287D01*
X149006172Y-72430287D02*
X149062197Y-72486313D01*
X149062197Y-72486313D02*
X149118222Y-72598363D01*
X149118222Y-72598363D02*
X149118222Y-72822463D01*
X149118222Y-72822463D02*
X149174247Y-72934514D01*
X149174247Y-72934514D02*
X149230272Y-72990539D01*
X149230272Y-72990539D02*
X149342323Y-73046564D01*
X149342323Y-73046564D02*
X149566423Y-73046564D01*
X149566423Y-73046564D02*
X149678473Y-72990539D01*
X149678473Y-72990539D02*
X149734499Y-72934514D01*
X149734499Y-72934514D02*
X149790524Y-72822463D01*
X149790524Y-72822463D02*
X149790524Y-72598363D01*
X149790524Y-72598363D02*
X149734499Y-72486313D01*
X149734499Y-72486313D02*
X149678473Y-72430287D01*
X149678473Y-72430287D02*
X149566423Y-72374262D01*
X149566423Y-72374262D02*
X149342323Y-72374262D01*
X149342323Y-72374262D02*
X149230272Y-72430287D01*
X149230272Y-72430287D02*
X149174247Y-72486313D01*
X149174247Y-72486313D02*
X149118222Y-72598363D01*
X148726046Y-71926061D02*
X148670021Y-71870036D01*
X148670021Y-71870036D02*
X148613996Y-71757986D01*
X148613996Y-71757986D02*
X148613996Y-71477860D01*
X148613996Y-71477860D02*
X148670021Y-71365810D01*
X148670021Y-71365810D02*
X148726046Y-71309784D01*
X148726046Y-71309784D02*
X148838096Y-71253759D01*
X148838096Y-71253759D02*
X148950147Y-71253759D01*
X148950147Y-71253759D02*
X149118222Y-71309784D01*
X149118222Y-71309784D02*
X149790524Y-71982086D01*
X149790524Y-71982086D02*
X149790524Y-71253759D01*
X149118222Y-70581457D02*
X149062197Y-70693508D01*
X149062197Y-70693508D02*
X149006172Y-70749533D01*
X149006172Y-70749533D02*
X148894121Y-70805558D01*
X148894121Y-70805558D02*
X148838096Y-70805558D01*
X148838096Y-70805558D02*
X148726046Y-70749533D01*
X148726046Y-70749533D02*
X148670021Y-70693508D01*
X148670021Y-70693508D02*
X148613996Y-70581457D01*
X148613996Y-70581457D02*
X148613996Y-70357357D01*
X148613996Y-70357357D02*
X148670021Y-70245307D01*
X148670021Y-70245307D02*
X148726046Y-70189281D01*
X148726046Y-70189281D02*
X148838096Y-70133256D01*
X148838096Y-70133256D02*
X148894121Y-70133256D01*
X148894121Y-70133256D02*
X149006172Y-70189281D01*
X149006172Y-70189281D02*
X149062197Y-70245307D01*
X149062197Y-70245307D02*
X149118222Y-70357357D01*
X149118222Y-70357357D02*
X149118222Y-70581457D01*
X149118222Y-70581457D02*
X149174247Y-70693508D01*
X149174247Y-70693508D02*
X149230272Y-70749533D01*
X149230272Y-70749533D02*
X149342323Y-70805558D01*
X149342323Y-70805558D02*
X149566423Y-70805558D01*
X149566423Y-70805558D02*
X149678473Y-70749533D01*
X149678473Y-70749533D02*
X149734499Y-70693508D01*
X149734499Y-70693508D02*
X149790524Y-70581457D01*
X149790524Y-70581457D02*
X149790524Y-70357357D01*
X149790524Y-70357357D02*
X149734499Y-70245307D01*
X149734499Y-70245307D02*
X149678473Y-70189281D01*
X149678473Y-70189281D02*
X149566423Y-70133256D01*
X149566423Y-70133256D02*
X149342323Y-70133256D01*
X149342323Y-70133256D02*
X149230272Y-70189281D01*
X149230272Y-70189281D02*
X149174247Y-70245307D01*
X149174247Y-70245307D02*
X149118222Y-70357357D01*
X148613996Y-69068778D02*
X148613996Y-69629030D01*
X148613996Y-69629030D02*
X149174247Y-69685055D01*
X149174247Y-69685055D02*
X149118222Y-69629030D01*
X149118222Y-69629030D02*
X149062197Y-69516980D01*
X149062197Y-69516980D02*
X149062197Y-69236854D01*
X149062197Y-69236854D02*
X149118222Y-69124804D01*
X149118222Y-69124804D02*
X149174247Y-69068778D01*
X149174247Y-69068778D02*
X149286297Y-69012753D01*
X149286297Y-69012753D02*
X149566423Y-69012753D01*
X149566423Y-69012753D02*
X149678473Y-69068778D01*
X149678473Y-69068778D02*
X149734499Y-69124804D01*
X149734499Y-69124804D02*
X149790524Y-69236854D01*
X149790524Y-69236854D02*
X149790524Y-69516980D01*
X149790524Y-69516980D02*
X149734499Y-69629030D01*
X149734499Y-69629030D02*
X149678473Y-69685055D01*
X149790524Y-68508527D02*
X148613996Y-68508527D01*
X149174247Y-68508527D02*
X149174247Y-67836225D01*
X149790524Y-67836225D02*
X148613996Y-67836225D01*
X149790524Y-66659697D02*
X149790524Y-67331999D01*
X149790524Y-66995848D02*
X148613996Y-66995848D01*
X148613996Y-66995848D02*
X148782071Y-67107898D01*
X148782071Y-67107898D02*
X148894121Y-67219949D01*
X148894121Y-67219949D02*
X148950147Y-67331999D01*
X148613996Y-65651245D02*
X148613996Y-65875345D01*
X148613996Y-65875345D02*
X148670021Y-65987395D01*
X148670021Y-65987395D02*
X148726046Y-66043421D01*
X148726046Y-66043421D02*
X148894121Y-66155471D01*
X148894121Y-66155471D02*
X149118222Y-66211496D01*
X149118222Y-66211496D02*
X149566423Y-66211496D01*
X149566423Y-66211496D02*
X149678473Y-66155471D01*
X149678473Y-66155471D02*
X149734499Y-66099446D01*
X149734499Y-66099446D02*
X149790524Y-65987395D01*
X149790524Y-65987395D02*
X149790524Y-65763295D01*
X149790524Y-65763295D02*
X149734499Y-65651245D01*
X149734499Y-65651245D02*
X149678473Y-65595219D01*
X149678473Y-65595219D02*
X149566423Y-65539194D01*
X149566423Y-65539194D02*
X149286297Y-65539194D01*
X149286297Y-65539194D02*
X149174247Y-65595219D01*
X149174247Y-65595219D02*
X149118222Y-65651245D01*
X149118222Y-65651245D02*
X149062197Y-65763295D01*
X149062197Y-65763295D02*
X149062197Y-65987395D01*
X149062197Y-65987395D02*
X149118222Y-66099446D01*
X149118222Y-66099446D02*
X149174247Y-66155471D01*
X149174247Y-66155471D02*
X149286297Y-66211496D01*
D10*
X163197800Y-148833561D02*
X163105824Y-149086264D01*
X163151812Y-148959913D02*
X162709582Y-148798954D01*
X162709582Y-148798954D02*
X162757429Y-148864065D01*
X162757429Y-148864065D02*
X162784216Y-148921512D01*
X162784216Y-148921512D02*
X162789945Y-148971294D01*
X162855211Y-148398842D02*
X162870541Y-148356725D01*
X162870541Y-148356725D02*
X162906929Y-148322272D01*
X162906929Y-148322272D02*
X162935652Y-148308878D01*
X162935652Y-148308878D02*
X162985434Y-148303149D01*
X162985434Y-148303149D02*
X163077333Y-148312749D01*
X163077333Y-148312749D02*
X163182625Y-148351073D01*
X163182625Y-148351073D02*
X163259195Y-148402790D01*
X163259195Y-148402790D02*
X163293647Y-148439178D01*
X163293647Y-148439178D02*
X163307041Y-148467901D01*
X163307041Y-148467901D02*
X163312770Y-148517683D01*
X163312770Y-148517683D02*
X163297441Y-148559800D01*
X163297441Y-148559800D02*
X163261053Y-148594253D01*
X163261053Y-148594253D02*
X163232330Y-148607646D01*
X163232330Y-148607646D02*
X163182548Y-148613376D01*
X163182548Y-148613376D02*
X163090649Y-148603775D01*
X163090649Y-148603775D02*
X162985356Y-148565452D01*
X162985356Y-148565452D02*
X162908787Y-148513735D01*
X162908787Y-148513735D02*
X162874334Y-148477347D01*
X162874334Y-148477347D02*
X162860941Y-148448623D01*
X162860941Y-148448623D02*
X162855211Y-148398842D01*
X163008505Y-147977671D02*
X163023835Y-147935553D01*
X163023835Y-147935553D02*
X163060222Y-147901101D01*
X163060222Y-147901101D02*
X163088946Y-147887707D01*
X163088946Y-147887707D02*
X163138727Y-147881978D01*
X163138727Y-147881978D02*
X163230626Y-147891578D01*
X163230626Y-147891578D02*
X163335919Y-147929902D01*
X163335919Y-147929902D02*
X163412489Y-147981619D01*
X163412489Y-147981619D02*
X163446941Y-148018007D01*
X163446941Y-148018007D02*
X163460335Y-148046730D01*
X163460335Y-148046730D02*
X163466064Y-148096512D01*
X163466064Y-148096512D02*
X163450735Y-148138629D01*
X163450735Y-148138629D02*
X163414347Y-148173081D01*
X163414347Y-148173081D02*
X163385624Y-148186475D01*
X163385624Y-148186475D02*
X163335842Y-148192204D01*
X163335842Y-148192204D02*
X163243943Y-148182604D01*
X163243943Y-148182604D02*
X163138650Y-148144281D01*
X163138650Y-148144281D02*
X163062081Y-148092563D01*
X163062081Y-148092563D02*
X163027628Y-148056176D01*
X163027628Y-148056176D02*
X163014234Y-148027452D01*
X163014234Y-148027452D02*
X163008505Y-147977671D01*
X163278550Y-147694386D02*
X163573370Y-147801692D01*
X163320667Y-147709716D02*
X163307273Y-147680993D01*
X163307273Y-147680993D02*
X163301544Y-147631211D01*
X163301544Y-147631211D02*
X163324538Y-147568035D01*
X163324538Y-147568035D02*
X163360926Y-147533583D01*
X163360926Y-147533583D02*
X163410708Y-147527853D01*
X163410708Y-147527853D02*
X163642352Y-147612165D01*
X155706062Y-151943665D02*
X155659365Y-152208500D01*
X155682714Y-152076082D02*
X155219252Y-151994361D01*
X155219252Y-151994361D02*
X155277678Y-152050175D01*
X155277678Y-152050175D02*
X155314034Y-152102097D01*
X155314034Y-152102097D02*
X155328321Y-152150128D01*
X155293190Y-151575039D02*
X155300973Y-151530900D01*
X155300973Y-151530900D02*
X155330825Y-151490652D01*
X155330825Y-151490652D02*
X155356787Y-151472474D01*
X155356787Y-151472474D02*
X155404817Y-151458188D01*
X155404817Y-151458188D02*
X155496987Y-151451684D01*
X155496987Y-151451684D02*
X155607335Y-151471141D01*
X155607335Y-151471141D02*
X155691722Y-151508777D01*
X155691722Y-151508777D02*
X155731970Y-151538629D01*
X155731970Y-151538629D02*
X155750148Y-151564590D01*
X155750148Y-151564590D02*
X155764434Y-151612621D01*
X155764434Y-151612621D02*
X155756651Y-151656760D01*
X155756651Y-151656760D02*
X155726799Y-151697008D01*
X155726799Y-151697008D02*
X155700838Y-151715186D01*
X155700838Y-151715186D02*
X155652807Y-151729472D01*
X155652807Y-151729472D02*
X155560637Y-151735976D01*
X155560637Y-151735976D02*
X155450289Y-151716519D01*
X155450289Y-151716519D02*
X155365903Y-151678883D01*
X155365903Y-151678883D02*
X155325655Y-151649031D01*
X155325655Y-151649031D02*
X155307477Y-151623070D01*
X155307477Y-151623070D02*
X155293190Y-151575039D01*
X155371019Y-151133647D02*
X155378802Y-151089508D01*
X155378802Y-151089508D02*
X155408655Y-151049261D01*
X155408655Y-151049261D02*
X155434616Y-151031082D01*
X155434616Y-151031082D02*
X155482646Y-151016796D01*
X155482646Y-151016796D02*
X155574816Y-151010292D01*
X155574816Y-151010292D02*
X155685164Y-151029749D01*
X155685164Y-151029749D02*
X155769551Y-151067385D01*
X155769551Y-151067385D02*
X155809799Y-151097237D01*
X155809799Y-151097237D02*
X155827977Y-151123198D01*
X155827977Y-151123198D02*
X155842264Y-151171229D01*
X155842264Y-151171229D02*
X155834481Y-151215368D01*
X155834481Y-151215368D02*
X155804628Y-151255616D01*
X155804628Y-151255616D02*
X155778667Y-151273794D01*
X155778667Y-151273794D02*
X155730636Y-151288081D01*
X155730636Y-151288081D02*
X155638467Y-151294584D01*
X155638467Y-151294584D02*
X155528119Y-151275127D01*
X155528119Y-151275127D02*
X155443732Y-151237492D01*
X155443732Y-151237492D02*
X155403484Y-151207639D01*
X155403484Y-151207639D02*
X155385306Y-151181678D01*
X155385306Y-151181678D02*
X155371019Y-151133647D01*
X155587770Y-150807774D02*
X155896744Y-150862255D01*
X155631909Y-150815557D02*
X155613731Y-150789596D01*
X155613731Y-150789596D02*
X155599444Y-150741565D01*
X155599444Y-150741565D02*
X155611119Y-150675357D01*
X155611119Y-150675357D02*
X155640971Y-150635109D01*
X155640971Y-150635109D02*
X155689002Y-150620822D01*
X155689002Y-150620822D02*
X155931767Y-150663628D01*
D12*
X173424247Y-61519804D02*
X173480272Y-61351728D01*
X173480272Y-61351728D02*
X173536297Y-61295703D01*
X173536297Y-61295703D02*
X173648348Y-61239678D01*
X173648348Y-61239678D02*
X173816423Y-61239678D01*
X173816423Y-61239678D02*
X173928473Y-61295703D01*
X173928473Y-61295703D02*
X173984499Y-61351728D01*
X173984499Y-61351728D02*
X174040524Y-61463779D01*
X174040524Y-61463779D02*
X174040524Y-61911980D01*
X174040524Y-61911980D02*
X172863996Y-61911980D01*
X172863996Y-61911980D02*
X172863996Y-61519804D01*
X172863996Y-61519804D02*
X172920021Y-61407754D01*
X172920021Y-61407754D02*
X172976046Y-61351728D01*
X172976046Y-61351728D02*
X173088096Y-61295703D01*
X173088096Y-61295703D02*
X173200147Y-61295703D01*
X173200147Y-61295703D02*
X173312197Y-61351728D01*
X173312197Y-61351728D02*
X173368222Y-61407754D01*
X173368222Y-61407754D02*
X173424247Y-61519804D01*
X173424247Y-61519804D02*
X173424247Y-61911980D01*
X173256172Y-60231226D02*
X174040524Y-60231226D01*
X173256172Y-60735452D02*
X173872448Y-60735452D01*
X173872448Y-60735452D02*
X173984499Y-60679427D01*
X173984499Y-60679427D02*
X174040524Y-60567376D01*
X174040524Y-60567376D02*
X174040524Y-60399301D01*
X174040524Y-60399301D02*
X173984499Y-60287251D01*
X173984499Y-60287251D02*
X173928473Y-60231226D01*
X173256172Y-59783024D02*
X173256172Y-59166748D01*
X173256172Y-59166748D02*
X174040524Y-59783024D01*
X174040524Y-59783024D02*
X174040524Y-59166748D01*
X173256172Y-58830597D02*
X173256172Y-58214321D01*
X173256172Y-58214321D02*
X174040524Y-58830597D01*
X174040524Y-58830597D02*
X174040524Y-58214321D01*
X173984499Y-57317919D02*
X174040524Y-57429969D01*
X174040524Y-57429969D02*
X174040524Y-57654070D01*
X174040524Y-57654070D02*
X173984499Y-57766120D01*
X173984499Y-57766120D02*
X173872448Y-57822145D01*
X173872448Y-57822145D02*
X173424247Y-57822145D01*
X173424247Y-57822145D02*
X173312197Y-57766120D01*
X173312197Y-57766120D02*
X173256172Y-57654070D01*
X173256172Y-57654070D02*
X173256172Y-57429969D01*
X173256172Y-57429969D02*
X173312197Y-57317919D01*
X173312197Y-57317919D02*
X173424247Y-57261894D01*
X173424247Y-57261894D02*
X173536297Y-57261894D01*
X173536297Y-57261894D02*
X173648348Y-57822145D01*
X174040524Y-56757667D02*
X173256172Y-56757667D01*
X173480272Y-56757667D02*
X173368222Y-56701642D01*
X173368222Y-56701642D02*
X173312197Y-56645617D01*
X173312197Y-56645617D02*
X173256172Y-56533566D01*
X173256172Y-56533566D02*
X173256172Y-56421516D01*
X165354138Y-133555525D02*
X165492916Y-133665657D01*
X165492916Y-133665657D02*
X165756148Y-133761465D01*
X165756148Y-133761465D02*
X165880603Y-133747142D01*
X165880603Y-133747142D02*
X165952411Y-133713658D01*
X165952411Y-133713658D02*
X166043381Y-133627527D01*
X166043381Y-133627527D02*
X166081704Y-133522234D01*
X166081704Y-133522234D02*
X166067381Y-133397779D01*
X166067381Y-133397779D02*
X166033896Y-133325971D01*
X166033896Y-133325971D02*
X165947765Y-133235001D01*
X165947765Y-133235001D02*
X165756341Y-133105708D01*
X165756341Y-133105708D02*
X165670210Y-133014738D01*
X165670210Y-133014738D02*
X165636726Y-132942930D01*
X165636726Y-132942930D02*
X165622403Y-132818475D01*
X165622403Y-132818475D02*
X165660726Y-132713182D01*
X165660726Y-132713182D02*
X165751696Y-132627051D01*
X165751696Y-132627051D02*
X165823504Y-132593567D01*
X165823504Y-132593567D02*
X165947959Y-132579244D01*
X165947959Y-132579244D02*
X166211191Y-132675052D01*
X166211191Y-132675052D02*
X166349968Y-132785184D01*
X166407067Y-133938760D02*
X166545844Y-134048891D01*
X166545844Y-134048891D02*
X166809076Y-134144700D01*
X166809076Y-134144700D02*
X166933531Y-134130377D01*
X166933531Y-134130377D02*
X167005339Y-134096892D01*
X167005339Y-134096892D02*
X167096309Y-134010761D01*
X167096309Y-134010761D02*
X167134632Y-133905468D01*
X167134632Y-133905468D02*
X167120309Y-133781014D01*
X167120309Y-133781014D02*
X167086825Y-133709206D01*
X167086825Y-133709206D02*
X167000694Y-133618236D01*
X167000694Y-133618236D02*
X166809270Y-133488942D01*
X166809270Y-133488942D02*
X166723139Y-133397973D01*
X166723139Y-133397973D02*
X166689654Y-133326164D01*
X166689654Y-133326164D02*
X166675331Y-133201710D01*
X166675331Y-133201710D02*
X166713654Y-133096417D01*
X166713654Y-133096417D02*
X166804624Y-133010286D01*
X166804624Y-133010286D02*
X166876432Y-132976801D01*
X166876432Y-132976801D02*
X167000887Y-132962478D01*
X167000887Y-132962478D02*
X167264119Y-133058287D01*
X167264119Y-133058287D02*
X167402897Y-133168419D01*
X167881360Y-133819531D02*
X167795229Y-133728561D01*
X167795229Y-133728561D02*
X167761744Y-133656753D01*
X167761744Y-133656753D02*
X167747421Y-133532298D01*
X167747421Y-133532298D02*
X167766583Y-133479652D01*
X167766583Y-133479652D02*
X167857553Y-133393521D01*
X167857553Y-133393521D02*
X167929361Y-133360036D01*
X167929361Y-133360036D02*
X168053815Y-133345713D01*
X168053815Y-133345713D02*
X168264401Y-133422360D01*
X168264401Y-133422360D02*
X168350532Y-133513330D01*
X168350532Y-133513330D02*
X168384017Y-133585138D01*
X168384017Y-133585138D02*
X168398340Y-133709592D01*
X168398340Y-133709592D02*
X168379178Y-133762239D01*
X168379178Y-133762239D02*
X168288208Y-133848370D01*
X168288208Y-133848370D02*
X168216400Y-133881855D01*
X168216400Y-133881855D02*
X168091946Y-133896178D01*
X168091946Y-133896178D02*
X167881360Y-133819531D01*
X167881360Y-133819531D02*
X167756905Y-133833854D01*
X167756905Y-133833854D02*
X167685097Y-133867338D01*
X167685097Y-133867338D02*
X167594127Y-133953469D01*
X167594127Y-133953469D02*
X167517480Y-134164055D01*
X167517480Y-134164055D02*
X167531803Y-134288510D01*
X167531803Y-134288510D02*
X167565288Y-134360318D01*
X167565288Y-134360318D02*
X167651419Y-134451288D01*
X167651419Y-134451288D02*
X167862005Y-134527934D01*
X167862005Y-134527934D02*
X167986459Y-134513612D01*
X167986459Y-134513612D02*
X168058267Y-134480127D01*
X168058267Y-134480127D02*
X168149237Y-134393996D01*
X168149237Y-134393996D02*
X168225884Y-134183410D01*
X168225884Y-134183410D02*
X168211561Y-134058956D01*
X168211561Y-134058956D02*
X168178077Y-133987147D01*
X168178077Y-133987147D02*
X168091946Y-133896178D01*
X169159390Y-133748109D02*
X169264683Y-133786433D01*
X169264683Y-133786433D02*
X169350814Y-133877403D01*
X169350814Y-133877403D02*
X169384299Y-133949211D01*
X169384299Y-133949211D02*
X169398622Y-134073665D01*
X169398622Y-134073665D02*
X169374621Y-134303413D01*
X169374621Y-134303413D02*
X169278813Y-134566645D01*
X169278813Y-134566645D02*
X169149519Y-134758069D01*
X169149519Y-134758069D02*
X169058549Y-134844200D01*
X169058549Y-134844200D02*
X168986741Y-134877684D01*
X168986741Y-134877684D02*
X168862287Y-134892007D01*
X168862287Y-134892007D02*
X168756994Y-134853684D01*
X168756994Y-134853684D02*
X168670863Y-134762714D01*
X168670863Y-134762714D02*
X168637378Y-134690906D01*
X168637378Y-134690906D02*
X168623055Y-134566451D01*
X168623055Y-134566451D02*
X168647056Y-134336704D01*
X168647056Y-134336704D02*
X168742864Y-134073472D01*
X168742864Y-134073472D02*
X168872158Y-133882048D01*
X168872158Y-133882048D02*
X168963128Y-133795917D01*
X168963128Y-133795917D02*
X169034936Y-133762432D01*
X169034936Y-133762432D02*
X169159390Y-133748109D01*
X170528197Y-134246314D02*
X170001733Y-134054697D01*
X170001733Y-134054697D02*
X169757469Y-134561999D01*
X169757469Y-134561999D02*
X169829277Y-134528515D01*
X169829277Y-134528515D02*
X169953732Y-134514192D01*
X169953732Y-134514192D02*
X170216964Y-134610000D01*
X170216964Y-134610000D02*
X170303095Y-134700970D01*
X170303095Y-134700970D02*
X170336580Y-134772778D01*
X170336580Y-134772778D02*
X170350903Y-134897233D01*
X170350903Y-134897233D02*
X170255094Y-135160465D01*
X170255094Y-135160465D02*
X170164124Y-135246596D01*
X170164124Y-135246596D02*
X170092316Y-135280081D01*
X170092316Y-135280081D02*
X169967862Y-135294404D01*
X169967862Y-135294404D02*
X169704630Y-135198595D01*
X169704630Y-135198595D02*
X169618498Y-135107625D01*
X169618498Y-135107625D02*
X169585014Y-135035817D01*
X171265247Y-134514578D02*
X171370540Y-134552902D01*
X171370540Y-134552902D02*
X171456671Y-134643872D01*
X171456671Y-134643872D02*
X171490156Y-134715680D01*
X171490156Y-134715680D02*
X171504479Y-134840134D01*
X171504479Y-134840134D02*
X171480478Y-135069882D01*
X171480478Y-135069882D02*
X171384669Y-135333114D01*
X171384669Y-135333114D02*
X171255376Y-135524538D01*
X171255376Y-135524538D02*
X171164406Y-135610669D01*
X171164406Y-135610669D02*
X171092598Y-135644154D01*
X171092598Y-135644154D02*
X170968144Y-135658477D01*
X170968144Y-135658477D02*
X170862851Y-135620153D01*
X170862851Y-135620153D02*
X170776720Y-135529183D01*
X170776720Y-135529183D02*
X170743235Y-135457375D01*
X170743235Y-135457375D02*
X170728912Y-135332921D01*
X170728912Y-135332921D02*
X170752913Y-135103173D01*
X170752913Y-135103173D02*
X170848721Y-134839941D01*
X170848721Y-134839941D02*
X170978014Y-134648517D01*
X170978014Y-134648517D02*
X171068984Y-134562386D01*
X171068984Y-134562386D02*
X171140792Y-134528901D01*
X171140792Y-134528901D02*
X171265247Y-134514578D01*
D10*
X168803438Y-154433628D02*
X168803438Y-154747369D01*
X168691388Y-154254348D02*
X168579338Y-154590498D01*
X168579338Y-154590498D02*
X168870668Y-154590498D01*
X169005129Y-154276758D02*
X169318869Y-154276758D01*
X169318869Y-154276758D02*
X169117179Y-154747369D01*
X169699840Y-154433628D02*
X169699840Y-154747369D01*
X169498150Y-154433628D02*
X169498150Y-154680138D01*
X169498150Y-154680138D02*
X169520560Y-154724959D01*
X169520560Y-154724959D02*
X169565380Y-154747369D01*
X169565380Y-154747369D02*
X169632610Y-154747369D01*
X169632610Y-154747369D02*
X169677430Y-154724959D01*
X169677430Y-154724959D02*
X169699840Y-154702548D01*
X150075869Y-61902613D02*
X150075869Y-62171533D01*
X150075869Y-62037073D02*
X149605258Y-62037073D01*
X149605258Y-62037073D02*
X149672488Y-62081893D01*
X149672488Y-62081893D02*
X149717308Y-62126713D01*
X149717308Y-62126713D02*
X149739718Y-62171533D01*
X149650078Y-61723332D02*
X149627668Y-61700922D01*
X149627668Y-61700922D02*
X149605258Y-61656102D01*
X149605258Y-61656102D02*
X149605258Y-61544052D01*
X149605258Y-61544052D02*
X149627668Y-61499232D01*
X149627668Y-61499232D02*
X149650078Y-61476822D01*
X149650078Y-61476822D02*
X149694898Y-61454412D01*
X149694898Y-61454412D02*
X149739718Y-61454412D01*
X149739718Y-61454412D02*
X149806948Y-61476822D01*
X149806948Y-61476822D02*
X150075869Y-61745742D01*
X150075869Y-61745742D02*
X150075869Y-61454412D01*
X150075869Y-61252721D02*
X149605258Y-61252721D01*
X149896588Y-61207901D02*
X150075869Y-61073441D01*
X149762128Y-61073441D02*
X149941408Y-61252721D01*
X150075869Y-60266679D02*
X150075869Y-60535599D01*
X150075869Y-60401139D02*
X149605258Y-60401139D01*
X149605258Y-60401139D02*
X149672488Y-60445959D01*
X149672488Y-60445959D02*
X149717308Y-60490779D01*
X149717308Y-60490779D02*
X149739718Y-60535599D01*
X150075869Y-60087398D02*
X149605258Y-59728838D01*
X149605258Y-60020168D02*
X149627668Y-59975348D01*
X149627668Y-59975348D02*
X149672488Y-59952938D01*
X149672488Y-59952938D02*
X149717308Y-59975348D01*
X149717308Y-59975348D02*
X149739718Y-60020168D01*
X149739718Y-60020168D02*
X149717308Y-60064988D01*
X149717308Y-60064988D02*
X149672488Y-60087398D01*
X149672488Y-60087398D02*
X149627668Y-60064988D01*
X149627668Y-60064988D02*
X149605258Y-60020168D01*
X150053459Y-59751248D02*
X150008638Y-59728838D01*
X150008638Y-59728838D02*
X149963818Y-59751248D01*
X149963818Y-59751248D02*
X149941408Y-59796068D01*
X149941408Y-59796068D02*
X149963818Y-59840888D01*
X149963818Y-59840888D02*
X150008638Y-59863298D01*
X150008638Y-59863298D02*
X150053459Y-59840888D01*
X150053459Y-59840888D02*
X150075869Y-59796068D01*
X150075869Y-59796068D02*
X150053459Y-59751248D01*
X147995258Y-66485369D02*
X147726338Y-66485369D01*
X147860798Y-66485369D02*
X147860798Y-66014758D01*
X147860798Y-66014758D02*
X147815978Y-66081988D01*
X147815978Y-66081988D02*
X147771158Y-66126808D01*
X147771158Y-66126808D02*
X147726338Y-66149218D01*
X148174539Y-66059578D02*
X148196949Y-66037168D01*
X148196949Y-66037168D02*
X148241769Y-66014758D01*
X148241769Y-66014758D02*
X148353819Y-66014758D01*
X148353819Y-66014758D02*
X148398639Y-66037168D01*
X148398639Y-66037168D02*
X148421049Y-66059578D01*
X148421049Y-66059578D02*
X148443459Y-66104398D01*
X148443459Y-66104398D02*
X148443459Y-66149218D01*
X148443459Y-66149218D02*
X148421049Y-66216448D01*
X148421049Y-66216448D02*
X148152129Y-66485369D01*
X148152129Y-66485369D02*
X148443459Y-66485369D01*
X148645150Y-66485369D02*
X148645150Y-66014758D01*
X148689970Y-66306088D02*
X148824430Y-66485369D01*
X148824430Y-66171628D02*
X148645150Y-66350908D01*
X149631192Y-66485369D02*
X149362272Y-66485369D01*
X149496732Y-66485369D02*
X149496732Y-66014758D01*
X149496732Y-66014758D02*
X149451912Y-66081988D01*
X149451912Y-66081988D02*
X149407092Y-66126808D01*
X149407092Y-66126808D02*
X149362272Y-66149218D01*
X149810473Y-66485369D02*
X150169033Y-66014758D01*
X149877703Y-66014758D02*
X149922523Y-66037168D01*
X149922523Y-66037168D02*
X149944933Y-66081988D01*
X149944933Y-66081988D02*
X149922523Y-66126808D01*
X149922523Y-66126808D02*
X149877703Y-66149218D01*
X149877703Y-66149218D02*
X149832883Y-66126808D01*
X149832883Y-66126808D02*
X149810473Y-66081988D01*
X149810473Y-66081988D02*
X149832883Y-66037168D01*
X149832883Y-66037168D02*
X149877703Y-66014758D01*
X150146623Y-66462959D02*
X150169033Y-66418138D01*
X150169033Y-66418138D02*
X150146623Y-66373318D01*
X150146623Y-66373318D02*
X150101803Y-66350908D01*
X150101803Y-66350908D02*
X150056983Y-66373318D01*
X150056983Y-66373318D02*
X150034573Y-66418138D01*
X150034573Y-66418138D02*
X150056983Y-66462959D01*
X150056983Y-66462959D02*
X150101803Y-66485369D01*
X150101803Y-66485369D02*
X150146623Y-66462959D01*
X157453668Y-60078369D02*
X157184748Y-60078369D01*
X157319208Y-60078369D02*
X157319208Y-59607758D01*
X157319208Y-59607758D02*
X157274388Y-59674988D01*
X157274388Y-59674988D02*
X157229568Y-59719808D01*
X157229568Y-59719808D02*
X157184748Y-59742218D01*
X157744999Y-59607758D02*
X157789819Y-59607758D01*
X157789819Y-59607758D02*
X157834639Y-59630168D01*
X157834639Y-59630168D02*
X157857049Y-59652578D01*
X157857049Y-59652578D02*
X157879459Y-59697398D01*
X157879459Y-59697398D02*
X157901869Y-59787038D01*
X157901869Y-59787038D02*
X157901869Y-59899088D01*
X157901869Y-59899088D02*
X157879459Y-59988728D01*
X157879459Y-59988728D02*
X157857049Y-60033548D01*
X157857049Y-60033548D02*
X157834639Y-60055959D01*
X157834639Y-60055959D02*
X157789819Y-60078369D01*
X157789819Y-60078369D02*
X157744999Y-60078369D01*
X157744999Y-60078369D02*
X157700179Y-60055959D01*
X157700179Y-60055959D02*
X157677769Y-60033548D01*
X157677769Y-60033548D02*
X157655359Y-59988728D01*
X157655359Y-59988728D02*
X157632949Y-59899088D01*
X157632949Y-59899088D02*
X157632949Y-59787038D01*
X157632949Y-59787038D02*
X157655359Y-59697398D01*
X157655359Y-59697398D02*
X157677769Y-59652578D01*
X157677769Y-59652578D02*
X157700179Y-59630168D01*
X157700179Y-59630168D02*
X157744999Y-59607758D01*
X158193200Y-59607758D02*
X158238020Y-59607758D01*
X158238020Y-59607758D02*
X158282840Y-59630168D01*
X158282840Y-59630168D02*
X158305250Y-59652578D01*
X158305250Y-59652578D02*
X158327660Y-59697398D01*
X158327660Y-59697398D02*
X158350070Y-59787038D01*
X158350070Y-59787038D02*
X158350070Y-59899088D01*
X158350070Y-59899088D02*
X158327660Y-59988728D01*
X158327660Y-59988728D02*
X158305250Y-60033548D01*
X158305250Y-60033548D02*
X158282840Y-60055959D01*
X158282840Y-60055959D02*
X158238020Y-60078369D01*
X158238020Y-60078369D02*
X158193200Y-60078369D01*
X158193200Y-60078369D02*
X158148380Y-60055959D01*
X158148380Y-60055959D02*
X158125970Y-60033548D01*
X158125970Y-60033548D02*
X158103560Y-59988728D01*
X158103560Y-59988728D02*
X158081150Y-59899088D01*
X158081150Y-59899088D02*
X158081150Y-59787038D01*
X158081150Y-59787038D02*
X158103560Y-59697398D01*
X158103560Y-59697398D02*
X158125970Y-59652578D01*
X158125970Y-59652578D02*
X158148380Y-59630168D01*
X158148380Y-59630168D02*
X158193200Y-59607758D01*
X158551761Y-59764628D02*
X158551761Y-60078369D01*
X158551761Y-59809448D02*
X158574171Y-59787038D01*
X158574171Y-59787038D02*
X158618991Y-59764628D01*
X158618991Y-59764628D02*
X158686221Y-59764628D01*
X158686221Y-59764628D02*
X158731041Y-59787038D01*
X158731041Y-59787038D02*
X158753451Y-59831858D01*
X158753451Y-59831858D02*
X158753451Y-60078369D01*
X147995258Y-65360369D02*
X147726338Y-65360369D01*
X147860798Y-65360369D02*
X147860798Y-64889758D01*
X147860798Y-64889758D02*
X147815978Y-64956988D01*
X147815978Y-64956988D02*
X147771158Y-65001808D01*
X147771158Y-65001808D02*
X147726338Y-65024218D01*
X148174539Y-64934578D02*
X148196949Y-64912168D01*
X148196949Y-64912168D02*
X148241769Y-64889758D01*
X148241769Y-64889758D02*
X148353819Y-64889758D01*
X148353819Y-64889758D02*
X148398639Y-64912168D01*
X148398639Y-64912168D02*
X148421049Y-64934578D01*
X148421049Y-64934578D02*
X148443459Y-64979398D01*
X148443459Y-64979398D02*
X148443459Y-65024218D01*
X148443459Y-65024218D02*
X148421049Y-65091448D01*
X148421049Y-65091448D02*
X148152129Y-65360369D01*
X148152129Y-65360369D02*
X148443459Y-65360369D01*
X148645150Y-65360369D02*
X148645150Y-64889758D01*
X148689970Y-65181088D02*
X148824430Y-65360369D01*
X148824430Y-65046628D02*
X148645150Y-65225908D01*
X149631192Y-65360369D02*
X149362272Y-65360369D01*
X149496732Y-65360369D02*
X149496732Y-64889758D01*
X149496732Y-64889758D02*
X149451912Y-64956988D01*
X149451912Y-64956988D02*
X149407092Y-65001808D01*
X149407092Y-65001808D02*
X149362272Y-65024218D01*
X149810473Y-65360369D02*
X150169033Y-64889758D01*
X149877703Y-64889758D02*
X149922523Y-64912168D01*
X149922523Y-64912168D02*
X149944933Y-64956988D01*
X149944933Y-64956988D02*
X149922523Y-65001808D01*
X149922523Y-65001808D02*
X149877703Y-65024218D01*
X149877703Y-65024218D02*
X149832883Y-65001808D01*
X149832883Y-65001808D02*
X149810473Y-64956988D01*
X149810473Y-64956988D02*
X149832883Y-64912168D01*
X149832883Y-64912168D02*
X149877703Y-64889758D01*
X150146623Y-65337959D02*
X150169033Y-65293138D01*
X150169033Y-65293138D02*
X150146623Y-65248318D01*
X150146623Y-65248318D02*
X150101803Y-65225908D01*
X150101803Y-65225908D02*
X150056983Y-65248318D01*
X150056983Y-65248318D02*
X150034573Y-65293138D01*
X150034573Y-65293138D02*
X150056983Y-65337959D01*
X150056983Y-65337959D02*
X150101803Y-65360369D01*
X150101803Y-65360369D02*
X150146623Y-65337959D01*
X153230258Y-57644160D02*
X153230258Y-57375240D01*
X153700869Y-57509700D02*
X153230258Y-57509700D01*
X153454358Y-57061499D02*
X153476768Y-56994269D01*
X153476768Y-56994269D02*
X153499178Y-56971859D01*
X153499178Y-56971859D02*
X153543998Y-56949449D01*
X153543998Y-56949449D02*
X153611228Y-56949449D01*
X153611228Y-56949449D02*
X153656048Y-56971859D01*
X153656048Y-56971859D02*
X153678459Y-56994269D01*
X153678459Y-56994269D02*
X153700869Y-57039089D01*
X153700869Y-57039089D02*
X153700869Y-57218369D01*
X153700869Y-57218369D02*
X153230258Y-57218369D01*
X153230258Y-57218369D02*
X153230258Y-57061499D01*
X153230258Y-57061499D02*
X153252668Y-57016679D01*
X153252668Y-57016679D02*
X153275078Y-56994269D01*
X153275078Y-56994269D02*
X153319898Y-56971859D01*
X153319898Y-56971859D02*
X153364718Y-56971859D01*
X153364718Y-56971859D02*
X153409538Y-56994269D01*
X153409538Y-56994269D02*
X153431948Y-57016679D01*
X153431948Y-57016679D02*
X153454358Y-57061499D01*
X153454358Y-57061499D02*
X153454358Y-57218369D01*
X153700869Y-56747758D02*
X153230258Y-56747758D01*
X153230258Y-56747758D02*
X153230258Y-56635708D01*
X153230258Y-56635708D02*
X153252668Y-56568478D01*
X153252668Y-56568478D02*
X153297488Y-56523658D01*
X153297488Y-56523658D02*
X153342308Y-56501248D01*
X153342308Y-56501248D02*
X153431948Y-56478838D01*
X153431948Y-56478838D02*
X153499178Y-56478838D01*
X153499178Y-56478838D02*
X153588818Y-56501248D01*
X153588818Y-56501248D02*
X153633638Y-56523658D01*
X153633638Y-56523658D02*
X153678459Y-56568478D01*
X153678459Y-56568478D02*
X153700869Y-56635708D01*
X153700869Y-56635708D02*
X153700869Y-56747758D01*
X157495258Y-63235369D02*
X157226338Y-63235369D01*
X157360798Y-63235369D02*
X157360798Y-62764758D01*
X157360798Y-62764758D02*
X157315978Y-62831988D01*
X157315978Y-62831988D02*
X157271158Y-62876808D01*
X157271158Y-62876808D02*
X157226338Y-62899218D01*
X157674539Y-62809578D02*
X157696949Y-62787168D01*
X157696949Y-62787168D02*
X157741769Y-62764758D01*
X157741769Y-62764758D02*
X157853819Y-62764758D01*
X157853819Y-62764758D02*
X157898639Y-62787168D01*
X157898639Y-62787168D02*
X157921049Y-62809578D01*
X157921049Y-62809578D02*
X157943459Y-62854398D01*
X157943459Y-62854398D02*
X157943459Y-62899218D01*
X157943459Y-62899218D02*
X157921049Y-62966448D01*
X157921049Y-62966448D02*
X157652129Y-63235369D01*
X157652129Y-63235369D02*
X157943459Y-63235369D01*
X158145150Y-63235369D02*
X158145150Y-62764758D01*
X158189970Y-63056088D02*
X158324430Y-63235369D01*
X158324430Y-62921628D02*
X158145150Y-63100908D01*
X159131192Y-63235369D02*
X158862272Y-63235369D01*
X158996732Y-63235369D02*
X158996732Y-62764758D01*
X158996732Y-62764758D02*
X158951912Y-62831988D01*
X158951912Y-62831988D02*
X158907092Y-62876808D01*
X158907092Y-62876808D02*
X158862272Y-62899218D01*
X159310473Y-63235369D02*
X159669033Y-62764758D01*
X159377703Y-62764758D02*
X159422523Y-62787168D01*
X159422523Y-62787168D02*
X159444933Y-62831988D01*
X159444933Y-62831988D02*
X159422523Y-62876808D01*
X159422523Y-62876808D02*
X159377703Y-62899218D01*
X159377703Y-62899218D02*
X159332883Y-62876808D01*
X159332883Y-62876808D02*
X159310473Y-62831988D01*
X159310473Y-62831988D02*
X159332883Y-62787168D01*
X159332883Y-62787168D02*
X159377703Y-62764758D01*
X159646623Y-63212959D02*
X159669033Y-63168138D01*
X159669033Y-63168138D02*
X159646623Y-63123318D01*
X159646623Y-63123318D02*
X159601803Y-63100908D01*
X159601803Y-63100908D02*
X159556983Y-63123318D01*
X159556983Y-63123318D02*
X159534573Y-63168138D01*
X159534573Y-63168138D02*
X159556983Y-63212959D01*
X159556983Y-63212959D02*
X159601803Y-63235369D01*
X159601803Y-63235369D02*
X159646623Y-63212959D01*
D13*
X164844765Y-155331897D02*
X164844765Y-155902550D01*
X164844765Y-155902550D02*
X163646393Y-155902550D01*
X164844765Y-154932439D02*
X163646393Y-154932439D01*
X163646393Y-154932439D02*
X163646393Y-154647112D01*
X163646393Y-154647112D02*
X163703458Y-154475916D01*
X163703458Y-154475916D02*
X163817589Y-154361786D01*
X163817589Y-154361786D02*
X163931720Y-154304720D01*
X163931720Y-154304720D02*
X164159981Y-154247655D01*
X164159981Y-154247655D02*
X164331177Y-154247655D01*
X164331177Y-154247655D02*
X164559438Y-154304720D01*
X164559438Y-154304720D02*
X164673569Y-154361786D01*
X164673569Y-154361786D02*
X164787700Y-154475916D01*
X164787700Y-154475916D02*
X164844765Y-154647112D01*
X164844765Y-154647112D02*
X164844765Y-154932439D01*
X164844765Y-153106348D02*
X164844765Y-153791132D01*
X164844765Y-153448740D02*
X163646393Y-153448740D01*
X163646393Y-153448740D02*
X163817589Y-153562871D01*
X163817589Y-153562871D02*
X163931720Y-153677002D01*
X163931720Y-153677002D02*
X163988785Y-153791132D01*
X164844765Y-151965041D02*
X164844765Y-152649825D01*
X164844765Y-152307433D02*
X163646393Y-152307433D01*
X163646393Y-152307433D02*
X163817589Y-152421564D01*
X163817589Y-152421564D02*
X163931720Y-152535695D01*
X163931720Y-152535695D02*
X163988785Y-152649825D01*
X164844765Y-150823734D02*
X164844765Y-151508518D01*
X164844765Y-151166126D02*
X163646393Y-151166126D01*
X163646393Y-151166126D02*
X163817589Y-151280257D01*
X163817589Y-151280257D02*
X163931720Y-151394388D01*
X163931720Y-151394388D02*
X163988785Y-151508518D01*
X163646393Y-150424277D02*
X163646393Y-149625362D01*
X163646393Y-149625362D02*
X164844765Y-150138950D01*
X164388242Y-149168839D02*
X164388242Y-148255794D01*
X163646393Y-147799271D02*
X163646393Y-147057421D01*
X163646393Y-147057421D02*
X164102916Y-147456879D01*
X164102916Y-147456879D02*
X164102916Y-147285683D01*
X164102916Y-147285683D02*
X164159981Y-147171552D01*
X164159981Y-147171552D02*
X164217046Y-147114487D01*
X164217046Y-147114487D02*
X164331177Y-147057421D01*
X164331177Y-147057421D02*
X164616504Y-147057421D01*
X164616504Y-147057421D02*
X164730634Y-147114487D01*
X164730634Y-147114487D02*
X164787700Y-147171552D01*
X164787700Y-147171552D02*
X164844765Y-147285683D01*
X164844765Y-147285683D02*
X164844765Y-147628075D01*
X164844765Y-147628075D02*
X164787700Y-147742205D01*
X164787700Y-147742205D02*
X164730634Y-147799271D01*
X164730634Y-146543833D02*
X164787700Y-146486768D01*
X164787700Y-146486768D02*
X164844765Y-146543833D01*
X164844765Y-146543833D02*
X164787700Y-146600898D01*
X164787700Y-146600898D02*
X164730634Y-146543833D01*
X164730634Y-146543833D02*
X164844765Y-146543833D01*
X163646393Y-146087311D02*
X163646393Y-145345461D01*
X163646393Y-145345461D02*
X164102916Y-145744919D01*
X164102916Y-145744919D02*
X164102916Y-145573723D01*
X164102916Y-145573723D02*
X164159981Y-145459592D01*
X164159981Y-145459592D02*
X164217046Y-145402527D01*
X164217046Y-145402527D02*
X164331177Y-145345461D01*
X164331177Y-145345461D02*
X164616504Y-145345461D01*
X164616504Y-145345461D02*
X164730634Y-145402527D01*
X164730634Y-145402527D02*
X164787700Y-145459592D01*
X164787700Y-145459592D02*
X164844765Y-145573723D01*
X164844765Y-145573723D02*
X164844765Y-145916115D01*
X164844765Y-145916115D02*
X164787700Y-146030245D01*
X164787700Y-146030245D02*
X164730634Y-146087311D01*
D10*
X155137128Y-60647650D02*
X155450869Y-60647650D01*
X154957848Y-60759700D02*
X155293998Y-60871750D01*
X155293998Y-60871750D02*
X155293998Y-60580420D01*
X155137128Y-60199449D02*
X155450869Y-60199449D01*
X155137128Y-60401139D02*
X155383638Y-60401139D01*
X155383638Y-60401139D02*
X155428459Y-60378729D01*
X155428459Y-60378729D02*
X155450869Y-60333909D01*
X155450869Y-60333909D02*
X155450869Y-60266679D01*
X155450869Y-60266679D02*
X155428459Y-60221859D01*
X155428459Y-60221859D02*
X155406048Y-60199449D01*
X154980258Y-60020168D02*
X154980258Y-59706428D01*
X154980258Y-59706428D02*
X155450869Y-59908118D01*
X158295790Y-67559448D02*
X158250970Y-67537038D01*
X158250970Y-67537038D02*
X158228560Y-67514628D01*
X158228560Y-67514628D02*
X158206150Y-67469808D01*
X158206150Y-67469808D02*
X158206150Y-67447398D01*
X158206150Y-67447398D02*
X158228560Y-67402578D01*
X158228560Y-67402578D02*
X158250970Y-67380168D01*
X158250970Y-67380168D02*
X158295790Y-67357758D01*
X158295790Y-67357758D02*
X158385430Y-67357758D01*
X158385430Y-67357758D02*
X158430250Y-67380168D01*
X158430250Y-67380168D02*
X158452660Y-67402578D01*
X158452660Y-67402578D02*
X158475070Y-67447398D01*
X158475070Y-67447398D02*
X158475070Y-67469808D01*
X158475070Y-67469808D02*
X158452660Y-67514628D01*
X158452660Y-67514628D02*
X158430250Y-67537038D01*
X158430250Y-67537038D02*
X158385430Y-67559448D01*
X158385430Y-67559448D02*
X158295790Y-67559448D01*
X158295790Y-67559448D02*
X158250970Y-67581858D01*
X158250970Y-67581858D02*
X158228560Y-67604268D01*
X158228560Y-67604268D02*
X158206150Y-67649088D01*
X158206150Y-67649088D02*
X158206150Y-67738728D01*
X158206150Y-67738728D02*
X158228560Y-67783548D01*
X158228560Y-67783548D02*
X158250970Y-67805959D01*
X158250970Y-67805959D02*
X158295790Y-67828369D01*
X158295790Y-67828369D02*
X158385430Y-67828369D01*
X158385430Y-67828369D02*
X158430250Y-67805959D01*
X158430250Y-67805959D02*
X158452660Y-67783548D01*
X158452660Y-67783548D02*
X158475070Y-67738728D01*
X158475070Y-67738728D02*
X158475070Y-67649088D01*
X158475070Y-67649088D02*
X158452660Y-67604268D01*
X158452660Y-67604268D02*
X158430250Y-67581858D01*
X158430250Y-67581858D02*
X158385430Y-67559448D01*
X158676761Y-67514628D02*
X158676761Y-67985239D01*
X158676761Y-67537038D02*
X158721581Y-67514628D01*
X158721581Y-67514628D02*
X158811221Y-67514628D01*
X158811221Y-67514628D02*
X158856041Y-67537038D01*
X158856041Y-67537038D02*
X158878451Y-67559448D01*
X158878451Y-67559448D02*
X158900861Y-67604268D01*
X158900861Y-67604268D02*
X158900861Y-67738728D01*
X158900861Y-67738728D02*
X158878451Y-67783548D01*
X158878451Y-67783548D02*
X158856041Y-67805959D01*
X158856041Y-67805959D02*
X158811221Y-67828369D01*
X158811221Y-67828369D02*
X158721581Y-67828369D01*
X158721581Y-67828369D02*
X158676761Y-67805959D01*
X124681128Y-69326261D02*
X124994869Y-69326261D01*
X124501848Y-69438311D02*
X124837998Y-69550361D01*
X124837998Y-69550361D02*
X124837998Y-69259031D01*
X124524258Y-69124570D02*
X124524258Y-68810830D01*
X124524258Y-68810830D02*
X124994869Y-69012520D01*
X124681128Y-68429859D02*
X124994869Y-68429859D01*
X124681128Y-68631549D02*
X124927638Y-68631549D01*
X124927638Y-68631549D02*
X124972459Y-68609139D01*
X124972459Y-68609139D02*
X124994869Y-68564319D01*
X124994869Y-68564319D02*
X124994869Y-68497089D01*
X124994869Y-68497089D02*
X124972459Y-68452269D01*
X124972459Y-68452269D02*
X124950048Y-68429859D01*
D14*
X176416417Y-65292858D02*
X176416417Y-65472139D01*
X176416417Y-65472139D02*
X176461237Y-65561779D01*
X176461237Y-65561779D02*
X176506057Y-65606599D01*
X176506057Y-65606599D02*
X176640517Y-65696239D01*
X176640517Y-65696239D02*
X176819797Y-65741059D01*
X176819797Y-65741059D02*
X177178358Y-65741059D01*
X177178358Y-65741059D02*
X177267998Y-65696239D01*
X177267998Y-65696239D02*
X177312819Y-65651419D01*
X177312819Y-65651419D02*
X177357639Y-65561779D01*
X177357639Y-65561779D02*
X177357639Y-65382498D01*
X177357639Y-65382498D02*
X177312819Y-65292858D01*
X177312819Y-65292858D02*
X177267998Y-65248038D01*
X177267998Y-65248038D02*
X177178358Y-65203218D01*
X177178358Y-65203218D02*
X176954258Y-65203218D01*
X176954258Y-65203218D02*
X176864618Y-65248038D01*
X176864618Y-65248038D02*
X176819797Y-65292858D01*
X176819797Y-65292858D02*
X176774977Y-65382498D01*
X176774977Y-65382498D02*
X176774977Y-65561779D01*
X176774977Y-65561779D02*
X176819797Y-65651419D01*
X176819797Y-65651419D02*
X176864618Y-65696239D01*
X176864618Y-65696239D02*
X176954258Y-65741059D01*
X177357639Y-64306816D02*
X177357639Y-64844657D01*
X177357639Y-64575737D02*
X176416417Y-64575737D01*
X176416417Y-64575737D02*
X176550877Y-64665377D01*
X176550877Y-64665377D02*
X176640517Y-64755017D01*
X176640517Y-64755017D02*
X176685337Y-64844657D01*
X176416417Y-63724155D02*
X176416417Y-63634514D01*
X176416417Y-63634514D02*
X176461237Y-63544874D01*
X176461237Y-63544874D02*
X176506057Y-63500054D01*
X176506057Y-63500054D02*
X176595697Y-63455234D01*
X176595697Y-63455234D02*
X176774977Y-63410414D01*
X176774977Y-63410414D02*
X176999078Y-63410414D01*
X176999078Y-63410414D02*
X177178358Y-63455234D01*
X177178358Y-63455234D02*
X177267998Y-63500054D01*
X177267998Y-63500054D02*
X177312819Y-63544874D01*
X177312819Y-63544874D02*
X177357639Y-63634514D01*
X177357639Y-63634514D02*
X177357639Y-63724155D01*
X177357639Y-63724155D02*
X177312819Y-63813795D01*
X177312819Y-63813795D02*
X177267998Y-63858615D01*
X177267998Y-63858615D02*
X177178358Y-63903435D01*
X177178358Y-63903435D02*
X176999078Y-63948255D01*
X176999078Y-63948255D02*
X176774977Y-63948255D01*
X176774977Y-63948255D02*
X176595697Y-63903435D01*
X176595697Y-63903435D02*
X176506057Y-63858615D01*
X176506057Y-63858615D02*
X176461237Y-63813795D01*
X176461237Y-63813795D02*
X176416417Y-63724155D01*
X176416417Y-63096673D02*
X176416417Y-62514012D01*
X176416417Y-62514012D02*
X176774977Y-62827753D01*
X176774977Y-62827753D02*
X176774977Y-62693292D01*
X176774977Y-62693292D02*
X176819797Y-62603652D01*
X176819797Y-62603652D02*
X176864618Y-62558832D01*
X176864618Y-62558832D02*
X176954258Y-62514012D01*
X176954258Y-62514012D02*
X177178358Y-62514012D01*
X177178358Y-62514012D02*
X177267998Y-62558832D01*
X177267998Y-62558832D02*
X177312819Y-62603652D01*
X177312819Y-62603652D02*
X177357639Y-62693292D01*
X177357639Y-62693292D02*
X177357639Y-62962213D01*
X177357639Y-62962213D02*
X177312819Y-63051853D01*
X177312819Y-63051853D02*
X177267998Y-63096673D01*
X176416417Y-61931351D02*
X176416417Y-61841710D01*
X176416417Y-61841710D02*
X176461237Y-61752070D01*
X176461237Y-61752070D02*
X176506057Y-61707250D01*
X176506057Y-61707250D02*
X176595697Y-61662430D01*
X176595697Y-61662430D02*
X176774977Y-61617610D01*
X176774977Y-61617610D02*
X176999078Y-61617610D01*
X176999078Y-61617610D02*
X177178358Y-61662430D01*
X177178358Y-61662430D02*
X177267998Y-61707250D01*
X177267998Y-61707250D02*
X177312819Y-61752070D01*
X177312819Y-61752070D02*
X177357639Y-61841710D01*
X177357639Y-61841710D02*
X177357639Y-61931351D01*
X177357639Y-61931351D02*
X177312819Y-62020991D01*
X177312819Y-62020991D02*
X177267998Y-62065811D01*
X177267998Y-62065811D02*
X177178358Y-62110631D01*
X177178358Y-62110631D02*
X176999078Y-62155451D01*
X176999078Y-62155451D02*
X176774977Y-62155451D01*
X176774977Y-62155451D02*
X176595697Y-62110631D01*
X176595697Y-62110631D02*
X176506057Y-62065811D01*
X176506057Y-62065811D02*
X176461237Y-62020991D01*
X176461237Y-62020991D02*
X176416417Y-61931351D01*
X176416417Y-60810848D02*
X176416417Y-60990129D01*
X176416417Y-60990129D02*
X176461237Y-61079769D01*
X176461237Y-61079769D02*
X176506057Y-61124589D01*
X176506057Y-61124589D02*
X176640517Y-61214229D01*
X176640517Y-61214229D02*
X176819797Y-61259049D01*
X176819797Y-61259049D02*
X177178358Y-61259049D01*
X177178358Y-61259049D02*
X177267998Y-61214229D01*
X177267998Y-61214229D02*
X177312819Y-61169409D01*
X177312819Y-61169409D02*
X177357639Y-61079769D01*
X177357639Y-61079769D02*
X177357639Y-60900488D01*
X177357639Y-60900488D02*
X177312819Y-60810848D01*
X177312819Y-60810848D02*
X177267998Y-60766028D01*
X177267998Y-60766028D02*
X177178358Y-60721208D01*
X177178358Y-60721208D02*
X176954258Y-60721208D01*
X176954258Y-60721208D02*
X176864618Y-60766028D01*
X176864618Y-60766028D02*
X176819797Y-60810848D01*
X176819797Y-60810848D02*
X176774977Y-60900488D01*
X176774977Y-60900488D02*
X176774977Y-61079769D01*
X176774977Y-61079769D02*
X176819797Y-61169409D01*
X176819797Y-61169409D02*
X176864618Y-61214229D01*
X176864618Y-61214229D02*
X176954258Y-61259049D01*
X176506057Y-60362647D02*
X176461237Y-60317827D01*
X176461237Y-60317827D02*
X176416417Y-60228187D01*
X176416417Y-60228187D02*
X176416417Y-60004086D01*
X176416417Y-60004086D02*
X176461237Y-59914446D01*
X176461237Y-59914446D02*
X176506057Y-59869626D01*
X176506057Y-59869626D02*
X176595697Y-59824806D01*
X176595697Y-59824806D02*
X176685337Y-59824806D01*
X176685337Y-59824806D02*
X176819797Y-59869626D01*
X176819797Y-59869626D02*
X177357639Y-60407467D01*
X177357639Y-60407467D02*
X177357639Y-59824806D01*
X177357639Y-58928404D02*
X177357639Y-59466245D01*
X177357639Y-59197325D02*
X176416417Y-59197325D01*
X176416417Y-59197325D02*
X176550877Y-59286965D01*
X176550877Y-59286965D02*
X176640517Y-59376605D01*
X176640517Y-59376605D02*
X176685337Y-59466245D01*
X177357639Y-58032002D02*
X177357639Y-58569843D01*
X177357639Y-58300923D02*
X176416417Y-58300923D01*
X176416417Y-58300923D02*
X176550877Y-58390563D01*
X176550877Y-58390563D02*
X176640517Y-58480203D01*
X176640517Y-58480203D02*
X176685337Y-58569843D01*
X176506057Y-57673441D02*
X176461237Y-57628621D01*
X176461237Y-57628621D02*
X176416417Y-57538981D01*
X176416417Y-57538981D02*
X176416417Y-57314880D01*
X176416417Y-57314880D02*
X176461237Y-57225240D01*
X176461237Y-57225240D02*
X176506057Y-57180420D01*
X176506057Y-57180420D02*
X176595697Y-57135600D01*
X176595697Y-57135600D02*
X176685337Y-57135600D01*
X176685337Y-57135600D02*
X176819797Y-57180420D01*
X176819797Y-57180420D02*
X177357639Y-57718261D01*
X177357639Y-57718261D02*
X177357639Y-57135600D01*
X177357639Y-56239198D02*
X177357639Y-56777039D01*
X177357639Y-56508119D02*
X176416417Y-56508119D01*
X176416417Y-56508119D02*
X176550877Y-56597759D01*
X176550877Y-56597759D02*
X176640517Y-56687399D01*
X176640517Y-56687399D02*
X176685337Y-56777039D01*
D10*
X153251518Y-56139758D02*
X153520438Y-56139758D01*
X153385978Y-56610369D02*
X153385978Y-56139758D01*
X153834179Y-56363858D02*
X153901409Y-56386268D01*
X153901409Y-56386268D02*
X153923819Y-56408678D01*
X153923819Y-56408678D02*
X153946229Y-56453498D01*
X153946229Y-56453498D02*
X153946229Y-56520728D01*
X153946229Y-56520728D02*
X153923819Y-56565548D01*
X153923819Y-56565548D02*
X153901409Y-56587959D01*
X153901409Y-56587959D02*
X153856589Y-56610369D01*
X153856589Y-56610369D02*
X153677309Y-56610369D01*
X153677309Y-56610369D02*
X153677309Y-56139758D01*
X153677309Y-56139758D02*
X153834179Y-56139758D01*
X153834179Y-56139758D02*
X153878999Y-56162168D01*
X153878999Y-56162168D02*
X153901409Y-56184578D01*
X153901409Y-56184578D02*
X153923819Y-56229398D01*
X153923819Y-56229398D02*
X153923819Y-56274218D01*
X153923819Y-56274218D02*
X153901409Y-56319038D01*
X153901409Y-56319038D02*
X153878999Y-56341448D01*
X153878999Y-56341448D02*
X153834179Y-56363858D01*
X153834179Y-56363858D02*
X153677309Y-56363858D01*
X154147920Y-56610369D02*
X154147920Y-56139758D01*
X154147920Y-56139758D02*
X154259970Y-56139758D01*
X154259970Y-56139758D02*
X154327200Y-56162168D01*
X154327200Y-56162168D02*
X154372020Y-56206988D01*
X154372020Y-56206988D02*
X154394430Y-56251808D01*
X154394430Y-56251808D02*
X154416840Y-56341448D01*
X154416840Y-56341448D02*
X154416840Y-56408678D01*
X154416840Y-56408678D02*
X154394430Y-56498318D01*
X154394430Y-56498318D02*
X154372020Y-56543138D01*
X154372020Y-56543138D02*
X154327200Y-56587959D01*
X154327200Y-56587959D02*
X154259970Y-56610369D01*
X154259970Y-56610369D02*
X154147920Y-56610369D01*
X157495258Y-60985369D02*
X157226338Y-60985369D01*
X157360798Y-60985369D02*
X157360798Y-60514758D01*
X157360798Y-60514758D02*
X157315978Y-60581988D01*
X157315978Y-60581988D02*
X157271158Y-60626808D01*
X157271158Y-60626808D02*
X157226338Y-60649218D01*
X157674539Y-60559578D02*
X157696949Y-60537168D01*
X157696949Y-60537168D02*
X157741769Y-60514758D01*
X157741769Y-60514758D02*
X157853819Y-60514758D01*
X157853819Y-60514758D02*
X157898639Y-60537168D01*
X157898639Y-60537168D02*
X157921049Y-60559578D01*
X157921049Y-60559578D02*
X157943459Y-60604398D01*
X157943459Y-60604398D02*
X157943459Y-60649218D01*
X157943459Y-60649218D02*
X157921049Y-60716448D01*
X157921049Y-60716448D02*
X157652129Y-60985369D01*
X157652129Y-60985369D02*
X157943459Y-60985369D01*
X158145150Y-60985369D02*
X158145150Y-60514758D01*
X158189970Y-60806088D02*
X158324430Y-60985369D01*
X158324430Y-60671628D02*
X158145150Y-60850908D01*
X159131192Y-60985369D02*
X158862272Y-60985369D01*
X158996732Y-60985369D02*
X158996732Y-60514758D01*
X158996732Y-60514758D02*
X158951912Y-60581988D01*
X158951912Y-60581988D02*
X158907092Y-60626808D01*
X158907092Y-60626808D02*
X158862272Y-60649218D01*
X159310473Y-60985369D02*
X159669033Y-60514758D01*
X159377703Y-60514758D02*
X159422523Y-60537168D01*
X159422523Y-60537168D02*
X159444933Y-60581988D01*
X159444933Y-60581988D02*
X159422523Y-60626808D01*
X159422523Y-60626808D02*
X159377703Y-60649218D01*
X159377703Y-60649218D02*
X159332883Y-60626808D01*
X159332883Y-60626808D02*
X159310473Y-60581988D01*
X159310473Y-60581988D02*
X159332883Y-60537168D01*
X159332883Y-60537168D02*
X159377703Y-60514758D01*
X159646623Y-60962959D02*
X159669033Y-60918138D01*
X159669033Y-60918138D02*
X159646623Y-60873318D01*
X159646623Y-60873318D02*
X159601803Y-60850908D01*
X159601803Y-60850908D02*
X159556983Y-60873318D01*
X159556983Y-60873318D02*
X159534573Y-60918138D01*
X159534573Y-60918138D02*
X159556983Y-60962959D01*
X159556983Y-60962959D02*
X159601803Y-60985369D01*
X159601803Y-60985369D02*
X159646623Y-60962959D01*
X147995258Y-67610369D02*
X147726338Y-67610369D01*
X147860798Y-67610369D02*
X147860798Y-67139758D01*
X147860798Y-67139758D02*
X147815978Y-67206988D01*
X147815978Y-67206988D02*
X147771158Y-67251808D01*
X147771158Y-67251808D02*
X147726338Y-67274218D01*
X148174539Y-67184578D02*
X148196949Y-67162168D01*
X148196949Y-67162168D02*
X148241769Y-67139758D01*
X148241769Y-67139758D02*
X148353819Y-67139758D01*
X148353819Y-67139758D02*
X148398639Y-67162168D01*
X148398639Y-67162168D02*
X148421049Y-67184578D01*
X148421049Y-67184578D02*
X148443459Y-67229398D01*
X148443459Y-67229398D02*
X148443459Y-67274218D01*
X148443459Y-67274218D02*
X148421049Y-67341448D01*
X148421049Y-67341448D02*
X148152129Y-67610369D01*
X148152129Y-67610369D02*
X148443459Y-67610369D01*
X148645150Y-67610369D02*
X148645150Y-67139758D01*
X148689970Y-67431088D02*
X148824430Y-67610369D01*
X148824430Y-67296628D02*
X148645150Y-67475908D01*
X149631192Y-67610369D02*
X149362272Y-67610369D01*
X149496732Y-67610369D02*
X149496732Y-67139758D01*
X149496732Y-67139758D02*
X149451912Y-67206988D01*
X149451912Y-67206988D02*
X149407092Y-67251808D01*
X149407092Y-67251808D02*
X149362272Y-67274218D01*
X149810473Y-67610369D02*
X150169033Y-67139758D01*
X149877703Y-67139758D02*
X149922523Y-67162168D01*
X149922523Y-67162168D02*
X149944933Y-67206988D01*
X149944933Y-67206988D02*
X149922523Y-67251808D01*
X149922523Y-67251808D02*
X149877703Y-67274218D01*
X149877703Y-67274218D02*
X149832883Y-67251808D01*
X149832883Y-67251808D02*
X149810473Y-67206988D01*
X149810473Y-67206988D02*
X149832883Y-67162168D01*
X149832883Y-67162168D02*
X149877703Y-67139758D01*
X150146623Y-67587959D02*
X150169033Y-67543138D01*
X150169033Y-67543138D02*
X150146623Y-67498318D01*
X150146623Y-67498318D02*
X150101803Y-67475908D01*
X150101803Y-67475908D02*
X150056983Y-67498318D01*
X150056983Y-67498318D02*
X150034573Y-67543138D01*
X150034573Y-67543138D02*
X150056983Y-67587959D01*
X150056983Y-67587959D02*
X150101803Y-67610369D01*
X150101803Y-67610369D02*
X150146623Y-67587959D01*
X151450869Y-61051031D02*
X151450869Y-61319951D01*
X151450869Y-61185491D02*
X150980258Y-61185491D01*
X150980258Y-61185491D02*
X151047488Y-61230311D01*
X151047488Y-61230311D02*
X151092308Y-61275131D01*
X151092308Y-61275131D02*
X151114718Y-61319951D01*
X150980258Y-60759700D02*
X150980258Y-60714880D01*
X150980258Y-60714880D02*
X151002668Y-60670060D01*
X151002668Y-60670060D02*
X151025078Y-60647650D01*
X151025078Y-60647650D02*
X151069898Y-60625240D01*
X151069898Y-60625240D02*
X151159538Y-60602830D01*
X151159538Y-60602830D02*
X151271588Y-60602830D01*
X151271588Y-60602830D02*
X151361228Y-60625240D01*
X151361228Y-60625240D02*
X151406048Y-60647650D01*
X151406048Y-60647650D02*
X151428459Y-60670060D01*
X151428459Y-60670060D02*
X151450869Y-60714880D01*
X151450869Y-60714880D02*
X151450869Y-60759700D01*
X151450869Y-60759700D02*
X151428459Y-60804520D01*
X151428459Y-60804520D02*
X151406048Y-60826930D01*
X151406048Y-60826930D02*
X151361228Y-60849340D01*
X151361228Y-60849340D02*
X151271588Y-60871750D01*
X151271588Y-60871750D02*
X151159538Y-60871750D01*
X151159538Y-60871750D02*
X151069898Y-60849340D01*
X151069898Y-60849340D02*
X151025078Y-60826930D01*
X151025078Y-60826930D02*
X151002668Y-60804520D01*
X151002668Y-60804520D02*
X150980258Y-60759700D01*
X150980258Y-60311499D02*
X150980258Y-60266679D01*
X150980258Y-60266679D02*
X151002668Y-60221859D01*
X151002668Y-60221859D02*
X151025078Y-60199449D01*
X151025078Y-60199449D02*
X151069898Y-60177039D01*
X151069898Y-60177039D02*
X151159538Y-60154629D01*
X151159538Y-60154629D02*
X151271588Y-60154629D01*
X151271588Y-60154629D02*
X151361228Y-60177039D01*
X151361228Y-60177039D02*
X151406048Y-60199449D01*
X151406048Y-60199449D02*
X151428459Y-60221859D01*
X151428459Y-60221859D02*
X151450869Y-60266679D01*
X151450869Y-60266679D02*
X151450869Y-60311499D01*
X151450869Y-60311499D02*
X151428459Y-60356319D01*
X151428459Y-60356319D02*
X151406048Y-60378729D01*
X151406048Y-60378729D02*
X151361228Y-60401139D01*
X151361228Y-60401139D02*
X151271588Y-60423549D01*
X151271588Y-60423549D02*
X151159538Y-60423549D01*
X151159538Y-60423549D02*
X151069898Y-60401139D01*
X151069898Y-60401139D02*
X151025078Y-60378729D01*
X151025078Y-60378729D02*
X151002668Y-60356319D01*
X151002668Y-60356319D02*
X150980258Y-60311499D01*
X151137128Y-59952938D02*
X151450869Y-59952938D01*
X151181948Y-59952938D02*
X151159538Y-59930528D01*
X151159538Y-59930528D02*
X151137128Y-59885708D01*
X151137128Y-59885708D02*
X151137128Y-59818478D01*
X151137128Y-59818478D02*
X151159538Y-59773658D01*
X151159538Y-59773658D02*
X151204358Y-59751248D01*
X151204358Y-59751248D02*
X151450869Y-59751248D01*
D12*
X154038117Y-63688546D02*
X154094142Y-63632521D01*
X154094142Y-63632521D02*
X154206193Y-63576496D01*
X154206193Y-63576496D02*
X154486318Y-63576496D01*
X154486318Y-63576496D02*
X154598369Y-63632521D01*
X154598369Y-63632521D02*
X154654394Y-63688546D01*
X154654394Y-63688546D02*
X154710419Y-63800596D01*
X154710419Y-63800596D02*
X154710419Y-63912647D01*
X154710419Y-63912647D02*
X154654394Y-64080722D01*
X154654394Y-64080722D02*
X153982092Y-64753024D01*
X153982092Y-64753024D02*
X154710419Y-64753024D01*
X155718872Y-63576496D02*
X155494771Y-63576496D01*
X155494771Y-63576496D02*
X155382721Y-63632521D01*
X155382721Y-63632521D02*
X155326696Y-63688546D01*
X155326696Y-63688546D02*
X155214645Y-63856621D01*
X155214645Y-63856621D02*
X155158620Y-64080722D01*
X155158620Y-64080722D02*
X155158620Y-64528923D01*
X155158620Y-64528923D02*
X155214645Y-64640973D01*
X155214645Y-64640973D02*
X155270670Y-64696999D01*
X155270670Y-64696999D02*
X155382721Y-64753024D01*
X155382721Y-64753024D02*
X155606821Y-64753024D01*
X155606821Y-64753024D02*
X155718872Y-64696999D01*
X155718872Y-64696999D02*
X155774897Y-64640973D01*
X155774897Y-64640973D02*
X155830922Y-64528923D01*
X155830922Y-64528923D02*
X155830922Y-64248797D01*
X155830922Y-64248797D02*
X155774897Y-64136747D01*
X155774897Y-64136747D02*
X155718872Y-64080722D01*
X155718872Y-64080722D02*
X155606821Y-64024697D01*
X155606821Y-64024697D02*
X155382721Y-64024697D01*
X155382721Y-64024697D02*
X155270670Y-64080722D01*
X155270670Y-64080722D02*
X155214645Y-64136747D01*
X155214645Y-64136747D02*
X155158620Y-64248797D01*
X156335148Y-64753024D02*
X156335148Y-63576496D01*
X156335148Y-63576496D02*
X156727324Y-64416873D01*
X156727324Y-64416873D02*
X157119500Y-63576496D01*
X157119500Y-63576496D02*
X157119500Y-64753024D01*
X157679751Y-64753024D02*
X157679751Y-63576496D01*
X157679751Y-64136747D02*
X158352053Y-64136747D01*
X158352053Y-64753024D02*
X158352053Y-63576496D01*
X158800254Y-63968672D02*
X159416531Y-63968672D01*
X159416531Y-63968672D02*
X158800254Y-64753024D01*
X158800254Y-64753024D02*
X159416531Y-64753024D01*
X167734499Y-67405505D02*
X167790524Y-67237430D01*
X167790524Y-67237430D02*
X167790524Y-66957304D01*
X167790524Y-66957304D02*
X167734499Y-66845254D01*
X167734499Y-66845254D02*
X167678473Y-66789228D01*
X167678473Y-66789228D02*
X167566423Y-66733203D01*
X167566423Y-66733203D02*
X167454373Y-66733203D01*
X167454373Y-66733203D02*
X167342323Y-66789228D01*
X167342323Y-66789228D02*
X167286297Y-66845254D01*
X167286297Y-66845254D02*
X167230272Y-66957304D01*
X167230272Y-66957304D02*
X167174247Y-67181404D01*
X167174247Y-67181404D02*
X167118222Y-67293455D01*
X167118222Y-67293455D02*
X167062197Y-67349480D01*
X167062197Y-67349480D02*
X166950147Y-67405505D01*
X166950147Y-67405505D02*
X166838096Y-67405505D01*
X166838096Y-67405505D02*
X166726046Y-67349480D01*
X166726046Y-67349480D02*
X166670021Y-67293455D01*
X166670021Y-67293455D02*
X166613996Y-67181404D01*
X166613996Y-67181404D02*
X166613996Y-66901279D01*
X166613996Y-66901279D02*
X166670021Y-66733203D01*
X167734499Y-66285002D02*
X167790524Y-66116927D01*
X167790524Y-66116927D02*
X167790524Y-65836801D01*
X167790524Y-65836801D02*
X167734499Y-65724751D01*
X167734499Y-65724751D02*
X167678473Y-65668725D01*
X167678473Y-65668725D02*
X167566423Y-65612700D01*
X167566423Y-65612700D02*
X167454373Y-65612700D01*
X167454373Y-65612700D02*
X167342323Y-65668725D01*
X167342323Y-65668725D02*
X167286297Y-65724751D01*
X167286297Y-65724751D02*
X167230272Y-65836801D01*
X167230272Y-65836801D02*
X167174247Y-66060901D01*
X167174247Y-66060901D02*
X167118222Y-66172952D01*
X167118222Y-66172952D02*
X167062197Y-66228977D01*
X167062197Y-66228977D02*
X166950147Y-66285002D01*
X166950147Y-66285002D02*
X166838096Y-66285002D01*
X166838096Y-66285002D02*
X166726046Y-66228977D01*
X166726046Y-66228977D02*
X166670021Y-66172952D01*
X166670021Y-66172952D02*
X166613996Y-66060901D01*
X166613996Y-66060901D02*
X166613996Y-65780776D01*
X166613996Y-65780776D02*
X166670021Y-65612700D01*
X167118222Y-64940398D02*
X167062197Y-65052449D01*
X167062197Y-65052449D02*
X167006172Y-65108474D01*
X167006172Y-65108474D02*
X166894121Y-65164499D01*
X166894121Y-65164499D02*
X166838096Y-65164499D01*
X166838096Y-65164499D02*
X166726046Y-65108474D01*
X166726046Y-65108474D02*
X166670021Y-65052449D01*
X166670021Y-65052449D02*
X166613996Y-64940398D01*
X166613996Y-64940398D02*
X166613996Y-64716298D01*
X166613996Y-64716298D02*
X166670021Y-64604248D01*
X166670021Y-64604248D02*
X166726046Y-64548222D01*
X166726046Y-64548222D02*
X166838096Y-64492197D01*
X166838096Y-64492197D02*
X166894121Y-64492197D01*
X166894121Y-64492197D02*
X167006172Y-64548222D01*
X167006172Y-64548222D02*
X167062197Y-64604248D01*
X167062197Y-64604248D02*
X167118222Y-64716298D01*
X167118222Y-64716298D02*
X167118222Y-64940398D01*
X167118222Y-64940398D02*
X167174247Y-65052449D01*
X167174247Y-65052449D02*
X167230272Y-65108474D01*
X167230272Y-65108474D02*
X167342323Y-65164499D01*
X167342323Y-65164499D02*
X167566423Y-65164499D01*
X167566423Y-65164499D02*
X167678473Y-65108474D01*
X167678473Y-65108474D02*
X167734499Y-65052449D01*
X167734499Y-65052449D02*
X167790524Y-64940398D01*
X167790524Y-64940398D02*
X167790524Y-64716298D01*
X167790524Y-64716298D02*
X167734499Y-64604248D01*
X167734499Y-64604248D02*
X167678473Y-64548222D01*
X167678473Y-64548222D02*
X167566423Y-64492197D01*
X167566423Y-64492197D02*
X167342323Y-64492197D01*
X167342323Y-64492197D02*
X167230272Y-64548222D01*
X167230272Y-64548222D02*
X167174247Y-64604248D01*
X167174247Y-64604248D02*
X167118222Y-64716298D01*
X166613996Y-63763870D02*
X166613996Y-63651820D01*
X166613996Y-63651820D02*
X166670021Y-63539770D01*
X166670021Y-63539770D02*
X166726046Y-63483745D01*
X166726046Y-63483745D02*
X166838096Y-63427719D01*
X166838096Y-63427719D02*
X167062197Y-63371694D01*
X167062197Y-63371694D02*
X167342323Y-63371694D01*
X167342323Y-63371694D02*
X167566423Y-63427719D01*
X167566423Y-63427719D02*
X167678473Y-63483745D01*
X167678473Y-63483745D02*
X167734499Y-63539770D01*
X167734499Y-63539770D02*
X167790524Y-63651820D01*
X167790524Y-63651820D02*
X167790524Y-63763870D01*
X167790524Y-63763870D02*
X167734499Y-63875921D01*
X167734499Y-63875921D02*
X167678473Y-63931946D01*
X167678473Y-63931946D02*
X167566423Y-63987971D01*
X167566423Y-63987971D02*
X167342323Y-64043996D01*
X167342323Y-64043996D02*
X167062197Y-64043996D01*
X167062197Y-64043996D02*
X166838096Y-63987971D01*
X166838096Y-63987971D02*
X166726046Y-63931946D01*
X166726046Y-63931946D02*
X166670021Y-63875921D01*
X166670021Y-63875921D02*
X166613996Y-63763870D01*
X166613996Y-62307216D02*
X166613996Y-62867468D01*
X166613996Y-62867468D02*
X167174247Y-62923493D01*
X167174247Y-62923493D02*
X167118222Y-62867468D01*
X167118222Y-62867468D02*
X167062197Y-62755418D01*
X167062197Y-62755418D02*
X167062197Y-62475292D01*
X167062197Y-62475292D02*
X167118222Y-62363242D01*
X167118222Y-62363242D02*
X167174247Y-62307216D01*
X167174247Y-62307216D02*
X167286297Y-62251191D01*
X167286297Y-62251191D02*
X167566423Y-62251191D01*
X167566423Y-62251191D02*
X167678473Y-62307216D01*
X167678473Y-62307216D02*
X167734499Y-62363242D01*
X167734499Y-62363242D02*
X167790524Y-62475292D01*
X167790524Y-62475292D02*
X167790524Y-62755418D01*
X167790524Y-62755418D02*
X167734499Y-62867468D01*
X167734499Y-62867468D02*
X167678473Y-62923493D01*
X166613996Y-61522864D02*
X166613996Y-61410814D01*
X166613996Y-61410814D02*
X166670021Y-61298764D01*
X166670021Y-61298764D02*
X166726046Y-61242739D01*
X166726046Y-61242739D02*
X166838096Y-61186713D01*
X166838096Y-61186713D02*
X167062197Y-61130688D01*
X167062197Y-61130688D02*
X167342323Y-61130688D01*
X167342323Y-61130688D02*
X167566423Y-61186713D01*
X167566423Y-61186713D02*
X167678473Y-61242739D01*
X167678473Y-61242739D02*
X167734499Y-61298764D01*
X167734499Y-61298764D02*
X167790524Y-61410814D01*
X167790524Y-61410814D02*
X167790524Y-61522864D01*
X167790524Y-61522864D02*
X167734499Y-61634915D01*
X167734499Y-61634915D02*
X167678473Y-61690940D01*
X167678473Y-61690940D02*
X167566423Y-61746965D01*
X167566423Y-61746965D02*
X167342323Y-61802990D01*
X167342323Y-61802990D02*
X167062197Y-61802990D01*
X167062197Y-61802990D02*
X166838096Y-61746965D01*
X166838096Y-61746965D02*
X166726046Y-61690940D01*
X166726046Y-61690940D02*
X166670021Y-61634915D01*
X166670021Y-61634915D02*
X166613996Y-61522864D01*
D15*
X108441761Y-56130511D02*
X109109418Y-56130511D01*
X109109418Y-56130511D02*
X109242950Y-56175022D01*
X109242950Y-56175022D02*
X109331971Y-56264043D01*
X109331971Y-56264043D02*
X109376481Y-56397574D01*
X109376481Y-56397574D02*
X109376481Y-56486595D01*
X109331971Y-55729917D02*
X109376481Y-55596385D01*
X109376481Y-55596385D02*
X109376481Y-55373833D01*
X109376481Y-55373833D02*
X109331971Y-55284812D01*
X109331971Y-55284812D02*
X109287460Y-55240301D01*
X109287460Y-55240301D02*
X109198439Y-55195791D01*
X109198439Y-55195791D02*
X109109418Y-55195791D01*
X109109418Y-55195791D02*
X109020397Y-55240301D01*
X109020397Y-55240301D02*
X108975887Y-55284812D01*
X108975887Y-55284812D02*
X108931376Y-55373833D01*
X108931376Y-55373833D02*
X108886866Y-55551875D01*
X108886866Y-55551875D02*
X108842355Y-55640896D01*
X108842355Y-55640896D02*
X108797845Y-55685406D01*
X108797845Y-55685406D02*
X108708824Y-55729917D01*
X108708824Y-55729917D02*
X108619803Y-55729917D01*
X108619803Y-55729917D02*
X108530782Y-55685406D01*
X108530782Y-55685406D02*
X108486271Y-55640896D01*
X108486271Y-55640896D02*
X108441761Y-55551875D01*
X108441761Y-55551875D02*
X108441761Y-55329322D01*
X108441761Y-55329322D02*
X108486271Y-55195791D01*
X108441761Y-54928728D02*
X108441761Y-54394602D01*
X109376481Y-54661665D02*
X108441761Y-54661665D01*
X109331971Y-53415371D02*
X109376481Y-53281839D01*
X109376481Y-53281839D02*
X109376481Y-53059287D01*
X109376481Y-53059287D02*
X109331971Y-52970266D01*
X109331971Y-52970266D02*
X109287460Y-52925755D01*
X109287460Y-52925755D02*
X109198439Y-52881245D01*
X109198439Y-52881245D02*
X109109418Y-52881245D01*
X109109418Y-52881245D02*
X109020397Y-52925755D01*
X109020397Y-52925755D02*
X108975887Y-52970266D01*
X108975887Y-52970266D02*
X108931376Y-53059287D01*
X108931376Y-53059287D02*
X108886866Y-53237329D01*
X108886866Y-53237329D02*
X108842355Y-53326350D01*
X108842355Y-53326350D02*
X108797845Y-53370860D01*
X108797845Y-53370860D02*
X108708824Y-53415371D01*
X108708824Y-53415371D02*
X108619803Y-53415371D01*
X108619803Y-53415371D02*
X108530782Y-53370860D01*
X108530782Y-53370860D02*
X108486271Y-53326350D01*
X108486271Y-53326350D02*
X108441761Y-53237329D01*
X108441761Y-53237329D02*
X108441761Y-53014776D01*
X108441761Y-53014776D02*
X108486271Y-52881245D01*
X109376481Y-52480650D02*
X108441761Y-52480650D01*
X108886866Y-52480650D02*
X108886866Y-51946524D01*
X109376481Y-51946524D02*
X108441761Y-51946524D01*
X108753334Y-50388658D02*
X109376481Y-50388658D01*
X108397251Y-50611210D02*
X109064908Y-50833763D01*
X109064908Y-50833763D02*
X109064908Y-50255126D01*
D10*
X160250711Y-151074633D02*
X160056634Y-151186683D01*
X160056634Y-151186683D02*
X160149277Y-151391965D01*
X160149277Y-151391965D02*
X160157480Y-151361352D01*
X160157480Y-151361352D02*
X160185090Y-151319534D01*
X160185090Y-151319534D02*
X160282128Y-151263509D01*
X160282128Y-151263509D02*
X160332149Y-151260507D01*
X160332149Y-151260507D02*
X160362761Y-151268709D01*
X160362761Y-151268709D02*
X160404579Y-151296320D01*
X160404579Y-151296320D02*
X160460604Y-151393358D01*
X160460604Y-151393358D02*
X160463607Y-151443378D01*
X160463607Y-151443378D02*
X160455404Y-151473991D01*
X160455404Y-151473991D02*
X160427794Y-151515809D01*
X160427794Y-151515809D02*
X160330755Y-151571834D01*
X160330755Y-151571834D02*
X160280735Y-151574836D01*
X160280735Y-151574836D02*
X160250122Y-151566634D01*
X160680093Y-151370143D02*
X160444788Y-150962582D01*
X160629268Y-151192472D02*
X160835355Y-151280503D01*
X160678484Y-151008796D02*
X160612863Y-151253697D01*
X161223508Y-151056403D02*
X160990616Y-151190863D01*
X161107062Y-151123633D02*
X160871757Y-150716072D01*
X160871757Y-150716072D02*
X160866556Y-150796705D01*
X160866556Y-150796705D02*
X160850151Y-150857930D01*
X160850151Y-150857930D02*
X160822541Y-150899748D01*
X153874279Y-154873981D02*
X153762229Y-154679904D01*
X153762229Y-154679904D02*
X153556947Y-154772547D01*
X153556947Y-154772547D02*
X153587560Y-154780750D01*
X153587560Y-154780750D02*
X153629378Y-154808360D01*
X153629378Y-154808360D02*
X153685403Y-154905398D01*
X153685403Y-154905398D02*
X153688405Y-154955419D01*
X153688405Y-154955419D02*
X153680203Y-154986031D01*
X153680203Y-154986031D02*
X153652592Y-155027849D01*
X153652592Y-155027849D02*
X153555554Y-155083874D01*
X153555554Y-155083874D02*
X153505534Y-155086877D01*
X153505534Y-155086877D02*
X153474921Y-155078674D01*
X153474921Y-155078674D02*
X153433103Y-155051064D01*
X153433103Y-155051064D02*
X153377078Y-154954025D01*
X153377078Y-154954025D02*
X153374076Y-154904005D01*
X153374076Y-154904005D02*
X153382278Y-154873392D01*
X153578769Y-155303363D02*
X153986330Y-155068058D01*
X153756440Y-155252538D02*
X153668409Y-155458625D01*
X153940116Y-155301754D02*
X153695215Y-155236133D01*
X153892509Y-155846778D02*
X153758049Y-155613886D01*
X153825279Y-155730332D02*
X154232840Y-155495027D01*
X154232840Y-155495027D02*
X154152207Y-155489826D01*
X154152207Y-155489826D02*
X154090982Y-155473421D01*
X154090982Y-155473421D02*
X154049164Y-155445811D01*
X147995258Y-64110369D02*
X147726338Y-64110369D01*
X147860798Y-64110369D02*
X147860798Y-63639758D01*
X147860798Y-63639758D02*
X147815978Y-63706988D01*
X147815978Y-63706988D02*
X147771158Y-63751808D01*
X147771158Y-63751808D02*
X147726338Y-63774218D01*
X148286589Y-63639758D02*
X148331409Y-63639758D01*
X148331409Y-63639758D02*
X148376229Y-63662168D01*
X148376229Y-63662168D02*
X148398639Y-63684578D01*
X148398639Y-63684578D02*
X148421049Y-63729398D01*
X148421049Y-63729398D02*
X148443459Y-63819038D01*
X148443459Y-63819038D02*
X148443459Y-63931088D01*
X148443459Y-63931088D02*
X148421049Y-64020728D01*
X148421049Y-64020728D02*
X148398639Y-64065548D01*
X148398639Y-64065548D02*
X148376229Y-64087959D01*
X148376229Y-64087959D02*
X148331409Y-64110369D01*
X148331409Y-64110369D02*
X148286589Y-64110369D01*
X148286589Y-64110369D02*
X148241769Y-64087959D01*
X148241769Y-64087959D02*
X148219359Y-64065548D01*
X148219359Y-64065548D02*
X148196949Y-64020728D01*
X148196949Y-64020728D02*
X148174539Y-63931088D01*
X148174539Y-63931088D02*
X148174539Y-63819038D01*
X148174539Y-63819038D02*
X148196949Y-63729398D01*
X148196949Y-63729398D02*
X148219359Y-63684578D01*
X148219359Y-63684578D02*
X148241769Y-63662168D01*
X148241769Y-63662168D02*
X148286589Y-63639758D01*
X148734790Y-63639758D02*
X148779610Y-63639758D01*
X148779610Y-63639758D02*
X148824430Y-63662168D01*
X148824430Y-63662168D02*
X148846840Y-63684578D01*
X148846840Y-63684578D02*
X148869250Y-63729398D01*
X148869250Y-63729398D02*
X148891660Y-63819038D01*
X148891660Y-63819038D02*
X148891660Y-63931088D01*
X148891660Y-63931088D02*
X148869250Y-64020728D01*
X148869250Y-64020728D02*
X148846840Y-64065548D01*
X148846840Y-64065548D02*
X148824430Y-64087959D01*
X148824430Y-64087959D02*
X148779610Y-64110369D01*
X148779610Y-64110369D02*
X148734790Y-64110369D01*
X148734790Y-64110369D02*
X148689970Y-64087959D01*
X148689970Y-64087959D02*
X148667560Y-64065548D01*
X148667560Y-64065548D02*
X148645150Y-64020728D01*
X148645150Y-64020728D02*
X148622740Y-63931088D01*
X148622740Y-63931088D02*
X148622740Y-63819038D01*
X148622740Y-63819038D02*
X148645150Y-63729398D01*
X148645150Y-63729398D02*
X148667560Y-63684578D01*
X148667560Y-63684578D02*
X148689970Y-63662168D01*
X148689970Y-63662168D02*
X148734790Y-63639758D01*
X149093351Y-63796628D02*
X149093351Y-64110369D01*
X149093351Y-63841448D02*
X149115761Y-63819038D01*
X149115761Y-63819038D02*
X149160581Y-63796628D01*
X149160581Y-63796628D02*
X149227811Y-63796628D01*
X149227811Y-63796628D02*
X149272631Y-63819038D01*
X149272631Y-63819038D02*
X149295041Y-63863858D01*
X149295041Y-63863858D02*
X149295041Y-64110369D01*
D16*
%TO.C,R1*%
X163801100Y-68603600D02*
X163801100Y-66903600D01*
X164701100Y-68603600D02*
X163801100Y-68603600D01*
D17*
X163851100Y-68553600D02*
X163851100Y-66953600D01*
X164651100Y-68553600D02*
X163851100Y-68553600D01*
X163851100Y-66953600D02*
X164651100Y-66953600D01*
X164651100Y-66953600D02*
X164651100Y-68553600D01*
D16*
X163801100Y-66903600D02*
X164701100Y-66903600D01*
X164701100Y-66903600D02*
X164701100Y-68603600D01*
%TO.C,C3*%
X166933319Y-149873310D02*
X165895022Y-146677760D01*
X168607178Y-149329440D02*
X166933319Y-149873310D01*
D18*
X166984682Y-149772504D02*
X166830173Y-149296976D01*
D19*
X166984682Y-149772504D02*
X165995828Y-146729123D01*
D18*
X168506372Y-149278077D02*
X166984682Y-149772504D01*
X166830173Y-149296976D02*
X168351864Y-148802549D01*
X168351864Y-148802549D02*
X168506372Y-149278077D01*
X166150336Y-147204651D02*
X165995828Y-146729123D01*
X167672027Y-146710224D02*
X166150336Y-147204651D01*
X165995828Y-146729123D02*
X167517518Y-146234696D01*
D19*
X167517518Y-146234696D02*
X168506372Y-149278077D01*
D18*
X167517518Y-146234696D02*
X167672027Y-146710224D01*
D16*
X165895022Y-146677760D02*
X167568881Y-146133890D01*
X167568881Y-146133890D02*
X168607178Y-149329440D01*
%TO.C,C5*%
X154221100Y-139973600D02*
X155281100Y-139973600D01*
X154221100Y-140533600D02*
X154221100Y-139973600D01*
D17*
X154251100Y-140003600D02*
X155251100Y-140003600D01*
X154251100Y-140503600D02*
X154251100Y-140003600D01*
X155251100Y-140003600D02*
X155251100Y-140503600D01*
X155251100Y-140503600D02*
X154251100Y-140503600D01*
D16*
X155281100Y-139973600D02*
X155281100Y-140533600D01*
X155281100Y-140533600D02*
X154221100Y-140533600D01*
%TO.C,C19*%
X125096100Y-68908600D02*
X125096100Y-67848600D01*
X125656100Y-68908600D02*
X125096100Y-68908600D01*
D17*
X125126100Y-68878600D02*
X125126100Y-67878600D01*
X125626100Y-68878600D02*
X125126100Y-68878600D01*
X125126100Y-67878600D02*
X125626100Y-67878600D01*
X125626100Y-67878600D02*
X125626100Y-68878600D01*
D16*
X125096100Y-67848600D02*
X125656100Y-67848600D01*
X125656100Y-67848600D02*
X125656100Y-68908600D01*
%TO.C,C10*%
X159496100Y-64433600D02*
X159496100Y-61073600D01*
X161256100Y-64433600D02*
X159496100Y-64433600D01*
D18*
X159576100Y-64353600D02*
X159576100Y-63853600D01*
D19*
X159576100Y-64353600D02*
X159576100Y-61153600D01*
D18*
X161176100Y-64353600D02*
X159576100Y-64353600D01*
X159576100Y-63853600D02*
X161176100Y-63853600D01*
X161176100Y-63853600D02*
X161176100Y-64353600D01*
X159576100Y-61653600D02*
X159576100Y-61153600D01*
X161176100Y-61653600D02*
X159576100Y-61653600D01*
X159576100Y-61153600D02*
X161176100Y-61153600D01*
D19*
X161176100Y-61153600D02*
X161176100Y-64353600D01*
D18*
X161176100Y-61153600D02*
X161176100Y-61653600D01*
D16*
X159496100Y-61073600D02*
X161256100Y-61073600D01*
X161256100Y-61073600D02*
X161256100Y-64433600D01*
%TO.C,R5*%
X159071670Y-138687313D02*
X158027773Y-138871380D01*
X158974427Y-138135820D02*
X159071670Y-138687313D01*
D17*
X159036916Y-138662978D02*
X158052108Y-138836626D01*
X158950092Y-138170574D02*
X159036916Y-138662978D01*
X158052108Y-138836626D02*
X157965284Y-138344222D01*
X157965284Y-138344222D02*
X158950092Y-138170574D01*
D16*
X158027773Y-138871380D02*
X157930530Y-138319887D01*
X157930530Y-138319887D02*
X158974427Y-138135820D01*
%TO.C,C7*%
X160221100Y-67158600D02*
X160221100Y-66098600D01*
X160781100Y-67158600D02*
X160221100Y-67158600D01*
D17*
X160251100Y-67128600D02*
X160251100Y-66128600D01*
X160751100Y-67128600D02*
X160251100Y-67128600D01*
X160251100Y-66128600D02*
X160751100Y-66128600D01*
X160751100Y-66128600D02*
X160751100Y-67128600D01*
D16*
X160221100Y-66098600D02*
X160781100Y-66098600D01*
X160781100Y-66098600D02*
X160781100Y-67158600D01*
%TO.C,C17*%
X147971100Y-67223600D02*
X149031100Y-67223600D01*
X147971100Y-67783600D02*
X147971100Y-67223600D01*
D17*
X148001100Y-67253600D02*
X149001100Y-67253600D01*
X148001100Y-67753600D02*
X148001100Y-67253600D01*
X149001100Y-67253600D02*
X149001100Y-67753600D01*
X149001100Y-67753600D02*
X148001100Y-67753600D01*
D16*
X149031100Y-67223600D02*
X149031100Y-67783600D01*
X149031100Y-67783600D02*
X147971100Y-67783600D01*
%TO.C,C15*%
X158531100Y-64533600D02*
X157471100Y-64533600D01*
X158531100Y-63973600D02*
X158531100Y-64533600D01*
D17*
X158501100Y-64503600D02*
X157501100Y-64503600D01*
X158501100Y-64003600D02*
X158501100Y-64503600D01*
X157501100Y-64503600D02*
X157501100Y-64003600D01*
X157501100Y-64003600D02*
X158501100Y-64003600D01*
D16*
X157471100Y-64533600D02*
X157471100Y-63973600D01*
X157471100Y-63973600D02*
X158531100Y-63973600D01*
%TO.C,R4*%
X164820930Y-139979623D02*
X165502285Y-139167616D01*
X165249915Y-140339584D02*
X164820930Y-139979623D01*
D17*
X164863195Y-139975925D02*
X165505983Y-139209881D01*
X165246217Y-140297319D02*
X164863195Y-139975925D01*
X165505983Y-139209881D02*
X165889005Y-139531275D01*
X165889005Y-139531275D02*
X165246217Y-140297319D01*
D16*
X165502285Y-139167616D02*
X165931270Y-139527577D01*
X165931270Y-139527577D02*
X165249915Y-140339584D01*
%TO.C,C14*%
X158531100Y-63408600D02*
X157471100Y-63408600D01*
X158531100Y-62848600D02*
X158531100Y-63408600D01*
D17*
X158501100Y-63378600D02*
X157501100Y-63378600D01*
X158501100Y-62878600D02*
X158501100Y-63378600D01*
X157501100Y-63378600D02*
X157501100Y-62878600D01*
X157501100Y-62878600D02*
X158501100Y-62878600D01*
D16*
X157471100Y-63408600D02*
X157471100Y-62848600D01*
X157471100Y-62848600D02*
X158531100Y-62848600D01*
D20*
%TO.C,Q1*%
X161818235Y-139577350D02*
X159868235Y-136199850D01*
X164883965Y-137807350D02*
X161818235Y-139577350D01*
D21*
X161436703Y-138296517D02*
X160786703Y-137170683D01*
X162263757Y-137819017D02*
X160959203Y-137469462D01*
X163965497Y-136836517D02*
X161436703Y-138296517D01*
X160786703Y-137170683D02*
X163315497Y-135710683D01*
X163315497Y-135710683D02*
X163965497Y-136836517D01*
D20*
X159868235Y-136199850D02*
X162933965Y-134429850D01*
X162933965Y-134429850D02*
X164883965Y-137807350D01*
D16*
%TO.C,C1*%
X163148998Y-153768523D02*
X164828998Y-150858677D01*
X164673202Y-154648523D02*
X163148998Y-153768523D01*
D18*
X163258280Y-153739241D02*
X163508280Y-153306228D01*
D19*
X163258280Y-153739241D02*
X164858280Y-150967959D01*
D18*
X164643920Y-154539241D02*
X163258280Y-153739241D01*
X163508280Y-153306228D02*
X164893920Y-154106228D01*
X164893920Y-154106228D02*
X164643920Y-154539241D01*
X164608280Y-151400972D02*
X164858280Y-150967959D01*
X165993920Y-152200972D02*
X164608280Y-151400972D01*
X164858280Y-150967959D02*
X166243920Y-151767959D01*
D19*
X166243920Y-151767959D02*
X164643920Y-154539241D01*
D18*
X166243920Y-151767959D02*
X165993920Y-152200972D01*
D16*
X164828998Y-150858677D02*
X166353202Y-151738677D01*
X166353202Y-151738677D02*
X164673202Y-154648523D01*
%TO.C,C9*%
X153541100Y-58848600D02*
X154601100Y-58848600D01*
X153541100Y-59408600D02*
X153541100Y-58848600D01*
D17*
X153571100Y-58878600D02*
X154571100Y-58878600D01*
X153571100Y-59378600D02*
X153571100Y-58878600D01*
X154571100Y-58878600D02*
X154571100Y-59378600D01*
X154571100Y-59378600D02*
X153571100Y-59378600D01*
D16*
X154601100Y-58848600D02*
X154601100Y-59408600D01*
X154601100Y-59408600D02*
X153541100Y-59408600D01*
D20*
%TO.C,IC3*%
X156376100Y-62128600D02*
X156376100Y-68378600D01*
X150126100Y-62128600D02*
X156376100Y-62128600D01*
D21*
X155751100Y-62753600D02*
X155751100Y-67753600D01*
X155251100Y-62753600D02*
X155751100Y-63253600D01*
X150751100Y-62753600D02*
X155751100Y-62753600D01*
X155751100Y-67753600D02*
X150751100Y-67753600D01*
X150751100Y-67753600D02*
X150751100Y-62753600D01*
D20*
X156376100Y-68378600D02*
X150126100Y-68378600D01*
X150126100Y-68378600D02*
X150126100Y-62128600D01*
D16*
%TO.C,C4*%
X162969903Y-150460443D02*
X161973829Y-150822985D01*
X162778371Y-149934215D02*
X162969903Y-150460443D01*
D17*
X162931451Y-150442513D02*
X161991759Y-150784533D01*
X162760441Y-149972667D02*
X162931451Y-150442513D01*
X161991759Y-150784533D02*
X161820749Y-150314687D01*
X161820749Y-150314687D02*
X162760441Y-149972667D01*
D16*
X161973829Y-150822985D02*
X161782297Y-150296757D01*
X161782297Y-150296757D02*
X162778371Y-149934215D01*
%TO.C,C6*%
X155555530Y-150944887D02*
X156599427Y-150760820D01*
X155652773Y-151496380D02*
X155555530Y-150944887D01*
D17*
X155590284Y-150969222D02*
X156575092Y-150795574D01*
X155677108Y-151461626D02*
X155590284Y-150969222D01*
X156575092Y-150795574D02*
X156661916Y-151287978D01*
X156661916Y-151287978D02*
X155677108Y-151461626D01*
D16*
X156599427Y-150760820D02*
X156696670Y-151312313D01*
X156696670Y-151312313D02*
X155652773Y-151496380D01*
%TO.C,IC1*%
G36*
X152769407Y-144014207D02*
G01*
X152369181Y-144084777D01*
X152192754Y-143084213D01*
X152592980Y-143013642D01*
X152769407Y-144014207D01*
G37*
G36*
X153576558Y-148591790D02*
G01*
X153176332Y-148662361D01*
X152999906Y-147661796D01*
X153400132Y-147591225D01*
X153576558Y-148591790D01*
G37*
G36*
X154020113Y-143793674D02*
G01*
X153619887Y-143864244D01*
X153443460Y-142863680D01*
X153843686Y-142793109D01*
X154020113Y-143793674D01*
G37*
G36*
X154827264Y-148371257D02*
G01*
X154427038Y-148441828D01*
X154250612Y-147441263D01*
X154650837Y-147370692D01*
X154827264Y-148371257D01*
G37*
G36*
X155270818Y-143573140D02*
G01*
X154870592Y-143643711D01*
X154694166Y-142643146D01*
X155094392Y-142572576D01*
X155270818Y-143573140D01*
G37*
G36*
X156077970Y-148150724D02*
G01*
X155677744Y-148221294D01*
X155501317Y-147220730D01*
X155901543Y-147150159D01*
X156077970Y-148150724D01*
G37*
G36*
X156521524Y-143352607D02*
G01*
X156121298Y-143423178D01*
X155944872Y-142422613D01*
X156345098Y-142352043D01*
X156521524Y-143352607D01*
G37*
G36*
X157328676Y-147930191D02*
G01*
X156928450Y-148000761D01*
X156752023Y-147000197D01*
X157152249Y-146929626D01*
X157328676Y-147930191D01*
G37*
G36*
X157772230Y-143132074D02*
G01*
X157372004Y-143202645D01*
X157195578Y-142202080D01*
X157595804Y-142131509D01*
X157772230Y-143132074D01*
G37*
G36*
X158579382Y-147709657D02*
G01*
X158179156Y-147780228D01*
X158002729Y-146779663D01*
X158402955Y-146709093D01*
X158579382Y-147709657D01*
G37*
G36*
X159022936Y-142911541D02*
G01*
X158622710Y-142982111D01*
X158446283Y-141981547D01*
X158846509Y-141910976D01*
X159022936Y-142911541D01*
G37*
G36*
X159830087Y-147489124D02*
G01*
X159429861Y-147559695D01*
X159253435Y-146559130D01*
X159653661Y-146488560D01*
X159830087Y-147489124D01*
G37*
G36*
X160273642Y-142691008D02*
G01*
X159873416Y-142761578D01*
X159696989Y-141761014D01*
X160097215Y-141690443D01*
X160273642Y-142691008D01*
G37*
G36*
X161080793Y-147268591D02*
G01*
X160680567Y-147339162D01*
X160504141Y-146338597D01*
X160904367Y-146268026D01*
X161080793Y-147268591D01*
G37*
G36*
X161524348Y-142470474D02*
G01*
X161124122Y-142541045D01*
X160947695Y-141540480D01*
X161347921Y-141469910D01*
X161524348Y-142470474D01*
G37*
G36*
X162331499Y-147048058D02*
G01*
X161931273Y-147118628D01*
X161754847Y-146118064D01*
X162155073Y-146047493D01*
X162331499Y-147048058D01*
G37*
D20*
%TO.C,Q2*%
X166247417Y-130565824D02*
X167581295Y-134230625D01*
X162920905Y-131776575D02*
X166247417Y-130565824D01*
D21*
X166400738Y-131893450D02*
X166845364Y-133115051D01*
X165503332Y-132220080D02*
X166727367Y-132790857D01*
X163656836Y-132892149D02*
X166400738Y-131893450D01*
X166845364Y-133115051D02*
X164101462Y-134113750D01*
X164101462Y-134113750D02*
X163656836Y-132892149D01*
D20*
X167581295Y-134230625D02*
X164254783Y-135441376D01*
X164254783Y-135441376D02*
X162920905Y-131776575D01*
D16*
%TO.C,C2*%
X169071100Y-151873600D02*
X172431100Y-151873600D01*
X169071100Y-153633600D02*
X169071100Y-151873600D01*
D18*
X169151100Y-151953600D02*
X169651100Y-151953600D01*
D19*
X169151100Y-151953600D02*
X172351100Y-151953600D01*
D18*
X169151100Y-153553600D02*
X169151100Y-151953600D01*
X169651100Y-151953600D02*
X169651100Y-153553600D01*
X169651100Y-153553600D02*
X169151100Y-153553600D01*
X171851100Y-151953600D02*
X172351100Y-151953600D01*
X171851100Y-153553600D02*
X171851100Y-151953600D01*
X172351100Y-151953600D02*
X172351100Y-153553600D01*
D19*
X172351100Y-153553600D02*
X169151100Y-153553600D01*
D18*
X172351100Y-153553600D02*
X171851100Y-153553600D01*
D16*
X172431100Y-151873600D02*
X172431100Y-153633600D01*
X172431100Y-153633600D02*
X169071100Y-153633600D01*
%TO.C,R7*%
X151156100Y-59973600D02*
X151156100Y-61033600D01*
X150596100Y-59973600D02*
X151156100Y-59973600D01*
D17*
X151126100Y-60003600D02*
X151126100Y-61003600D01*
X150626100Y-60003600D02*
X151126100Y-60003600D01*
X151126100Y-61003600D02*
X150626100Y-61003600D01*
X150626100Y-61003600D02*
X150626100Y-60003600D01*
D16*
X151156100Y-61033600D02*
X150596100Y-61033600D01*
X150596100Y-61033600D02*
X150596100Y-59973600D01*
%TO.C,R9*%
X147971100Y-64973600D02*
X149031100Y-64973600D01*
X147971100Y-65533600D02*
X147971100Y-64973600D01*
D17*
X148001100Y-65003600D02*
X149001100Y-65003600D01*
X148001100Y-65503600D02*
X148001100Y-65003600D01*
X149001100Y-65003600D02*
X149001100Y-65503600D01*
X149001100Y-65503600D02*
X148001100Y-65503600D01*
D16*
X149031100Y-64973600D02*
X149031100Y-65533600D01*
X149031100Y-65533600D02*
X147971100Y-65533600D01*
%TO.C,C20*%
X158531100Y-61158600D02*
X157471100Y-61158600D01*
X158531100Y-60598600D02*
X158531100Y-61158600D01*
D17*
X158501100Y-61128600D02*
X157501100Y-61128600D01*
X158501100Y-60628600D02*
X158501100Y-61128600D01*
X157501100Y-61128600D02*
X157501100Y-60628600D01*
X157501100Y-60628600D02*
X158501100Y-60628600D01*
D16*
X157471100Y-61158600D02*
X157471100Y-60598600D01*
X157471100Y-60598600D02*
X158531100Y-60598600D01*
%TO.C,R10*%
X147971100Y-63848600D02*
X149031100Y-63848600D01*
X147971100Y-64408600D02*
X147971100Y-63848600D01*
D17*
X148001100Y-63878600D02*
X149001100Y-63878600D01*
X148001100Y-64378600D02*
X148001100Y-63878600D01*
X149001100Y-63878600D02*
X149001100Y-64378600D01*
X149001100Y-64378600D02*
X148001100Y-64378600D01*
D16*
X149031100Y-63848600D02*
X149031100Y-64408600D01*
X149031100Y-64408600D02*
X147971100Y-64408600D01*
%TO.C,L1*%
X154781100Y-56723600D02*
X154781100Y-57783600D01*
X154221100Y-56723600D02*
X154781100Y-56723600D01*
D17*
X154751100Y-56753600D02*
X154751100Y-57753600D01*
X154251100Y-56753600D02*
X154751100Y-56753600D01*
X154751100Y-57753600D02*
X154251100Y-57753600D01*
X154251100Y-57753600D02*
X154251100Y-56753600D01*
D16*
X154781100Y-57783600D02*
X154221100Y-57783600D01*
X154221100Y-57783600D02*
X154221100Y-56723600D01*
%TO.C,R6*%
X157471100Y-61723600D02*
X158531100Y-61723600D01*
X157471100Y-62283600D02*
X157471100Y-61723600D01*
D17*
X157501100Y-61753600D02*
X158501100Y-61753600D01*
X157501100Y-62253600D02*
X157501100Y-61753600D01*
X158501100Y-61753600D02*
X158501100Y-62253600D01*
X158501100Y-62253600D02*
X157501100Y-62253600D01*
D16*
X158531100Y-61723600D02*
X158531100Y-62283600D01*
X158531100Y-62283600D02*
X157471100Y-62283600D01*
D22*
%TO.C,IC2*%
X172853900Y-160857800D02*
X172853900Y-157149400D01*
X172853900Y-157149400D02*
X166148300Y-157149400D01*
X172244300Y-157149400D02*
X172218900Y-155346000D01*
X172218900Y-155346000D02*
X171380700Y-155346000D01*
X171380700Y-157149400D02*
X172244300Y-157149400D01*
X171380700Y-155346000D02*
X171380700Y-157149400D01*
X171050500Y-162635800D02*
X171050500Y-160857800D01*
X171050500Y-160857800D02*
X167951700Y-160857800D01*
X169907500Y-157149400D02*
X169907500Y-155346000D01*
X169907500Y-155346000D02*
X169069300Y-155346000D01*
X169094700Y-157149400D02*
X169907500Y-157149400D01*
X169069300Y-155346000D02*
X169094700Y-157149400D01*
X167951700Y-160857800D02*
X167951700Y-162661200D01*
X167621500Y-157149400D02*
X167596100Y-155346000D01*
X167596100Y-155346000D02*
X166757900Y-155346000D01*
X166757900Y-157149400D02*
X167621500Y-157149400D01*
X166757900Y-155346000D02*
X166757900Y-157149400D01*
X166148300Y-160857800D02*
X172853900Y-160857800D01*
X166148300Y-157149400D02*
X166148300Y-160857800D01*
D16*
%TO.C,C12*%
X156531100Y-59973600D02*
X156531100Y-61033600D01*
X155971100Y-59973600D02*
X156531100Y-59973600D01*
D17*
X156501100Y-60003600D02*
X156501100Y-61003600D01*
X156001100Y-60003600D02*
X156501100Y-60003600D01*
X156501100Y-61003600D02*
X156001100Y-61003600D01*
X156001100Y-61003600D02*
X156001100Y-60003600D01*
D16*
X156531100Y-61033600D02*
X155971100Y-61033600D01*
X155971100Y-61033600D02*
X155971100Y-59973600D01*
%TO.C,C11*%
X158656100Y-68908600D02*
X157596100Y-68908600D01*
X158656100Y-68348600D02*
X158656100Y-68908600D01*
D17*
X158626100Y-68878600D02*
X157626100Y-68878600D01*
X158626100Y-68378600D02*
X158626100Y-68878600D01*
X157626100Y-68878600D02*
X157626100Y-68378600D01*
X157626100Y-68378600D02*
X158626100Y-68378600D01*
D16*
X157596100Y-68908600D02*
X157596100Y-68348600D01*
X157596100Y-68348600D02*
X158656100Y-68348600D01*
%TO.C,C18*%
X122121100Y-69058600D02*
X122121100Y-65698600D01*
X123881100Y-69058600D02*
X122121100Y-69058600D01*
D18*
X122201100Y-68978600D02*
X122201100Y-68478600D01*
D19*
X122201100Y-68978600D02*
X122201100Y-65778600D01*
D18*
X123801100Y-68978600D02*
X122201100Y-68978600D01*
X122201100Y-68478600D02*
X123801100Y-68478600D01*
X123801100Y-68478600D02*
X123801100Y-68978600D01*
X122201100Y-66278600D02*
X122201100Y-65778600D01*
X123801100Y-66278600D02*
X122201100Y-66278600D01*
X122201100Y-65778600D02*
X123801100Y-65778600D01*
D19*
X123801100Y-65778600D02*
X123801100Y-68978600D01*
D18*
X123801100Y-65778600D02*
X123801100Y-66278600D01*
D16*
X122121100Y-65698600D02*
X123881100Y-65698600D01*
X123881100Y-65698600D02*
X123881100Y-69058600D01*
D21*
%TO.C,J1*%
X181166100Y-56193600D02*
X176086100Y-56193600D01*
X176086100Y-56193600D02*
X176086100Y-63813600D01*
X181166100Y-56403600D02*
X181166100Y-56193600D01*
X181166100Y-56403600D02*
X181166100Y-63603600D01*
X176086100Y-56403600D02*
X181166100Y-56403600D01*
X178326100Y-56603600D02*
X178526100Y-56803600D01*
X178326100Y-56603600D02*
X178126100Y-56803600D01*
X182376100Y-57143600D02*
X182376100Y-57783600D01*
X181166100Y-57143600D02*
X181166100Y-56403600D01*
X181166100Y-57143600D02*
X182376100Y-57143600D01*
X174876100Y-57143600D02*
X176086100Y-57143600D01*
X178326100Y-57503600D02*
X178326100Y-56603600D01*
X182376100Y-57783600D02*
X181166100Y-57783600D01*
X181166100Y-57783600D02*
X181166100Y-57143600D01*
X176086100Y-57783600D02*
X174876100Y-57783600D01*
X174876100Y-57783600D02*
X174876100Y-57143600D01*
X178626100Y-57803600D02*
X178326100Y-57503600D01*
X173476100Y-57933600D02*
X176086100Y-57933600D01*
X173006100Y-59003600D02*
X173006100Y-58403600D01*
X176086100Y-59473600D02*
X173476100Y-59473600D01*
X182376100Y-59683600D02*
X182376100Y-60323600D01*
X181166100Y-59683600D02*
X182376100Y-59683600D01*
X174876100Y-59683600D02*
X176086100Y-59683600D01*
X182376100Y-60323600D02*
X181166100Y-60323600D01*
X176086100Y-60323600D02*
X174876100Y-60323600D01*
X174876100Y-60323600D02*
X174876100Y-59683600D01*
X181166100Y-60533600D02*
X183776100Y-60533600D01*
X184246100Y-61003600D02*
X184246100Y-61603600D01*
X183776100Y-62073600D02*
X181166100Y-62073600D01*
X182376100Y-62223600D02*
X182376100Y-62863600D01*
X181166100Y-62223600D02*
X182376100Y-62223600D01*
X174876100Y-62223600D02*
X176086100Y-62223600D01*
X182376100Y-62863600D02*
X181166100Y-62863600D01*
X176086100Y-62863600D02*
X174876100Y-62863600D01*
X174876100Y-62863600D02*
X174876100Y-62223600D01*
X181166100Y-63603600D02*
X181166100Y-57783600D01*
X181166100Y-63603600D02*
X176086100Y-63603600D01*
X176086100Y-63603600D02*
X176086100Y-56403600D01*
X181166100Y-63813600D02*
X181166100Y-63603600D01*
X176086100Y-63813600D02*
X181166100Y-63813600D01*
X173476100Y-57933600D02*
G75*
G03*
X173006100Y-58403600I1J-470001D01*
G01*
X173006100Y-59003600D02*
G75*
G03*
X173476100Y-59473600I470001J1D01*
G01*
X184246100Y-61003600D02*
G75*
G03*
X183776100Y-60533600I-470000J0D01*
G01*
X183776100Y-62073600D02*
G75*
G03*
X184246100Y-61603600I0J470000D01*
G01*
D16*
%TO.C,C8*%
X153541100Y-55098600D02*
X154601100Y-55098600D01*
X153541100Y-55658600D02*
X153541100Y-55098600D01*
D17*
X153571100Y-55128600D02*
X154571100Y-55128600D01*
X153571100Y-55628600D02*
X153571100Y-55128600D01*
X154571100Y-55128600D02*
X154571100Y-55628600D01*
X154571100Y-55628600D02*
X153571100Y-55628600D01*
D16*
X154601100Y-55098600D02*
X154601100Y-55658600D01*
X154601100Y-55658600D02*
X153541100Y-55658600D01*
%TO.C,R11*%
X157471100Y-59473600D02*
X158531100Y-59473600D01*
X157471100Y-60033600D02*
X157471100Y-59473600D01*
D17*
X157501100Y-59503600D02*
X158501100Y-59503600D01*
X157501100Y-60003600D02*
X157501100Y-59503600D01*
X158501100Y-59503600D02*
X158501100Y-60003600D01*
X158501100Y-60003600D02*
X157501100Y-60003600D01*
D16*
X158531100Y-59473600D02*
X158531100Y-60033600D01*
X158531100Y-60033600D02*
X157471100Y-60033600D01*
%TO.C,R8*%
X147971100Y-66098600D02*
X149031100Y-66098600D01*
X147971100Y-66658600D02*
X147971100Y-66098600D01*
D17*
X148001100Y-66128600D02*
X149001100Y-66128600D01*
X148001100Y-66628600D02*
X148001100Y-66128600D01*
X149001100Y-66128600D02*
X149001100Y-66628600D01*
X149001100Y-66628600D02*
X148001100Y-66628600D01*
D16*
X149031100Y-66098600D02*
X149031100Y-66658600D01*
X149031100Y-66658600D02*
X147971100Y-66658600D01*
%TO.C,C13*%
X152531100Y-59973600D02*
X152531100Y-61033600D01*
X151971100Y-59973600D02*
X152531100Y-59973600D01*
D17*
X152501100Y-60003600D02*
X152501100Y-61003600D01*
X152001100Y-60003600D02*
X152501100Y-60003600D01*
X152501100Y-61003600D02*
X152001100Y-61003600D01*
X152001100Y-61003600D02*
X152001100Y-60003600D01*
D16*
X152531100Y-61033600D02*
X151971100Y-61033600D01*
X151971100Y-61033600D02*
X151971100Y-59973600D01*
D23*
%TO.C,XT1*%
X159376100Y-67553600D02*
X157376100Y-67553600D01*
X159376100Y-65953600D02*
X159376100Y-67553600D01*
X157376100Y-67553600D02*
X157376100Y-65953600D01*
X157376100Y-65953600D02*
X159376100Y-65953600D01*
D20*
%TO.C,Q3*%
X165481100Y-69328600D02*
X165481100Y-65428600D01*
X169021100Y-69328600D02*
X165481100Y-69328600D01*
D21*
X165791100Y-68028600D02*
X165791100Y-66728600D01*
X166746100Y-68028600D02*
X165791100Y-67073600D01*
X168711100Y-68028600D02*
X165791100Y-68028600D01*
X165791100Y-66728600D02*
X168711100Y-66728600D01*
X168711100Y-66728600D02*
X168711100Y-68028600D01*
D20*
X165481100Y-65428600D02*
X169021100Y-65428600D01*
X169021100Y-65428600D02*
X169021100Y-69328600D01*
D22*
%TO.C,CON2*%
X115665100Y-57003600D02*
X115665100Y-63103600D01*
X111415100Y-57003600D02*
X115665100Y-57003600D01*
X115665100Y-63103600D02*
X111415100Y-63103600D01*
X111415100Y-63103600D02*
X111415100Y-57003600D01*
D16*
%TO.C,R2*%
X161315811Y-152242478D02*
X160465811Y-153714722D01*
X160536389Y-151792478D02*
X161315811Y-152242478D01*
D17*
X161247510Y-152260780D02*
X160447510Y-153646420D01*
X160554690Y-151860780D02*
X161247510Y-152260780D01*
X160447510Y-153646420D02*
X159754690Y-153246420D01*
X159754690Y-153246420D02*
X160554690Y-151860780D01*
D16*
X160465811Y-153714722D02*
X159686389Y-153264722D01*
X159686389Y-153264722D02*
X160536389Y-151792478D01*
%TO.C,R3*%
X154239978Y-153438889D02*
X155712222Y-154288889D01*
X153789978Y-154218311D02*
X154239978Y-153438889D01*
D17*
X154258280Y-153507190D02*
X155643920Y-154307190D01*
X153858280Y-154200010D02*
X154258280Y-153507190D01*
X155643920Y-154307190D02*
X155243920Y-155000010D01*
X155243920Y-155000010D02*
X153858280Y-154200010D01*
D16*
X155712222Y-154288889D02*
X155262222Y-155068311D01*
X155262222Y-155068311D02*
X153789978Y-154218311D01*
%TO.C,C16*%
X147971100Y-62598600D02*
X149031100Y-62598600D01*
X147971100Y-63158600D02*
X147971100Y-62598600D01*
D17*
X148001100Y-62628600D02*
X149001100Y-62628600D01*
X148001100Y-63128600D02*
X148001100Y-62628600D01*
X149001100Y-62628600D02*
X149001100Y-63128600D01*
X149001100Y-63128600D02*
X148001100Y-63128600D01*
D16*
X149031100Y-62598600D02*
X149031100Y-63158600D01*
X149031100Y-63158600D02*
X147971100Y-63158600D01*
%TD*%
M02*
