%TF.GenerationSoftware,KiCad,Pcbnew,7.0.6-7.0.6~ubuntu22.04.1*%
%TF.CreationDate,2023-08-07T18:14:45+01:00*%
%TF.ProjectId,working,776f726b-696e-4672-9e6b-696361645f70,rev?*%
%TF.SameCoordinates,Original*%
%TF.FileFunction,Other,Comment*%
%FSLAX46Y46*%
G04 Gerber Fmt 4.6, Leading zero omitted, Abs format (unit mm)*
G04 Created by KiCad (PCBNEW 7.0.6-7.0.6~ubuntu22.04.1) date 2023-08-07 18:14:45*
%MOMM*%
%LPD*%
G01*
G04 APERTURE LIST*
%ADD10C,0.152400*%
%ADD11C,0.076200*%
%ADD12C,0.142240*%
%ADD13C,0.100000*%
%ADD14C,0.048768*%
%ADD15C,0.127000*%
%ADD16C,0.254000*%
%ADD17C,0.050000*%
G04 APERTURE END LIST*
D10*
X146001100Y-71003600D02*
X146001100Y-36503600D01*
X121001100Y-79003600D02*
X121001100Y-115003600D01*
X109001100Y-78003600D02*
X188001100Y-78003600D01*
D11*
X179251100Y-120503600D02*
G75*
G03*
X179251100Y-120503600I-500000J0D01*
G01*
D10*
X151501100Y-52503600D02*
G75*
G03*
X151501100Y-52503600I-3000000J0D01*
G01*
X162251100Y-71003600D02*
X162251100Y-36503600D01*
X105001100Y-71003600D02*
X146001100Y-71003600D01*
X176001100Y-115003600D02*
X176001100Y-79003600D01*
X179251100Y-120503600D02*
G75*
G03*
X141001100Y-158753600I0J-38250000D01*
G01*
X121001100Y-115003600D02*
X176001100Y-115003600D01*
X146001100Y-71003600D02*
X190001100Y-71003600D01*
X176001100Y-79003600D02*
X121001100Y-79003600D01*
D12*
X149418864Y-26114508D02*
X149340971Y-26192402D01*
X149340971Y-26192402D02*
X149107291Y-26270295D01*
X149107291Y-26270295D02*
X148951504Y-26270295D01*
X148951504Y-26270295D02*
X148717824Y-26192402D01*
X148717824Y-26192402D02*
X148562038Y-26036615D01*
X148562038Y-26036615D02*
X148484144Y-25880828D01*
X148484144Y-25880828D02*
X148406251Y-25569255D01*
X148406251Y-25569255D02*
X148406251Y-25335575D01*
X148406251Y-25335575D02*
X148484144Y-25024002D01*
X148484144Y-25024002D02*
X148562038Y-24868215D01*
X148562038Y-24868215D02*
X148717824Y-24712428D01*
X148717824Y-24712428D02*
X148951504Y-24634535D01*
X148951504Y-24634535D02*
X149107291Y-24634535D01*
X149107291Y-24634535D02*
X149340971Y-24712428D01*
X149340971Y-24712428D02*
X149418864Y-24790322D01*
X150119904Y-26270295D02*
X150119904Y-24634535D01*
X150119904Y-24634535D02*
X150743051Y-24634535D01*
X150743051Y-24634535D02*
X150898838Y-24712428D01*
X150898838Y-24712428D02*
X150976731Y-24790322D01*
X150976731Y-24790322D02*
X151054624Y-24946108D01*
X151054624Y-24946108D02*
X151054624Y-25179788D01*
X151054624Y-25179788D02*
X150976731Y-25335575D01*
X150976731Y-25335575D02*
X150898838Y-25413468D01*
X150898838Y-25413468D02*
X150743051Y-25491362D01*
X150743051Y-25491362D02*
X150119904Y-25491362D01*
X151599878Y-24634535D02*
X151989344Y-26270295D01*
X151989344Y-26270295D02*
X152300918Y-25101895D01*
X152300918Y-25101895D02*
X152612491Y-26270295D01*
X152612491Y-26270295D02*
X153001958Y-24634535D01*
X154481931Y-24712428D02*
X154326144Y-24634535D01*
X154326144Y-24634535D02*
X154092464Y-24634535D01*
X154092464Y-24634535D02*
X153858784Y-24712428D01*
X153858784Y-24712428D02*
X153702998Y-24868215D01*
X153702998Y-24868215D02*
X153625104Y-25024002D01*
X153625104Y-25024002D02*
X153547211Y-25335575D01*
X153547211Y-25335575D02*
X153547211Y-25569255D01*
X153547211Y-25569255D02*
X153625104Y-25880828D01*
X153625104Y-25880828D02*
X153702998Y-26036615D01*
X153702998Y-26036615D02*
X153858784Y-26192402D01*
X153858784Y-26192402D02*
X154092464Y-26270295D01*
X154092464Y-26270295D02*
X154248251Y-26270295D01*
X154248251Y-26270295D02*
X154481931Y-26192402D01*
X154481931Y-26192402D02*
X154559824Y-26114508D01*
X154559824Y-26114508D02*
X154559824Y-25569255D01*
X154559824Y-25569255D02*
X154248251Y-25569255D01*
X157286091Y-24634535D02*
X156507157Y-24634535D01*
X156507157Y-24634535D02*
X156429264Y-25413468D01*
X156429264Y-25413468D02*
X156507157Y-25335575D01*
X156507157Y-25335575D02*
X156662944Y-25257682D01*
X156662944Y-25257682D02*
X157052411Y-25257682D01*
X157052411Y-25257682D02*
X157208197Y-25335575D01*
X157208197Y-25335575D02*
X157286091Y-25413468D01*
X157286091Y-25413468D02*
X157363984Y-25569255D01*
X157363984Y-25569255D02*
X157363984Y-25958722D01*
X157363984Y-25958722D02*
X157286091Y-26114508D01*
X157286091Y-26114508D02*
X157208197Y-26192402D01*
X157208197Y-26192402D02*
X157052411Y-26270295D01*
X157052411Y-26270295D02*
X156662944Y-26270295D01*
X156662944Y-26270295D02*
X156507157Y-26192402D01*
X156507157Y-26192402D02*
X156429264Y-26114508D01*
X158376598Y-24634535D02*
X158532384Y-24634535D01*
X158532384Y-24634535D02*
X158688171Y-24712428D01*
X158688171Y-24712428D02*
X158766064Y-24790322D01*
X158766064Y-24790322D02*
X158843958Y-24946108D01*
X158843958Y-24946108D02*
X158921851Y-25257682D01*
X158921851Y-25257682D02*
X158921851Y-25647148D01*
X158921851Y-25647148D02*
X158843958Y-25958722D01*
X158843958Y-25958722D02*
X158766064Y-26114508D01*
X158766064Y-26114508D02*
X158688171Y-26192402D01*
X158688171Y-26192402D02*
X158532384Y-26270295D01*
X158532384Y-26270295D02*
X158376598Y-26270295D01*
X158376598Y-26270295D02*
X158220811Y-26192402D01*
X158220811Y-26192402D02*
X158142918Y-26114508D01*
X158142918Y-26114508D02*
X158065024Y-25958722D01*
X158065024Y-25958722D02*
X157987131Y-25647148D01*
X157987131Y-25647148D02*
X157987131Y-25257682D01*
X157987131Y-25257682D02*
X158065024Y-24946108D01*
X158065024Y-24946108D02*
X158142918Y-24790322D01*
X158142918Y-24790322D02*
X158220811Y-24712428D01*
X158220811Y-24712428D02*
X158376598Y-24634535D01*
X161180758Y-24634535D02*
X161492331Y-24634535D01*
X161492331Y-24634535D02*
X161648118Y-24712428D01*
X161648118Y-24712428D02*
X161803904Y-24868215D01*
X161803904Y-24868215D02*
X161881798Y-25179788D01*
X161881798Y-25179788D02*
X161881798Y-25725042D01*
X161881798Y-25725042D02*
X161803904Y-26036615D01*
X161803904Y-26036615D02*
X161648118Y-26192402D01*
X161648118Y-26192402D02*
X161492331Y-26270295D01*
X161492331Y-26270295D02*
X161180758Y-26270295D01*
X161180758Y-26270295D02*
X161024971Y-26192402D01*
X161024971Y-26192402D02*
X160869184Y-26036615D01*
X160869184Y-26036615D02*
X160791291Y-25725042D01*
X160791291Y-25725042D02*
X160791291Y-25179788D01*
X160791291Y-25179788D02*
X160869184Y-24868215D01*
X160869184Y-24868215D02*
X161024971Y-24712428D01*
X161024971Y-24712428D02*
X161180758Y-24634535D01*
X162582837Y-26270295D02*
X162582837Y-24634535D01*
X163283877Y-26270295D02*
X163283877Y-25413468D01*
X163283877Y-25413468D02*
X163205984Y-25257682D01*
X163205984Y-25257682D02*
X163050197Y-25179788D01*
X163050197Y-25179788D02*
X162816517Y-25179788D01*
X162816517Y-25179788D02*
X162660731Y-25257682D01*
X162660731Y-25257682D02*
X162582837Y-25335575D01*
X164062810Y-26270295D02*
X164062810Y-25179788D01*
X164062810Y-25335575D02*
X164140704Y-25257682D01*
X164140704Y-25257682D02*
X164296490Y-25179788D01*
X164296490Y-25179788D02*
X164530170Y-25179788D01*
X164530170Y-25179788D02*
X164685957Y-25257682D01*
X164685957Y-25257682D02*
X164763850Y-25413468D01*
X164763850Y-25413468D02*
X164763850Y-26270295D01*
X164763850Y-25413468D02*
X164841744Y-25257682D01*
X164841744Y-25257682D02*
X164997530Y-25179788D01*
X164997530Y-25179788D02*
X165231210Y-25179788D01*
X165231210Y-25179788D02*
X165386997Y-25257682D01*
X165386997Y-25257682D02*
X165464890Y-25413468D01*
X165464890Y-25413468D02*
X165464890Y-26270295D01*
X167490116Y-26270295D02*
X167490116Y-24634535D01*
X167490116Y-24634535D02*
X168113263Y-24634535D01*
X168113263Y-24634535D02*
X168269050Y-24712428D01*
X168269050Y-24712428D02*
X168346943Y-24790322D01*
X168346943Y-24790322D02*
X168424836Y-24946108D01*
X168424836Y-24946108D02*
X168424836Y-25179788D01*
X168424836Y-25179788D02*
X168346943Y-25335575D01*
X168346943Y-25335575D02*
X168269050Y-25413468D01*
X168269050Y-25413468D02*
X168113263Y-25491362D01*
X168113263Y-25491362D02*
X167490116Y-25491362D01*
X169826916Y-26270295D02*
X169826916Y-25413468D01*
X169826916Y-25413468D02*
X169749023Y-25257682D01*
X169749023Y-25257682D02*
X169593236Y-25179788D01*
X169593236Y-25179788D02*
X169281663Y-25179788D01*
X169281663Y-25179788D02*
X169125876Y-25257682D01*
X169826916Y-26192402D02*
X169671130Y-26270295D01*
X169671130Y-26270295D02*
X169281663Y-26270295D01*
X169281663Y-26270295D02*
X169125876Y-26192402D01*
X169125876Y-26192402D02*
X169047983Y-26036615D01*
X169047983Y-26036615D02*
X169047983Y-25880828D01*
X169047983Y-25880828D02*
X169125876Y-25725042D01*
X169125876Y-25725042D02*
X169281663Y-25647148D01*
X169281663Y-25647148D02*
X169671130Y-25647148D01*
X169671130Y-25647148D02*
X169826916Y-25569255D01*
X170605849Y-26270295D02*
X170605849Y-25179788D01*
X170605849Y-25491362D02*
X170683743Y-25335575D01*
X170683743Y-25335575D02*
X170761636Y-25257682D01*
X170761636Y-25257682D02*
X170917423Y-25179788D01*
X170917423Y-25179788D02*
X171073209Y-25179788D01*
X172319502Y-26270295D02*
X172319502Y-25413468D01*
X172319502Y-25413468D02*
X172241609Y-25257682D01*
X172241609Y-25257682D02*
X172085822Y-25179788D01*
X172085822Y-25179788D02*
X171774249Y-25179788D01*
X171774249Y-25179788D02*
X171618462Y-25257682D01*
X172319502Y-26192402D02*
X172163716Y-26270295D01*
X172163716Y-26270295D02*
X171774249Y-26270295D01*
X171774249Y-26270295D02*
X171618462Y-26192402D01*
X171618462Y-26192402D02*
X171540569Y-26036615D01*
X171540569Y-26036615D02*
X171540569Y-25880828D01*
X171540569Y-25880828D02*
X171618462Y-25725042D01*
X171618462Y-25725042D02*
X171774249Y-25647148D01*
X171774249Y-25647148D02*
X172163716Y-25647148D01*
X172163716Y-25647148D02*
X172319502Y-25569255D01*
X173098435Y-26270295D02*
X173098435Y-25179788D01*
X173098435Y-25335575D02*
X173176329Y-25257682D01*
X173176329Y-25257682D02*
X173332115Y-25179788D01*
X173332115Y-25179788D02*
X173565795Y-25179788D01*
X173565795Y-25179788D02*
X173721582Y-25257682D01*
X173721582Y-25257682D02*
X173799475Y-25413468D01*
X173799475Y-25413468D02*
X173799475Y-26270295D01*
X173799475Y-25413468D02*
X173877369Y-25257682D01*
X173877369Y-25257682D02*
X174033155Y-25179788D01*
X174033155Y-25179788D02*
X174266835Y-25179788D01*
X174266835Y-25179788D02*
X174422622Y-25257682D01*
X174422622Y-25257682D02*
X174500515Y-25413468D01*
X174500515Y-25413468D02*
X174500515Y-26270295D01*
X175201555Y-26192402D02*
X175357342Y-26270295D01*
X175357342Y-26270295D02*
X175668915Y-26270295D01*
X175668915Y-26270295D02*
X175824702Y-26192402D01*
X175824702Y-26192402D02*
X175902595Y-26036615D01*
X175902595Y-26036615D02*
X175902595Y-25958722D01*
X175902595Y-25958722D02*
X175824702Y-25802935D01*
X175824702Y-25802935D02*
X175668915Y-25725042D01*
X175668915Y-25725042D02*
X175435235Y-25725042D01*
X175435235Y-25725042D02*
X175279448Y-25647148D01*
X175279448Y-25647148D02*
X175201555Y-25491362D01*
X175201555Y-25491362D02*
X175201555Y-25413468D01*
X175201555Y-25413468D02*
X175279448Y-25257682D01*
X175279448Y-25257682D02*
X175435235Y-25179788D01*
X175435235Y-25179788D02*
X175668915Y-25179788D01*
X175668915Y-25179788D02*
X175824702Y-25257682D01*
X176603635Y-26114508D02*
X176681529Y-26192402D01*
X176681529Y-26192402D02*
X176603635Y-26270295D01*
X176603635Y-26270295D02*
X176525742Y-26192402D01*
X176525742Y-26192402D02*
X176603635Y-26114508D01*
X176603635Y-26114508D02*
X176603635Y-26270295D01*
X176603635Y-25257682D02*
X176681529Y-25335575D01*
X176681529Y-25335575D02*
X176603635Y-25413468D01*
X176603635Y-25413468D02*
X176525742Y-25335575D01*
X176525742Y-25335575D02*
X176603635Y-25257682D01*
X176603635Y-25257682D02*
X176603635Y-25413468D01*
X148484144Y-28903869D02*
X148484144Y-27268109D01*
X148484144Y-28047042D02*
X149418864Y-28047042D01*
X149418864Y-28903869D02*
X149418864Y-27268109D01*
X150197797Y-28047042D02*
X151444091Y-28047042D01*
X151444091Y-28514402D02*
X150197797Y-28514402D01*
X153079851Y-28903869D02*
X152145131Y-28903869D01*
X152612491Y-28903869D02*
X152612491Y-27268109D01*
X152612491Y-27268109D02*
X152456704Y-27501789D01*
X152456704Y-27501789D02*
X152300918Y-27657576D01*
X152300918Y-27657576D02*
X152145131Y-27735469D01*
X153780891Y-28748082D02*
X153858785Y-28825976D01*
X153858785Y-28825976D02*
X153780891Y-28903869D01*
X153780891Y-28903869D02*
X153702998Y-28825976D01*
X153702998Y-28825976D02*
X153780891Y-28748082D01*
X153780891Y-28748082D02*
X153780891Y-28903869D01*
X154481931Y-27423896D02*
X154559824Y-27346002D01*
X154559824Y-27346002D02*
X154715611Y-27268109D01*
X154715611Y-27268109D02*
X155105078Y-27268109D01*
X155105078Y-27268109D02*
X155260864Y-27346002D01*
X155260864Y-27346002D02*
X155338758Y-27423896D01*
X155338758Y-27423896D02*
X155416651Y-27579682D01*
X155416651Y-27579682D02*
X155416651Y-27735469D01*
X155416651Y-27735469D02*
X155338758Y-27969149D01*
X155338758Y-27969149D02*
X154404038Y-28903869D01*
X154404038Y-28903869D02*
X155416651Y-28903869D01*
X156117691Y-28903869D02*
X156117691Y-27813362D01*
X156117691Y-27969149D02*
X156195585Y-27891256D01*
X156195585Y-27891256D02*
X156351371Y-27813362D01*
X156351371Y-27813362D02*
X156585051Y-27813362D01*
X156585051Y-27813362D02*
X156740838Y-27891256D01*
X156740838Y-27891256D02*
X156818731Y-28047042D01*
X156818731Y-28047042D02*
X156818731Y-28903869D01*
X156818731Y-28047042D02*
X156896625Y-27891256D01*
X156896625Y-27891256D02*
X157052411Y-27813362D01*
X157052411Y-27813362D02*
X157286091Y-27813362D01*
X157286091Y-27813362D02*
X157441878Y-27891256D01*
X157441878Y-27891256D02*
X157519771Y-28047042D01*
X157519771Y-28047042D02*
X157519771Y-28903869D01*
X158298704Y-28903869D02*
X158298704Y-27813362D01*
X158298704Y-27969149D02*
X158376598Y-27891256D01*
X158376598Y-27891256D02*
X158532384Y-27813362D01*
X158532384Y-27813362D02*
X158766064Y-27813362D01*
X158766064Y-27813362D02*
X158921851Y-27891256D01*
X158921851Y-27891256D02*
X158999744Y-28047042D01*
X158999744Y-28047042D02*
X158999744Y-28903869D01*
X158999744Y-28047042D02*
X159077638Y-27891256D01*
X159077638Y-27891256D02*
X159233424Y-27813362D01*
X159233424Y-27813362D02*
X159467104Y-27813362D01*
X159467104Y-27813362D02*
X159622891Y-27891256D01*
X159622891Y-27891256D02*
X159700784Y-28047042D01*
X159700784Y-28047042D02*
X159700784Y-28903869D01*
X160557611Y-28825976D02*
X160557611Y-28903869D01*
X160557611Y-28903869D02*
X160479717Y-29059656D01*
X160479717Y-29059656D02*
X160401824Y-29137549D01*
X162504943Y-28047042D02*
X163050197Y-28047042D01*
X163283877Y-28903869D02*
X162504943Y-28903869D01*
X162504943Y-28903869D02*
X162504943Y-27268109D01*
X162504943Y-27268109D02*
X163283877Y-27268109D01*
X163984916Y-28903869D02*
X163984916Y-27813362D01*
X163984916Y-28124936D02*
X164062810Y-27969149D01*
X164062810Y-27969149D02*
X164140703Y-27891256D01*
X164140703Y-27891256D02*
X164296490Y-27813362D01*
X164296490Y-27813362D02*
X164452276Y-27813362D01*
X164997529Y-28047042D02*
X166243823Y-28047042D01*
X166243823Y-28514402D02*
X164997529Y-28514402D01*
X167723796Y-27813362D02*
X167723796Y-28903869D01*
X167334330Y-27190216D02*
X166944863Y-28358616D01*
X166944863Y-28358616D02*
X167957476Y-28358616D01*
X168580623Y-28748082D02*
X168658517Y-28825976D01*
X168658517Y-28825976D02*
X168580623Y-28903869D01*
X168580623Y-28903869D02*
X168502730Y-28825976D01*
X168502730Y-28825976D02*
X168580623Y-28748082D01*
X168580623Y-28748082D02*
X168580623Y-28903869D01*
X170060596Y-27268109D02*
X169749023Y-27268109D01*
X169749023Y-27268109D02*
X169593236Y-27346002D01*
X169593236Y-27346002D02*
X169515343Y-27423896D01*
X169515343Y-27423896D02*
X169359556Y-27657576D01*
X169359556Y-27657576D02*
X169281663Y-27969149D01*
X169281663Y-27969149D02*
X169281663Y-28592296D01*
X169281663Y-28592296D02*
X169359556Y-28748082D01*
X169359556Y-28748082D02*
X169437450Y-28825976D01*
X169437450Y-28825976D02*
X169593236Y-28903869D01*
X169593236Y-28903869D02*
X169904810Y-28903869D01*
X169904810Y-28903869D02*
X170060596Y-28825976D01*
X170060596Y-28825976D02*
X170138490Y-28748082D01*
X170138490Y-28748082D02*
X170216383Y-28592296D01*
X170216383Y-28592296D02*
X170216383Y-28202829D01*
X170216383Y-28202829D02*
X170138490Y-28047042D01*
X170138490Y-28047042D02*
X170060596Y-27969149D01*
X170060596Y-27969149D02*
X169904810Y-27891256D01*
X169904810Y-27891256D02*
X169593236Y-27891256D01*
X169593236Y-27891256D02*
X169437450Y-27969149D01*
X169437450Y-27969149D02*
X169359556Y-28047042D01*
X169359556Y-28047042D02*
X169281663Y-28202829D01*
X172631076Y-29527016D02*
X172553183Y-29449122D01*
X172553183Y-29449122D02*
X172397396Y-29215442D01*
X172397396Y-29215442D02*
X172319503Y-29059656D01*
X172319503Y-29059656D02*
X172241610Y-28825976D01*
X172241610Y-28825976D02*
X172163716Y-28436509D01*
X172163716Y-28436509D02*
X172163716Y-28124936D01*
X172163716Y-28124936D02*
X172241610Y-27735469D01*
X172241610Y-27735469D02*
X172319503Y-27501789D01*
X172319503Y-27501789D02*
X172397396Y-27346002D01*
X172397396Y-27346002D02*
X172553183Y-27112322D01*
X172553183Y-27112322D02*
X172631076Y-27034429D01*
X173799477Y-28047042D02*
X173254223Y-28047042D01*
X173254223Y-28903869D02*
X173254223Y-27268109D01*
X173254223Y-27268109D02*
X174033157Y-27268109D01*
X175591023Y-28903869D02*
X175045770Y-28124936D01*
X174656303Y-28903869D02*
X174656303Y-27268109D01*
X174656303Y-27268109D02*
X175279450Y-27268109D01*
X175279450Y-27268109D02*
X175435237Y-27346002D01*
X175435237Y-27346002D02*
X175513130Y-27423896D01*
X175513130Y-27423896D02*
X175591023Y-27579682D01*
X175591023Y-27579682D02*
X175591023Y-27813362D01*
X175591023Y-27813362D02*
X175513130Y-27969149D01*
X175513130Y-27969149D02*
X175435237Y-28047042D01*
X175435237Y-28047042D02*
X175279450Y-28124936D01*
X175279450Y-28124936D02*
X174656303Y-28124936D01*
X176292063Y-28280722D02*
X177538357Y-28280722D01*
X179018330Y-27813362D02*
X179018330Y-28903869D01*
X178628864Y-27190216D02*
X178239397Y-28358616D01*
X178239397Y-28358616D02*
X179252010Y-28358616D01*
X181043557Y-28825976D02*
X181199344Y-28903869D01*
X181199344Y-28903869D02*
X181510917Y-28903869D01*
X181510917Y-28903869D02*
X181666704Y-28825976D01*
X181666704Y-28825976D02*
X181744597Y-28670189D01*
X181744597Y-28670189D02*
X181744597Y-28592296D01*
X181744597Y-28592296D02*
X181666704Y-28436509D01*
X181666704Y-28436509D02*
X181510917Y-28358616D01*
X181510917Y-28358616D02*
X181277237Y-28358616D01*
X181277237Y-28358616D02*
X181121450Y-28280722D01*
X181121450Y-28280722D02*
X181043557Y-28124936D01*
X181043557Y-28124936D02*
X181043557Y-28047042D01*
X181043557Y-28047042D02*
X181121450Y-27891256D01*
X181121450Y-27891256D02*
X181277237Y-27813362D01*
X181277237Y-27813362D02*
X181510917Y-27813362D01*
X181510917Y-27813362D02*
X181666704Y-27891256D01*
X182211957Y-27813362D02*
X182835104Y-27813362D01*
X182445637Y-27268109D02*
X182445637Y-28670189D01*
X182445637Y-28670189D02*
X182523531Y-28825976D01*
X182523531Y-28825976D02*
X182679317Y-28903869D01*
X182679317Y-28903869D02*
X182835104Y-28903869D01*
X184081397Y-28903869D02*
X184081397Y-28047042D01*
X184081397Y-28047042D02*
X184003504Y-27891256D01*
X184003504Y-27891256D02*
X183847717Y-27813362D01*
X183847717Y-27813362D02*
X183536144Y-27813362D01*
X183536144Y-27813362D02*
X183380357Y-27891256D01*
X184081397Y-28825976D02*
X183925611Y-28903869D01*
X183925611Y-28903869D02*
X183536144Y-28903869D01*
X183536144Y-28903869D02*
X183380357Y-28825976D01*
X183380357Y-28825976D02*
X183302464Y-28670189D01*
X183302464Y-28670189D02*
X183302464Y-28514402D01*
X183302464Y-28514402D02*
X183380357Y-28358616D01*
X183380357Y-28358616D02*
X183536144Y-28280722D01*
X183536144Y-28280722D02*
X183925611Y-28280722D01*
X183925611Y-28280722D02*
X184081397Y-28202829D01*
X184860330Y-27813362D02*
X184860330Y-28903869D01*
X184860330Y-27969149D02*
X184938224Y-27891256D01*
X184938224Y-27891256D02*
X185094010Y-27813362D01*
X185094010Y-27813362D02*
X185327690Y-27813362D01*
X185327690Y-27813362D02*
X185483477Y-27891256D01*
X185483477Y-27891256D02*
X185561370Y-28047042D01*
X185561370Y-28047042D02*
X185561370Y-28903869D01*
X187041343Y-28903869D02*
X187041343Y-27268109D01*
X187041343Y-28825976D02*
X186885557Y-28903869D01*
X186885557Y-28903869D02*
X186573983Y-28903869D01*
X186573983Y-28903869D02*
X186418197Y-28825976D01*
X186418197Y-28825976D02*
X186340303Y-28748082D01*
X186340303Y-28748082D02*
X186262410Y-28592296D01*
X186262410Y-28592296D02*
X186262410Y-28124936D01*
X186262410Y-28124936D02*
X186340303Y-27969149D01*
X186340303Y-27969149D02*
X186418197Y-27891256D01*
X186418197Y-27891256D02*
X186573983Y-27813362D01*
X186573983Y-27813362D02*
X186885557Y-27813362D01*
X186885557Y-27813362D02*
X187041343Y-27891256D01*
X188521316Y-28903869D02*
X188521316Y-28047042D01*
X188521316Y-28047042D02*
X188443423Y-27891256D01*
X188443423Y-27891256D02*
X188287636Y-27813362D01*
X188287636Y-27813362D02*
X187976063Y-27813362D01*
X187976063Y-27813362D02*
X187820276Y-27891256D01*
X188521316Y-28825976D02*
X188365530Y-28903869D01*
X188365530Y-28903869D02*
X187976063Y-28903869D01*
X187976063Y-28903869D02*
X187820276Y-28825976D01*
X187820276Y-28825976D02*
X187742383Y-28670189D01*
X187742383Y-28670189D02*
X187742383Y-28514402D01*
X187742383Y-28514402D02*
X187820276Y-28358616D01*
X187820276Y-28358616D02*
X187976063Y-28280722D01*
X187976063Y-28280722D02*
X188365530Y-28280722D01*
X188365530Y-28280722D02*
X188521316Y-28202829D01*
X189300249Y-28903869D02*
X189300249Y-27813362D01*
X189300249Y-28124936D02*
X189378143Y-27969149D01*
X189378143Y-27969149D02*
X189456036Y-27891256D01*
X189456036Y-27891256D02*
X189611823Y-27813362D01*
X189611823Y-27813362D02*
X189767609Y-27813362D01*
X191013902Y-28903869D02*
X191013902Y-27268109D01*
X191013902Y-28825976D02*
X190858116Y-28903869D01*
X190858116Y-28903869D02*
X190546542Y-28903869D01*
X190546542Y-28903869D02*
X190390756Y-28825976D01*
X190390756Y-28825976D02*
X190312862Y-28748082D01*
X190312862Y-28748082D02*
X190234969Y-28592296D01*
X190234969Y-28592296D02*
X190234969Y-28124936D01*
X190234969Y-28124936D02*
X190312862Y-27969149D01*
X190312862Y-27969149D02*
X190390756Y-27891256D01*
X190390756Y-27891256D02*
X190546542Y-27813362D01*
X190546542Y-27813362D02*
X190858116Y-27813362D01*
X190858116Y-27813362D02*
X191013902Y-27891256D01*
X191637049Y-29527016D02*
X191714942Y-29449122D01*
X191714942Y-29449122D02*
X191870729Y-29215442D01*
X191870729Y-29215442D02*
X191948622Y-29059656D01*
X191948622Y-29059656D02*
X192026515Y-28825976D01*
X192026515Y-28825976D02*
X192104409Y-28436509D01*
X192104409Y-28436509D02*
X192104409Y-28124936D01*
X192104409Y-28124936D02*
X192026515Y-27735469D01*
X192026515Y-27735469D02*
X191948622Y-27501789D01*
X191948622Y-27501789D02*
X191870729Y-27346002D01*
X191870729Y-27346002D02*
X191714942Y-27112322D01*
X191714942Y-27112322D02*
X191637049Y-27034429D01*
X148328358Y-29901683D02*
X148717824Y-31537443D01*
X148717824Y-31537443D02*
X149029398Y-30369043D01*
X149029398Y-30369043D02*
X149340971Y-31537443D01*
X149340971Y-31537443D02*
X149730438Y-29901683D01*
X150353584Y-30680616D02*
X151599878Y-30680616D01*
X151599878Y-31147976D02*
X150353584Y-31147976D01*
X152690385Y-29901683D02*
X152846171Y-29901683D01*
X152846171Y-29901683D02*
X153001958Y-29979576D01*
X153001958Y-29979576D02*
X153079851Y-30057470D01*
X153079851Y-30057470D02*
X153157745Y-30213256D01*
X153157745Y-30213256D02*
X153235638Y-30524830D01*
X153235638Y-30524830D02*
X153235638Y-30914296D01*
X153235638Y-30914296D02*
X153157745Y-31225870D01*
X153157745Y-31225870D02*
X153079851Y-31381656D01*
X153079851Y-31381656D02*
X153001958Y-31459550D01*
X153001958Y-31459550D02*
X152846171Y-31537443D01*
X152846171Y-31537443D02*
X152690385Y-31537443D01*
X152690385Y-31537443D02*
X152534598Y-31459550D01*
X152534598Y-31459550D02*
X152456705Y-31381656D01*
X152456705Y-31381656D02*
X152378811Y-31225870D01*
X152378811Y-31225870D02*
X152300918Y-30914296D01*
X152300918Y-30914296D02*
X152300918Y-30524830D01*
X152300918Y-30524830D02*
X152378811Y-30213256D01*
X152378811Y-30213256D02*
X152456705Y-30057470D01*
X152456705Y-30057470D02*
X152534598Y-29979576D01*
X152534598Y-29979576D02*
X152690385Y-29901683D01*
X153936678Y-31381656D02*
X154014572Y-31459550D01*
X154014572Y-31459550D02*
X153936678Y-31537443D01*
X153936678Y-31537443D02*
X153858785Y-31459550D01*
X153858785Y-31459550D02*
X153936678Y-31381656D01*
X153936678Y-31381656D02*
X153936678Y-31537443D01*
X154793505Y-31537443D02*
X155105078Y-31537443D01*
X155105078Y-31537443D02*
X155260865Y-31459550D01*
X155260865Y-31459550D02*
X155338758Y-31381656D01*
X155338758Y-31381656D02*
X155494545Y-31147976D01*
X155494545Y-31147976D02*
X155572438Y-30836403D01*
X155572438Y-30836403D02*
X155572438Y-30213256D01*
X155572438Y-30213256D02*
X155494545Y-30057470D01*
X155494545Y-30057470D02*
X155416651Y-29979576D01*
X155416651Y-29979576D02*
X155260865Y-29901683D01*
X155260865Y-29901683D02*
X154949291Y-29901683D01*
X154949291Y-29901683D02*
X154793505Y-29979576D01*
X154793505Y-29979576D02*
X154715611Y-30057470D01*
X154715611Y-30057470D02*
X154637718Y-30213256D01*
X154637718Y-30213256D02*
X154637718Y-30602723D01*
X154637718Y-30602723D02*
X154715611Y-30758510D01*
X154715611Y-30758510D02*
X154793505Y-30836403D01*
X154793505Y-30836403D02*
X154949291Y-30914296D01*
X154949291Y-30914296D02*
X155260865Y-30914296D01*
X155260865Y-30914296D02*
X155416651Y-30836403D01*
X155416651Y-30836403D02*
X155494545Y-30758510D01*
X155494545Y-30758510D02*
X155572438Y-30602723D01*
X156195585Y-30057470D02*
X156273478Y-29979576D01*
X156273478Y-29979576D02*
X156429265Y-29901683D01*
X156429265Y-29901683D02*
X156818732Y-29901683D01*
X156818732Y-29901683D02*
X156974518Y-29979576D01*
X156974518Y-29979576D02*
X157052412Y-30057470D01*
X157052412Y-30057470D02*
X157130305Y-30213256D01*
X157130305Y-30213256D02*
X157130305Y-30369043D01*
X157130305Y-30369043D02*
X157052412Y-30602723D01*
X157052412Y-30602723D02*
X156117692Y-31537443D01*
X156117692Y-31537443D02*
X157130305Y-31537443D01*
X157831345Y-31537443D02*
X157831345Y-30446936D01*
X157831345Y-30602723D02*
X157909239Y-30524830D01*
X157909239Y-30524830D02*
X158065025Y-30446936D01*
X158065025Y-30446936D02*
X158298705Y-30446936D01*
X158298705Y-30446936D02*
X158454492Y-30524830D01*
X158454492Y-30524830D02*
X158532385Y-30680616D01*
X158532385Y-30680616D02*
X158532385Y-31537443D01*
X158532385Y-30680616D02*
X158610279Y-30524830D01*
X158610279Y-30524830D02*
X158766065Y-30446936D01*
X158766065Y-30446936D02*
X158999745Y-30446936D01*
X158999745Y-30446936D02*
X159155532Y-30524830D01*
X159155532Y-30524830D02*
X159233425Y-30680616D01*
X159233425Y-30680616D02*
X159233425Y-31537443D01*
X160012358Y-31537443D02*
X160012358Y-30446936D01*
X160012358Y-30602723D02*
X160090252Y-30524830D01*
X160090252Y-30524830D02*
X160246038Y-30446936D01*
X160246038Y-30446936D02*
X160479718Y-30446936D01*
X160479718Y-30446936D02*
X160635505Y-30524830D01*
X160635505Y-30524830D02*
X160713398Y-30680616D01*
X160713398Y-30680616D02*
X160713398Y-31537443D01*
X160713398Y-30680616D02*
X160791292Y-30524830D01*
X160791292Y-30524830D02*
X160947078Y-30446936D01*
X160947078Y-30446936D02*
X161180758Y-30446936D01*
X161180758Y-30446936D02*
X161336545Y-30524830D01*
X161336545Y-30524830D02*
X161414438Y-30680616D01*
X161414438Y-30680616D02*
X161414438Y-31537443D01*
X162271265Y-31459550D02*
X162271265Y-31537443D01*
X162271265Y-31537443D02*
X162193371Y-31693230D01*
X162193371Y-31693230D02*
X162115478Y-31771123D01*
X165075424Y-29979576D02*
X164919637Y-29901683D01*
X164919637Y-29901683D02*
X164685957Y-29901683D01*
X164685957Y-29901683D02*
X164452277Y-29979576D01*
X164452277Y-29979576D02*
X164296491Y-30135363D01*
X164296491Y-30135363D02*
X164218597Y-30291150D01*
X164218597Y-30291150D02*
X164140704Y-30602723D01*
X164140704Y-30602723D02*
X164140704Y-30836403D01*
X164140704Y-30836403D02*
X164218597Y-31147976D01*
X164218597Y-31147976D02*
X164296491Y-31303763D01*
X164296491Y-31303763D02*
X164452277Y-31459550D01*
X164452277Y-31459550D02*
X164685957Y-31537443D01*
X164685957Y-31537443D02*
X164841744Y-31537443D01*
X164841744Y-31537443D02*
X165075424Y-31459550D01*
X165075424Y-31459550D02*
X165153317Y-31381656D01*
X165153317Y-31381656D02*
X165153317Y-30836403D01*
X165153317Y-30836403D02*
X164841744Y-30836403D01*
X165854357Y-30680616D02*
X167100651Y-30680616D01*
X167100651Y-31147976D02*
X165854357Y-31147976D01*
X168191158Y-29901683D02*
X168346944Y-29901683D01*
X168346944Y-29901683D02*
X168502731Y-29979576D01*
X168502731Y-29979576D02*
X168580624Y-30057470D01*
X168580624Y-30057470D02*
X168658518Y-30213256D01*
X168658518Y-30213256D02*
X168736411Y-30524830D01*
X168736411Y-30524830D02*
X168736411Y-30914296D01*
X168736411Y-30914296D02*
X168658518Y-31225870D01*
X168658518Y-31225870D02*
X168580624Y-31381656D01*
X168580624Y-31381656D02*
X168502731Y-31459550D01*
X168502731Y-31459550D02*
X168346944Y-31537443D01*
X168346944Y-31537443D02*
X168191158Y-31537443D01*
X168191158Y-31537443D02*
X168035371Y-31459550D01*
X168035371Y-31459550D02*
X167957478Y-31381656D01*
X167957478Y-31381656D02*
X167879584Y-31225870D01*
X167879584Y-31225870D02*
X167801691Y-30914296D01*
X167801691Y-30914296D02*
X167801691Y-30524830D01*
X167801691Y-30524830D02*
X167879584Y-30213256D01*
X167879584Y-30213256D02*
X167957478Y-30057470D01*
X167957478Y-30057470D02*
X168035371Y-29979576D01*
X168035371Y-29979576D02*
X168191158Y-29901683D01*
X169437451Y-31381656D02*
X169515345Y-31459550D01*
X169515345Y-31459550D02*
X169437451Y-31537443D01*
X169437451Y-31537443D02*
X169359558Y-31459550D01*
X169359558Y-31459550D02*
X169437451Y-31381656D01*
X169437451Y-31381656D02*
X169437451Y-31537443D01*
X171073211Y-31537443D02*
X170138491Y-31537443D01*
X170605851Y-31537443D02*
X170605851Y-29901683D01*
X170605851Y-29901683D02*
X170450064Y-30135363D01*
X170450064Y-30135363D02*
X170294278Y-30291150D01*
X170294278Y-30291150D02*
X170138491Y-30369043D01*
X172553185Y-29901683D02*
X171774251Y-29901683D01*
X171774251Y-29901683D02*
X171696358Y-30680616D01*
X171696358Y-30680616D02*
X171774251Y-30602723D01*
X171774251Y-30602723D02*
X171930038Y-30524830D01*
X171930038Y-30524830D02*
X172319505Y-30524830D01*
X172319505Y-30524830D02*
X172475291Y-30602723D01*
X172475291Y-30602723D02*
X172553185Y-30680616D01*
X172553185Y-30680616D02*
X172631078Y-30836403D01*
X172631078Y-30836403D02*
X172631078Y-31225870D01*
X172631078Y-31225870D02*
X172553185Y-31381656D01*
X172553185Y-31381656D02*
X172475291Y-31459550D01*
X172475291Y-31459550D02*
X172319505Y-31537443D01*
X172319505Y-31537443D02*
X171930038Y-31537443D01*
X171930038Y-31537443D02*
X171774251Y-31459550D01*
X171774251Y-31459550D02*
X171696358Y-31381656D01*
X173254225Y-30057470D02*
X173332118Y-29979576D01*
X173332118Y-29979576D02*
X173487905Y-29901683D01*
X173487905Y-29901683D02*
X173877372Y-29901683D01*
X173877372Y-29901683D02*
X174033158Y-29979576D01*
X174033158Y-29979576D02*
X174111052Y-30057470D01*
X174111052Y-30057470D02*
X174188945Y-30213256D01*
X174188945Y-30213256D02*
X174188945Y-30369043D01*
X174188945Y-30369043D02*
X174111052Y-30602723D01*
X174111052Y-30602723D02*
X173176332Y-31537443D01*
X173176332Y-31537443D02*
X174188945Y-31537443D01*
X175591025Y-30446936D02*
X175591025Y-31537443D01*
X175201559Y-29823790D02*
X174812092Y-30992190D01*
X174812092Y-30992190D02*
X175824705Y-30992190D01*
X176447852Y-31537443D02*
X176447852Y-30446936D01*
X176447852Y-30602723D02*
X176525746Y-30524830D01*
X176525746Y-30524830D02*
X176681532Y-30446936D01*
X176681532Y-30446936D02*
X176915212Y-30446936D01*
X176915212Y-30446936D02*
X177070999Y-30524830D01*
X177070999Y-30524830D02*
X177148892Y-30680616D01*
X177148892Y-30680616D02*
X177148892Y-31537443D01*
X177148892Y-30680616D02*
X177226786Y-30524830D01*
X177226786Y-30524830D02*
X177382572Y-30446936D01*
X177382572Y-30446936D02*
X177616252Y-30446936D01*
X177616252Y-30446936D02*
X177772039Y-30524830D01*
X177772039Y-30524830D02*
X177849932Y-30680616D01*
X177849932Y-30680616D02*
X177849932Y-31537443D01*
X178628865Y-31537443D02*
X178628865Y-30446936D01*
X178628865Y-30602723D02*
X178706759Y-30524830D01*
X178706759Y-30524830D02*
X178862545Y-30446936D01*
X178862545Y-30446936D02*
X179096225Y-30446936D01*
X179096225Y-30446936D02*
X179252012Y-30524830D01*
X179252012Y-30524830D02*
X179329905Y-30680616D01*
X179329905Y-30680616D02*
X179329905Y-31537443D01*
X179329905Y-30680616D02*
X179407799Y-30524830D01*
X179407799Y-30524830D02*
X179563585Y-30446936D01*
X179563585Y-30446936D02*
X179797265Y-30446936D01*
X179797265Y-30446936D02*
X179953052Y-30524830D01*
X179953052Y-30524830D02*
X180030945Y-30680616D01*
X180030945Y-30680616D02*
X180030945Y-31537443D01*
X149418864Y-34015230D02*
X149340971Y-34093124D01*
X149340971Y-34093124D02*
X149107291Y-34171017D01*
X149107291Y-34171017D02*
X148951504Y-34171017D01*
X148951504Y-34171017D02*
X148717824Y-34093124D01*
X148717824Y-34093124D02*
X148562038Y-33937337D01*
X148562038Y-33937337D02*
X148484144Y-33781550D01*
X148484144Y-33781550D02*
X148406251Y-33469977D01*
X148406251Y-33469977D02*
X148406251Y-33236297D01*
X148406251Y-33236297D02*
X148484144Y-32924724D01*
X148484144Y-32924724D02*
X148562038Y-32768937D01*
X148562038Y-32768937D02*
X148717824Y-32613150D01*
X148717824Y-32613150D02*
X148951504Y-32535257D01*
X148951504Y-32535257D02*
X149107291Y-32535257D01*
X149107291Y-32535257D02*
X149340971Y-32613150D01*
X149340971Y-32613150D02*
X149418864Y-32691044D01*
X150820944Y-34171017D02*
X150820944Y-33314190D01*
X150820944Y-33314190D02*
X150743051Y-33158404D01*
X150743051Y-33158404D02*
X150587264Y-33080510D01*
X150587264Y-33080510D02*
X150275691Y-33080510D01*
X150275691Y-33080510D02*
X150119904Y-33158404D01*
X150820944Y-34093124D02*
X150665158Y-34171017D01*
X150665158Y-34171017D02*
X150275691Y-34171017D01*
X150275691Y-34171017D02*
X150119904Y-34093124D01*
X150119904Y-34093124D02*
X150042011Y-33937337D01*
X150042011Y-33937337D02*
X150042011Y-33781550D01*
X150042011Y-33781550D02*
X150119904Y-33625764D01*
X150119904Y-33625764D02*
X150275691Y-33547870D01*
X150275691Y-33547870D02*
X150665158Y-33547870D01*
X150665158Y-33547870D02*
X150820944Y-33469977D01*
X151833557Y-34171017D02*
X151677771Y-34093124D01*
X151677771Y-34093124D02*
X151599877Y-33937337D01*
X151599877Y-33937337D02*
X151599877Y-32535257D01*
X153157744Y-34093124D02*
X153001958Y-34171017D01*
X153001958Y-34171017D02*
X152690384Y-34171017D01*
X152690384Y-34171017D02*
X152534598Y-34093124D01*
X152534598Y-34093124D02*
X152456704Y-34015230D01*
X152456704Y-34015230D02*
X152378811Y-33859444D01*
X152378811Y-33859444D02*
X152378811Y-33392084D01*
X152378811Y-33392084D02*
X152456704Y-33236297D01*
X152456704Y-33236297D02*
X152534598Y-33158404D01*
X152534598Y-33158404D02*
X152690384Y-33080510D01*
X152690384Y-33080510D02*
X153001958Y-33080510D01*
X153001958Y-33080510D02*
X153157744Y-33158404D01*
X154559824Y-33080510D02*
X154559824Y-34171017D01*
X153858784Y-33080510D02*
X153858784Y-33937337D01*
X153858784Y-33937337D02*
X153936678Y-34093124D01*
X153936678Y-34093124D02*
X154092464Y-34171017D01*
X154092464Y-34171017D02*
X154326144Y-34171017D01*
X154326144Y-34171017D02*
X154481931Y-34093124D01*
X154481931Y-34093124D02*
X154559824Y-34015230D01*
X155572437Y-34171017D02*
X155416651Y-34093124D01*
X155416651Y-34093124D02*
X155338757Y-33937337D01*
X155338757Y-33937337D02*
X155338757Y-32535257D01*
X156896624Y-34171017D02*
X156896624Y-33314190D01*
X156896624Y-33314190D02*
X156818731Y-33158404D01*
X156818731Y-33158404D02*
X156662944Y-33080510D01*
X156662944Y-33080510D02*
X156351371Y-33080510D01*
X156351371Y-33080510D02*
X156195584Y-33158404D01*
X156896624Y-34093124D02*
X156740838Y-34171017D01*
X156740838Y-34171017D02*
X156351371Y-34171017D01*
X156351371Y-34171017D02*
X156195584Y-34093124D01*
X156195584Y-34093124D02*
X156117691Y-33937337D01*
X156117691Y-33937337D02*
X156117691Y-33781550D01*
X156117691Y-33781550D02*
X156195584Y-33625764D01*
X156195584Y-33625764D02*
X156351371Y-33547870D01*
X156351371Y-33547870D02*
X156740838Y-33547870D01*
X156740838Y-33547870D02*
X156896624Y-33469977D01*
X157441877Y-33080510D02*
X158065024Y-33080510D01*
X157675557Y-32535257D02*
X157675557Y-33937337D01*
X157675557Y-33937337D02*
X157753451Y-34093124D01*
X157753451Y-34093124D02*
X157909237Y-34171017D01*
X157909237Y-34171017D02*
X158065024Y-34171017D01*
X159233424Y-34093124D02*
X159077637Y-34171017D01*
X159077637Y-34171017D02*
X158766064Y-34171017D01*
X158766064Y-34171017D02*
X158610277Y-34093124D01*
X158610277Y-34093124D02*
X158532384Y-33937337D01*
X158532384Y-33937337D02*
X158532384Y-33314190D01*
X158532384Y-33314190D02*
X158610277Y-33158404D01*
X158610277Y-33158404D02*
X158766064Y-33080510D01*
X158766064Y-33080510D02*
X159077637Y-33080510D01*
X159077637Y-33080510D02*
X159233424Y-33158404D01*
X159233424Y-33158404D02*
X159311317Y-33314190D01*
X159311317Y-33314190D02*
X159311317Y-33469977D01*
X159311317Y-33469977D02*
X158532384Y-33625764D01*
X160713397Y-34171017D02*
X160713397Y-32535257D01*
X160713397Y-34093124D02*
X160557611Y-34171017D01*
X160557611Y-34171017D02*
X160246037Y-34171017D01*
X160246037Y-34171017D02*
X160090251Y-34093124D01*
X160090251Y-34093124D02*
X160012357Y-34015230D01*
X160012357Y-34015230D02*
X159934464Y-33859444D01*
X159934464Y-33859444D02*
X159934464Y-33392084D01*
X159934464Y-33392084D02*
X160012357Y-33236297D01*
X160012357Y-33236297D02*
X160090251Y-33158404D01*
X160090251Y-33158404D02*
X160246037Y-33080510D01*
X160246037Y-33080510D02*
X160557611Y-33080510D01*
X160557611Y-33080510D02*
X160713397Y-33158404D01*
X162582837Y-32535257D02*
X163673343Y-32535257D01*
X163673343Y-32535257D02*
X162582837Y-34171017D01*
X162582837Y-34171017D02*
X163673343Y-34171017D01*
X164296490Y-33314190D02*
X165542784Y-33314190D01*
X165542784Y-33781550D02*
X164296490Y-33781550D01*
X167100651Y-32535257D02*
X166321717Y-32535257D01*
X166321717Y-32535257D02*
X166243824Y-33314190D01*
X166243824Y-33314190D02*
X166321717Y-33236297D01*
X166321717Y-33236297D02*
X166477504Y-33158404D01*
X166477504Y-33158404D02*
X166866971Y-33158404D01*
X166866971Y-33158404D02*
X167022757Y-33236297D01*
X167022757Y-33236297D02*
X167100651Y-33314190D01*
X167100651Y-33314190D02*
X167178544Y-33469977D01*
X167178544Y-33469977D02*
X167178544Y-33859444D01*
X167178544Y-33859444D02*
X167100651Y-34015230D01*
X167100651Y-34015230D02*
X167022757Y-34093124D01*
X167022757Y-34093124D02*
X166866971Y-34171017D01*
X166866971Y-34171017D02*
X166477504Y-34171017D01*
X166477504Y-34171017D02*
X166321717Y-34093124D01*
X166321717Y-34093124D02*
X166243824Y-34015230D01*
X168191158Y-32535257D02*
X168346944Y-32535257D01*
X168346944Y-32535257D02*
X168502731Y-32613150D01*
X168502731Y-32613150D02*
X168580624Y-32691044D01*
X168580624Y-32691044D02*
X168658518Y-32846830D01*
X168658518Y-32846830D02*
X168736411Y-33158404D01*
X168736411Y-33158404D02*
X168736411Y-33547870D01*
X168736411Y-33547870D02*
X168658518Y-33859444D01*
X168658518Y-33859444D02*
X168580624Y-34015230D01*
X168580624Y-34015230D02*
X168502731Y-34093124D01*
X168502731Y-34093124D02*
X168346944Y-34171017D01*
X168346944Y-34171017D02*
X168191158Y-34171017D01*
X168191158Y-34171017D02*
X168035371Y-34093124D01*
X168035371Y-34093124D02*
X167957478Y-34015230D01*
X167957478Y-34015230D02*
X167879584Y-33859444D01*
X167879584Y-33859444D02*
X167801691Y-33547870D01*
X167801691Y-33547870D02*
X167801691Y-33158404D01*
X167801691Y-33158404D02*
X167879584Y-32846830D01*
X167879584Y-32846830D02*
X167957478Y-32691044D01*
X167957478Y-32691044D02*
X168035371Y-32613150D01*
X168035371Y-32613150D02*
X168191158Y-32535257D01*
X169437451Y-34015230D02*
X169515345Y-34093124D01*
X169515345Y-34093124D02*
X169437451Y-34171017D01*
X169437451Y-34171017D02*
X169359558Y-34093124D01*
X169359558Y-34093124D02*
X169437451Y-34015230D01*
X169437451Y-34015230D02*
X169437451Y-34171017D01*
X170527958Y-32535257D02*
X170683744Y-32535257D01*
X170683744Y-32535257D02*
X170839531Y-32613150D01*
X170839531Y-32613150D02*
X170917424Y-32691044D01*
X170917424Y-32691044D02*
X170995318Y-32846830D01*
X170995318Y-32846830D02*
X171073211Y-33158404D01*
X171073211Y-33158404D02*
X171073211Y-33547870D01*
X171073211Y-33547870D02*
X170995318Y-33859444D01*
X170995318Y-33859444D02*
X170917424Y-34015230D01*
X170917424Y-34015230D02*
X170839531Y-34093124D01*
X170839531Y-34093124D02*
X170683744Y-34171017D01*
X170683744Y-34171017D02*
X170527958Y-34171017D01*
X170527958Y-34171017D02*
X170372171Y-34093124D01*
X170372171Y-34093124D02*
X170294278Y-34015230D01*
X170294278Y-34015230D02*
X170216384Y-33859444D01*
X170216384Y-33859444D02*
X170138491Y-33547870D01*
X170138491Y-33547870D02*
X170138491Y-33158404D01*
X170138491Y-33158404D02*
X170216384Y-32846830D01*
X170216384Y-32846830D02*
X170294278Y-32691044D01*
X170294278Y-32691044D02*
X170372171Y-32613150D01*
X170372171Y-32613150D02*
X170527958Y-32535257D01*
X171618465Y-32535257D02*
X172708971Y-32535257D01*
X172708971Y-32535257D02*
X172007931Y-34171017D01*
X173176332Y-32535257D02*
X174266838Y-32535257D01*
X174266838Y-32535257D02*
X173565798Y-34171017D01*
X174734199Y-32535257D02*
X175746812Y-32535257D01*
X175746812Y-32535257D02*
X175201559Y-33158404D01*
X175201559Y-33158404D02*
X175435239Y-33158404D01*
X175435239Y-33158404D02*
X175591025Y-33236297D01*
X175591025Y-33236297D02*
X175668919Y-33314190D01*
X175668919Y-33314190D02*
X175746812Y-33469977D01*
X175746812Y-33469977D02*
X175746812Y-33859444D01*
X175746812Y-33859444D02*
X175668919Y-34015230D01*
X175668919Y-34015230D02*
X175591025Y-34093124D01*
X175591025Y-34093124D02*
X175435239Y-34171017D01*
X175435239Y-34171017D02*
X174967879Y-34171017D01*
X174967879Y-34171017D02*
X174812092Y-34093124D01*
X174812092Y-34093124D02*
X174734199Y-34015230D01*
X178005719Y-32535257D02*
X178317292Y-32535257D01*
X178317292Y-32535257D02*
X178473079Y-32613150D01*
X178473079Y-32613150D02*
X178628865Y-32768937D01*
X178628865Y-32768937D02*
X178706759Y-33080510D01*
X178706759Y-33080510D02*
X178706759Y-33625764D01*
X178706759Y-33625764D02*
X178628865Y-33937337D01*
X178628865Y-33937337D02*
X178473079Y-34093124D01*
X178473079Y-34093124D02*
X178317292Y-34171017D01*
X178317292Y-34171017D02*
X178005719Y-34171017D01*
X178005719Y-34171017D02*
X177849932Y-34093124D01*
X177849932Y-34093124D02*
X177694145Y-33937337D01*
X177694145Y-33937337D02*
X177616252Y-33625764D01*
X177616252Y-33625764D02*
X177616252Y-33080510D01*
X177616252Y-33080510D02*
X177694145Y-32768937D01*
X177694145Y-32768937D02*
X177849932Y-32613150D01*
X177849932Y-32613150D02*
X178005719Y-32535257D01*
X179407798Y-34171017D02*
X179407798Y-32535257D01*
X180108838Y-34171017D02*
X180108838Y-33314190D01*
X180108838Y-33314190D02*
X180030945Y-33158404D01*
X180030945Y-33158404D02*
X179875158Y-33080510D01*
X179875158Y-33080510D02*
X179641478Y-33080510D01*
X179641478Y-33080510D02*
X179485692Y-33158404D01*
X179485692Y-33158404D02*
X179407798Y-33236297D01*
X180887771Y-34171017D02*
X180887771Y-33080510D01*
X180887771Y-33236297D02*
X180965665Y-33158404D01*
X180965665Y-33158404D02*
X181121451Y-33080510D01*
X181121451Y-33080510D02*
X181355131Y-33080510D01*
X181355131Y-33080510D02*
X181510918Y-33158404D01*
X181510918Y-33158404D02*
X181588811Y-33314190D01*
X181588811Y-33314190D02*
X181588811Y-34171017D01*
X181588811Y-33314190D02*
X181666705Y-33158404D01*
X181666705Y-33158404D02*
X181822491Y-33080510D01*
X181822491Y-33080510D02*
X182056171Y-33080510D01*
X182056171Y-33080510D02*
X182211958Y-33158404D01*
X182211958Y-33158404D02*
X182289851Y-33314190D01*
X182289851Y-33314190D02*
X182289851Y-34171017D01*
X182990891Y-34093124D02*
X183146678Y-34171017D01*
X183146678Y-34171017D02*
X183458251Y-34171017D01*
X183458251Y-34171017D02*
X183614038Y-34093124D01*
X183614038Y-34093124D02*
X183691931Y-33937337D01*
X183691931Y-33937337D02*
X183691931Y-33859444D01*
X183691931Y-33859444D02*
X183614038Y-33703657D01*
X183614038Y-33703657D02*
X183458251Y-33625764D01*
X183458251Y-33625764D02*
X183224571Y-33625764D01*
X183224571Y-33625764D02*
X183068784Y-33547870D01*
X183068784Y-33547870D02*
X182990891Y-33392084D01*
X182990891Y-33392084D02*
X182990891Y-33314190D01*
X182990891Y-33314190D02*
X183068784Y-33158404D01*
X183068784Y-33158404D02*
X183224571Y-33080510D01*
X183224571Y-33080510D02*
X183458251Y-33080510D01*
X183458251Y-33080510D02*
X183614038Y-33158404D01*
X105972437Y-110845599D02*
X105972437Y-111780319D01*
X105972437Y-111312959D02*
X104336677Y-111312959D01*
X104336677Y-111312959D02*
X104570357Y-111468746D01*
X104570357Y-111468746D02*
X104726144Y-111624533D01*
X104726144Y-111624533D02*
X104804037Y-111780319D01*
X104492464Y-110222452D02*
X104414570Y-110144559D01*
X104414570Y-110144559D02*
X104336677Y-109988772D01*
X104336677Y-109988772D02*
X104336677Y-109599306D01*
X104336677Y-109599306D02*
X104414570Y-109443519D01*
X104414570Y-109443519D02*
X104492464Y-109365626D01*
X104492464Y-109365626D02*
X104648250Y-109287732D01*
X104648250Y-109287732D02*
X104804037Y-109287732D01*
X104804037Y-109287732D02*
X105037717Y-109365626D01*
X105037717Y-109365626D02*
X105972437Y-110300346D01*
X105972437Y-110300346D02*
X105972437Y-109287732D01*
X104336677Y-108275119D02*
X104336677Y-108119332D01*
X104336677Y-108119332D02*
X104414570Y-107963545D01*
X104414570Y-107963545D02*
X104492464Y-107885652D01*
X104492464Y-107885652D02*
X104648250Y-107807759D01*
X104648250Y-107807759D02*
X104959824Y-107729865D01*
X104959824Y-107729865D02*
X105349290Y-107729865D01*
X105349290Y-107729865D02*
X105660864Y-107807759D01*
X105660864Y-107807759D02*
X105816650Y-107885652D01*
X105816650Y-107885652D02*
X105894544Y-107963545D01*
X105894544Y-107963545D02*
X105972437Y-108119332D01*
X105972437Y-108119332D02*
X105972437Y-108275119D01*
X105972437Y-108275119D02*
X105894544Y-108430905D01*
X105894544Y-108430905D02*
X105816650Y-108508799D01*
X105816650Y-108508799D02*
X105660864Y-108586692D01*
X105660864Y-108586692D02*
X105349290Y-108664585D01*
X105349290Y-108664585D02*
X104959824Y-108664585D01*
X104959824Y-108664585D02*
X104648250Y-108586692D01*
X104648250Y-108586692D02*
X104492464Y-108508799D01*
X104492464Y-108508799D02*
X104414570Y-108430905D01*
X104414570Y-108430905D02*
X104336677Y-108275119D01*
X105816650Y-107028825D02*
X105894544Y-106950932D01*
X105894544Y-106950932D02*
X105972437Y-107028825D01*
X105972437Y-107028825D02*
X105894544Y-107106718D01*
X105894544Y-107106718D02*
X105816650Y-107028825D01*
X105816650Y-107028825D02*
X105972437Y-107028825D01*
X104336677Y-105938319D02*
X104336677Y-105782532D01*
X104336677Y-105782532D02*
X104414570Y-105626745D01*
X104414570Y-105626745D02*
X104492464Y-105548852D01*
X104492464Y-105548852D02*
X104648250Y-105470959D01*
X104648250Y-105470959D02*
X104959824Y-105393065D01*
X104959824Y-105393065D02*
X105349290Y-105393065D01*
X105349290Y-105393065D02*
X105660864Y-105470959D01*
X105660864Y-105470959D02*
X105816650Y-105548852D01*
X105816650Y-105548852D02*
X105894544Y-105626745D01*
X105894544Y-105626745D02*
X105972437Y-105782532D01*
X105972437Y-105782532D02*
X105972437Y-105938319D01*
X105972437Y-105938319D02*
X105894544Y-106094105D01*
X105894544Y-106094105D02*
X105816650Y-106171999D01*
X105816650Y-106171999D02*
X105660864Y-106249892D01*
X105660864Y-106249892D02*
X105349290Y-106327785D01*
X105349290Y-106327785D02*
X104959824Y-106327785D01*
X104959824Y-106327785D02*
X104648250Y-106249892D01*
X104648250Y-106249892D02*
X104492464Y-106171999D01*
X104492464Y-106171999D02*
X104414570Y-106094105D01*
X104414570Y-106094105D02*
X104336677Y-105938319D01*
X104336677Y-104380452D02*
X104336677Y-104224665D01*
X104336677Y-104224665D02*
X104414570Y-104068878D01*
X104414570Y-104068878D02*
X104492464Y-103990985D01*
X104492464Y-103990985D02*
X104648250Y-103913092D01*
X104648250Y-103913092D02*
X104959824Y-103835198D01*
X104959824Y-103835198D02*
X105349290Y-103835198D01*
X105349290Y-103835198D02*
X105660864Y-103913092D01*
X105660864Y-103913092D02*
X105816650Y-103990985D01*
X105816650Y-103990985D02*
X105894544Y-104068878D01*
X105894544Y-104068878D02*
X105972437Y-104224665D01*
X105972437Y-104224665D02*
X105972437Y-104380452D01*
X105972437Y-104380452D02*
X105894544Y-104536238D01*
X105894544Y-104536238D02*
X105816650Y-104614132D01*
X105816650Y-104614132D02*
X105660864Y-104692025D01*
X105660864Y-104692025D02*
X105349290Y-104769918D01*
X105349290Y-104769918D02*
X104959824Y-104769918D01*
X104959824Y-104769918D02*
X104648250Y-104692025D01*
X104648250Y-104692025D02*
X104492464Y-104614132D01*
X104492464Y-104614132D02*
X104414570Y-104536238D01*
X104414570Y-104536238D02*
X104336677Y-104380452D01*
X105972437Y-101887865D02*
X104881930Y-101887865D01*
X105037717Y-101887865D02*
X104959824Y-101809972D01*
X104959824Y-101809972D02*
X104881930Y-101654185D01*
X104881930Y-101654185D02*
X104881930Y-101420505D01*
X104881930Y-101420505D02*
X104959824Y-101264718D01*
X104959824Y-101264718D02*
X105115610Y-101186825D01*
X105115610Y-101186825D02*
X105972437Y-101186825D01*
X105115610Y-101186825D02*
X104959824Y-101108932D01*
X104959824Y-101108932D02*
X104881930Y-100953145D01*
X104881930Y-100953145D02*
X104881930Y-100719465D01*
X104881930Y-100719465D02*
X104959824Y-100563678D01*
X104959824Y-100563678D02*
X105115610Y-100485785D01*
X105115610Y-100485785D02*
X105972437Y-100485785D01*
X105972437Y-99706852D02*
X104881930Y-99706852D01*
X105037717Y-99706852D02*
X104959824Y-99628959D01*
X104959824Y-99628959D02*
X104881930Y-99473172D01*
X104881930Y-99473172D02*
X104881930Y-99239492D01*
X104881930Y-99239492D02*
X104959824Y-99083705D01*
X104959824Y-99083705D02*
X105115610Y-99005812D01*
X105115610Y-99005812D02*
X105972437Y-99005812D01*
X105115610Y-99005812D02*
X104959824Y-98927919D01*
X104959824Y-98927919D02*
X104881930Y-98772132D01*
X104881930Y-98772132D02*
X104881930Y-98538452D01*
X104881930Y-98538452D02*
X104959824Y-98382665D01*
X104959824Y-98382665D02*
X105115610Y-98304772D01*
X105115610Y-98304772D02*
X105972437Y-98304772D01*
D13*
X116001100Y-165003600D02*
X106414680Y-165003600D01*
X116001100Y-45003600D02*
X106414680Y-45003600D01*
X107001100Y-165003600D02*
X107001100Y-45003600D01*
X107001100Y-165003600D02*
X107001100Y-45003600D01*
X107001100Y-165003600D02*
X106414679Y-163877096D01*
X107001100Y-165003600D02*
X107587521Y-163877096D01*
X107001100Y-45003600D02*
X107587521Y-46130104D01*
X107001100Y-45003600D02*
X106414679Y-46130104D01*
D12*
X142425420Y-39339177D02*
X143515926Y-39339177D01*
X143515926Y-39339177D02*
X142814886Y-40974937D01*
X144918007Y-39339177D02*
X144139073Y-39339177D01*
X144139073Y-39339177D02*
X144061180Y-40118110D01*
X144061180Y-40118110D02*
X144139073Y-40040217D01*
X144139073Y-40040217D02*
X144294860Y-39962324D01*
X144294860Y-39962324D02*
X144684327Y-39962324D01*
X144684327Y-39962324D02*
X144840113Y-40040217D01*
X144840113Y-40040217D02*
X144918007Y-40118110D01*
X144918007Y-40118110D02*
X144995900Y-40273897D01*
X144995900Y-40273897D02*
X144995900Y-40663364D01*
X144995900Y-40663364D02*
X144918007Y-40819150D01*
X144918007Y-40819150D02*
X144840113Y-40897044D01*
X144840113Y-40897044D02*
X144684327Y-40974937D01*
X144684327Y-40974937D02*
X144294860Y-40974937D01*
X144294860Y-40974937D02*
X144139073Y-40897044D01*
X144139073Y-40897044D02*
X144061180Y-40819150D01*
X145696940Y-40819150D02*
X145774834Y-40897044D01*
X145774834Y-40897044D02*
X145696940Y-40974937D01*
X145696940Y-40974937D02*
X145619047Y-40897044D01*
X145619047Y-40897044D02*
X145696940Y-40819150D01*
X145696940Y-40819150D02*
X145696940Y-40974937D01*
X146787447Y-39339177D02*
X146943233Y-39339177D01*
X146943233Y-39339177D02*
X147099020Y-39417070D01*
X147099020Y-39417070D02*
X147176913Y-39494964D01*
X147176913Y-39494964D02*
X147254807Y-39650750D01*
X147254807Y-39650750D02*
X147332700Y-39962324D01*
X147332700Y-39962324D02*
X147332700Y-40351790D01*
X147332700Y-40351790D02*
X147254807Y-40663364D01*
X147254807Y-40663364D02*
X147176913Y-40819150D01*
X147176913Y-40819150D02*
X147099020Y-40897044D01*
X147099020Y-40897044D02*
X146943233Y-40974937D01*
X146943233Y-40974937D02*
X146787447Y-40974937D01*
X146787447Y-40974937D02*
X146631660Y-40897044D01*
X146631660Y-40897044D02*
X146553767Y-40819150D01*
X146553767Y-40819150D02*
X146475873Y-40663364D01*
X146475873Y-40663364D02*
X146397980Y-40351790D01*
X146397980Y-40351790D02*
X146397980Y-39962324D01*
X146397980Y-39962324D02*
X146475873Y-39650750D01*
X146475873Y-39650750D02*
X146553767Y-39494964D01*
X146553767Y-39494964D02*
X146631660Y-39417070D01*
X146631660Y-39417070D02*
X146787447Y-39339177D01*
X148345314Y-39339177D02*
X148501100Y-39339177D01*
X148501100Y-39339177D02*
X148656887Y-39417070D01*
X148656887Y-39417070D02*
X148734780Y-39494964D01*
X148734780Y-39494964D02*
X148812674Y-39650750D01*
X148812674Y-39650750D02*
X148890567Y-39962324D01*
X148890567Y-39962324D02*
X148890567Y-40351790D01*
X148890567Y-40351790D02*
X148812674Y-40663364D01*
X148812674Y-40663364D02*
X148734780Y-40819150D01*
X148734780Y-40819150D02*
X148656887Y-40897044D01*
X148656887Y-40897044D02*
X148501100Y-40974937D01*
X148501100Y-40974937D02*
X148345314Y-40974937D01*
X148345314Y-40974937D02*
X148189527Y-40897044D01*
X148189527Y-40897044D02*
X148111634Y-40819150D01*
X148111634Y-40819150D02*
X148033740Y-40663364D01*
X148033740Y-40663364D02*
X147955847Y-40351790D01*
X147955847Y-40351790D02*
X147955847Y-39962324D01*
X147955847Y-39962324D02*
X148033740Y-39650750D01*
X148033740Y-39650750D02*
X148111634Y-39494964D01*
X148111634Y-39494964D02*
X148189527Y-39417070D01*
X148189527Y-39417070D02*
X148345314Y-39339177D01*
X150837900Y-40974937D02*
X150837900Y-39884430D01*
X150837900Y-40040217D02*
X150915794Y-39962324D01*
X150915794Y-39962324D02*
X151071580Y-39884430D01*
X151071580Y-39884430D02*
X151305260Y-39884430D01*
X151305260Y-39884430D02*
X151461047Y-39962324D01*
X151461047Y-39962324D02*
X151538940Y-40118110D01*
X151538940Y-40118110D02*
X151538940Y-40974937D01*
X151538940Y-40118110D02*
X151616834Y-39962324D01*
X151616834Y-39962324D02*
X151772620Y-39884430D01*
X151772620Y-39884430D02*
X152006300Y-39884430D01*
X152006300Y-39884430D02*
X152162087Y-39962324D01*
X152162087Y-39962324D02*
X152239980Y-40118110D01*
X152239980Y-40118110D02*
X152239980Y-40974937D01*
X153018913Y-40974937D02*
X153018913Y-39884430D01*
X153018913Y-40040217D02*
X153096807Y-39962324D01*
X153096807Y-39962324D02*
X153252593Y-39884430D01*
X153252593Y-39884430D02*
X153486273Y-39884430D01*
X153486273Y-39884430D02*
X153642060Y-39962324D01*
X153642060Y-39962324D02*
X153719953Y-40118110D01*
X153719953Y-40118110D02*
X153719953Y-40974937D01*
X153719953Y-40118110D02*
X153797847Y-39962324D01*
X153797847Y-39962324D02*
X153953633Y-39884430D01*
X153953633Y-39884430D02*
X154187313Y-39884430D01*
X154187313Y-39884430D02*
X154343100Y-39962324D01*
X154343100Y-39962324D02*
X154420993Y-40118110D01*
X154420993Y-40118110D02*
X154420993Y-40974937D01*
D13*
X111001100Y-50003600D02*
X111001100Y-41417180D01*
X186001100Y-50003600D02*
X186001100Y-41417180D01*
X111001100Y-42003600D02*
X186001100Y-42003600D01*
X111001100Y-42003600D02*
X186001100Y-42003600D01*
X111001100Y-42003600D02*
X112127604Y-41417179D01*
X111001100Y-42003600D02*
X112127604Y-42590021D01*
X186001100Y-42003600D02*
X184874596Y-42590021D01*
X186001100Y-42003600D02*
X184874596Y-41417179D01*
D14*
X178829603Y-58977428D02*
X178856310Y-59004134D01*
X178856310Y-59004134D02*
X178883016Y-59084253D01*
X178883016Y-59084253D02*
X178883016Y-59137665D01*
X178883016Y-59137665D02*
X178856310Y-59217784D01*
X178856310Y-59217784D02*
X178802897Y-59271197D01*
X178802897Y-59271197D02*
X178749484Y-59297903D01*
X178749484Y-59297903D02*
X178642659Y-59324609D01*
X178642659Y-59324609D02*
X178562540Y-59324609D01*
X178562540Y-59324609D02*
X178455715Y-59297903D01*
X178455715Y-59297903D02*
X178402303Y-59271197D01*
X178402303Y-59271197D02*
X178348890Y-59217784D01*
X178348890Y-59217784D02*
X178322184Y-59137665D01*
X178322184Y-59137665D02*
X178322184Y-59084253D01*
X178322184Y-59084253D02*
X178348890Y-59004134D01*
X178348890Y-59004134D02*
X178375596Y-58977428D01*
X178883016Y-58496715D02*
X178589247Y-58496715D01*
X178589247Y-58496715D02*
X178535834Y-58523421D01*
X178535834Y-58523421D02*
X178509128Y-58576833D01*
X178509128Y-58576833D02*
X178509128Y-58683659D01*
X178509128Y-58683659D02*
X178535834Y-58737071D01*
X178856310Y-58496715D02*
X178883016Y-58550127D01*
X178883016Y-58550127D02*
X178883016Y-58683659D01*
X178883016Y-58683659D02*
X178856310Y-58737071D01*
X178856310Y-58737071D02*
X178802897Y-58763777D01*
X178802897Y-58763777D02*
X178749484Y-58763777D01*
X178749484Y-58763777D02*
X178696072Y-58737071D01*
X178696072Y-58737071D02*
X178669366Y-58683659D01*
X178669366Y-58683659D02*
X178669366Y-58550127D01*
X178669366Y-58550127D02*
X178642659Y-58496715D01*
X178509128Y-58229652D02*
X179069960Y-58229652D01*
X178535834Y-58229652D02*
X178509128Y-58176240D01*
X178509128Y-58176240D02*
X178509128Y-58069414D01*
X178509128Y-58069414D02*
X178535834Y-58016002D01*
X178535834Y-58016002D02*
X178562540Y-57989296D01*
X178562540Y-57989296D02*
X178615953Y-57962589D01*
X178615953Y-57962589D02*
X178776191Y-57962589D01*
X178776191Y-57962589D02*
X178829603Y-57989296D01*
X178829603Y-57989296D02*
X178856310Y-58016002D01*
X178856310Y-58016002D02*
X178883016Y-58069414D01*
X178883016Y-58069414D02*
X178883016Y-58176240D01*
X178883016Y-58176240D02*
X178856310Y-58229652D01*
D15*
%TO.C,MOD1*%
X123001100Y-52303600D02*
X149001100Y-52303600D01*
D11*
X128001100Y-46203600D02*
X144001100Y-46203600D01*
X128001100Y-70203600D02*
X128001100Y-46203600D01*
D16*
X129501100Y-47203600D02*
X131501100Y-47203600D01*
X129501100Y-52703600D02*
X129501100Y-47203600D01*
X130001100Y-53703600D02*
X142001100Y-53703600D01*
X130001100Y-68203600D02*
X130001100Y-53703600D01*
X131501100Y-47203600D02*
X134001100Y-47203600D01*
X131501100Y-52703600D02*
X131501100Y-47203600D01*
X134001100Y-47203600D02*
X134001100Y-49703600D01*
X134001100Y-49703600D02*
X136001100Y-49703600D01*
X136001100Y-47203600D02*
X138001100Y-47203600D01*
X136001100Y-49703600D02*
X136001100Y-47203600D01*
X138001100Y-47203600D02*
X138001100Y-49703600D01*
X138001100Y-49703600D02*
X140001100Y-49703600D01*
X140001100Y-47203600D02*
X142501100Y-47203600D01*
X140001100Y-49703600D02*
X140001100Y-47203600D01*
X142001100Y-53703600D02*
X142001100Y-68203600D01*
X142001100Y-68203600D02*
X130001100Y-68203600D01*
X142501100Y-47203600D02*
X142501100Y-50703600D01*
D11*
X144001100Y-46203600D02*
X144001100Y-70203600D01*
X144001100Y-70203600D02*
X128001100Y-70203600D01*
%TO.C,ANT1*%
X151501100Y-53503600D02*
X157501100Y-53503600D01*
D17*
X153501100Y-48003600D02*
X155501100Y-48003600D01*
X153501100Y-48153600D02*
X155501100Y-48153600D01*
X153501100Y-51353600D02*
X155501100Y-51353600D01*
X153501100Y-51503600D02*
X155501100Y-51503600D01*
X155501100Y-45503600D02*
X153501100Y-45503600D01*
%TD*%
M02*
