%TF.GenerationSoftware,KiCad,Pcbnew,7.0.6-7.0.6~ubuntu22.04.1*%
%TF.CreationDate,2023-08-07T18:14:45+01:00*%
%TF.ProjectId,working,776f726b-696e-4672-9e6b-696361645f70,rev?*%
%TF.SameCoordinates,Original*%
%TF.FileFunction,Other,User*%
%FSLAX46Y46*%
G04 Gerber Fmt 4.6, Leading zero omitted, Abs format (unit mm)*
G04 Created by KiCad (PCBNEW 7.0.6-7.0.6~ubuntu22.04.1) date 2023-08-07 18:14:45*
%MOMM*%
%LPD*%
G01*
G04 APERTURE LIST*
%ADD10C,0.050000*%
%ADD11C,0.200000*%
G04 APERTURE END LIST*
D10*
%TO.C,R1*%
X163531100Y-69223600D02*
X163531100Y-66283600D01*
X164971100Y-69223600D02*
X163531100Y-69223600D01*
X163901100Y-67753600D02*
X164601100Y-67753600D01*
X164251100Y-67403600D02*
X164251100Y-68103600D01*
X163531100Y-66283600D02*
X164971100Y-66283600D01*
X164971100Y-66283600D02*
X164971100Y-69223600D01*
X164501100Y-67753600D02*
G75*
G03*
X164501100Y-67753600I-250000J0D01*
G01*
%TO.C,C3*%
X166840793Y-150397561D02*
X165512020Y-146308018D01*
X168990180Y-149699182D02*
X166840793Y-150397561D01*
X166918230Y-148111756D02*
X167583970Y-147895444D01*
X167142944Y-147670730D02*
X167359256Y-148336470D01*
X165512020Y-146308018D02*
X167661407Y-145609639D01*
X167661407Y-145609639D02*
X168990180Y-149699182D01*
X167501100Y-148003600D02*
G75*
G03*
X167501100Y-148003600I-250000J0D01*
G01*
%TO.C,C5*%
X153901100Y-139803600D02*
X155601100Y-139803600D01*
X153901100Y-140703600D02*
X153901100Y-139803600D01*
X154751100Y-140028600D02*
X154751100Y-140478600D01*
X154976100Y-140253600D02*
X154526100Y-140253600D01*
X155601100Y-139803600D02*
X155601100Y-140703600D01*
X155601100Y-140703600D02*
X153901100Y-140703600D01*
X154919850Y-140253600D02*
G75*
G03*
X154919850Y-140253600I-168750J0D01*
G01*
%TO.C,C19*%
X124926100Y-69228600D02*
X124926100Y-67528600D01*
X125826100Y-69228600D02*
X124926100Y-69228600D01*
X125151100Y-68378600D02*
X125601100Y-68378600D01*
X125376100Y-68153600D02*
X125376100Y-68603600D01*
X124926100Y-67528600D02*
X125826100Y-67528600D01*
X125826100Y-67528600D02*
X125826100Y-69228600D01*
X125544850Y-68378600D02*
G75*
G03*
X125544850Y-68378600I-168750J0D01*
G01*
%TO.C,C10*%
X159246100Y-64903600D02*
X159246100Y-60603600D01*
X161506100Y-64903600D02*
X159246100Y-64903600D01*
X160026100Y-62753600D02*
X160726100Y-62753600D01*
X160376100Y-62403600D02*
X160376100Y-63103600D01*
X159246100Y-60603600D02*
X161506100Y-60603600D01*
X161506100Y-60603600D02*
X161506100Y-64903600D01*
X160626100Y-62753600D02*
G75*
G03*
X160626100Y-62753600I-250000J0D01*
G01*
%TO.C,R5*%
X159416328Y-138799163D02*
X157742155Y-139094364D01*
X159260045Y-137912836D02*
X159416328Y-138799163D01*
X158540171Y-138725182D02*
X158462029Y-138282018D01*
X158279518Y-138542671D02*
X158722682Y-138464529D01*
X157742155Y-139094364D02*
X157585872Y-138208037D01*
X157585872Y-138208037D02*
X159260045Y-137912836D01*
X158669850Y-138503600D02*
G75*
G03*
X158669850Y-138503600I-168750J0D01*
G01*
%TO.C,C7*%
X160051100Y-67478600D02*
X160051100Y-65778600D01*
X160951100Y-67478600D02*
X160051100Y-67478600D01*
X160276100Y-66628600D02*
X160726100Y-66628600D01*
X160501100Y-66403600D02*
X160501100Y-66853600D01*
X160051100Y-65778600D02*
X160951100Y-65778600D01*
X160951100Y-65778600D02*
X160951100Y-67478600D01*
X160669850Y-66628600D02*
G75*
G03*
X160669850Y-66628600I-168750J0D01*
G01*
%TO.C,C17*%
X147651100Y-67053600D02*
X149351100Y-67053600D01*
X147651100Y-67953600D02*
X147651100Y-67053600D01*
X148501100Y-67278600D02*
X148501100Y-67728600D01*
X148726100Y-67503600D02*
X148276100Y-67503600D01*
X149351100Y-67053600D02*
X149351100Y-67953600D01*
X149351100Y-67953600D02*
X147651100Y-67953600D01*
X148669850Y-67503600D02*
G75*
G03*
X148669850Y-67503600I-168750J0D01*
G01*
%TO.C,C15*%
X158851100Y-64703600D02*
X157151100Y-64703600D01*
X158851100Y-63803600D02*
X158851100Y-64703600D01*
X158001100Y-64478600D02*
X158001100Y-64028600D01*
X157776100Y-64253600D02*
X158226100Y-64253600D01*
X157151100Y-64703600D02*
X157151100Y-63803600D01*
X157151100Y-63803600D02*
X158851100Y-63803600D01*
X158169850Y-64253600D02*
G75*
G03*
X158169850Y-64253600I-168750J0D01*
G01*
%TO.C,R4*%
X164485011Y-140115483D02*
X165577749Y-138813208D01*
X165174451Y-140693992D02*
X164485011Y-140115483D01*
X165203740Y-139608973D02*
X165548460Y-139898227D01*
X165520727Y-139581240D02*
X165231473Y-139925960D01*
X165577749Y-138813208D02*
X166267189Y-139391717D01*
X166267189Y-139391717D02*
X165174451Y-140693992D01*
X165544850Y-139753600D02*
G75*
G03*
X165544850Y-139753600I-168750J0D01*
G01*
%TO.C,C14*%
X158851100Y-63578600D02*
X157151100Y-63578600D01*
X158851100Y-62678600D02*
X158851100Y-63578600D01*
X158001100Y-63353600D02*
X158001100Y-62903600D01*
X157776100Y-63128600D02*
X158226100Y-63128600D01*
X157151100Y-63578600D02*
X157151100Y-62678600D01*
X157151100Y-62678600D02*
X158851100Y-62678600D01*
X158169850Y-63128600D02*
G75*
G03*
X158169850Y-63128600I-168750J0D01*
G01*
%TO.C,C1*%
X162697491Y-154050555D02*
X164847491Y-150326645D01*
X164654709Y-155180555D02*
X162697491Y-154050555D01*
X164447991Y-152578600D02*
X165054209Y-152928600D01*
X164926100Y-152450491D02*
X164576100Y-153056709D01*
X164847491Y-150326645D02*
X166804709Y-151456645D01*
X166804709Y-151456645D02*
X164654709Y-155180555D01*
X165001100Y-152753600D02*
G75*
G03*
X165001100Y-152753600I-250000J0D01*
G01*
%TO.C,C9*%
X153221100Y-58678600D02*
X154921100Y-58678600D01*
X153221100Y-59578600D02*
X153221100Y-58678600D01*
X154071100Y-58903600D02*
X154071100Y-59353600D01*
X154296100Y-59128600D02*
X153846100Y-59128600D01*
X154921100Y-58678600D02*
X154921100Y-59578600D01*
X154921100Y-59578600D02*
X153221100Y-59578600D01*
X154239850Y-59128600D02*
G75*
G03*
X154239850Y-59128600I-168750J0D01*
G01*
%TO.C,C4*%
X163328748Y-150510745D02*
X161731270Y-151092179D01*
X163020930Y-149665021D02*
X163328748Y-150510745D01*
X162453055Y-150590031D02*
X162299145Y-150167169D01*
X162164669Y-150455555D02*
X162587531Y-150301645D01*
X161731270Y-151092179D02*
X161423452Y-150246455D01*
X161423452Y-150246455D02*
X163020930Y-149665021D01*
X162544850Y-150378600D02*
G75*
G03*
X162544850Y-150378600I-168750J0D01*
G01*
%TO.C,C6*%
X155210872Y-150833037D02*
X156885045Y-150537836D01*
X155367155Y-151719364D02*
X155210872Y-150833037D01*
X156087029Y-150907018D02*
X156165171Y-151350182D01*
X156347682Y-151089529D02*
X155904518Y-151167671D01*
X156885045Y-150537836D02*
X157041328Y-151424163D01*
X157041328Y-151424163D02*
X155367155Y-151719364D01*
X156294850Y-151128600D02*
G75*
G03*
X156294850Y-151128600I-168750J0D01*
G01*
D11*
%TO.C,IC1*%
X151559942Y-142350554D02*
X152810556Y-149443139D01*
X152810556Y-149443139D02*
X162942258Y-147656646D01*
X161691644Y-140564061D02*
X151559942Y-142350554D01*
X162942258Y-147656646D02*
X161691644Y-140564061D01*
D10*
%TO.C,C2*%
X168601100Y-151623600D02*
X172901100Y-151623600D01*
X168601100Y-153883600D02*
X168601100Y-151623600D01*
X170751100Y-152403600D02*
X170751100Y-153103600D01*
X171101100Y-152753600D02*
X170401100Y-152753600D01*
X172901100Y-151623600D02*
X172901100Y-153883600D01*
X172901100Y-153883600D02*
X168601100Y-153883600D01*
X171001100Y-152753600D02*
G75*
G03*
X171001100Y-152753600I-250000J0D01*
G01*
%TO.C,R7*%
X151326100Y-59653600D02*
X151326100Y-61353600D01*
X150426100Y-59653600D02*
X151326100Y-59653600D01*
X151101100Y-60503600D02*
X150651100Y-60503600D01*
X150876100Y-60728600D02*
X150876100Y-60278600D01*
X151326100Y-61353600D02*
X150426100Y-61353600D01*
X150426100Y-61353600D02*
X150426100Y-59653600D01*
X151044850Y-60503600D02*
G75*
G03*
X151044850Y-60503600I-168750J0D01*
G01*
%TO.C,R9*%
X147651100Y-64803600D02*
X149351100Y-64803600D01*
X147651100Y-65703600D02*
X147651100Y-64803600D01*
X148501100Y-65028600D02*
X148501100Y-65478600D01*
X148726100Y-65253600D02*
X148276100Y-65253600D01*
X149351100Y-64803600D02*
X149351100Y-65703600D01*
X149351100Y-65703600D02*
X147651100Y-65703600D01*
X148669850Y-65253600D02*
G75*
G03*
X148669850Y-65253600I-168750J0D01*
G01*
%TO.C,C20*%
X158851100Y-61328600D02*
X157151100Y-61328600D01*
X158851100Y-60428600D02*
X158851100Y-61328600D01*
X158001100Y-61103600D02*
X158001100Y-60653600D01*
X157776100Y-60878600D02*
X158226100Y-60878600D01*
X157151100Y-61328600D02*
X157151100Y-60428600D01*
X157151100Y-60428600D02*
X158851100Y-60428600D01*
X158169850Y-60878600D02*
G75*
G03*
X158169850Y-60878600I-168750J0D01*
G01*
%TO.C,R10*%
X147651100Y-63678600D02*
X149351100Y-63678600D01*
X147651100Y-64578600D02*
X147651100Y-63678600D01*
X148501100Y-63903600D02*
X148501100Y-64353600D01*
X148726100Y-64128600D02*
X148276100Y-64128600D01*
X149351100Y-63678600D02*
X149351100Y-64578600D01*
X149351100Y-64578600D02*
X147651100Y-64578600D01*
X148669850Y-64128600D02*
G75*
G03*
X148669850Y-64128600I-168750J0D01*
G01*
%TO.C,L1*%
X154951100Y-56403600D02*
X154951100Y-58103600D01*
X154051100Y-56403600D02*
X154951100Y-56403600D01*
X154726100Y-57253600D02*
X154276100Y-57253600D01*
X154501100Y-57478600D02*
X154501100Y-57028600D01*
X154951100Y-58103600D02*
X154051100Y-58103600D01*
X154051100Y-58103600D02*
X154051100Y-56403600D01*
X154669850Y-57253600D02*
G75*
G03*
X154669850Y-57253600I-168750J0D01*
G01*
%TO.C,R6*%
X157151100Y-61553600D02*
X158851100Y-61553600D01*
X157151100Y-62453600D02*
X157151100Y-61553600D01*
X158001100Y-61778600D02*
X158001100Y-62228600D01*
X158226100Y-62003600D02*
X157776100Y-62003600D01*
X158851100Y-61553600D02*
X158851100Y-62453600D01*
X158851100Y-62453600D02*
X157151100Y-62453600D01*
X158169850Y-62003600D02*
G75*
G03*
X158169850Y-62003600I-168750J0D01*
G01*
%TO.C,C12*%
X156701100Y-59653600D02*
X156701100Y-61353600D01*
X155801100Y-59653600D02*
X156701100Y-59653600D01*
X156476100Y-60503600D02*
X156026100Y-60503600D01*
X156251100Y-60728600D02*
X156251100Y-60278600D01*
X156701100Y-61353600D02*
X155801100Y-61353600D01*
X155801100Y-61353600D02*
X155801100Y-59653600D01*
X156419850Y-60503600D02*
G75*
G03*
X156419850Y-60503600I-168750J0D01*
G01*
%TO.C,C11*%
X158976100Y-69078600D02*
X157276100Y-69078600D01*
X158976100Y-68178600D02*
X158976100Y-69078600D01*
X158126100Y-68853600D02*
X158126100Y-68403600D01*
X157901100Y-68628600D02*
X158351100Y-68628600D01*
X157276100Y-69078600D02*
X157276100Y-68178600D01*
X157276100Y-68178600D02*
X158976100Y-68178600D01*
X158294850Y-68628600D02*
G75*
G03*
X158294850Y-68628600I-168750J0D01*
G01*
%TO.C,C18*%
X121871100Y-69528600D02*
X121871100Y-65228600D01*
X124131100Y-69528600D02*
X121871100Y-69528600D01*
X122651100Y-67378600D02*
X123351100Y-67378600D01*
X123001100Y-67028600D02*
X123001100Y-67728600D01*
X121871100Y-65228600D02*
X124131100Y-65228600D01*
X124131100Y-65228600D02*
X124131100Y-69528600D01*
X123251100Y-67378600D02*
G75*
G03*
X123251100Y-67378600I-250000J0D01*
G01*
%TO.C,J1*%
G36*
X184496100Y-64163600D02*
G01*
X172756100Y-64163600D01*
X172756100Y-55843600D01*
X184496100Y-55843600D01*
X184496100Y-64163600D01*
G37*
%TO.C,C8*%
X153221100Y-54928600D02*
X154921100Y-54928600D01*
X153221100Y-55828600D02*
X153221100Y-54928600D01*
X154071100Y-55153600D02*
X154071100Y-55603600D01*
X154296100Y-55378600D02*
X153846100Y-55378600D01*
X154921100Y-54928600D02*
X154921100Y-55828600D01*
X154921100Y-55828600D02*
X153221100Y-55828600D01*
X154239850Y-55378600D02*
G75*
G03*
X154239850Y-55378600I-168750J0D01*
G01*
%TO.C,R11*%
X157151100Y-59303600D02*
X158851100Y-59303600D01*
X157151100Y-60203600D02*
X157151100Y-59303600D01*
X158001100Y-59528600D02*
X158001100Y-59978600D01*
X158226100Y-59753600D02*
X157776100Y-59753600D01*
X158851100Y-59303600D02*
X158851100Y-60203600D01*
X158851100Y-60203600D02*
X157151100Y-60203600D01*
X158169850Y-59753600D02*
G75*
G03*
X158169850Y-59753600I-168750J0D01*
G01*
%TO.C,R8*%
X147651100Y-65928600D02*
X149351100Y-65928600D01*
X147651100Y-66828600D02*
X147651100Y-65928600D01*
X148501100Y-66153600D02*
X148501100Y-66603600D01*
X148726100Y-66378600D02*
X148276100Y-66378600D01*
X149351100Y-65928600D02*
X149351100Y-66828600D01*
X149351100Y-66828600D02*
X147651100Y-66828600D01*
X148669850Y-66378600D02*
G75*
G03*
X148669850Y-66378600I-168750J0D01*
G01*
%TO.C,C13*%
X152701100Y-59653600D02*
X152701100Y-61353600D01*
X151801100Y-59653600D02*
X152701100Y-59653600D01*
X152476100Y-60503600D02*
X152026100Y-60503600D01*
X152251100Y-60728600D02*
X152251100Y-60278600D01*
X152701100Y-61353600D02*
X151801100Y-61353600D01*
X151801100Y-61353600D02*
X151801100Y-59653600D01*
X152419850Y-60503600D02*
G75*
G03*
X152419850Y-60503600I-168750J0D01*
G01*
%TO.C,R2*%
X161859638Y-151840543D02*
X160389638Y-154386657D01*
X160612562Y-151120543D02*
X161859638Y-151840543D01*
X160804209Y-152928600D02*
X160197991Y-152578600D01*
X160326100Y-153056709D02*
X160676100Y-152450491D01*
X160389638Y-154386657D02*
X159142562Y-153666657D01*
X159142562Y-153666657D02*
X160612562Y-151120543D01*
X160751100Y-152753600D02*
G75*
G03*
X160751100Y-152753600I-250000J0D01*
G01*
%TO.C,R3*%
X153838043Y-152895062D02*
X156384157Y-154365062D01*
X153118043Y-154142138D02*
X153838043Y-152895062D01*
X154926100Y-153950491D02*
X154576100Y-154556709D01*
X155054209Y-154428600D02*
X154447991Y-154078600D01*
X156384157Y-154365062D02*
X155664157Y-155612138D01*
X155664157Y-155612138D02*
X153118043Y-154142138D01*
X155001100Y-154253600D02*
G75*
G03*
X155001100Y-154253600I-250000J0D01*
G01*
%TO.C,C16*%
X147651100Y-62428600D02*
X149351100Y-62428600D01*
X147651100Y-63328600D02*
X147651100Y-62428600D01*
X148501100Y-62653600D02*
X148501100Y-63103600D01*
X148726100Y-62878600D02*
X148276100Y-62878600D01*
X149351100Y-62428600D02*
X149351100Y-63328600D01*
X149351100Y-63328600D02*
X147651100Y-63328600D01*
X148669850Y-62878600D02*
G75*
G03*
X148669850Y-62878600I-168750J0D01*
G01*
%TD*%
M02*
