<?xml version="1.0" standalone="no"?>
 <!DOCTYPE svg PUBLIC "-//W3C//DTD SVG 1.1//EN" 
 "http://www.w3.org/Graphics/SVG/1.1/DTD/svg11.dtd"> 
<svg
  xmlns:svg="http://www.w3.org/2000/svg"
  xmlns="http://www.w3.org/2000/svg"
  xmlns:xlink="http://www.w3.org/1999/xlink"
  version="1.1"
  width="297.0022mm" height="210.0072mm" viewBox="0.0000 0.0000 297.0022 210.0072">
<title>SVG Image created as working-User_Comments.svg date 2023/08/07 18:14:23 </title>
  <desc>Image generated by PCBNEW </desc>
<g style="fill:#000000; fill-opacity:1.0000;stroke:#000000; stroke-opacity:1.0000;
stroke-linecap:round; stroke-linejoin:round;"
 transform="translate(0 0) scale(1 1)">
</g>
<g style="fill:#000000; fill-opacity:0.0; 
stroke:#000000; stroke-width:0.0000; stroke-opacity:1; 
stroke-linecap:round; stroke-linejoin:round;">
</g>
<g style="fill:#000000; fill-opacity:0.0; 
stroke:#000000; stroke-width:0.1524; stroke-opacity:1; 
stroke-linecap:round; stroke-linejoin:round;">
<path d="M146.0011 71.0036
L146.0011 36.5036
" />
<path d="M121.0011 79.0036
L121.0011 115.0036
" />
<path d="M109.0011 78.0036
L188.0011 78.0036
" />
</g>
<g style="fill:#000000; fill-opacity:0.0; 
stroke:#000000; stroke-width:0.0762; stroke-opacity:1; 
stroke-linecap:round; stroke-linejoin:round;">
<circle cx="178.7511" cy="120.5036" r="0.5000" /> 
</g>
<g style="fill:#000000; fill-opacity:0.0; 
stroke:#000000; stroke-width:0.1524; stroke-opacity:1; 
stroke-linecap:round; stroke-linejoin:round;">
<circle cx="148.5011" cy="52.5036" r="3.0000" /> 
<path d="M162.2511 71.0036
L162.2511 36.5036
" />
<path d="M105.0011 71.0036
L146.0011 71.0036
" />
<path d="M176.0011 115.0036
L176.0011 79.0036
" />
<path d="M179.2511 120.5036 A38.2500 38.2500 0.0 0 0 141.0011 158.7536" />
<path d="M121.0011 115.0036
L176.0011 115.0036
" />
<path d="M146.0011 71.0036
L190.0011 71.0036
" />
<path d="M176.0011 79.0036
L121.0011 79.0036
" />
</g>
<g style="fill:#000000; fill-opacity:0.0; 
stroke:#000000; stroke-width:0.1422; stroke-opacity:1; 
stroke-linecap:round; stroke-linejoin:round;">
<text x="148.0011" y="26.4779"
textLength="28.9980" font-size="2.1810" lengthAdjust="spacingAndGlyphs"
text-anchor="start" opacity="0">CPWG 50 Ohm Params:</text>
<g class="stroked-text"><desc>CPWG 50 Ohm Params:</desc>
<path d="M149.4189 26.1145
L149.3410 26.1924
" />
<path d="M149.3410 26.1924
L149.1073 26.2703
" />
<path d="M149.1073 26.2703
L148.9515 26.2703
" />
<path d="M148.9515 26.2703
L148.7178 26.1924
" />
<path d="M148.7178 26.1924
L148.5620 26.0366
" />
<path d="M148.5620 26.0366
L148.4841 25.8808
" />
<path d="M148.4841 25.8808
L148.4063 25.5693
" />
<path d="M148.4063 25.5693
L148.4063 25.3356
" />
<path d="M148.4063 25.3356
L148.4841 25.0240
" />
<path d="M148.4841 25.0240
L148.5620 24.8682
" />
<path d="M148.5620 24.8682
L148.7178 24.7124
" />
<path d="M148.7178 24.7124
L148.9515 24.6345
" />
<path d="M148.9515 24.6345
L149.1073 24.6345
" />
<path d="M149.1073 24.6345
L149.3410 24.7124
" />
<path d="M149.3410 24.7124
L149.4189 24.7903
" />
<path d="M150.1199 26.2703
L150.1199 24.6345
" />
<path d="M150.1199 24.6345
L150.7431 24.6345
" />
<path d="M150.7431 24.6345
L150.8988 24.7124
" />
<path d="M150.8988 24.7124
L150.9767 24.7903
" />
<path d="M150.9767 24.7903
L151.0546 24.9461
" />
<path d="M151.0546 24.9461
L151.0546 25.1798
" />
<path d="M151.0546 25.1798
L150.9767 25.3356
" />
<path d="M150.9767 25.3356
L150.8988 25.4135
" />
<path d="M150.8988 25.4135
L150.7431 25.4914
" />
<path d="M150.7431 25.4914
L150.1199 25.4914
" />
<path d="M151.5999 24.6345
L151.9893 26.2703
" />
<path d="M151.9893 26.2703
L152.3009 25.1019
" />
<path d="M152.3009 25.1019
L152.6125 26.2703
" />
<path d="M152.6125 26.2703
L153.0020 24.6345
" />
<path d="M154.4819 24.7124
L154.3261 24.6345
" />
<path d="M154.3261 24.6345
L154.0925 24.6345
" />
<path d="M154.0925 24.6345
L153.8588 24.7124
" />
<path d="M153.8588 24.7124
L153.7030 24.8682
" />
<path d="M153.7030 24.8682
L153.6251 25.0240
" />
<path d="M153.6251 25.0240
L153.5472 25.3356
" />
<path d="M153.5472 25.3356
L153.5472 25.5693
" />
<path d="M153.5472 25.5693
L153.6251 25.8808
" />
<path d="M153.6251 25.8808
L153.7030 26.0366
" />
<path d="M153.7030 26.0366
L153.8588 26.1924
" />
<path d="M153.8588 26.1924
L154.0925 26.2703
" />
<path d="M154.0925 26.2703
L154.2483 26.2703
" />
<path d="M154.2483 26.2703
L154.4819 26.1924
" />
<path d="M154.4819 26.1924
L154.5598 26.1145
" />
<path d="M154.5598 26.1145
L154.5598 25.5693
" />
<path d="M154.5598 25.5693
L154.2483 25.5693
" />
<path d="M157.2861 24.6345
L156.5072 24.6345
" />
<path d="M156.5072 24.6345
L156.4293 25.4135
" />
<path d="M156.4293 25.4135
L156.5072 25.3356
" />
<path d="M156.5072 25.3356
L156.6629 25.2577
" />
<path d="M156.6629 25.2577
L157.0524 25.2577
" />
<path d="M157.0524 25.2577
L157.2082 25.3356
" />
<path d="M157.2082 25.3356
L157.2861 25.4135
" />
<path d="M157.2861 25.4135
L157.3640 25.5693
" />
<path d="M157.3640 25.5693
L157.3640 25.9587
" />
<path d="M157.3640 25.9587
L157.2861 26.1145
" />
<path d="M157.2861 26.1145
L157.2082 26.1924
" />
<path d="M157.2082 26.1924
L157.0524 26.2703
" />
<path d="M157.0524 26.2703
L156.6629 26.2703
" />
<path d="M156.6629 26.2703
L156.5072 26.1924
" />
<path d="M156.5072 26.1924
L156.4293 26.1145
" />
<path d="M158.3766 24.6345
L158.5324 24.6345
" />
<path d="M158.5324 24.6345
L158.6882 24.7124
" />
<path d="M158.6882 24.7124
L158.7661 24.7903
" />
<path d="M158.7661 24.7903
L158.8440 24.9461
" />
<path d="M158.8440 24.9461
L158.9219 25.2577
" />
<path d="M158.9219 25.2577
L158.9219 25.6471
" />
<path d="M158.9219 25.6471
L158.8440 25.9587
" />
<path d="M158.8440 25.9587
L158.7661 26.1145
" />
<path d="M158.7661 26.1145
L158.6882 26.1924
" />
<path d="M158.6882 26.1924
L158.5324 26.2703
" />
<path d="M158.5324 26.2703
L158.3766 26.2703
" />
<path d="M158.3766 26.2703
L158.2208 26.1924
" />
<path d="M158.2208 26.1924
L158.1429 26.1145
" />
<path d="M158.1429 26.1145
L158.0650 25.9587
" />
<path d="M158.0650 25.9587
L157.9871 25.6471
" />
<path d="M157.9871 25.6471
L157.9871 25.2577
" />
<path d="M157.9871 25.2577
L158.0650 24.9461
" />
<path d="M158.0650 24.9461
L158.1429 24.7903
" />
<path d="M158.1429 24.7903
L158.2208 24.7124
" />
<path d="M158.2208 24.7124
L158.3766 24.6345
" />
<path d="M161.1808 24.6345
L161.4923 24.6345
" />
<path d="M161.4923 24.6345
L161.6481 24.7124
" />
<path d="M161.6481 24.7124
L161.8039 24.8682
" />
<path d="M161.8039 24.8682
L161.8818 25.1798
" />
<path d="M161.8818 25.1798
L161.8818 25.7250
" />
<path d="M161.8818 25.7250
L161.8039 26.0366
" />
<path d="M161.8039 26.0366
L161.6481 26.1924
" />
<path d="M161.6481 26.1924
L161.4923 26.2703
" />
<path d="M161.4923 26.2703
L161.1808 26.2703
" />
<path d="M161.1808 26.2703
L161.0250 26.1924
" />
<path d="M161.0250 26.1924
L160.8692 26.0366
" />
<path d="M160.8692 26.0366
L160.7913 25.7250
" />
<path d="M160.7913 25.7250
L160.7913 25.1798
" />
<path d="M160.7913 25.1798
L160.8692 24.8682
" />
<path d="M160.8692 24.8682
L161.0250 24.7124
" />
<path d="M161.0250 24.7124
L161.1808 24.6345
" />
<path d="M162.5828 26.2703
L162.5828 24.6345
" />
<path d="M163.2839 26.2703
L163.2839 25.4135
" />
<path d="M163.2839 25.4135
L163.2060 25.2577
" />
<path d="M163.2060 25.2577
L163.0502 25.1798
" />
<path d="M163.0502 25.1798
L162.8165 25.1798
" />
<path d="M162.8165 25.1798
L162.6607 25.2577
" />
<path d="M162.6607 25.2577
L162.5828 25.3356
" />
<path d="M164.0628 26.2703
L164.0628 25.1798
" />
<path d="M164.0628 25.3356
L164.1407 25.2577
" />
<path d="M164.1407 25.2577
L164.2965 25.1798
" />
<path d="M164.2965 25.1798
L164.5302 25.1798
" />
<path d="M164.5302 25.1798
L164.6860 25.2577
" />
<path d="M164.6860 25.2577
L164.7638 25.4135
" />
<path d="M164.7638 25.4135
L164.7638 26.2703
" />
<path d="M164.7638 25.4135
L164.8417 25.2577
" />
<path d="M164.8417 25.2577
L164.9975 25.1798
" />
<path d="M164.9975 25.1798
L165.2312 25.1798
" />
<path d="M165.2312 25.1798
L165.3870 25.2577
" />
<path d="M165.3870 25.2577
L165.4649 25.4135
" />
<path d="M165.4649 25.4135
L165.4649 26.2703
" />
<path d="M167.4901 26.2703
L167.4901 24.6345
" />
<path d="M167.4901 24.6345
L168.1133 24.6345
" />
<path d="M168.1133 24.6345
L168.2690 24.7124
" />
<path d="M168.2690 24.7124
L168.3469 24.7903
" />
<path d="M168.3469 24.7903
L168.4248 24.9461
" />
<path d="M168.4248 24.9461
L168.4248 25.1798
" />
<path d="M168.4248 25.1798
L168.3469 25.3356
" />
<path d="M168.3469 25.3356
L168.2690 25.4135
" />
<path d="M168.2690 25.4135
L168.1133 25.4914
" />
<path d="M168.1133 25.4914
L167.4901 25.4914
" />
<path d="M169.8269 26.2703
L169.8269 25.4135
" />
<path d="M169.8269 25.4135
L169.7490 25.2577
" />
<path d="M169.7490 25.2577
L169.5932 25.1798
" />
<path d="M169.5932 25.1798
L169.2817 25.1798
" />
<path d="M169.2817 25.1798
L169.1259 25.2577
" />
<path d="M169.8269 26.1924
L169.6711 26.2703
" />
<path d="M169.6711 26.2703
L169.2817 26.2703
" />
<path d="M169.2817 26.2703
L169.1259 26.1924
" />
<path d="M169.1259 26.1924
L169.0480 26.0366
" />
<path d="M169.0480 26.0366
L169.0480 25.8808
" />
<path d="M169.0480 25.8808
L169.1259 25.7250
" />
<path d="M169.1259 25.7250
L169.2817 25.6471
" />
<path d="M169.2817 25.6471
L169.6711 25.6471
" />
<path d="M169.6711 25.6471
L169.8269 25.5693
" />
<path d="M170.6058 26.2703
L170.6058 25.1798
" />
<path d="M170.6058 25.4914
L170.6837 25.3356
" />
<path d="M170.6837 25.3356
L170.7616 25.2577
" />
<path d="M170.7616 25.2577
L170.9174 25.1798
" />
<path d="M170.9174 25.1798
L171.0732 25.1798
" />
<path d="M172.3195 26.2703
L172.3195 25.4135
" />
<path d="M172.3195 25.4135
L172.2416 25.2577
" />
<path d="M172.2416 25.2577
L172.0858 25.1798
" />
<path d="M172.0858 25.1798
L171.7742 25.1798
" />
<path d="M171.7742 25.1798
L171.6185 25.2577
" />
<path d="M172.3195 26.1924
L172.1637 26.2703
" />
<path d="M172.1637 26.2703
L171.7742 26.2703
" />
<path d="M171.7742 26.2703
L171.6185 26.1924
" />
<path d="M171.6185 26.1924
L171.5406 26.0366
" />
<path d="M171.5406 26.0366
L171.5406 25.8808
" />
<path d="M171.5406 25.8808
L171.6185 25.7250
" />
<path d="M171.6185 25.7250
L171.7742 25.6471
" />
<path d="M171.7742 25.6471
L172.1637 25.6471
" />
<path d="M172.1637 25.6471
L172.3195 25.5693
" />
<path d="M173.0984 26.2703
L173.0984 25.1798
" />
<path d="M173.0984 25.3356
L173.1763 25.2577
" />
<path d="M173.1763 25.2577
L173.3321 25.1798
" />
<path d="M173.3321 25.1798
L173.5658 25.1798
" />
<path d="M173.5658 25.1798
L173.7216 25.2577
" />
<path d="M173.7216 25.2577
L173.7995 25.4135
" />
<path d="M173.7995 25.4135
L173.7995 26.2703
" />
<path d="M173.7995 25.4135
L173.8774 25.2577
" />
<path d="M173.8774 25.2577
L174.0332 25.1798
" />
<path d="M174.0332 25.1798
L174.2668 25.1798
" />
<path d="M174.2668 25.1798
L174.4226 25.2577
" />
<path d="M174.4226 25.2577
L174.5005 25.4135
" />
<path d="M174.5005 25.4135
L174.5005 26.2703
" />
<path d="M175.2016 26.1924
L175.3573 26.2703
" />
<path d="M175.3573 26.2703
L175.6689 26.2703
" />
<path d="M175.6689 26.2703
L175.8247 26.1924
" />
<path d="M175.8247 26.1924
L175.9026 26.0366
" />
<path d="M175.9026 26.0366
L175.9026 25.9587
" />
<path d="M175.9026 25.9587
L175.8247 25.8029
" />
<path d="M175.8247 25.8029
L175.6689 25.7250
" />
<path d="M175.6689 25.7250
L175.4352 25.7250
" />
<path d="M175.4352 25.7250
L175.2794 25.6471
" />
<path d="M175.2794 25.6471
L175.2016 25.4914
" />
<path d="M175.2016 25.4914
L175.2016 25.4135
" />
<path d="M175.2016 25.4135
L175.2794 25.2577
" />
<path d="M175.2794 25.2577
L175.4352 25.1798
" />
<path d="M175.4352 25.1798
L175.6689 25.1798
" />
<path d="M175.6689 25.1798
L175.8247 25.2577
" />
<path d="M176.6036 26.1145
L176.6815 26.1924
" />
<path d="M176.6815 26.1924
L176.6036 26.2703
" />
<path d="M176.6036 26.2703
L176.5257 26.1924
" />
<path d="M176.5257 26.1924
L176.6036 26.1145
" />
<path d="M176.6036 26.1145
L176.6036 26.2703
" />
<path d="M176.6036 25.2577
L176.6815 25.3356
" />
<path d="M176.6815 25.3356
L176.6036 25.4135
" />
<path d="M176.6036 25.4135
L176.5257 25.3356
" />
<path d="M176.5257 25.3356
L176.6036 25.2577
" />
<path d="M176.6036 25.2577
L176.6036 25.4135
" />
</g><text x="148.0011" y="29.1115"
textLength="44.4988" font-size="2.1810" lengthAdjust="spacingAndGlyphs"
text-anchor="start" opacity="0">H=1.2mm, Er=4.6 (FR-4 standard)</text>
<g class="stroked-text"><desc>H=1.2mm, Er=4.6 (FR-4 standard)</desc>
<path d="M148.4841 28.9039
L148.4841 27.2681
" />
<path d="M148.4841 28.0470
L149.4189 28.0470
" />
<path d="M149.4189 28.9039
L149.4189 27.2681
" />
<path d="M150.1978 28.0470
L151.4441 28.0470
" />
<path d="M151.4441 28.5144
L150.1978 28.5144
" />
<path d="M153.0799 28.9039
L152.1451 28.9039
" />
<path d="M152.6125 28.9039
L152.6125 27.2681
" />
<path d="M152.6125 27.2681
L152.4567 27.5018
" />
<path d="M152.4567 27.5018
L152.3009 27.6576
" />
<path d="M152.3009 27.6576
L152.1451 27.7355
" />
<path d="M153.7809 28.7481
L153.8588 28.8260
" />
<path d="M153.8588 28.8260
L153.7809 28.9039
" />
<path d="M153.7809 28.9039
L153.7030 28.8260
" />
<path d="M153.7030 28.8260
L153.7809 28.7481
" />
<path d="M153.7809 28.7481
L153.7809 28.9039
" />
<path d="M154.4819 27.4239
L154.5598 27.3460
" />
<path d="M154.5598 27.3460
L154.7156 27.2681
" />
<path d="M154.7156 27.2681
L155.1051 27.2681
" />
<path d="M155.1051 27.2681
L155.2609 27.3460
" />
<path d="M155.2609 27.3460
L155.3388 27.4239
" />
<path d="M155.3388 27.4239
L155.4167 27.5797
" />
<path d="M155.4167 27.5797
L155.4167 27.7355
" />
<path d="M155.4167 27.7355
L155.3388 27.9691
" />
<path d="M155.3388 27.9691
L154.4040 28.9039
" />
<path d="M154.4040 28.9039
L155.4167 28.9039
" />
<path d="M156.1177 28.9039
L156.1177 27.8134
" />
<path d="M156.1177 27.9691
L156.1956 27.8913
" />
<path d="M156.1956 27.8913
L156.3514 27.8134
" />
<path d="M156.3514 27.8134
L156.5851 27.8134
" />
<path d="M156.5851 27.8134
L156.7408 27.8913
" />
<path d="M156.7408 27.8913
L156.8187 28.0470
" />
<path d="M156.8187 28.0470
L156.8187 28.9039
" />
<path d="M156.8187 28.0470
L156.8966 27.8913
" />
<path d="M156.8966 27.8913
L157.0524 27.8134
" />
<path d="M157.0524 27.8134
L157.2861 27.8134
" />
<path d="M157.2861 27.8134
L157.4419 27.8913
" />
<path d="M157.4419 27.8913
L157.5198 28.0470
" />
<path d="M157.5198 28.0470
L157.5198 28.9039
" />
<path d="M158.2987 28.9039
L158.2987 27.8134
" />
<path d="M158.2987 27.9691
L158.3766 27.8913
" />
<path d="M158.3766 27.8913
L158.5324 27.8134
" />
<path d="M158.5324 27.8134
L158.7661 27.8134
" />
<path d="M158.7661 27.8134
L158.9219 27.8913
" />
<path d="M158.9219 27.8913
L158.9997 28.0470
" />
<path d="M158.9997 28.0470
L158.9997 28.9039
" />
<path d="M158.9997 28.0470
L159.0776 27.8913
" />
<path d="M159.0776 27.8913
L159.2334 27.8134
" />
<path d="M159.2334 27.8134
L159.4671 27.8134
" />
<path d="M159.4671 27.8134
L159.6229 27.8913
" />
<path d="M159.6229 27.8913
L159.7008 28.0470
" />
<path d="M159.7008 28.0470
L159.7008 28.9039
" />
<path d="M160.5576 28.8260
L160.5576 28.9039
" />
<path d="M160.5576 28.9039
L160.4797 29.0597
" />
<path d="M160.4797 29.0597
L160.4018 29.1375
" />
<path d="M162.5049 28.0470
L163.0502 28.0470
" />
<path d="M163.2839 28.9039
L162.5049 28.9039
" />
<path d="M162.5049 28.9039
L162.5049 27.2681
" />
<path d="M162.5049 27.2681
L163.2839 27.2681
" />
<path d="M163.9849 28.9039
L163.9849 27.8134
" />
<path d="M163.9849 28.1249
L164.0628 27.9691
" />
<path d="M164.0628 27.9691
L164.1407 27.8913
" />
<path d="M164.1407 27.8913
L164.2965 27.8134
" />
<path d="M164.2965 27.8134
L164.4523 27.8134
" />
<path d="M164.9975 28.0470
L166.2438 28.0470
" />
<path d="M166.2438 28.5144
L164.9975 28.5144
" />
<path d="M167.7238 27.8134
L167.7238 28.9039
" />
<path d="M167.3343 27.1902
L166.9449 28.3586
" />
<path d="M166.9449 28.3586
L167.9575 28.3586
" />
<path d="M168.5806 28.7481
L168.6585 28.8260
" />
<path d="M168.6585 28.8260
L168.5806 28.9039
" />
<path d="M168.5806 28.9039
L168.5027 28.8260
" />
<path d="M168.5027 28.8260
L168.5806 28.7481
" />
<path d="M168.5806 28.7481
L168.5806 28.9039
" />
<path d="M170.0606 27.2681
L169.7490 27.2681
" />
<path d="M169.7490 27.2681
L169.5932 27.3460
" />
<path d="M169.5932 27.3460
L169.5153 27.4239
" />
<path d="M169.5153 27.4239
L169.3596 27.6576
" />
<path d="M169.3596 27.6576
L169.2817 27.9691
" />
<path d="M169.2817 27.9691
L169.2817 28.5923
" />
<path d="M169.2817 28.5923
L169.3596 28.7481
" />
<path d="M169.3596 28.7481
L169.4374 28.8260
" />
<path d="M169.4374 28.8260
L169.5932 28.9039
" />
<path d="M169.5932 28.9039
L169.9048 28.9039
" />
<path d="M169.9048 28.9039
L170.0606 28.8260
" />
<path d="M170.0606 28.8260
L170.1385 28.7481
" />
<path d="M170.1385 28.7481
L170.2164 28.5923
" />
<path d="M170.2164 28.5923
L170.2164 28.2028
" />
<path d="M170.2164 28.2028
L170.1385 28.0470
" />
<path d="M170.1385 28.0470
L170.0606 27.9691
" />
<path d="M170.0606 27.9691
L169.9048 27.8913
" />
<path d="M169.9048 27.8913
L169.5932 27.8913
" />
<path d="M169.5932 27.8913
L169.4374 27.9691
" />
<path d="M169.4374 27.9691
L169.3596 28.0470
" />
<path d="M169.3596 28.0470
L169.2817 28.2028
" />
<path d="M172.6311 29.5270
L172.5532 29.4491
" />
<path d="M172.5532 29.4491
L172.3974 29.2154
" />
<path d="M172.3974 29.2154
L172.3195 29.0597
" />
<path d="M172.3195 29.0597
L172.2416 28.8260
" />
<path d="M172.2416 28.8260
L172.1637 28.4365
" />
<path d="M172.1637 28.4365
L172.1637 28.1249
" />
<path d="M172.1637 28.1249
L172.2416 27.7355
" />
<path d="M172.2416 27.7355
L172.3195 27.5018
" />
<path d="M172.3195 27.5018
L172.3974 27.3460
" />
<path d="M172.3974 27.3460
L172.5532 27.1123
" />
<path d="M172.5532 27.1123
L172.6311 27.0344
" />
<path d="M173.7995 28.0470
L173.2542 28.0470
" />
<path d="M173.2542 28.9039
L173.2542 27.2681
" />
<path d="M173.2542 27.2681
L174.0332 27.2681
" />
<path d="M175.5910 28.9039
L175.0458 28.1249
" />
<path d="M174.6563 28.9039
L174.6563 27.2681
" />
<path d="M174.6563 27.2681
L175.2794 27.2681
" />
<path d="M175.2794 27.2681
L175.4352 27.3460
" />
<path d="M175.4352 27.3460
L175.5131 27.4239
" />
<path d="M175.5131 27.4239
L175.5910 27.5797
" />
<path d="M175.5910 27.5797
L175.5910 27.8134
" />
<path d="M175.5910 27.8134
L175.5131 27.9691
" />
<path d="M175.5131 27.9691
L175.4352 28.0470
" />
<path d="M175.4352 28.0470
L175.2794 28.1249
" />
<path d="M175.2794 28.1249
L174.6563 28.1249
" />
<path d="M176.2921 28.2807
L177.5384 28.2807
" />
<path d="M179.0183 27.8134
L179.0183 28.9039
" />
<path d="M178.6289 27.1902
L178.2394 28.3586
" />
<path d="M178.2394 28.3586
L179.2520 28.3586
" />
<path d="M181.0436 28.8260
L181.1993 28.9039
" />
<path d="M181.1993 28.9039
L181.5109 28.9039
" />
<path d="M181.5109 28.9039
L181.6667 28.8260
" />
<path d="M181.6667 28.8260
L181.7446 28.6702
" />
<path d="M181.7446 28.6702
L181.7446 28.5923
" />
<path d="M181.7446 28.5923
L181.6667 28.4365
" />
<path d="M181.6667 28.4365
L181.5109 28.3586
" />
<path d="M181.5109 28.3586
L181.2772 28.3586
" />
<path d="M181.2772 28.3586
L181.1214 28.2807
" />
<path d="M181.1214 28.2807
L181.0436 28.1249
" />
<path d="M181.0436 28.1249
L181.0436 28.0470
" />
<path d="M181.0436 28.0470
L181.1214 27.8913
" />
<path d="M181.1214 27.8913
L181.2772 27.8134
" />
<path d="M181.2772 27.8134
L181.5109 27.8134
" />
<path d="M181.5109 27.8134
L181.6667 27.8913
" />
<path d="M182.2120 27.8134
L182.8351 27.8134
" />
<path d="M182.4456 27.2681
L182.4456 28.6702
" />
<path d="M182.4456 28.6702
L182.5235 28.8260
" />
<path d="M182.5235 28.8260
L182.6793 28.9039
" />
<path d="M182.6793 28.9039
L182.8351 28.9039
" />
<path d="M184.0814 28.9039
L184.0814 28.0470
" />
<path d="M184.0814 28.0470
L184.0035 27.8913
" />
<path d="M184.0035 27.8913
L183.8477 27.8134
" />
<path d="M183.8477 27.8134
L183.5361 27.8134
" />
<path d="M183.5361 27.8134
L183.3804 27.8913
" />
<path d="M184.0814 28.8260
L183.9256 28.9039
" />
<path d="M183.9256 28.9039
L183.5361 28.9039
" />
<path d="M183.5361 28.9039
L183.3804 28.8260
" />
<path d="M183.3804 28.8260
L183.3025 28.6702
" />
<path d="M183.3025 28.6702
L183.3025 28.5144
" />
<path d="M183.3025 28.5144
L183.3804 28.3586
" />
<path d="M183.3804 28.3586
L183.5361 28.2807
" />
<path d="M183.5361 28.2807
L183.9256 28.2807
" />
<path d="M183.9256 28.2807
L184.0814 28.2028
" />
<path d="M184.8603 27.8134
L184.8603 28.9039
" />
<path d="M184.8603 27.9691
L184.9382 27.8913
" />
<path d="M184.9382 27.8913
L185.0940 27.8134
" />
<path d="M185.0940 27.8134
L185.3277 27.8134
" />
<path d="M185.3277 27.8134
L185.4835 27.8913
" />
<path d="M185.4835 27.8913
L185.5614 28.0470
" />
<path d="M185.5614 28.0470
L185.5614 28.9039
" />
<path d="M187.0413 28.9039
L187.0413 27.2681
" />
<path d="M187.0413 28.8260
L186.8856 28.9039
" />
<path d="M186.8856 28.9039
L186.5740 28.9039
" />
<path d="M186.5740 28.9039
L186.4182 28.8260
" />
<path d="M186.4182 28.8260
L186.3403 28.7481
" />
<path d="M186.3403 28.7481
L186.2624 28.5923
" />
<path d="M186.2624 28.5923
L186.2624 28.1249
" />
<path d="M186.2624 28.1249
L186.3403 27.9691
" />
<path d="M186.3403 27.9691
L186.4182 27.8913
" />
<path d="M186.4182 27.8913
L186.5740 27.8134
" />
<path d="M186.5740 27.8134
L186.8856 27.8134
" />
<path d="M186.8856 27.8134
L187.0413 27.8913
" />
<path d="M188.5213 28.9039
L188.5213 28.0470
" />
<path d="M188.5213 28.0470
L188.4434 27.8913
" />
<path d="M188.4434 27.8913
L188.2876 27.8134
" />
<path d="M188.2876 27.8134
L187.9761 27.8134
" />
<path d="M187.9761 27.8134
L187.8203 27.8913
" />
<path d="M188.5213 28.8260
L188.3655 28.9039
" />
<path d="M188.3655 28.9039
L187.9761 28.9039
" />
<path d="M187.9761 28.9039
L187.8203 28.8260
" />
<path d="M187.8203 28.8260
L187.7424 28.6702
" />
<path d="M187.7424 28.6702
L187.7424 28.5144
" />
<path d="M187.7424 28.5144
L187.8203 28.3586
" />
<path d="M187.8203 28.3586
L187.9761 28.2807
" />
<path d="M187.9761 28.2807
L188.3655 28.2807
" />
<path d="M188.3655 28.2807
L188.5213 28.2028
" />
<path d="M189.3002 28.9039
L189.3002 27.8134
" />
<path d="M189.3002 28.1249
L189.3781 27.9691
" />
<path d="M189.3781 27.9691
L189.4560 27.8913
" />
<path d="M189.4560 27.8913
L189.6118 27.8134
" />
<path d="M189.6118 27.8134
L189.7676 27.8134
" />
<path d="M191.0139 28.9039
L191.0139 27.2681
" />
<path d="M191.0139 28.8260
L190.8581 28.9039
" />
<path d="M190.8581 28.9039
L190.5465 28.9039
" />
<path d="M190.5465 28.9039
L190.3908 28.8260
" />
<path d="M190.3908 28.8260
L190.3129 28.7481
" />
<path d="M190.3129 28.7481
L190.2350 28.5923
" />
<path d="M190.2350 28.5923
L190.2350 28.1249
" />
<path d="M190.2350 28.1249
L190.3129 27.9691
" />
<path d="M190.3129 27.9691
L190.3908 27.8913
" />
<path d="M190.3908 27.8913
L190.5465 27.8134
" />
<path d="M190.5465 27.8134
L190.8581 27.8134
" />
<path d="M190.8581 27.8134
L191.0139 27.8913
" />
<path d="M191.6370 29.5270
L191.7149 29.4491
" />
<path d="M191.7149 29.4491
L191.8707 29.2154
" />
<path d="M191.8707 29.2154
L191.9486 29.0597
" />
<path d="M191.9486 29.0597
L192.0265 28.8260
" />
<path d="M192.0265 28.8260
L192.1044 28.4365
" />
<path d="M192.1044 28.4365
L192.1044 28.1249
" />
<path d="M192.1044 28.1249
L192.0265 27.7355
" />
<path d="M192.0265 27.7355
L191.9486 27.5018
" />
<path d="M191.9486 27.5018
L191.8707 27.3460
" />
<path d="M191.8707 27.3460
L191.7149 27.1123
" />
<path d="M191.7149 27.1123
L191.6370 27.0344
" />
</g><text x="148.0011" y="31.7450"
textLength="32.4253" font-size="2.1810" lengthAdjust="spacingAndGlyphs"
text-anchor="start" opacity="0">W=0.92mm, G=0.1524mm</text>
<g class="stroked-text"><desc>W=0.92mm, G=0.1524mm</desc>
<path d="M148.3284 29.9017
L148.7178 31.5374
" />
<path d="M148.7178 31.5374
L149.0294 30.3690
" />
<path d="M149.0294 30.3690
L149.3410 31.5374
" />
<path d="M149.3410 31.5374
L149.7304 29.9017
" />
<path d="M150.3536 30.6806
L151.5999 30.6806
" />
<path d="M151.5999 31.1480
L150.3536 31.1480
" />
<path d="M152.6904 29.9017
L152.8462 29.9017
" />
<path d="M152.8462 29.9017
L153.0020 29.9796
" />
<path d="M153.0020 29.9796
L153.0799 30.0575
" />
<path d="M153.0799 30.0575
L153.1577 30.2133
" />
<path d="M153.1577 30.2133
L153.2356 30.5248
" />
<path d="M153.2356 30.5248
L153.2356 30.9143
" />
<path d="M153.2356 30.9143
L153.1577 31.2259
" />
<path d="M153.1577 31.2259
L153.0799 31.3817
" />
<path d="M153.0799 31.3817
L153.0020 31.4596
" />
<path d="M153.0020 31.4596
L152.8462 31.5374
" />
<path d="M152.8462 31.5374
L152.6904 31.5374
" />
<path d="M152.6904 31.5374
L152.5346 31.4596
" />
<path d="M152.5346 31.4596
L152.4567 31.3817
" />
<path d="M152.4567 31.3817
L152.3788 31.2259
" />
<path d="M152.3788 31.2259
L152.3009 30.9143
" />
<path d="M152.3009 30.9143
L152.3009 30.5248
" />
<path d="M152.3009 30.5248
L152.3788 30.2133
" />
<path d="M152.3788 30.2133
L152.4567 30.0575
" />
<path d="M152.4567 30.0575
L152.5346 29.9796
" />
<path d="M152.5346 29.9796
L152.6904 29.9017
" />
<path d="M153.9367 31.3817
L154.0146 31.4596
" />
<path d="M154.0146 31.4596
L153.9367 31.5374
" />
<path d="M153.9367 31.5374
L153.8588 31.4596
" />
<path d="M153.8588 31.4596
L153.9367 31.3817
" />
<path d="M153.9367 31.3817
L153.9367 31.5374
" />
<path d="M154.7935 31.5374
L155.1051 31.5374
" />
<path d="M155.1051 31.5374
L155.2609 31.4596
" />
<path d="M155.2609 31.4596
L155.3388 31.3817
" />
<path d="M155.3388 31.3817
L155.4945 31.1480
" />
<path d="M155.4945 31.1480
L155.5724 30.8364
" />
<path d="M155.5724 30.8364
L155.5724 30.2133
" />
<path d="M155.5724 30.2133
L155.4945 30.0575
" />
<path d="M155.4945 30.0575
L155.4167 29.9796
" />
<path d="M155.4167 29.9796
L155.2609 29.9017
" />
<path d="M155.2609 29.9017
L154.9493 29.9017
" />
<path d="M154.9493 29.9017
L154.7935 29.9796
" />
<path d="M154.7935 29.9796
L154.7156 30.0575
" />
<path d="M154.7156 30.0575
L154.6377 30.2133
" />
<path d="M154.6377 30.2133
L154.6377 30.6027
" />
<path d="M154.6377 30.6027
L154.7156 30.7585
" />
<path d="M154.7156 30.7585
L154.7935 30.8364
" />
<path d="M154.7935 30.8364
L154.9493 30.9143
" />
<path d="M154.9493 30.9143
L155.2609 30.9143
" />
<path d="M155.2609 30.9143
L155.4167 30.8364
" />
<path d="M155.4167 30.8364
L155.4945 30.7585
" />
<path d="M155.4945 30.7585
L155.5724 30.6027
" />
<path d="M156.1956 30.0575
L156.2735 29.9796
" />
<path d="M156.2735 29.9796
L156.4293 29.9017
" />
<path d="M156.4293 29.9017
L156.8187 29.9017
" />
<path d="M156.8187 29.9017
L156.9745 29.9796
" />
<path d="M156.9745 29.9796
L157.0524 30.0575
" />
<path d="M157.0524 30.0575
L157.1303 30.2133
" />
<path d="M157.1303 30.2133
L157.1303 30.3690
" />
<path d="M157.1303 30.3690
L157.0524 30.6027
" />
<path d="M157.0524 30.6027
L156.1177 31.5374
" />
<path d="M156.1177 31.5374
L157.1303 31.5374
" />
<path d="M157.8313 31.5374
L157.8313 30.4469
" />
<path d="M157.8313 30.6027
L157.9092 30.5248
" />
<path d="M157.9092 30.5248
L158.0650 30.4469
" />
<path d="M158.0650 30.4469
L158.2987 30.4469
" />
<path d="M158.2987 30.4469
L158.4545 30.5248
" />
<path d="M158.4545 30.5248
L158.5324 30.6806
" />
<path d="M158.5324 30.6806
L158.5324 31.5374
" />
<path d="M158.5324 30.6806
L158.6103 30.5248
" />
<path d="M158.6103 30.5248
L158.7661 30.4469
" />
<path d="M158.7661 30.4469
L158.9997 30.4469
" />
<path d="M158.9997 30.4469
L159.1555 30.5248
" />
<path d="M159.1555 30.5248
L159.2334 30.6806
" />
<path d="M159.2334 30.6806
L159.2334 31.5374
" />
<path d="M160.0124 31.5374
L160.0124 30.4469
" />
<path d="M160.0124 30.6027
L160.0903 30.5248
" />
<path d="M160.0903 30.5248
L160.2460 30.4469
" />
<path d="M160.2460 30.4469
L160.4797 30.4469
" />
<path d="M160.4797 30.4469
L160.6355 30.5248
" />
<path d="M160.6355 30.5248
L160.7134 30.6806
" />
<path d="M160.7134 30.6806
L160.7134 31.5374
" />
<path d="M160.7134 30.6806
L160.7913 30.5248
" />
<path d="M160.7913 30.5248
L160.9471 30.4469
" />
<path d="M160.9471 30.4469
L161.1808 30.4469
" />
<path d="M161.1808 30.4469
L161.3365 30.5248
" />
<path d="M161.3365 30.5248
L161.4144 30.6806
" />
<path d="M161.4144 30.6806
L161.4144 31.5374
" />
<path d="M162.2713 31.4596
L162.2713 31.5374
" />
<path d="M162.2713 31.5374
L162.1934 31.6932
" />
<path d="M162.1934 31.6932
L162.1155 31.7711
" />
<path d="M165.0754 29.9796
L164.9196 29.9017
" />
<path d="M164.9196 29.9017
L164.6860 29.9017
" />
<path d="M164.6860 29.9017
L164.4523 29.9796
" />
<path d="M164.4523 29.9796
L164.2965 30.1354
" />
<path d="M164.2965 30.1354
L164.2186 30.2911
" />
<path d="M164.2186 30.2911
L164.1407 30.6027
" />
<path d="M164.1407 30.6027
L164.1407 30.8364
" />
<path d="M164.1407 30.8364
L164.2186 31.1480
" />
<path d="M164.2186 31.1480
L164.2965 31.3038
" />
<path d="M164.2965 31.3038
L164.4523 31.4596
" />
<path d="M164.4523 31.4596
L164.6860 31.5374
" />
<path d="M164.6860 31.5374
L164.8417 31.5374
" />
<path d="M164.8417 31.5374
L165.0754 31.4596
" />
<path d="M165.0754 31.4596
L165.1533 31.3817
" />
<path d="M165.1533 31.3817
L165.1533 30.8364
" />
<path d="M165.1533 30.8364
L164.8417 30.8364
" />
<path d="M165.8544 30.6806
L167.1007 30.6806
" />
<path d="M167.1007 31.1480
L165.8544 31.1480
" />
<path d="M168.1912 29.9017
L168.3469 29.9017
" />
<path d="M168.3469 29.9017
L168.5027 29.9796
" />
<path d="M168.5027 29.9796
L168.5806 30.0575
" />
<path d="M168.5806 30.0575
L168.6585 30.2133
" />
<path d="M168.6585 30.2133
L168.7364 30.5248
" />
<path d="M168.7364 30.5248
L168.7364 30.9143
" />
<path d="M168.7364 30.9143
L168.6585 31.2259
" />
<path d="M168.6585 31.2259
L168.5806 31.3817
" />
<path d="M168.5806 31.3817
L168.5027 31.4596
" />
<path d="M168.5027 31.4596
L168.3469 31.5374
" />
<path d="M168.3469 31.5374
L168.1912 31.5374
" />
<path d="M168.1912 31.5374
L168.0354 31.4596
" />
<path d="M168.0354 31.4596
L167.9575 31.3817
" />
<path d="M167.9575 31.3817
L167.8796 31.2259
" />
<path d="M167.8796 31.2259
L167.8017 30.9143
" />
<path d="M167.8017 30.9143
L167.8017 30.5248
" />
<path d="M167.8017 30.5248
L167.8796 30.2133
" />
<path d="M167.8796 30.2133
L167.9575 30.0575
" />
<path d="M167.9575 30.0575
L168.0354 29.9796
" />
<path d="M168.0354 29.9796
L168.1912 29.9017
" />
<path d="M169.4375 31.3817
L169.5153 31.4596
" />
<path d="M169.5153 31.4596
L169.4375 31.5374
" />
<path d="M169.4375 31.5374
L169.3596 31.4596
" />
<path d="M169.3596 31.4596
L169.4375 31.3817
" />
<path d="M169.4375 31.3817
L169.4375 31.5374
" />
<path d="M171.0732 31.5374
L170.1385 31.5374
" />
<path d="M170.6059 31.5374
L170.6059 29.9017
" />
<path d="M170.6059 29.9017
L170.4501 30.1354
" />
<path d="M170.4501 30.1354
L170.2943 30.2911
" />
<path d="M170.2943 30.2911
L170.1385 30.3690
" />
<path d="M172.5532 29.9017
L171.7743 29.9017
" />
<path d="M171.7743 29.9017
L171.6964 30.6806
" />
<path d="M171.6964 30.6806
L171.7743 30.6027
" />
<path d="M171.7743 30.6027
L171.9300 30.5248
" />
<path d="M171.9300 30.5248
L172.3195 30.5248
" />
<path d="M172.3195 30.5248
L172.4753 30.6027
" />
<path d="M172.4753 30.6027
L172.5532 30.6806
" />
<path d="M172.5532 30.6806
L172.6311 30.8364
" />
<path d="M172.6311 30.8364
L172.6311 31.2259
" />
<path d="M172.6311 31.2259
L172.5532 31.3817
" />
<path d="M172.5532 31.3817
L172.4753 31.4596
" />
<path d="M172.4753 31.4596
L172.3195 31.5374
" />
<path d="M172.3195 31.5374
L171.9300 31.5374
" />
<path d="M171.9300 31.5374
L171.7743 31.4596
" />
<path d="M171.7743 31.4596
L171.6964 31.3817
" />
<path d="M173.2542 30.0575
L173.3321 29.9796
" />
<path d="M173.3321 29.9796
L173.4879 29.9017
" />
<path d="M173.4879 29.9017
L173.8774 29.9017
" />
<path d="M173.8774 29.9017
L174.0332 29.9796
" />
<path d="M174.0332 29.9796
L174.1111 30.0575
" />
<path d="M174.1111 30.0575
L174.1889 30.2133
" />
<path d="M174.1889 30.2133
L174.1889 30.3690
" />
<path d="M174.1889 30.3690
L174.1111 30.6027
" />
<path d="M174.1111 30.6027
L173.1763 31.5374
" />
<path d="M173.1763 31.5374
L174.1889 31.5374
" />
<path d="M175.5910 30.4469
L175.5910 31.5374
" />
<path d="M175.2016 29.8238
L174.8121 30.9922
" />
<path d="M174.8121 30.9922
L175.8247 30.9922
" />
<path d="M176.4479 31.5374
L176.4479 30.4469
" />
<path d="M176.4479 30.6027
L176.5257 30.5248
" />
<path d="M176.5257 30.5248
L176.6815 30.4469
" />
<path d="M176.6815 30.4469
L176.9152 30.4469
" />
<path d="M176.9152 30.4469
L177.0710 30.5248
" />
<path d="M177.0710 30.5248
L177.1489 30.6806
" />
<path d="M177.1489 30.6806
L177.1489 31.5374
" />
<path d="M177.1489 30.6806
L177.2268 30.5248
" />
<path d="M177.2268 30.5248
L177.3826 30.4469
" />
<path d="M177.3826 30.4469
L177.6163 30.4469
" />
<path d="M177.6163 30.4469
L177.7720 30.5248
" />
<path d="M177.7720 30.5248
L177.8499 30.6806
" />
<path d="M177.8499 30.6806
L177.8499 31.5374
" />
<path d="M178.6289 31.5374
L178.6289 30.4469
" />
<path d="M178.6289 30.6027
L178.7068 30.5248
" />
<path d="M178.7068 30.5248
L178.8625 30.4469
" />
<path d="M178.8625 30.4469
L179.0962 30.4469
" />
<path d="M179.0962 30.4469
L179.2520 30.5248
" />
<path d="M179.2520 30.5248
L179.3299 30.6806
" />
<path d="M179.3299 30.6806
L179.3299 31.5374
" />
<path d="M179.3299 30.6806
L179.4078 30.5248
" />
<path d="M179.4078 30.5248
L179.5636 30.4469
" />
<path d="M179.5636 30.4469
L179.7973 30.4469
" />
<path d="M179.7973 30.4469
L179.9531 30.5248
" />
<path d="M179.9531 30.5248
L180.0309 30.6806
" />
<path d="M180.0309 30.6806
L180.0309 31.5374
" />
</g><text x="148.0011" y="34.3786"
textLength="36.0084" font-size="2.1810" lengthAdjust="spacingAndGlyphs"
text-anchor="start" opacity="0">Calculated Z=50.0773 Ohms</text>
<g class="stroked-text"><desc>Calculated Z=50.0773 Ohms</desc>
<path d="M149.4189 34.0152
L149.3410 34.0931
" />
<path d="M149.3410 34.0931
L149.1073 34.1710
" />
<path d="M149.1073 34.1710
L148.9515 34.1710
" />
<path d="M148.9515 34.1710
L148.7178 34.0931
" />
<path d="M148.7178 34.0931
L148.5620 33.9373
" />
<path d="M148.5620 33.9373
L148.4841 33.7815
" />
<path d="M148.4841 33.7815
L148.4063 33.4700
" />
<path d="M148.4063 33.4700
L148.4063 33.2363
" />
<path d="M148.4063 33.2363
L148.4841 32.9247
" />
<path d="M148.4841 32.9247
L148.5620 32.7689
" />
<path d="M148.5620 32.7689
L148.7178 32.6131
" />
<path d="M148.7178 32.6131
L148.9515 32.5353
" />
<path d="M148.9515 32.5353
L149.1073 32.5353
" />
<path d="M149.1073 32.5353
L149.3410 32.6131
" />
<path d="M149.3410 32.6131
L149.4189 32.6910
" />
<path d="M150.8209 34.1710
L150.8209 33.3142
" />
<path d="M150.8209 33.3142
L150.7431 33.1584
" />
<path d="M150.7431 33.1584
L150.5873 33.0805
" />
<path d="M150.5873 33.0805
L150.2757 33.0805
" />
<path d="M150.2757 33.0805
L150.1199 33.1584
" />
<path d="M150.8209 34.0931
L150.6652 34.1710
" />
<path d="M150.6652 34.1710
L150.2757 34.1710
" />
<path d="M150.2757 34.1710
L150.1199 34.0931
" />
<path d="M150.1199 34.0931
L150.0420 33.9373
" />
<path d="M150.0420 33.9373
L150.0420 33.7815
" />
<path d="M150.0420 33.7815
L150.1199 33.6258
" />
<path d="M150.1199 33.6258
L150.2757 33.5479
" />
<path d="M150.2757 33.5479
L150.6652 33.5479
" />
<path d="M150.6652 33.5479
L150.8209 33.4700
" />
<path d="M151.8336 34.1710
L151.6778 34.0931
" />
<path d="M151.6778 34.0931
L151.5999 33.9373
" />
<path d="M151.5999 33.9373
L151.5999 32.5353
" />
<path d="M153.1577 34.0931
L153.0020 34.1710
" />
<path d="M153.0020 34.1710
L152.6904 34.1710
" />
<path d="M152.6904 34.1710
L152.5346 34.0931
" />
<path d="M152.5346 34.0931
L152.4567 34.0152
" />
<path d="M152.4567 34.0152
L152.3788 33.8594
" />
<path d="M152.3788 33.8594
L152.3788 33.3921
" />
<path d="M152.3788 33.3921
L152.4567 33.2363
" />
<path d="M152.4567 33.2363
L152.5346 33.1584
" />
<path d="M152.5346 33.1584
L152.6904 33.0805
" />
<path d="M152.6904 33.0805
L153.0020 33.0805
" />
<path d="M153.0020 33.0805
L153.1577 33.1584
" />
<path d="M154.5598 33.0805
L154.5598 34.1710
" />
<path d="M153.8588 33.0805
L153.8588 33.9373
" />
<path d="M153.8588 33.9373
L153.9367 34.0931
" />
<path d="M153.9367 34.0931
L154.0925 34.1710
" />
<path d="M154.0925 34.1710
L154.3261 34.1710
" />
<path d="M154.3261 34.1710
L154.4819 34.0931
" />
<path d="M154.4819 34.0931
L154.5598 34.0152
" />
<path d="M155.5724 34.1710
L155.4167 34.0931
" />
<path d="M155.4167 34.0931
L155.3388 33.9373
" />
<path d="M155.3388 33.9373
L155.3388 32.5353
" />
<path d="M156.8966 34.1710
L156.8966 33.3142
" />
<path d="M156.8966 33.3142
L156.8187 33.1584
" />
<path d="M156.8187 33.1584
L156.6629 33.0805
" />
<path d="M156.6629 33.0805
L156.3514 33.0805
" />
<path d="M156.3514 33.0805
L156.1956 33.1584
" />
<path d="M156.8966 34.0931
L156.7408 34.1710
" />
<path d="M156.7408 34.1710
L156.3514 34.1710
" />
<path d="M156.3514 34.1710
L156.1956 34.0931
" />
<path d="M156.1956 34.0931
L156.1177 33.9373
" />
<path d="M156.1177 33.9373
L156.1177 33.7815
" />
<path d="M156.1177 33.7815
L156.1956 33.6258
" />
<path d="M156.1956 33.6258
L156.3514 33.5479
" />
<path d="M156.3514 33.5479
L156.7408 33.5479
" />
<path d="M156.7408 33.5479
L156.8966 33.4700
" />
<path d="M157.4419 33.0805
L158.0650 33.0805
" />
<path d="M157.6756 32.5353
L157.6756 33.9373
" />
<path d="M157.6756 33.9373
L157.7535 34.0931
" />
<path d="M157.7535 34.0931
L157.9092 34.1710
" />
<path d="M157.9092 34.1710
L158.0650 34.1710
" />
<path d="M159.2334 34.0931
L159.0776 34.1710
" />
<path d="M159.0776 34.1710
L158.7661 34.1710
" />
<path d="M158.7661 34.1710
L158.6103 34.0931
" />
<path d="M158.6103 34.0931
L158.5324 33.9373
" />
<path d="M158.5324 33.9373
L158.5324 33.3142
" />
<path d="M158.5324 33.3142
L158.6103 33.1584
" />
<path d="M158.6103 33.1584
L158.7661 33.0805
" />
<path d="M158.7661 33.0805
L159.0776 33.0805
" />
<path d="M159.0776 33.0805
L159.2334 33.1584
" />
<path d="M159.2334 33.1584
L159.3113 33.3142
" />
<path d="M159.3113 33.3142
L159.3113 33.4700
" />
<path d="M159.3113 33.4700
L158.5324 33.6258
" />
<path d="M160.7134 34.1710
L160.7134 32.5353
" />
<path d="M160.7134 34.0931
L160.5576 34.1710
" />
<path d="M160.5576 34.1710
L160.2460 34.1710
" />
<path d="M160.2460 34.1710
L160.0903 34.0931
" />
<path d="M160.0903 34.0931
L160.0124 34.0152
" />
<path d="M160.0124 34.0152
L159.9345 33.8594
" />
<path d="M159.9345 33.8594
L159.9345 33.3921
" />
<path d="M159.9345 33.3921
L160.0124 33.2363
" />
<path d="M160.0124 33.2363
L160.0903 33.1584
" />
<path d="M160.0903 33.1584
L160.2460 33.0805
" />
<path d="M160.2460 33.0805
L160.5576 33.0805
" />
<path d="M160.5576 33.0805
L160.7134 33.1584
" />
<path d="M162.5828 32.5353
L163.6733 32.5353
" />
<path d="M163.6733 32.5353
L162.5828 34.1710
" />
<path d="M162.5828 34.1710
L163.6733 34.1710
" />
<path d="M164.2965 33.3142
L165.5428 33.3142
" />
<path d="M165.5428 33.7815
L164.2965 33.7815
" />
<path d="M167.1007 32.5353
L166.3217 32.5353
" />
<path d="M166.3217 32.5353
L166.2438 33.3142
" />
<path d="M166.2438 33.3142
L166.3217 33.2363
" />
<path d="M166.3217 33.2363
L166.4775 33.1584
" />
<path d="M166.4775 33.1584
L166.8670 33.1584
" />
<path d="M166.8670 33.1584
L167.0228 33.2363
" />
<path d="M167.0228 33.2363
L167.1007 33.3142
" />
<path d="M167.1007 33.3142
L167.1785 33.4700
" />
<path d="M167.1785 33.4700
L167.1785 33.8594
" />
<path d="M167.1785 33.8594
L167.1007 34.0152
" />
<path d="M167.1007 34.0152
L167.0228 34.0931
" />
<path d="M167.0228 34.0931
L166.8670 34.1710
" />
<path d="M166.8670 34.1710
L166.4775 34.1710
" />
<path d="M166.4775 34.1710
L166.3217 34.0931
" />
<path d="M166.3217 34.0931
L166.2438 34.0152
" />
<path d="M168.1912 32.5353
L168.3469 32.5353
" />
<path d="M168.3469 32.5353
L168.5027 32.6131
" />
<path d="M168.5027 32.6131
L168.5806 32.6910
" />
<path d="M168.5806 32.6910
L168.6585 32.8468
" />
<path d="M168.6585 32.8468
L168.7364 33.1584
" />
<path d="M168.7364 33.1584
L168.7364 33.5479
" />
<path d="M168.7364 33.5479
L168.6585 33.8594
" />
<path d="M168.6585 33.8594
L168.5806 34.0152
" />
<path d="M168.5806 34.0152
L168.5027 34.0931
" />
<path d="M168.5027 34.0931
L168.3469 34.1710
" />
<path d="M168.3469 34.1710
L168.1912 34.1710
" />
<path d="M168.1912 34.1710
L168.0354 34.0931
" />
<path d="M168.0354 34.0931
L167.9575 34.0152
" />
<path d="M167.9575 34.0152
L167.8796 33.8594
" />
<path d="M167.8796 33.8594
L167.8017 33.5479
" />
<path d="M167.8017 33.5479
L167.8017 33.1584
" />
<path d="M167.8017 33.1584
L167.8796 32.8468
" />
<path d="M167.8796 32.8468
L167.9575 32.6910
" />
<path d="M167.9575 32.6910
L168.0354 32.6131
" />
<path d="M168.0354 32.6131
L168.1912 32.5353
" />
<path d="M169.4375 34.0152
L169.5153 34.0931
" />
<path d="M169.5153 34.0931
L169.4375 34.1710
" />
<path d="M169.4375 34.1710
L169.3596 34.0931
" />
<path d="M169.3596 34.0931
L169.4375 34.0152
" />
<path d="M169.4375 34.0152
L169.4375 34.1710
" />
<path d="M170.5280 32.5353
L170.6837 32.5353
" />
<path d="M170.6837 32.5353
L170.8395 32.6131
" />
<path d="M170.8395 32.6131
L170.9174 32.6910
" />
<path d="M170.9174 32.6910
L170.9953 32.8468
" />
<path d="M170.9953 32.8468
L171.0732 33.1584
" />
<path d="M171.0732 33.1584
L171.0732 33.5479
" />
<path d="M171.0732 33.5479
L170.9953 33.8594
" />
<path d="M170.9953 33.8594
L170.9174 34.0152
" />
<path d="M170.9174 34.0152
L170.8395 34.0931
" />
<path d="M170.8395 34.0931
L170.6837 34.1710
" />
<path d="M170.6837 34.1710
L170.5280 34.1710
" />
<path d="M170.5280 34.1710
L170.3722 34.0931
" />
<path d="M170.3722 34.0931
L170.2943 34.0152
" />
<path d="M170.2943 34.0152
L170.2164 33.8594
" />
<path d="M170.2164 33.8594
L170.1385 33.5479
" />
<path d="M170.1385 33.5479
L170.1385 33.1584
" />
<path d="M170.1385 33.1584
L170.2164 32.8468
" />
<path d="M170.2164 32.8468
L170.2943 32.6910
" />
<path d="M170.2943 32.6910
L170.3722 32.6131
" />
<path d="M170.3722 32.6131
L170.5280 32.5353
" />
<path d="M171.6185 32.5353
L172.7090 32.5353
" />
<path d="M172.7090 32.5353
L172.0079 34.1710
" />
<path d="M173.1763 32.5353
L174.2668 32.5353
" />
<path d="M174.2668 32.5353
L173.5658 34.1710
" />
<path d="M174.7342 32.5353
L175.7468 32.5353
" />
<path d="M175.7468 32.5353
L175.2016 33.1584
" />
<path d="M175.2016 33.1584
L175.4352 33.1584
" />
<path d="M175.4352 33.1584
L175.5910 33.2363
" />
<path d="M175.5910 33.2363
L175.6689 33.3142
" />
<path d="M175.6689 33.3142
L175.7468 33.4700
" />
<path d="M175.7468 33.4700
L175.7468 33.8594
" />
<path d="M175.7468 33.8594
L175.6689 34.0152
" />
<path d="M175.6689 34.0152
L175.5910 34.0931
" />
<path d="M175.5910 34.0931
L175.4352 34.1710
" />
<path d="M175.4352 34.1710
L174.9679 34.1710
" />
<path d="M174.9679 34.1710
L174.8121 34.0931
" />
<path d="M174.8121 34.0931
L174.7342 34.0152
" />
<path d="M178.0057 32.5353
L178.3173 32.5353
" />
<path d="M178.3173 32.5353
L178.4731 32.6131
" />
<path d="M178.4731 32.6131
L178.6289 32.7689
" />
<path d="M178.6289 32.7689
L178.7068 33.0805
" />
<path d="M178.7068 33.0805
L178.7068 33.6258
" />
<path d="M178.7068 33.6258
L178.6289 33.9373
" />
<path d="M178.6289 33.9373
L178.4731 34.0931
" />
<path d="M178.4731 34.0931
L178.3173 34.1710
" />
<path d="M178.3173 34.1710
L178.0057 34.1710
" />
<path d="M178.0057 34.1710
L177.8499 34.0931
" />
<path d="M177.8499 34.0931
L177.6941 33.9373
" />
<path d="M177.6941 33.9373
L177.6163 33.6258
" />
<path d="M177.6163 33.6258
L177.6163 33.0805
" />
<path d="M177.6163 33.0805
L177.6941 32.7689
" />
<path d="M177.6941 32.7689
L177.8499 32.6131
" />
<path d="M177.8499 32.6131
L178.0057 32.5353
" />
<path d="M179.4078 34.1710
L179.4078 32.5353
" />
<path d="M180.1088 34.1710
L180.1088 33.3142
" />
<path d="M180.1088 33.3142
L180.0309 33.1584
" />
<path d="M180.0309 33.1584
L179.8752 33.0805
" />
<path d="M179.8752 33.0805
L179.6415 33.0805
" />
<path d="M179.6415 33.0805
L179.4857 33.1584
" />
<path d="M179.4857 33.1584
L179.4078 33.2363
" />
<path d="M180.8878 34.1710
L180.8878 33.0805
" />
<path d="M180.8878 33.2363
L180.9657 33.1584
" />
<path d="M180.9657 33.1584
L181.1215 33.0805
" />
<path d="M181.1215 33.0805
L181.3551 33.0805
" />
<path d="M181.3551 33.0805
L181.5109 33.1584
" />
<path d="M181.5109 33.1584
L181.5888 33.3142
" />
<path d="M181.5888 33.3142
L181.5888 34.1710
" />
<path d="M181.5888 33.3142
L181.6667 33.1584
" />
<path d="M181.6667 33.1584
L181.8225 33.0805
" />
<path d="M181.8225 33.0805
L182.0562 33.0805
" />
<path d="M182.0562 33.0805
L182.2120 33.1584
" />
<path d="M182.2120 33.1584
L182.2899 33.3142
" />
<path d="M182.2899 33.3142
L182.2899 34.1710
" />
<path d="M182.9909 34.0931
L183.1467 34.1710
" />
<path d="M183.1467 34.1710
L183.4583 34.1710
" />
<path d="M183.4583 34.1710
L183.6140 34.0931
" />
<path d="M183.6140 34.0931
L183.6919 33.9373
" />
<path d="M183.6919 33.9373
L183.6919 33.8594
" />
<path d="M183.6919 33.8594
L183.6140 33.7037
" />
<path d="M183.6140 33.7037
L183.4583 33.6258
" />
<path d="M183.4583 33.6258
L183.2246 33.6258
" />
<path d="M183.2246 33.6258
L183.0688 33.5479
" />
<path d="M183.0688 33.5479
L182.9909 33.3921
" />
<path d="M182.9909 33.3921
L182.9909 33.3142
" />
<path d="M182.9909 33.3142
L183.0688 33.1584
" />
<path d="M183.0688 33.1584
L183.2246 33.0805
" />
<path d="M183.2246 33.0805
L183.4583 33.0805
" />
<path d="M183.4583 33.0805
L183.6140 33.1584
" />
</g><g transform="rotate(-90.000000 105.2231 105.0036)">
<text x="105.2231" y="105.8215"
textLength="14.2762" font-size="2.1810" lengthAdjust="spacingAndGlyphs"
text-anchor="middle" opacity="0">120.00 mm</text>
</g>
<g class="stroked-text"><desc>120.00 mm</desc>
<path d="M105.9724 110.8456
L105.9724 111.7803
" />
<path d="M105.9724 111.3130
L104.3367 111.3130
" />
<path d="M104.3367 111.3130
L104.5704 111.4687
" />
<path d="M104.5704 111.4687
L104.7261 111.6245
" />
<path d="M104.7261 111.6245
L104.8040 111.7803
" />
<path d="M104.4925 110.2225
L104.4146 110.1446
" />
<path d="M104.4146 110.1446
L104.3367 109.9888
" />
<path d="M104.3367 109.9888
L104.3367 109.5993
" />
<path d="M104.3367 109.5993
L104.4146 109.4435
" />
<path d="M104.4146 109.4435
L104.4925 109.3656
" />
<path d="M104.4925 109.3656
L104.6482 109.2877
" />
<path d="M104.6482 109.2877
L104.8040 109.2877
" />
<path d="M104.8040 109.2877
L105.0377 109.3656
" />
<path d="M105.0377 109.3656
L105.9724 110.3003
" />
<path d="M105.9724 110.3003
L105.9724 109.2877
" />
<path d="M104.3367 108.2751
L104.3367 108.1193
" />
<path d="M104.3367 108.1193
L104.4146 107.9635
" />
<path d="M104.4146 107.9635
L104.4925 107.8857
" />
<path d="M104.4925 107.8857
L104.6482 107.8078
" />
<path d="M104.6482 107.8078
L104.9598 107.7299
" />
<path d="M104.9598 107.7299
L105.3493 107.7299
" />
<path d="M105.3493 107.7299
L105.6609 107.8078
" />
<path d="M105.6609 107.8078
L105.8166 107.8857
" />
<path d="M105.8166 107.8857
L105.8945 107.9635
" />
<path d="M105.8945 107.9635
L105.9724 108.1193
" />
<path d="M105.9724 108.1193
L105.9724 108.2751
" />
<path d="M105.9724 108.2751
L105.8945 108.4309
" />
<path d="M105.8945 108.4309
L105.8166 108.5088
" />
<path d="M105.8166 108.5088
L105.6609 108.5867
" />
<path d="M105.6609 108.5867
L105.3493 108.6646
" />
<path d="M105.3493 108.6646
L104.9598 108.6646
" />
<path d="M104.9598 108.6646
L104.6482 108.5867
" />
<path d="M104.6482 108.5867
L104.4925 108.5088
" />
<path d="M104.4925 108.5088
L104.4146 108.4309
" />
<path d="M104.4146 108.4309
L104.3367 108.2751
" />
<path d="M105.8166 107.0288
L105.8945 106.9509
" />
<path d="M105.8945 106.9509
L105.9724 107.0288
" />
<path d="M105.9724 107.0288
L105.8945 107.1067
" />
<path d="M105.8945 107.1067
L105.8166 107.0288
" />
<path d="M105.8166 107.0288
L105.9724 107.0288
" />
<path d="M104.3367 105.9383
L104.3367 105.7825
" />
<path d="M104.3367 105.7825
L104.4146 105.6267
" />
<path d="M104.4146 105.6267
L104.4925 105.5489
" />
<path d="M104.4925 105.5489
L104.6482 105.4710
" />
<path d="M104.6482 105.4710
L104.9598 105.3931
" />
<path d="M104.9598 105.3931
L105.3493 105.3931
" />
<path d="M105.3493 105.3931
L105.6609 105.4710
" />
<path d="M105.6609 105.4710
L105.8166 105.5489
" />
<path d="M105.8166 105.5489
L105.8945 105.6267
" />
<path d="M105.8945 105.6267
L105.9724 105.7825
" />
<path d="M105.9724 105.7825
L105.9724 105.9383
" />
<path d="M105.9724 105.9383
L105.8945 106.0941
" />
<path d="M105.8945 106.0941
L105.8166 106.1720
" />
<path d="M105.8166 106.1720
L105.6609 106.2499
" />
<path d="M105.6609 106.2499
L105.3493 106.3278
" />
<path d="M105.3493 106.3278
L104.9598 106.3278
" />
<path d="M104.9598 106.3278
L104.6482 106.2499
" />
<path d="M104.6482 106.2499
L104.4925 106.1720
" />
<path d="M104.4925 106.1720
L104.4146 106.0941
" />
<path d="M104.4146 106.0941
L104.3367 105.9383
" />
<path d="M104.3367 104.3805
L104.3367 104.2247
" />
<path d="M104.3367 104.2247
L104.4146 104.0689
" />
<path d="M104.4146 104.0689
L104.4925 103.9910
" />
<path d="M104.4925 103.9910
L104.6482 103.9131
" />
<path d="M104.6482 103.9131
L104.9598 103.8352
" />
<path d="M104.9598 103.8352
L105.3493 103.8352
" />
<path d="M105.3493 103.8352
L105.6609 103.9131
" />
<path d="M105.6609 103.9131
L105.8166 103.9910
" />
<path d="M105.8166 103.9910
L105.8945 104.0689
" />
<path d="M105.8945 104.0689
L105.9724 104.2247
" />
<path d="M105.9724 104.2247
L105.9724 104.3805
" />
<path d="M105.9724 104.3805
L105.8945 104.5362
" />
<path d="M105.8945 104.5362
L105.8166 104.6141
" />
<path d="M105.8166 104.6141
L105.6609 104.6920
" />
<path d="M105.6609 104.6920
L105.3493 104.7699
" />
<path d="M105.3493 104.7699
L104.9598 104.7699
" />
<path d="M104.9598 104.7699
L104.6482 104.6920
" />
<path d="M104.6482 104.6920
L104.4925 104.6141
" />
<path d="M104.4925 104.6141
L104.4146 104.5362
" />
<path d="M104.4146 104.5362
L104.3367 104.3805
" />
<path d="M105.9724 101.8879
L104.8819 101.8879
" />
<path d="M105.0377 101.8879
L104.9598 101.8100
" />
<path d="M104.9598 101.8100
L104.8819 101.6542
" />
<path d="M104.8819 101.6542
L104.8819 101.4205
" />
<path d="M104.8819 101.4205
L104.9598 101.2647
" />
<path d="M104.9598 101.2647
L105.1156 101.1868
" />
<path d="M105.1156 101.1868
L105.9724 101.1868
" />
<path d="M105.1156 101.1868
L104.9598 101.1089
" />
<path d="M104.9598 101.1089
L104.8819 100.9531
" />
<path d="M104.8819 100.9531
L104.8819 100.7195
" />
<path d="M104.8819 100.7195
L104.9598 100.5637
" />
<path d="M104.9598 100.5637
L105.1156 100.4858
" />
<path d="M105.1156 100.4858
L105.9724 100.4858
" />
<path d="M105.9724 99.7069
L104.8819 99.7069
" />
<path d="M105.0377 99.7069
L104.9598 99.6290
" />
<path d="M104.9598 99.6290
L104.8819 99.4732
" />
<path d="M104.8819 99.4732
L104.8819 99.2395
" />
<path d="M104.8819 99.2395
L104.9598 99.0837
" />
<path d="M104.9598 99.0837
L105.1156 99.0058
" />
<path d="M105.1156 99.0058
L105.9724 99.0058
" />
<path d="M105.1156 99.0058
L104.9598 98.9279
" />
<path d="M104.9598 98.9279
L104.8819 98.7721
" />
<path d="M104.8819 98.7721
L104.8819 98.5385
" />
<path d="M104.8819 98.5385
L104.9598 98.3827
" />
<path d="M104.9598 98.3827
L105.1156 98.3048
" />
<path d="M105.1156 98.3048
L105.9724 98.3048
" />
</g></g>
<g style="fill:#000000; fill-opacity:0.0; 
stroke:#000000; stroke-width:0.1000; stroke-opacity:1; 
stroke-linecap:round; stroke-linejoin:round;">
<path d="M116.0011 165.0036
L106.4147 165.0036
" />
<path d="M116.0011 45.0036
L106.4147 45.0036
" />
<path d="M107.0011 165.0036
L107.0011 45.0036
" />
<path d="M107.0011 165.0036
L107.0011 45.0036
" />
<path d="M107.0011 165.0036
L106.4147 163.8771
" />
<path d="M107.0011 165.0036
L107.5875 163.8771
" />
<path d="M107.0011 45.0036
L107.5875 46.1301
" />
<path d="M107.0011 45.0036
L106.4147 46.1301
" />
</g>
<g style="fill:#000000; fill-opacity:0.0; 
stroke:#000000; stroke-width:0.1422; stroke-opacity:1; 
stroke-linecap:round; stroke-linejoin:round;">
<text x="148.5011" y="41.0435"
textLength="12.7183" font-size="2.1810" lengthAdjust="spacingAndGlyphs"
text-anchor="middle" opacity="0">75.00 mm</text>
<g class="stroked-text"><desc>75.00 mm</desc>
<path d="M142.4254 39.3392
L143.5159 39.3392
" />
<path d="M143.5159 39.3392
L142.8149 40.9749
" />
<path d="M144.9180 39.3392
L144.1391 39.3392
" />
<path d="M144.1391 39.3392
L144.0612 40.1181
" />
<path d="M144.0612 40.1181
L144.1391 40.0402
" />
<path d="M144.1391 40.0402
L144.2949 39.9623
" />
<path d="M144.2949 39.9623
L144.6843 39.9623
" />
<path d="M144.6843 39.9623
L144.8401 40.0402
" />
<path d="M144.8401 40.0402
L144.9180 40.1181
" />
<path d="M144.9180 40.1181
L144.9959 40.2739
" />
<path d="M144.9959 40.2739
L144.9959 40.6634
" />
<path d="M144.9959 40.6634
L144.9180 40.8192
" />
<path d="M144.9180 40.8192
L144.8401 40.8970
" />
<path d="M144.8401 40.8970
L144.6843 40.9749
" />
<path d="M144.6843 40.9749
L144.2949 40.9749
" />
<path d="M144.2949 40.9749
L144.1391 40.8970
" />
<path d="M144.1391 40.8970
L144.0612 40.8192
" />
<path d="M145.6969 40.8192
L145.7748 40.8970
" />
<path d="M145.7748 40.8970
L145.6969 40.9749
" />
<path d="M145.6969 40.9749
L145.6190 40.8970
" />
<path d="M145.6190 40.8970
L145.6969 40.8192
" />
<path d="M145.6969 40.8192
L145.6969 40.9749
" />
<path d="M146.7874 39.3392
L146.9432 39.3392
" />
<path d="M146.9432 39.3392
L147.0990 39.4171
" />
<path d="M147.0990 39.4171
L147.1769 39.4950
" />
<path d="M147.1769 39.4950
L147.2548 39.6507
" />
<path d="M147.2548 39.6507
L147.3327 39.9623
" />
<path d="M147.3327 39.9623
L147.3327 40.3518
" />
<path d="M147.3327 40.3518
L147.2548 40.6634
" />
<path d="M147.2548 40.6634
L147.1769 40.8192
" />
<path d="M147.1769 40.8192
L147.0990 40.8970
" />
<path d="M147.0990 40.8970
L146.9432 40.9749
" />
<path d="M146.9432 40.9749
L146.7874 40.9749
" />
<path d="M146.7874 40.9749
L146.6317 40.8970
" />
<path d="M146.6317 40.8970
L146.5538 40.8192
" />
<path d="M146.5538 40.8192
L146.4759 40.6634
" />
<path d="M146.4759 40.6634
L146.3980 40.3518
" />
<path d="M146.3980 40.3518
L146.3980 39.9623
" />
<path d="M146.3980 39.9623
L146.4759 39.6507
" />
<path d="M146.4759 39.6507
L146.5538 39.4950
" />
<path d="M146.5538 39.4950
L146.6317 39.4171
" />
<path d="M146.6317 39.4171
L146.7874 39.3392
" />
<path d="M148.3453 39.3392
L148.5011 39.3392
" />
<path d="M148.5011 39.3392
L148.6569 39.4171
" />
<path d="M148.6569 39.4171
L148.7348 39.4950
" />
<path d="M148.7348 39.4950
L148.8127 39.6507
" />
<path d="M148.8127 39.6507
L148.8906 39.9623
" />
<path d="M148.8906 39.9623
L148.8906 40.3518
" />
<path d="M148.8906 40.3518
L148.8127 40.6634
" />
<path d="M148.8127 40.6634
L148.7348 40.8192
" />
<path d="M148.7348 40.8192
L148.6569 40.8970
" />
<path d="M148.6569 40.8970
L148.5011 40.9749
" />
<path d="M148.5011 40.9749
L148.3453 40.9749
" />
<path d="M148.3453 40.9749
L148.1895 40.8970
" />
<path d="M148.1895 40.8970
L148.1116 40.8192
" />
<path d="M148.1116 40.8192
L148.0337 40.6634
" />
<path d="M148.0337 40.6634
L147.9558 40.3518
" />
<path d="M147.9558 40.3518
L147.9558 39.9623
" />
<path d="M147.9558 39.9623
L148.0337 39.6507
" />
<path d="M148.0337 39.6507
L148.1116 39.4950
" />
<path d="M148.1116 39.4950
L148.1895 39.4171
" />
<path d="M148.1895 39.4171
L148.3453 39.3392
" />
<path d="M150.8379 40.9749
L150.8379 39.8844
" />
<path d="M150.8379 40.0402
L150.9158 39.9623
" />
<path d="M150.9158 39.9623
L151.0716 39.8844
" />
<path d="M151.0716 39.8844
L151.3053 39.8844
" />
<path d="M151.3053 39.8844
L151.4610 39.9623
" />
<path d="M151.4610 39.9623
L151.5389 40.1181
" />
<path d="M151.5389 40.1181
L151.5389 40.9749
" />
<path d="M151.5389 40.1181
L151.6168 39.9623
" />
<path d="M151.6168 39.9623
L151.7726 39.8844
" />
<path d="M151.7726 39.8844
L152.0063 39.8844
" />
<path d="M152.0063 39.8844
L152.1621 39.9623
" />
<path d="M152.1621 39.9623
L152.2400 40.1181
" />
<path d="M152.2400 40.1181
L152.2400 40.9749
" />
<path d="M153.0189 40.9749
L153.0189 39.8844
" />
<path d="M153.0189 40.0402
L153.0968 39.9623
" />
<path d="M153.0968 39.9623
L153.2526 39.8844
" />
<path d="M153.2526 39.8844
L153.4863 39.8844
" />
<path d="M153.4863 39.8844
L153.6421 39.9623
" />
<path d="M153.6421 39.9623
L153.7200 40.1181
" />
<path d="M153.7200 40.1181
L153.7200 40.9749
" />
<path d="M153.7200 40.1181
L153.7978 39.9623
" />
<path d="M153.7978 39.9623
L153.9536 39.8844
" />
<path d="M153.9536 39.8844
L154.1873 39.8844
" />
<path d="M154.1873 39.8844
L154.3431 39.9623
" />
<path d="M154.3431 39.9623
L154.4210 40.1181
" />
<path d="M154.4210 40.1181
L154.4210 40.9749
" />
</g></g>
<g style="fill:#000000; fill-opacity:0.0; 
stroke:#000000; stroke-width:0.1000; stroke-opacity:1; 
stroke-linecap:round; stroke-linejoin:round;">
<path d="M111.0011 50.0036
L111.0011 41.4172
" />
<path d="M186.0011 50.0036
L186.0011 41.4172
" />
<path d="M111.0011 42.0036
L186.0011 42.0036
" />
<path d="M111.0011 42.0036
L186.0011 42.0036
" />
<path d="M111.0011 42.0036
L112.1276 41.4172
" />
<path d="M111.0011 42.0036
L112.1276 42.5900
" />
<path d="M186.0011 42.0036
L184.8746 42.5900
" />
<path d="M186.0011 42.0036
L184.8746 41.4172
" />
</g>
<g style="fill:#000000; fill-opacity:0.0; 
stroke:#000000; stroke-width:0.0488; stroke-opacity:1; 
stroke-linecap:round; stroke-linejoin:round;">
<g transform="rotate(-90.000000 178.6261 58.6436)">
<text x="178.6261" y="58.9240"
textLength="1.6098" font-size="0.7478" lengthAdjust="spacingAndGlyphs"
text-anchor="middle" opacity="0">Cap</text>
</g>
<g class="stroked-text"><desc>Cap</desc>
<path d="M178.8296 58.9774
L178.8563 59.0041
" />
<path d="M178.8563 59.0041
L178.8830 59.0843
" />
<path d="M178.8830 59.0843
L178.8830 59.1377
" />
<path d="M178.8830 59.1377
L178.8563 59.2178
" />
<path d="M178.8563 59.2178
L178.8029 59.2712
" />
<path d="M178.8029 59.2712
L178.7495 59.2979
" />
<path d="M178.7495 59.2979
L178.6427 59.3246
" />
<path d="M178.6427 59.3246
L178.5625 59.3246
" />
<path d="M178.5625 59.3246
L178.4557 59.2979
" />
<path d="M178.4557 59.2979
L178.4023 59.2712
" />
<path d="M178.4023 59.2712
L178.3489 59.2178
" />
<path d="M178.3489 59.2178
L178.3222 59.1377
" />
<path d="M178.3222 59.1377
L178.3222 59.0843
" />
<path d="M178.3222 59.0843
L178.3489 59.0041
" />
<path d="M178.3489 59.0041
L178.3756 58.9774
" />
<path d="M178.8830 58.4967
L178.5892 58.4967
" />
<path d="M178.5892 58.4967
L178.5358 58.5234
" />
<path d="M178.5358 58.5234
L178.5091 58.5768
" />
<path d="M178.5091 58.5768
L178.5091 58.6837
" />
<path d="M178.5091 58.6837
L178.5358 58.7371
" />
<path d="M178.8563 58.4967
L178.8830 58.5501
" />
<path d="M178.8830 58.5501
L178.8830 58.6837
" />
<path d="M178.8830 58.6837
L178.8563 58.7371
" />
<path d="M178.8563 58.7371
L178.8029 58.7638
" />
<path d="M178.8029 58.7638
L178.7495 58.7638
" />
<path d="M178.7495 58.7638
L178.6961 58.7371
" />
<path d="M178.6961 58.7371
L178.6694 58.6837
" />
<path d="M178.6694 58.6837
L178.6694 58.5501
" />
<path d="M178.6694 58.5501
L178.6427 58.4967
" />
<path d="M178.5091 58.2297
L179.0700 58.2297
" />
<path d="M178.5358 58.2297
L178.5091 58.1762
" />
<path d="M178.5091 58.1762
L178.5091 58.0694
" />
<path d="M178.5091 58.0694
L178.5358 58.0160
" />
<path d="M178.5358 58.0160
L178.5625 57.9893
" />
<path d="M178.5625 57.9893
L178.6160 57.9626
" />
<path d="M178.6160 57.9626
L178.7762 57.9626
" />
<path d="M178.7762 57.9626
L178.8296 57.9893
" />
<path d="M178.8296 57.9893
L178.8563 58.0160
" />
<path d="M178.8563 58.0160
L178.8830 58.0694
" />
<path d="M178.8830 58.0694
L178.8830 58.1762
" />
<path d="M178.8830 58.1762
L178.8563 58.2297
" />
</g></g>
<g style="fill:#000000; fill-opacity:0.0; 
stroke:#000000; stroke-width:0.1270; stroke-opacity:1; 
stroke-linecap:round; stroke-linejoin:round;">
<path d="M123.0011 52.3036
L149.0011 52.3036
" />
</g>
<g style="fill:#000000; fill-opacity:0.0; 
stroke:#000000; stroke-width:0.0762; stroke-opacity:1; 
stroke-linecap:round; stroke-linejoin:round;">
<path d="M128.0011 46.2036
L144.0011 46.2036
" />
<path d="M128.0011 70.2036
L128.0011 46.2036
" />
</g>
<g style="fill:#000000; fill-opacity:0.0; 
stroke:#000000; stroke-width:0.2540; stroke-opacity:1; 
stroke-linecap:round; stroke-linejoin:round;">
<path d="M129.5011 47.2036
L131.5011 47.2036
" />
<path d="M129.5011 52.7036
L129.5011 47.2036
" />
<path d="M130.0011 53.7036
L142.0011 53.7036
" />
<path d="M130.0011 68.2036
L130.0011 53.7036
" />
<path d="M131.5011 47.2036
L134.0011 47.2036
" />
<path d="M131.5011 52.7036
L131.5011 47.2036
" />
<path d="M134.0011 47.2036
L134.0011 49.7036
" />
<path d="M134.0011 49.7036
L136.0011 49.7036
" />
<path d="M136.0011 47.2036
L138.0011 47.2036
" />
<path d="M136.0011 49.7036
L136.0011 47.2036
" />
<path d="M138.0011 47.2036
L138.0011 49.7036
" />
<path d="M138.0011 49.7036
L140.0011 49.7036
" />
<path d="M140.0011 47.2036
L142.5011 47.2036
" />
<path d="M140.0011 49.7036
L140.0011 47.2036
" />
<path d="M142.0011 53.7036
L142.0011 68.2036
" />
<path d="M142.0011 68.2036
L130.0011 68.2036
" />
<path d="M142.5011 47.2036
L142.5011 50.7036
" />
</g>
<g style="fill:#000000; fill-opacity:0.0; 
stroke:#000000; stroke-width:0.0762; stroke-opacity:1; 
stroke-linecap:round; stroke-linejoin:round;">
<path d="M144.0011 46.2036
L144.0011 70.2036
" />
<path d="M144.0011 70.2036
L128.0011 70.2036
" />
<path d="M151.5011 53.5036
L157.5011 53.5036
" />
</g>
<g style="fill:#000000; fill-opacity:0.0; 
stroke:#000000; stroke-width:0.0500; stroke-opacity:1; 
stroke-linecap:round; stroke-linejoin:round;">
<path d="M153.5011 48.0036
L155.5011 48.0036
" />
<path d="M153.5011 48.1536
L155.5011 48.1536
" />
<path d="M153.5011 51.3536
L155.5011 51.3536
" />
<path d="M153.5011 51.5036
L155.5011 51.5036
" />
<path d="M155.5011 45.5036
L153.5011 45.5036
" />
<g >
</g>
<g >
</g>
<g >
</g>
<g >
</g>
<g >
</g>
<g >
</g>
<g >
</g>
<g >
</g>
<g >
</g>
<g >
</g>
<g >
</g>
<g >
</g>
<g >
</g>
<g >
</g>
<g >
</g>
<g >
</g>
<g >
</g>
<g >
</g>
<g >
</g>
<g >
</g>
<g >
</g>
<g >
</g>
<g >
</g>
<g >
</g>
<g >
</g>
<g >
</g>
<g >
</g>
<g >
</g>
<g >
</g>
<g >
</g>
<g >
</g>
<g >
</g>
<g >
</g>
<g >
</g>
<g >
</g>
<g >
</g>
<g >
</g>
<g >
</g>
<g >
</g>
<g >
</g>
<g >
</g>
<g >
</g>
<g >
</g>
<g >
</g>
<g >
</g>
<g >
</g>
<g >
</g>
<g >
</g>
<g >
</g>
<g >
</g>
<g >
</g>
<g >
</g>
<g >
</g>
<g >
</g>
<g >
</g>
<g >
</g>
<g >
</g>
<g >
</g>
<g >
</g>
<g >
</g>
<g >
</g>
<g >
</g>
<g >
</g>
<g >
</g>
<g >
</g>
<g >
</g>
<g >
</g>
<g >
</g>
<g >
</g>
<g >
</g>
<g >
</g>
<g >
</g>
<g >
</g>
<g >
</g>
<g >
</g>
<g >
</g>
<g >
</g>
<g >
</g>
<g >
</g>
</g> 
</svg>
