<?xml version="1.0" standalone="no"?>
 <!DOCTYPE svg PUBLIC "-//W3C//DTD SVG 1.1//EN" 
 "http://www.w3.org/Graphics/SVG/1.1/DTD/svg11.dtd"> 
<svg
  xmlns:svg="http://www.w3.org/2000/svg"
  xmlns="http://www.w3.org/2000/svg"
  xmlns:xlink="http://www.w3.org/1999/xlink"
  version="1.1"
  width="297.0022mm" height="210.0072mm" viewBox="0.0000 0.0000 297.0022 210.0072">
<title>SVG Image created as working-B_Paste.svg date 2023/08/07 18:14:23 </title>
  <desc>Image generated by PCBNEW </desc>
<g style="fill:#000000; fill-opacity:1.0000;stroke:#000000; stroke-opacity:1.0000;
stroke-linecap:round; stroke-linejoin:round;"
 transform="translate(0 0) scale(1 1)">
</g>
<g style="fill:#000000; fill-opacity:0.0; 
stroke:#000000; stroke-width:0.0000; stroke-opacity:1; 
stroke-linecap:round; stroke-linejoin:round;">
<g >
</g>
<g >
</g>
<g >
</g>
<g >
</g>
<g >
</g>
<g >
</g>
<g >
</g>
<g >
</g>
<g >
</g>
<g >
</g>
<g style="fill:#000000; fill-opacity:0.0; 
stroke:#000000; stroke-width:0.0000; stroke-opacity:1; 
stroke-linecap:round; stroke-linejoin:round;">
</g>
<g style="fill:#000000; fill-opacity:0.0; 
stroke:#000000; stroke-width:0.0000; stroke-opacity:1; 
stroke-linecap:round; stroke-linejoin:round;">
</g>
<g style="fill:#000000; fill-opacity:1.0000; 
stroke:#000000; stroke-width:0.0000; stroke-opacity:1; 
stroke-linecap:round; stroke-linejoin:round;">
<path style="fill:#000000; fill-opacity:1.0000; 
stroke:#000000; stroke-width:0.0000; stroke-opacity:1; 
stroke-linecap:round; stroke-linejoin:round;fill-rule:evenodd;"
d="M 143.3211,159.2136
143.4274,159.2022
143.5607,159.1524
143.6747,159.0672
143.7599,158.9532
143.8097,158.8199
143.8211,158.7136
143.8211,157.6136
143.8097,157.5073
143.7599,157.3740
143.6747,157.2600
143.5607,157.1748
143.4274,157.1250
143.3211,157.1136
143.2148,157.1250
143.0815,157.1748
142.9675,157.2600
142.8823,157.3740
142.8325,157.5073
142.8211,157.6136
142.8211,158.7136
142.8325,158.8199
142.8823,158.9532
142.9675,159.0672
143.0815,159.1524
143.2148,159.2022
143.3211,159.2136
Z" /> 
<path style="fill:#000000; fill-opacity:1.0000; 
stroke:#000000; stroke-width:0.0000; stroke-opacity:1; 
stroke-linecap:round; stroke-linejoin:round;fill-rule:evenodd;"
d="M 143.3211,163.1436
143.4274,163.1322
143.5607,163.0824
143.6747,162.9972
143.7599,162.8832
143.8097,162.7499
143.8211,162.6436
143.8211,162.0436
143.8097,161.9373
143.7599,161.8040
143.6747,161.6900
143.5607,161.6048
143.4274,161.5550
143.3211,161.5436
143.2148,161.5550
143.0815,161.6048
142.9675,161.6900
142.8823,161.8040
142.8325,161.9373
142.8211,162.0436
142.8211,162.6436
142.8325,162.7499
142.8823,162.8832
142.9675,162.9972
143.0815,163.0824
143.2148,163.1322
143.3211,163.1436
Z" /> 
<path style="fill:#000000; fill-opacity:1.0000; 
stroke:#000000; stroke-width:0.0000; stroke-opacity:1; 
stroke-linecap:round; stroke-linejoin:round;fill-rule:evenodd;"
d="M 134.6811,163.1436
134.7874,163.1322
134.9207,163.0824
135.0347,162.9972
135.1199,162.8832
135.1697,162.7499
135.1811,162.6436
135.1811,162.0436
135.1697,161.9373
135.1199,161.8040
135.0347,161.6900
134.9207,161.6048
134.7874,161.5550
134.6811,161.5436
134.5748,161.5550
134.4415,161.6048
134.3275,161.6900
134.2423,161.8040
134.1925,161.9373
134.1811,162.0436
134.1811,162.6436
134.1925,162.7499
134.2423,162.8832
134.3275,162.9972
134.4415,163.0824
134.5748,163.1322
134.6811,163.1436
Z" /> 
<path style="fill:#000000; fill-opacity:1.0000; 
stroke:#000000; stroke-width:0.0000; stroke-opacity:1; 
stroke-linecap:round; stroke-linejoin:round;fill-rule:evenodd;"
d="M 134.6811,159.2136
134.7874,159.2022
134.9207,159.1524
135.0347,159.0672
135.1199,158.9532
135.1697,158.8199
135.1811,158.7136
135.1811,157.6136
135.1697,157.5073
135.1199,157.3740
135.0347,157.2600
134.9207,157.1748
134.7874,157.1250
134.6811,157.1136
134.5748,157.1250
134.4415,157.1748
134.3275,157.2600
134.2423,157.3740
134.1925,157.5073
134.1811,157.6136
134.1811,158.7136
134.1925,158.8199
134.2423,158.9532
134.3275,159.0672
134.4415,159.1524
134.5748,159.2022
134.6811,159.2136
Z" /> 
</g>
<g >
</g>
<g >
</g>
<g >
</g>
<g >
</g>
<g >
</g>
<g >
</g>
<g >
</g>
<g >
</g>
<g >
</g>
<g >
</g>
<g >
</g>
<g >
</g>
<g >
</g>
<g >
</g>
<g >
</g>
<g >
</g>
<g >
</g>
<g >
</g>
<g >
</g>
<g >
</g>
<g >
</g>
<g >
</g>
<g >
</g>
<g >
</g>
<g >
</g>
<g >
</g>
<g >
</g>
<g >
</g>
<g >
</g>
<g >
</g>
<g >
</g>
<g >
</g>
<g >
</g>
<g >
</g>
<g >
</g>
<g >
</g>
<g >
</g>
<g >
</g>
<g >
</g>
<g >
</g>
<g >
</g>
<g >
</g>
<g >
</g>
<g >
</g>
<g >
</g>
<g >
</g>
<g >
</g>
<g >
</g>
<g >
</g>
<g >
</g>
<g >
</g>
<g >
</g>
<g >
</g>
<g >
</g>
<g >
</g>
<g >
</g>
<g >
</g>
<g >
</g>
<g >
</g>
<g >
</g>
<g >
</g>
<g >
</g>
<g >
</g>
<g >
</g>
<g >
</g>
<g >
</g>
<g >
</g>
<g >
</g>
<g >
</g>
</g> 
</svg>
