<?xml version="1.0" standalone="no"?>
 <!DOCTYPE svg PUBLIC "-//W3C//DTD SVG 1.1//EN" 
 "http://www.w3.org/Graphics/SVG/1.1/DTD/svg11.dtd"> 
<svg
  xmlns:svg="http://www.w3.org/2000/svg"
  xmlns="http://www.w3.org/2000/svg"
  xmlns:xlink="http://www.w3.org/1999/xlink"
  version="1.1"
  width="297.0022mm" height="210.0072mm" viewBox="0.0000 0.0000 297.0022 210.0072">
<title>SVG Image created as working-User_Comments.svg date 2023/08/07 18:14:23 </title>
  <desc>Image generated by PCBNEW </desc>
<g style="fill:#000000; fill-opacity:1.0000;stroke:#000000; stroke-opacity:1.0000;
stroke-linecap:round; stroke-linejoin:round;"
 transform="translate(0 0) scale(1 1)">
</g>
<g style="fill:#000000; fill-opacity:0.0; 
stroke:#000000; stroke-width:0.0000; stroke-opacity:1; 
stroke-linecap:round; stroke-linejoin:round;">
</g>
<g style="fill:#000000; fill-opacity:0.0; 
stroke:#000000; stroke-width:0.1524; stroke-opacity:1; 
stroke-linecap:round; stroke-linejoin:round;">
<path d="M151.0011 71.0036
L151.0011 36.5036
" />
<path d="M176.0011 79.0036
L176.0011 115.0036
" />
<path d="M188.0011 78.0036
L109.0011 78.0036
" />
</g>
<g style="fill:#000000; fill-opacity:0.0; 
stroke:#000000; stroke-width:0.0762; stroke-opacity:1; 
stroke-linecap:round; stroke-linejoin:round;">
<circle cx="118.2511" cy="120.5036" r="0.5000" /> 
</g>
<g style="fill:#000000; fill-opacity:0.0; 
stroke:#000000; stroke-width:0.1524; stroke-opacity:1; 
stroke-linecap:round; stroke-linejoin:round;">
<circle cx="148.5011" cy="52.5036" r="3.0000" /> 
<path d="M134.7511 71.0036
L134.7511 36.5036
" />
<path d="M192.0011 71.0036
L151.0011 71.0036
" />
<path d="M121.0011 115.0036
L121.0011 79.0036
" />
<path d="M156.0011 158.7536 A38.2500 38.2500 0.0 0 0 117.7511 120.5036" />
<path d="M176.0011 115.0036
L121.0011 115.0036
" />
<path d="M151.0011 71.0036
L107.0011 71.0036
" />
<path d="M121.0011 79.0036
L176.0011 79.0036
" />
</g>
<g style="fill:#000000; fill-opacity:0.0; 
stroke:#000000; stroke-width:0.1422; stroke-opacity:1; 
stroke-linecap:round; stroke-linejoin:round;">
<text x="149.0011" y="26.4779"
textLength="28.9980" font-size="2.1810" lengthAdjust="spacingAndGlyphs"
text-anchor="start" opacity="0">CPWG 50 Ohm Params:</text>
<g class="stroked-text"><desc>CPWG 50 Ohm Params:</desc>
<path d="M147.5833 26.1145
L147.6612 26.1924
" />
<path d="M147.6612 26.1924
L147.8949 26.2703
" />
<path d="M147.8949 26.2703
L148.0507 26.2703
" />
<path d="M148.0507 26.2703
L148.2844 26.1924
" />
<path d="M148.2844 26.1924
L148.4402 26.0366
" />
<path d="M148.4402 26.0366
L148.5181 25.8808
" />
<path d="M148.5181 25.8808
L148.5959 25.5693
" />
<path d="M148.5959 25.5693
L148.5959 25.3356
" />
<path d="M148.5959 25.3356
L148.5181 25.0240
" />
<path d="M148.5181 25.0240
L148.4402 24.8682
" />
<path d="M148.4402 24.8682
L148.2844 24.7124
" />
<path d="M148.2844 24.7124
L148.0507 24.6345
" />
<path d="M148.0507 24.6345
L147.8949 24.6345
" />
<path d="M147.8949 24.6345
L147.6612 24.7124
" />
<path d="M147.6612 24.7124
L147.5833 24.7903
" />
<path d="M146.8823 26.2703
L146.8823 24.6345
" />
<path d="M146.8823 24.6345
L146.2591 24.6345
" />
<path d="M146.2591 24.6345
L146.1034 24.7124
" />
<path d="M146.1034 24.7124
L146.0255 24.7903
" />
<path d="M146.0255 24.7903
L145.9476 24.9461
" />
<path d="M145.9476 24.9461
L145.9476 25.1798
" />
<path d="M145.9476 25.1798
L146.0255 25.3356
" />
<path d="M146.0255 25.3356
L146.1034 25.4135
" />
<path d="M146.1034 25.4135
L146.2591 25.4914
" />
<path d="M146.2591 25.4914
L146.8823 25.4914
" />
<path d="M145.4023 24.6345
L145.0129 26.2703
" />
<path d="M145.0129 26.2703
L144.7013 25.1019
" />
<path d="M144.7013 25.1019
L144.3897 26.2703
" />
<path d="M144.3897 26.2703
L144.0002 24.6345
" />
<path d="M142.5203 24.7124
L142.6761 24.6345
" />
<path d="M142.6761 24.6345
L142.9097 24.6345
" />
<path d="M142.9097 24.6345
L143.1434 24.7124
" />
<path d="M143.1434 24.7124
L143.2992 24.8682
" />
<path d="M143.2992 24.8682
L143.3771 25.0240
" />
<path d="M143.3771 25.0240
L143.4550 25.3356
" />
<path d="M143.4550 25.3356
L143.4550 25.5693
" />
<path d="M143.4550 25.5693
L143.3771 25.8808
" />
<path d="M143.3771 25.8808
L143.2992 26.0366
" />
<path d="M143.2992 26.0366
L143.1434 26.1924
" />
<path d="M143.1434 26.1924
L142.9097 26.2703
" />
<path d="M142.9097 26.2703
L142.7539 26.2703
" />
<path d="M142.7539 26.2703
L142.5203 26.1924
" />
<path d="M142.5203 26.1924
L142.4424 26.1145
" />
<path d="M142.4424 26.1145
L142.4424 25.5693
" />
<path d="M142.4424 25.5693
L142.7539 25.5693
" />
<path d="M139.7161 24.6345
L140.4950 24.6345
" />
<path d="M140.4950 24.6345
L140.5729 25.4135
" />
<path d="M140.5729 25.4135
L140.4950 25.3356
" />
<path d="M140.4950 25.3356
L140.3393 25.2577
" />
<path d="M140.3393 25.2577
L139.9498 25.2577
" />
<path d="M139.9498 25.2577
L139.7940 25.3356
" />
<path d="M139.7940 25.3356
L139.7161 25.4135
" />
<path d="M139.7161 25.4135
L139.6382 25.5693
" />
<path d="M139.6382 25.5693
L139.6382 25.9587
" />
<path d="M139.6382 25.9587
L139.7161 26.1145
" />
<path d="M139.7161 26.1145
L139.7940 26.1924
" />
<path d="M139.7940 26.1924
L139.9498 26.2703
" />
<path d="M139.9498 26.2703
L140.3393 26.2703
" />
<path d="M140.3393 26.2703
L140.4950 26.1924
" />
<path d="M140.4950 26.1924
L140.5729 26.1145
" />
<path d="M138.6256 24.6345
L138.4698 24.6345
" />
<path d="M138.4698 24.6345
L138.3140 24.7124
" />
<path d="M138.3140 24.7124
L138.2361 24.7903
" />
<path d="M138.2361 24.7903
L138.1582 24.9461
" />
<path d="M138.1582 24.9461
L138.0803 25.2577
" />
<path d="M138.0803 25.2577
L138.0803 25.6471
" />
<path d="M138.0803 25.6471
L138.1582 25.9587
" />
<path d="M138.1582 25.9587
L138.2361 26.1145
" />
<path d="M138.2361 26.1145
L138.3140 26.1924
" />
<path d="M138.3140 26.1924
L138.4698 26.2703
" />
<path d="M138.4698 26.2703
L138.6256 26.2703
" />
<path d="M138.6256 26.2703
L138.7814 26.1924
" />
<path d="M138.7814 26.1924
L138.8593 26.1145
" />
<path d="M138.8593 26.1145
L138.9372 25.9587
" />
<path d="M138.9372 25.9587
L139.0151 25.6471
" />
<path d="M139.0151 25.6471
L139.0151 25.2577
" />
<path d="M139.0151 25.2577
L138.9372 24.9461
" />
<path d="M138.9372 24.9461
L138.8593 24.7903
" />
<path d="M138.8593 24.7903
L138.7814 24.7124
" />
<path d="M138.7814 24.7124
L138.6256 24.6345
" />
<path d="M135.8214 24.6345
L135.5099 24.6345
" />
<path d="M135.5099 24.6345
L135.3541 24.7124
" />
<path d="M135.3541 24.7124
L135.1983 24.8682
" />
<path d="M135.1983 24.8682
L135.1204 25.1798
" />
<path d="M135.1204 25.1798
L135.1204 25.7250
" />
<path d="M135.1204 25.7250
L135.1983 26.0366
" />
<path d="M135.1983 26.0366
L135.3541 26.1924
" />
<path d="M135.3541 26.1924
L135.5099 26.2703
" />
<path d="M135.5099 26.2703
L135.8214 26.2703
" />
<path d="M135.8214 26.2703
L135.9772 26.1924
" />
<path d="M135.9772 26.1924
L136.1330 26.0366
" />
<path d="M136.1330 26.0366
L136.2109 25.7250
" />
<path d="M136.2109 25.7250
L136.2109 25.1798
" />
<path d="M136.2109 25.1798
L136.1330 24.8682
" />
<path d="M136.1330 24.8682
L135.9772 24.7124
" />
<path d="M135.9772 24.7124
L135.8214 24.6345
" />
<path d="M134.4194 26.2703
L134.4194 24.6345
" />
<path d="M133.7183 26.2703
L133.7183 25.4135
" />
<path d="M133.7183 25.4135
L133.7962 25.2577
" />
<path d="M133.7962 25.2577
L133.9520 25.1798
" />
<path d="M133.9520 25.1798
L134.1857 25.1798
" />
<path d="M134.1857 25.1798
L134.3415 25.2577
" />
<path d="M134.3415 25.2577
L134.4194 25.3356
" />
<path d="M132.9394 26.2703
L132.9394 25.1798
" />
<path d="M132.9394 25.3356
L132.8615 25.2577
" />
<path d="M132.8615 25.2577
L132.7057 25.1798
" />
<path d="M132.7057 25.1798
L132.4720 25.1798
" />
<path d="M132.4720 25.1798
L132.3162 25.2577
" />
<path d="M132.3162 25.2577
L132.2383 25.4135
" />
<path d="M132.2383 25.4135
L132.2383 26.2703
" />
<path d="M132.2383 25.4135
L132.1605 25.2577
" />
<path d="M132.1605 25.2577
L132.0047 25.1798
" />
<path d="M132.0047 25.1798
L131.7710 25.1798
" />
<path d="M131.7710 25.1798
L131.6152 25.2577
" />
<path d="M131.6152 25.2577
L131.5373 25.4135
" />
<path d="M131.5373 25.4135
L131.5373 26.2703
" />
<path d="M129.5121 26.2703
L129.5121 24.6345
" />
<path d="M129.5121 24.6345
L128.8889 24.6345
" />
<path d="M128.8889 24.6345
L128.7331 24.7124
" />
<path d="M128.7331 24.7124
L128.6553 24.7903
" />
<path d="M128.6553 24.7903
L128.5774 24.9461
" />
<path d="M128.5774 24.9461
L128.5774 25.1798
" />
<path d="M128.5774 25.1798
L128.6553 25.3356
" />
<path d="M128.6553 25.3356
L128.7331 25.4135
" />
<path d="M128.7331 25.4135
L128.8889 25.4914
" />
<path d="M128.8889 25.4914
L129.5121 25.4914
" />
<path d="M127.1753 26.2703
L127.1753 25.4135
" />
<path d="M127.1753 25.4135
L127.2532 25.2577
" />
<path d="M127.2532 25.2577
L127.4090 25.1798
" />
<path d="M127.4090 25.1798
L127.7205 25.1798
" />
<path d="M127.7205 25.1798
L127.8763 25.2577
" />
<path d="M127.1753 26.1924
L127.3311 26.2703
" />
<path d="M127.3311 26.2703
L127.7205 26.2703
" />
<path d="M127.7205 26.2703
L127.8763 26.1924
" />
<path d="M127.8763 26.1924
L127.9542 26.0366
" />
<path d="M127.9542 26.0366
L127.9542 25.8808
" />
<path d="M127.9542 25.8808
L127.8763 25.7250
" />
<path d="M127.8763 25.7250
L127.7205 25.6471
" />
<path d="M127.7205 25.6471
L127.3311 25.6471
" />
<path d="M127.3311 25.6471
L127.1753 25.5693
" />
<path d="M126.3964 26.2703
L126.3964 25.1798
" />
<path d="M126.3964 25.4914
L126.3185 25.3356
" />
<path d="M126.3185 25.3356
L126.2406 25.2577
" />
<path d="M126.2406 25.2577
L126.0848 25.1798
" />
<path d="M126.0848 25.1798
L125.9290 25.1798
" />
<path d="M124.6827 26.2703
L124.6827 25.4135
" />
<path d="M124.6827 25.4135
L124.7606 25.2577
" />
<path d="M124.7606 25.2577
L124.9164 25.1798
" />
<path d="M124.9164 25.1798
L125.2280 25.1798
" />
<path d="M125.2280 25.1798
L125.3837 25.2577
" />
<path d="M124.6827 26.1924
L124.8385 26.2703
" />
<path d="M124.8385 26.2703
L125.2280 26.2703
" />
<path d="M125.2280 26.2703
L125.3837 26.1924
" />
<path d="M125.3837 26.1924
L125.4616 26.0366
" />
<path d="M125.4616 26.0366
L125.4616 25.8808
" />
<path d="M125.4616 25.8808
L125.3837 25.7250
" />
<path d="M125.3837 25.7250
L125.2280 25.6471
" />
<path d="M125.2280 25.6471
L124.8385 25.6471
" />
<path d="M124.8385 25.6471
L124.6827 25.5693
" />
<path d="M123.9038 26.2703
L123.9038 25.1798
" />
<path d="M123.9038 25.3356
L123.8259 25.2577
" />
<path d="M123.8259 25.2577
L123.6701 25.1798
" />
<path d="M123.6701 25.1798
L123.4364 25.1798
" />
<path d="M123.4364 25.1798
L123.2806 25.2577
" />
<path d="M123.2806 25.2577
L123.2027 25.4135
" />
<path d="M123.2027 25.4135
L123.2027 26.2703
" />
<path d="M123.2027 25.4135
L123.1248 25.2577
" />
<path d="M123.1248 25.2577
L122.9690 25.1798
" />
<path d="M122.9690 25.1798
L122.7354 25.1798
" />
<path d="M122.7354 25.1798
L122.5796 25.2577
" />
<path d="M122.5796 25.2577
L122.5017 25.4135
" />
<path d="M122.5017 25.4135
L122.5017 26.2703
" />
<path d="M121.8006 26.1924
L121.6449 26.2703
" />
<path d="M121.6449 26.2703
L121.3333 26.2703
" />
<path d="M121.3333 26.2703
L121.1775 26.1924
" />
<path d="M121.1775 26.1924
L121.0996 26.0366
" />
<path d="M121.0996 26.0366
L121.0996 25.9587
" />
<path d="M121.0996 25.9587
L121.1775 25.8029
" />
<path d="M121.1775 25.8029
L121.3333 25.7250
" />
<path d="M121.3333 25.7250
L121.5670 25.7250
" />
<path d="M121.5670 25.7250
L121.7228 25.6471
" />
<path d="M121.7228 25.6471
L121.8006 25.4914
" />
<path d="M121.8006 25.4914
L121.8006 25.4135
" />
<path d="M121.8006 25.4135
L121.7228 25.2577
" />
<path d="M121.7228 25.2577
L121.5670 25.1798
" />
<path d="M121.5670 25.1798
L121.3333 25.1798
" />
<path d="M121.3333 25.1798
L121.1775 25.2577
" />
<path d="M120.3986 26.1145
L120.3207 26.1924
" />
<path d="M120.3207 26.1924
L120.3986 26.2703
" />
<path d="M120.3986 26.2703
L120.4765 26.1924
" />
<path d="M120.4765 26.1924
L120.3986 26.1145
" />
<path d="M120.3986 26.1145
L120.3986 26.2703
" />
<path d="M120.3986 25.2577
L120.3207 25.3356
" />
<path d="M120.3207 25.3356
L120.3986 25.4135
" />
<path d="M120.3986 25.4135
L120.4765 25.3356
" />
<path d="M120.4765 25.3356
L120.3986 25.2577
" />
<path d="M120.3986 25.2577
L120.3986 25.4135
" />
</g><text x="149.0011" y="29.1115"
textLength="44.4988" font-size="2.1810" lengthAdjust="spacingAndGlyphs"
text-anchor="start" opacity="0">H=1.2mm, Er=4.6 (FR-4 standard)</text>
<g class="stroked-text"><desc>H=1.2mm, Er=4.6 (FR-4 standard)</desc>
<path d="M148.5181 28.9039
L148.5181 27.2681
" />
<path d="M148.5181 28.0470
L147.5833 28.0470
" />
<path d="M147.5833 28.9039
L147.5833 27.2681
" />
<path d="M146.8044 28.0470
L145.5581 28.0470
" />
<path d="M145.5581 28.5144
L146.8044 28.5144
" />
<path d="M143.9223 28.9039
L144.8571 28.9039
" />
<path d="M144.3897 28.9039
L144.3897 27.2681
" />
<path d="M144.3897 27.2681
L144.5455 27.5018
" />
<path d="M144.5455 27.5018
L144.7013 27.6576
" />
<path d="M144.7013 27.6576
L144.8571 27.7355
" />
<path d="M143.2213 28.7481
L143.1434 28.8260
" />
<path d="M143.1434 28.8260
L143.2213 28.9039
" />
<path d="M143.2213 28.9039
L143.2992 28.8260
" />
<path d="M143.2992 28.8260
L143.2213 28.7481
" />
<path d="M143.2213 28.7481
L143.2213 28.9039
" />
<path d="M142.5203 27.4239
L142.4424 27.3460
" />
<path d="M142.4424 27.3460
L142.2866 27.2681
" />
<path d="M142.2866 27.2681
L141.8971 27.2681
" />
<path d="M141.8971 27.2681
L141.7413 27.3460
" />
<path d="M141.7413 27.3460
L141.6634 27.4239
" />
<path d="M141.6634 27.4239
L141.5855 27.5797
" />
<path d="M141.5855 27.5797
L141.5855 27.7355
" />
<path d="M141.5855 27.7355
L141.6634 27.9691
" />
<path d="M141.6634 27.9691
L142.5982 28.9039
" />
<path d="M142.5982 28.9039
L141.5855 28.9039
" />
<path d="M140.8845 28.9039
L140.8845 27.8134
" />
<path d="M140.8845 27.9691
L140.8066 27.8913
" />
<path d="M140.8066 27.8913
L140.6508 27.8134
" />
<path d="M140.6508 27.8134
L140.4171 27.8134
" />
<path d="M140.4171 27.8134
L140.2614 27.8913
" />
<path d="M140.2614 27.8913
L140.1835 28.0470
" />
<path d="M140.1835 28.0470
L140.1835 28.9039
" />
<path d="M140.1835 28.0470
L140.1056 27.8913
" />
<path d="M140.1056 27.8913
L139.9498 27.8134
" />
<path d="M139.9498 27.8134
L139.7161 27.8134
" />
<path d="M139.7161 27.8134
L139.5603 27.8913
" />
<path d="M139.5603 27.8913
L139.4824 28.0470
" />
<path d="M139.4824 28.0470
L139.4824 28.9039
" />
<path d="M138.7035 28.9039
L138.7035 27.8134
" />
<path d="M138.7035 27.9691
L138.6256 27.8913
" />
<path d="M138.6256 27.8913
L138.4698 27.8134
" />
<path d="M138.4698 27.8134
L138.2361 27.8134
" />
<path d="M138.2361 27.8134
L138.0803 27.8913
" />
<path d="M138.0803 27.8913
L138.0025 28.0470
" />
<path d="M138.0025 28.0470
L138.0025 28.9039
" />
<path d="M138.0025 28.0470
L137.9246 27.8913
" />
<path d="M137.9246 27.8913
L137.7688 27.8134
" />
<path d="M137.7688 27.8134
L137.5351 27.8134
" />
<path d="M137.5351 27.8134
L137.3793 27.8913
" />
<path d="M137.3793 27.8913
L137.3014 28.0470
" />
<path d="M137.3014 28.0470
L137.3014 28.9039
" />
<path d="M136.4446 28.8260
L136.4446 28.9039
" />
<path d="M136.4446 28.9039
L136.5225 29.0597
" />
<path d="M136.5225 29.0597
L136.6004 29.1375
" />
<path d="M134.4973 28.0470
L133.9520 28.0470
" />
<path d="M133.7183 28.9039
L134.4973 28.9039
" />
<path d="M134.4973 28.9039
L134.4973 27.2681
" />
<path d="M134.4973 27.2681
L133.7183 27.2681
" />
<path d="M133.0173 28.9039
L133.0173 27.8134
" />
<path d="M133.0173 28.1249
L132.9394 27.9691
" />
<path d="M132.9394 27.9691
L132.8615 27.8913
" />
<path d="M132.8615 27.8913
L132.7057 27.8134
" />
<path d="M132.7057 27.8134
L132.5499 27.8134
" />
<path d="M132.0047 28.0470
L130.7584 28.0470
" />
<path d="M130.7584 28.5144
L132.0047 28.5144
" />
<path d="M129.2784 27.8134
L129.2784 28.9039
" />
<path d="M129.6679 27.1902
L130.0573 28.3586
" />
<path d="M130.0573 28.3586
L129.0447 28.3586
" />
<path d="M128.4216 28.7481
L128.3437 28.8260
" />
<path d="M128.3437 28.8260
L128.4216 28.9039
" />
<path d="M128.4216 28.9039
L128.4995 28.8260
" />
<path d="M128.4995 28.8260
L128.4216 28.7481
" />
<path d="M128.4216 28.7481
L128.4216 28.9039
" />
<path d="M126.9416 27.2681
L127.2532 27.2681
" />
<path d="M127.2532 27.2681
L127.4090 27.3460
" />
<path d="M127.4090 27.3460
L127.4869 27.4239
" />
<path d="M127.4869 27.4239
L127.6426 27.6576
" />
<path d="M127.6426 27.6576
L127.7205 27.9691
" />
<path d="M127.7205 27.9691
L127.7205 28.5923
" />
<path d="M127.7205 28.5923
L127.6426 28.7481
" />
<path d="M127.6426 28.7481
L127.5647 28.8260
" />
<path d="M127.5647 28.8260
L127.4090 28.9039
" />
<path d="M127.4090 28.9039
L127.0974 28.9039
" />
<path d="M127.0974 28.9039
L126.9416 28.8260
" />
<path d="M126.9416 28.8260
L126.8637 28.7481
" />
<path d="M126.8637 28.7481
L126.7858 28.5923
" />
<path d="M126.7858 28.5923
L126.7858 28.2028
" />
<path d="M126.7858 28.2028
L126.8637 28.0470
" />
<path d="M126.8637 28.0470
L126.9416 27.9691
" />
<path d="M126.9416 27.9691
L127.0974 27.8913
" />
<path d="M127.0974 27.8913
L127.4090 27.8913
" />
<path d="M127.4090 27.8913
L127.5647 27.9691
" />
<path d="M127.5647 27.9691
L127.6426 28.0470
" />
<path d="M127.6426 28.0470
L127.7205 28.2028
" />
<path d="M124.3711 29.5270
L124.4490 29.4491
" />
<path d="M124.4490 29.4491
L124.6048 29.2154
" />
<path d="M124.6048 29.2154
L124.6827 29.0597
" />
<path d="M124.6827 29.0597
L124.7606 28.8260
" />
<path d="M124.7606 28.8260
L124.8385 28.4365
" />
<path d="M124.8385 28.4365
L124.8385 28.1249
" />
<path d="M124.8385 28.1249
L124.7606 27.7355
" />
<path d="M124.7606 27.7355
L124.6827 27.5018
" />
<path d="M124.6827 27.5018
L124.6048 27.3460
" />
<path d="M124.6048 27.3460
L124.4490 27.1123
" />
<path d="M124.4490 27.1123
L124.3711 27.0344
" />
<path d="M123.2027 28.0470
L123.7480 28.0470
" />
<path d="M123.7480 28.9039
L123.7480 27.2681
" />
<path d="M123.7480 27.2681
L122.9690 27.2681
" />
<path d="M121.4112 28.9039
L121.9564 28.1249
" />
<path d="M122.3459 28.9039
L122.3459 27.2681
" />
<path d="M122.3459 27.2681
L121.7227 27.2681
" />
<path d="M121.7227 27.2681
L121.5670 27.3460
" />
<path d="M121.5670 27.3460
L121.4891 27.4239
" />
<path d="M121.4891 27.4239
L121.4112 27.5797
" />
<path d="M121.4112 27.5797
L121.4112 27.8134
" />
<path d="M121.4112 27.8134
L121.4891 27.9691
" />
<path d="M121.4891 27.9691
L121.5670 28.0470
" />
<path d="M121.5670 28.0470
L121.7227 28.1249
" />
<path d="M121.7227 28.1249
L122.3459 28.1249
" />
<path d="M120.7101 28.2807
L119.4638 28.2807
" />
<path d="M117.9839 27.8134
L117.9839 28.9039
" />
<path d="M118.3733 27.1902
L118.7628 28.3586
" />
<path d="M118.7628 28.3586
L117.7502 28.3586
" />
<path d="M115.9586 28.8260
L115.8029 28.9039
" />
<path d="M115.8029 28.9039
L115.4913 28.9039
" />
<path d="M115.4913 28.9039
L115.3355 28.8260
" />
<path d="M115.3355 28.8260
L115.2576 28.6702
" />
<path d="M115.2576 28.6702
L115.2576 28.5923
" />
<path d="M115.2576 28.5923
L115.3355 28.4365
" />
<path d="M115.3355 28.4365
L115.4913 28.3586
" />
<path d="M115.4913 28.3586
L115.7250 28.3586
" />
<path d="M115.7250 28.3586
L115.8807 28.2807
" />
<path d="M115.8807 28.2807
L115.9586 28.1249
" />
<path d="M115.9586 28.1249
L115.9586 28.0470
" />
<path d="M115.9586 28.0470
L115.8807 27.8913
" />
<path d="M115.8807 27.8913
L115.7250 27.8134
" />
<path d="M115.7250 27.8134
L115.4913 27.8134
" />
<path d="M115.4913 27.8134
L115.3355 27.8913
" />
<path d="M114.7902 27.8134
L114.1671 27.8134
" />
<path d="M114.5566 27.2681
L114.5566 28.6702
" />
<path d="M114.5566 28.6702
L114.4787 28.8260
" />
<path d="M114.4787 28.8260
L114.3229 28.9039
" />
<path d="M114.3229 28.9039
L114.1671 28.9039
" />
<path d="M112.9208 28.9039
L112.9208 28.0470
" />
<path d="M112.9208 28.0470
L112.9987 27.8913
" />
<path d="M112.9987 27.8913
L113.1545 27.8134
" />
<path d="M113.1545 27.8134
L113.4661 27.8134
" />
<path d="M113.4661 27.8134
L113.6218 27.8913
" />
<path d="M112.9208 28.8260
L113.0766 28.9039
" />
<path d="M113.0766 28.9039
L113.4661 28.9039
" />
<path d="M113.4661 28.9039
L113.6218 28.8260
" />
<path d="M113.6218 28.8260
L113.6997 28.6702
" />
<path d="M113.6997 28.6702
L113.6997 28.5144
" />
<path d="M113.6997 28.5144
L113.6218 28.3586
" />
<path d="M113.6218 28.3586
L113.4661 28.2807
" />
<path d="M113.4661 28.2807
L113.0766 28.2807
" />
<path d="M113.0766 28.2807
L112.9208 28.2028
" />
<path d="M112.1419 27.8134
L112.1419 28.9039
" />
<path d="M112.1419 27.9691
L112.0640 27.8913
" />
<path d="M112.0640 27.8913
L111.9082 27.8134
" />
<path d="M111.9082 27.8134
L111.6745 27.8134
" />
<path d="M111.6745 27.8134
L111.5187 27.8913
" />
<path d="M111.5187 27.8913
L111.4408 28.0470
" />
<path d="M111.4408 28.0470
L111.4408 28.9039
" />
<path d="M109.9609 28.9039
L109.9609 27.2681
" />
<path d="M109.9609 28.8260
L110.1166 28.9039
" />
<path d="M110.1166 28.9039
L110.4282 28.9039
" />
<path d="M110.4282 28.9039
L110.5840 28.8260
" />
<path d="M110.5840 28.8260
L110.6619 28.7481
" />
<path d="M110.6619 28.7481
L110.7398 28.5923
" />
<path d="M110.7398 28.5923
L110.7398 28.1249
" />
<path d="M110.7398 28.1249
L110.6619 27.9691
" />
<path d="M110.6619 27.9691
L110.5840 27.8913
" />
<path d="M110.5840 27.8913
L110.4282 27.8134
" />
<path d="M110.4282 27.8134
L110.1166 27.8134
" />
<path d="M110.1166 27.8134
L109.9609 27.8913
" />
<path d="M108.4809 28.9039
L108.4809 28.0470
" />
<path d="M108.4809 28.0470
L108.5588 27.8913
" />
<path d="M108.5588 27.8913
L108.7146 27.8134
" />
<path d="M108.7146 27.8134
L109.0261 27.8134
" />
<path d="M109.0261 27.8134
L109.1819 27.8913
" />
<path d="M108.4809 28.8260
L108.6367 28.9039
" />
<path d="M108.6367 28.9039
L109.0261 28.9039
" />
<path d="M109.0261 28.9039
L109.1819 28.8260
" />
<path d="M109.1819 28.8260
L109.2598 28.6702
" />
<path d="M109.2598 28.6702
L109.2598 28.5144
" />
<path d="M109.2598 28.5144
L109.1819 28.3586
" />
<path d="M109.1819 28.3586
L109.0261 28.2807
" />
<path d="M109.0261 28.2807
L108.6367 28.2807
" />
<path d="M108.6367 28.2807
L108.4809 28.2028
" />
<path d="M107.7020 28.9039
L107.7020 27.8134
" />
<path d="M107.7020 28.1249
L107.6241 27.9691
" />
<path d="M107.6241 27.9691
L107.5462 27.8913
" />
<path d="M107.5462 27.8913
L107.3904 27.8134
" />
<path d="M107.3904 27.8134
L107.2346 27.8134
" />
<path d="M105.9883 28.9039
L105.9883 27.2681
" />
<path d="M105.9883 28.8260
L106.1441 28.9039
" />
<path d="M106.1441 28.9039
L106.4557 28.9039
" />
<path d="M106.4557 28.9039
L106.6114 28.8260
" />
<path d="M106.6114 28.8260
L106.6893 28.7481
" />
<path d="M106.6893 28.7481
L106.7672 28.5923
" />
<path d="M106.7672 28.5923
L106.7672 28.1249
" />
<path d="M106.7672 28.1249
L106.6893 27.9691
" />
<path d="M106.6893 27.9691
L106.6114 27.8913
" />
<path d="M106.6114 27.8913
L106.4557 27.8134
" />
<path d="M106.4557 27.8134
L106.1441 27.8134
" />
<path d="M106.1441 27.8134
L105.9883 27.8913
" />
<path d="M105.3652 29.5270
L105.2873 29.4491
" />
<path d="M105.2873 29.4491
L105.1315 29.2154
" />
<path d="M105.1315 29.2154
L105.0536 29.0597
" />
<path d="M105.0536 29.0597
L104.9757 28.8260
" />
<path d="M104.9757 28.8260
L104.8978 28.4365
" />
<path d="M104.8978 28.4365
L104.8978 28.1249
" />
<path d="M104.8978 28.1249
L104.9757 27.7355
" />
<path d="M104.9757 27.7355
L105.0536 27.5018
" />
<path d="M105.0536 27.5018
L105.1315 27.3460
" />
<path d="M105.1315 27.3460
L105.2873 27.1123
" />
<path d="M105.2873 27.1123
L105.3652 27.0344
" />
</g><text x="149.0011" y="31.7450"
textLength="32.4253" font-size="2.1810" lengthAdjust="spacingAndGlyphs"
text-anchor="start" opacity="0">W=0.92mm, G=0.1524mm</text>
<g class="stroked-text"><desc>W=0.92mm, G=0.1524mm</desc>
<path d="M148.6738 29.9017
L148.2844 31.5374
" />
<path d="M148.2844 31.5374
L147.9728 30.3690
" />
<path d="M147.9728 30.3690
L147.6612 31.5374
" />
<path d="M147.6612 31.5374
L147.2718 29.9017
" />
<path d="M146.6486 30.6806
L145.4023 30.6806
" />
<path d="M145.4023 31.1480
L146.6486 31.1480
" />
<path d="M144.3118 29.9017
L144.1560 29.9017
" />
<path d="M144.1560 29.9017
L144.0002 29.9796
" />
<path d="M144.0002 29.9796
L143.9223 30.0575
" />
<path d="M143.9223 30.0575
L143.8445 30.2133
" />
<path d="M143.8445 30.2133
L143.7666 30.5248
" />
<path d="M143.7666 30.5248
L143.7666 30.9143
" />
<path d="M143.7666 30.9143
L143.8445 31.2259
" />
<path d="M143.8445 31.2259
L143.9223 31.3817
" />
<path d="M143.9223 31.3817
L144.0002 31.4596
" />
<path d="M144.0002 31.4596
L144.1560 31.5374
" />
<path d="M144.1560 31.5374
L144.3118 31.5374
" />
<path d="M144.3118 31.5374
L144.4676 31.4596
" />
<path d="M144.4676 31.4596
L144.5455 31.3817
" />
<path d="M144.5455 31.3817
L144.6234 31.2259
" />
<path d="M144.6234 31.2259
L144.7013 30.9143
" />
<path d="M144.7013 30.9143
L144.7013 30.5248
" />
<path d="M144.7013 30.5248
L144.6234 30.2133
" />
<path d="M144.6234 30.2133
L144.5455 30.0575
" />
<path d="M144.5455 30.0575
L144.4676 29.9796
" />
<path d="M144.4676 29.9796
L144.3118 29.9017
" />
<path d="M143.0655 31.3817
L142.9876 31.4596
" />
<path d="M142.9876 31.4596
L143.0655 31.5374
" />
<path d="M143.0655 31.5374
L143.1434 31.4596
" />
<path d="M143.1434 31.4596
L143.0655 31.3817
" />
<path d="M143.0655 31.3817
L143.0655 31.5374
" />
<path d="M142.2087 31.5374
L141.8971 31.5374
" />
<path d="M141.8971 31.5374
L141.7413 31.4596
" />
<path d="M141.7413 31.4596
L141.6634 31.3817
" />
<path d="M141.6634 31.3817
L141.5077 31.1480
" />
<path d="M141.5077 31.1480
L141.4298 30.8364
" />
<path d="M141.4298 30.8364
L141.4298 30.2133
" />
<path d="M141.4298 30.2133
L141.5077 30.0575
" />
<path d="M141.5077 30.0575
L141.5855 29.9796
" />
<path d="M141.5855 29.9796
L141.7413 29.9017
" />
<path d="M141.7413 29.9017
L142.0529 29.9017
" />
<path d="M142.0529 29.9017
L142.2087 29.9796
" />
<path d="M142.2087 29.9796
L142.2866 30.0575
" />
<path d="M142.2866 30.0575
L142.3645 30.2133
" />
<path d="M142.3645 30.2133
L142.3645 30.6027
" />
<path d="M142.3645 30.6027
L142.2866 30.7585
" />
<path d="M142.2866 30.7585
L142.2087 30.8364
" />
<path d="M142.2087 30.8364
L142.0529 30.9143
" />
<path d="M142.0529 30.9143
L141.7413 30.9143
" />
<path d="M141.7413 30.9143
L141.5855 30.8364
" />
<path d="M141.5855 30.8364
L141.5077 30.7585
" />
<path d="M141.5077 30.7585
L141.4298 30.6027
" />
<path d="M140.8066 30.0575
L140.7287 29.9796
" />
<path d="M140.7287 29.9796
L140.5729 29.9017
" />
<path d="M140.5729 29.9017
L140.1835 29.9017
" />
<path d="M140.1835 29.9017
L140.0277 29.9796
" />
<path d="M140.0277 29.9796
L139.9498 30.0575
" />
<path d="M139.9498 30.0575
L139.8719 30.2133
" />
<path d="M139.8719 30.2133
L139.8719 30.3690
" />
<path d="M139.8719 30.3690
L139.9498 30.6027
" />
<path d="M139.9498 30.6027
L140.8845 31.5374
" />
<path d="M140.8845 31.5374
L139.8719 31.5374
" />
<path d="M139.1709 31.5374
L139.1709 30.4469
" />
<path d="M139.1709 30.6027
L139.0930 30.5248
" />
<path d="M139.0930 30.5248
L138.9372 30.4469
" />
<path d="M138.9372 30.4469
L138.7035 30.4469
" />
<path d="M138.7035 30.4469
L138.5477 30.5248
" />
<path d="M138.5477 30.5248
L138.4698 30.6806
" />
<path d="M138.4698 30.6806
L138.4698 31.5374
" />
<path d="M138.4698 30.6806
L138.3919 30.5248
" />
<path d="M138.3919 30.5248
L138.2361 30.4469
" />
<path d="M138.2361 30.4469
L138.0025 30.4469
" />
<path d="M138.0025 30.4469
L137.8467 30.5248
" />
<path d="M137.8467 30.5248
L137.7688 30.6806
" />
<path d="M137.7688 30.6806
L137.7688 31.5374
" />
<path d="M136.9898 31.5374
L136.9898 30.4469
" />
<path d="M136.9898 30.6027
L136.9119 30.5248
" />
<path d="M136.9119 30.5248
L136.7562 30.4469
" />
<path d="M136.7562 30.4469
L136.5225 30.4469
" />
<path d="M136.5225 30.4469
L136.3667 30.5248
" />
<path d="M136.3667 30.5248
L136.2888 30.6806
" />
<path d="M136.2888 30.6806
L136.2888 31.5374
" />
<path d="M136.2888 30.6806
L136.2109 30.5248
" />
<path d="M136.2109 30.5248
L136.0551 30.4469
" />
<path d="M136.0551 30.4469
L135.8214 30.4469
" />
<path d="M135.8214 30.4469
L135.6657 30.5248
" />
<path d="M135.6657 30.5248
L135.5878 30.6806
" />
<path d="M135.5878 30.6806
L135.5878 31.5374
" />
<path d="M134.7309 31.4596
L134.7309 31.5374
" />
<path d="M134.7309 31.5374
L134.8088 31.6932
" />
<path d="M134.8088 31.6932
L134.8867 31.7711
" />
<path d="M131.9268 29.9796
L132.0826 29.9017
" />
<path d="M132.0826 29.9017
L132.3162 29.9017
" />
<path d="M132.3162 29.9017
L132.5499 29.9796
" />
<path d="M132.5499 29.9796
L132.7057 30.1354
" />
<path d="M132.7057 30.1354
L132.7836 30.2911
" />
<path d="M132.7836 30.2911
L132.8615 30.6027
" />
<path d="M132.8615 30.6027
L132.8615 30.8364
" />
<path d="M132.8615 30.8364
L132.7836 31.1480
" />
<path d="M132.7836 31.1480
L132.7057 31.3038
" />
<path d="M132.7057 31.3038
L132.5499 31.4596
" />
<path d="M132.5499 31.4596
L132.3162 31.5374
" />
<path d="M132.3162 31.5374
L132.1605 31.5374
" />
<path d="M132.1605 31.5374
L131.9268 31.4596
" />
<path d="M131.9268 31.4596
L131.8489 31.3817
" />
<path d="M131.8489 31.3817
L131.8489 30.8364
" />
<path d="M131.8489 30.8364
L132.1605 30.8364
" />
<path d="M131.1478 30.6806
L129.9015 30.6806
" />
<path d="M129.9015 31.1480
L131.1478 31.1480
" />
<path d="M128.8110 29.9017
L128.6553 29.9017
" />
<path d="M128.6553 29.9017
L128.4995 29.9796
" />
<path d="M128.4995 29.9796
L128.4216 30.0575
" />
<path d="M128.4216 30.0575
L128.3437 30.2133
" />
<path d="M128.3437 30.2133
L128.2658 30.5248
" />
<path d="M128.2658 30.5248
L128.2658 30.9143
" />
<path d="M128.2658 30.9143
L128.3437 31.2259
" />
<path d="M128.3437 31.2259
L128.4216 31.3817
" />
<path d="M128.4216 31.3817
L128.4995 31.4596
" />
<path d="M128.4995 31.4596
L128.6553 31.5374
" />
<path d="M128.6553 31.5374
L128.8110 31.5374
" />
<path d="M128.8110 31.5374
L128.9668 31.4596
" />
<path d="M128.9668 31.4596
L129.0447 31.3817
" />
<path d="M129.0447 31.3817
L129.1226 31.2259
" />
<path d="M129.1226 31.2259
L129.2005 30.9143
" />
<path d="M129.2005 30.9143
L129.2005 30.5248
" />
<path d="M129.2005 30.5248
L129.1226 30.2133
" />
<path d="M129.1226 30.2133
L129.0447 30.0575
" />
<path d="M129.0447 30.0575
L128.9668 29.9796
" />
<path d="M128.9668 29.9796
L128.8110 29.9017
" />
<path d="M127.5647 31.3817
L127.4869 31.4596
" />
<path d="M127.4869 31.4596
L127.5647 31.5374
" />
<path d="M127.5647 31.5374
L127.6426 31.4596
" />
<path d="M127.6426 31.4596
L127.5647 31.3817
" />
<path d="M127.5647 31.3817
L127.5647 31.5374
" />
<path d="M125.9290 31.5374
L126.8637 31.5374
" />
<path d="M126.3963 31.5374
L126.3963 29.9017
" />
<path d="M126.3963 29.9017
L126.5521 30.1354
" />
<path d="M126.5521 30.1354
L126.7079 30.2911
" />
<path d="M126.7079 30.2911
L126.8637 30.3690
" />
<path d="M124.4490 29.9017
L125.2279 29.9017
" />
<path d="M125.2279 29.9017
L125.3058 30.6806
" />
<path d="M125.3058 30.6806
L125.2279 30.6027
" />
<path d="M125.2279 30.6027
L125.0722 30.5248
" />
<path d="M125.0722 30.5248
L124.6827 30.5248
" />
<path d="M124.6827 30.5248
L124.5269 30.6027
" />
<path d="M124.5269 30.6027
L124.4490 30.6806
" />
<path d="M124.4490 30.6806
L124.3711 30.8364
" />
<path d="M124.3711 30.8364
L124.3711 31.2259
" />
<path d="M124.3711 31.2259
L124.4490 31.3817
" />
<path d="M124.4490 31.3817
L124.5269 31.4596
" />
<path d="M124.5269 31.4596
L124.6827 31.5374
" />
<path d="M124.6827 31.5374
L125.0722 31.5374
" />
<path d="M125.0722 31.5374
L125.2279 31.4596
" />
<path d="M125.2279 31.4596
L125.3058 31.3817
" />
<path d="M123.7480 30.0575
L123.6701 29.9796
" />
<path d="M123.6701 29.9796
L123.5143 29.9017
" />
<path d="M123.5143 29.9017
L123.1248 29.9017
" />
<path d="M123.1248 29.9017
L122.9690 29.9796
" />
<path d="M122.9690 29.9796
L122.8911 30.0575
" />
<path d="M122.8911 30.0575
L122.8133 30.2133
" />
<path d="M122.8133 30.2133
L122.8133 30.3690
" />
<path d="M122.8133 30.3690
L122.8911 30.6027
" />
<path d="M122.8911 30.6027
L123.8259 31.5374
" />
<path d="M123.8259 31.5374
L122.8133 31.5374
" />
<path d="M121.4112 30.4469
L121.4112 31.5374
" />
<path d="M121.8006 29.8238
L122.1901 30.9922
" />
<path d="M122.1901 30.9922
L121.1775 30.9922
" />
<path d="M120.5543 31.5374
L120.5543 30.4469
" />
<path d="M120.5543 30.6027
L120.4765 30.5248
" />
<path d="M120.4765 30.5248
L120.3207 30.4469
" />
<path d="M120.3207 30.4469
L120.0870 30.4469
" />
<path d="M120.0870 30.4469
L119.9312 30.5248
" />
<path d="M119.9312 30.5248
L119.8533 30.6806
" />
<path d="M119.8533 30.6806
L119.8533 31.5374
" />
<path d="M119.8533 30.6806
L119.7754 30.5248
" />
<path d="M119.7754 30.5248
L119.6196 30.4469
" />
<path d="M119.6196 30.4469
L119.3859 30.4469
" />
<path d="M119.3859 30.4469
L119.2302 30.5248
" />
<path d="M119.2302 30.5248
L119.1523 30.6806
" />
<path d="M119.1523 30.6806
L119.1523 31.5374
" />
<path d="M118.3733 31.5374
L118.3733 30.4469
" />
<path d="M118.3733 30.6027
L118.2954 30.5248
" />
<path d="M118.2954 30.5248
L118.1397 30.4469
" />
<path d="M118.1397 30.4469
L117.9060 30.4469
" />
<path d="M117.9060 30.4469
L117.7502 30.5248
" />
<path d="M117.7502 30.5248
L117.6723 30.6806
" />
<path d="M117.6723 30.6806
L117.6723 31.5374
" />
<path d="M117.6723 30.6806
L117.5944 30.5248
" />
<path d="M117.5944 30.5248
L117.4386 30.4469
" />
<path d="M117.4386 30.4469
L117.2049 30.4469
" />
<path d="M117.2049 30.4469
L117.0491 30.5248
" />
<path d="M117.0491 30.5248
L116.9713 30.6806
" />
<path d="M116.9713 30.6806
L116.9713 31.5374
" />
</g><text x="149.0011" y="34.3786"
textLength="36.0084" font-size="2.1810" lengthAdjust="spacingAndGlyphs"
text-anchor="start" opacity="0">Calculated Z=50.0773 Ohms</text>
<g class="stroked-text"><desc>Calculated Z=50.0773 Ohms</desc>
<path d="M147.5833 34.0152
L147.6612 34.0931
" />
<path d="M147.6612 34.0931
L147.8949 34.1710
" />
<path d="M147.8949 34.1710
L148.0507 34.1710
" />
<path d="M148.0507 34.1710
L148.2844 34.0931
" />
<path d="M148.2844 34.0931
L148.4402 33.9373
" />
<path d="M148.4402 33.9373
L148.5181 33.7815
" />
<path d="M148.5181 33.7815
L148.5959 33.4700
" />
<path d="M148.5959 33.4700
L148.5959 33.2363
" />
<path d="M148.5959 33.2363
L148.5181 32.9247
" />
<path d="M148.5181 32.9247
L148.4402 32.7689
" />
<path d="M148.4402 32.7689
L148.2844 32.6131
" />
<path d="M148.2844 32.6131
L148.0507 32.5353
" />
<path d="M148.0507 32.5353
L147.8949 32.5353
" />
<path d="M147.8949 32.5353
L147.6612 32.6131
" />
<path d="M147.6612 32.6131
L147.5833 32.6910
" />
<path d="M146.1813 34.1710
L146.1813 33.3142
" />
<path d="M146.1813 33.3142
L146.2591 33.1584
" />
<path d="M146.2591 33.1584
L146.4149 33.0805
" />
<path d="M146.4149 33.0805
L146.7265 33.0805
" />
<path d="M146.7265 33.0805
L146.8823 33.1584
" />
<path d="M146.1813 34.0931
L146.3370 34.1710
" />
<path d="M146.3370 34.1710
L146.7265 34.1710
" />
<path d="M146.7265 34.1710
L146.8823 34.0931
" />
<path d="M146.8823 34.0931
L146.9602 33.9373
" />
<path d="M146.9602 33.9373
L146.9602 33.7815
" />
<path d="M146.9602 33.7815
L146.8823 33.6258
" />
<path d="M146.8823 33.6258
L146.7265 33.5479
" />
<path d="M146.7265 33.5479
L146.3370 33.5479
" />
<path d="M146.3370 33.5479
L146.1813 33.4700
" />
<path d="M145.1686 34.1710
L145.3244 34.0931
" />
<path d="M145.3244 34.0931
L145.4023 33.9373
" />
<path d="M145.4023 33.9373
L145.4023 32.5353
" />
<path d="M143.8445 34.0931
L144.0002 34.1710
" />
<path d="M144.0002 34.1710
L144.3118 34.1710
" />
<path d="M144.3118 34.1710
L144.4676 34.0931
" />
<path d="M144.4676 34.0931
L144.5455 34.0152
" />
<path d="M144.5455 34.0152
L144.6234 33.8594
" />
<path d="M144.6234 33.8594
L144.6234 33.3921
" />
<path d="M144.6234 33.3921
L144.5455 33.2363
" />
<path d="M144.5455 33.2363
L144.4676 33.1584
" />
<path d="M144.4676 33.1584
L144.3118 33.0805
" />
<path d="M144.3118 33.0805
L144.0002 33.0805
" />
<path d="M144.0002 33.0805
L143.8445 33.1584
" />
<path d="M142.4424 33.0805
L142.4424 34.1710
" />
<path d="M143.1434 33.0805
L143.1434 33.9373
" />
<path d="M143.1434 33.9373
L143.0655 34.0931
" />
<path d="M143.0655 34.0931
L142.9097 34.1710
" />
<path d="M142.9097 34.1710
L142.6761 34.1710
" />
<path d="M142.6761 34.1710
L142.5203 34.0931
" />
<path d="M142.5203 34.0931
L142.4424 34.0152
" />
<path d="M141.4298 34.1710
L141.5855 34.0931
" />
<path d="M141.5855 34.0931
L141.6634 33.9373
" />
<path d="M141.6634 33.9373
L141.6634 32.5353
" />
<path d="M140.1056 34.1710
L140.1056 33.3142
" />
<path d="M140.1056 33.3142
L140.1835 33.1584
" />
<path d="M140.1835 33.1584
L140.3393 33.0805
" />
<path d="M140.3393 33.0805
L140.6508 33.0805
" />
<path d="M140.6508 33.0805
L140.8066 33.1584
" />
<path d="M140.1056 34.0931
L140.2614 34.1710
" />
<path d="M140.2614 34.1710
L140.6508 34.1710
" />
<path d="M140.6508 34.1710
L140.8066 34.0931
" />
<path d="M140.8066 34.0931
L140.8845 33.9373
" />
<path d="M140.8845 33.9373
L140.8845 33.7815
" />
<path d="M140.8845 33.7815
L140.8066 33.6258
" />
<path d="M140.8066 33.6258
L140.6508 33.5479
" />
<path d="M140.6508 33.5479
L140.2614 33.5479
" />
<path d="M140.2614 33.5479
L140.1056 33.4700
" />
<path d="M139.5603 33.0805
L138.9372 33.0805
" />
<path d="M139.3266 32.5353
L139.3266 33.9373
" />
<path d="M139.3266 33.9373
L139.2487 34.0931
" />
<path d="M139.2487 34.0931
L139.0930 34.1710
" />
<path d="M139.0930 34.1710
L138.9372 34.1710
" />
<path d="M137.7688 34.0931
L137.9246 34.1710
" />
<path d="M137.9246 34.1710
L138.2361 34.1710
" />
<path d="M138.2361 34.1710
L138.3919 34.0931
" />
<path d="M138.3919 34.0931
L138.4698 33.9373
" />
<path d="M138.4698 33.9373
L138.4698 33.3142
" />
<path d="M138.4698 33.3142
L138.3919 33.1584
" />
<path d="M138.3919 33.1584
L138.2361 33.0805
" />
<path d="M138.2361 33.0805
L137.9246 33.0805
" />
<path d="M137.9246 33.0805
L137.7688 33.1584
" />
<path d="M137.7688 33.1584
L137.6909 33.3142
" />
<path d="M137.6909 33.3142
L137.6909 33.4700
" />
<path d="M137.6909 33.4700
L138.4698 33.6258
" />
<path d="M136.2888 34.1710
L136.2888 32.5353
" />
<path d="M136.2888 34.0931
L136.4446 34.1710
" />
<path d="M136.4446 34.1710
L136.7562 34.1710
" />
<path d="M136.7562 34.1710
L136.9119 34.0931
" />
<path d="M136.9119 34.0931
L136.9898 34.0152
" />
<path d="M136.9898 34.0152
L137.0677 33.8594
" />
<path d="M137.0677 33.8594
L137.0677 33.3921
" />
<path d="M137.0677 33.3921
L136.9898 33.2363
" />
<path d="M136.9898 33.2363
L136.9119 33.1584
" />
<path d="M136.9119 33.1584
L136.7562 33.0805
" />
<path d="M136.7562 33.0805
L136.4446 33.0805
" />
<path d="M136.4446 33.0805
L136.2888 33.1584
" />
<path d="M134.4194 32.5353
L133.3289 32.5353
" />
<path d="M133.3289 32.5353
L134.4194 34.1710
" />
<path d="M134.4194 34.1710
L133.3289 34.1710
" />
<path d="M132.7057 33.3142
L131.4594 33.3142
" />
<path d="M131.4594 33.7815
L132.7057 33.7815
" />
<path d="M129.9015 32.5353
L130.6805 32.5353
" />
<path d="M130.6805 32.5353
L130.7584 33.3142
" />
<path d="M130.7584 33.3142
L130.6805 33.2363
" />
<path d="M130.6805 33.2363
L130.5247 33.1584
" />
<path d="M130.5247 33.1584
L130.1352 33.1584
" />
<path d="M130.1352 33.1584
L129.9794 33.2363
" />
<path d="M129.9794 33.2363
L129.9015 33.3142
" />
<path d="M129.9015 33.3142
L129.8237 33.4700
" />
<path d="M129.8237 33.4700
L129.8237 33.8594
" />
<path d="M129.8237 33.8594
L129.9015 34.0152
" />
<path d="M129.9015 34.0152
L129.9794 34.0931
" />
<path d="M129.9794 34.0931
L130.1352 34.1710
" />
<path d="M130.1352 34.1710
L130.5247 34.1710
" />
<path d="M130.5247 34.1710
L130.6805 34.0931
" />
<path d="M130.6805 34.0931
L130.7584 34.0152
" />
<path d="M128.8110 32.5353
L128.6553 32.5353
" />
<path d="M128.6553 32.5353
L128.4995 32.6131
" />
<path d="M128.4995 32.6131
L128.4216 32.6910
" />
<path d="M128.4216 32.6910
L128.3437 32.8468
" />
<path d="M128.3437 32.8468
L128.2658 33.1584
" />
<path d="M128.2658 33.1584
L128.2658 33.5479
" />
<path d="M128.2658 33.5479
L128.3437 33.8594
" />
<path d="M128.3437 33.8594
L128.4216 34.0152
" />
<path d="M128.4216 34.0152
L128.4995 34.0931
" />
<path d="M128.4995 34.0931
L128.6553 34.1710
" />
<path d="M128.6553 34.1710
L128.8110 34.1710
" />
<path d="M128.8110 34.1710
L128.9668 34.0931
" />
<path d="M128.9668 34.0931
L129.0447 34.0152
" />
<path d="M129.0447 34.0152
L129.1226 33.8594
" />
<path d="M129.1226 33.8594
L129.2005 33.5479
" />
<path d="M129.2005 33.5479
L129.2005 33.1584
" />
<path d="M129.2005 33.1584
L129.1226 32.8468
" />
<path d="M129.1226 32.8468
L129.0447 32.6910
" />
<path d="M129.0447 32.6910
L128.9668 32.6131
" />
<path d="M128.9668 32.6131
L128.8110 32.5353
" />
<path d="M127.5647 34.0152
L127.4869 34.0931
" />
<path d="M127.4869 34.0931
L127.5647 34.1710
" />
<path d="M127.5647 34.1710
L127.6426 34.0931
" />
<path d="M127.6426 34.0931
L127.5647 34.0152
" />
<path d="M127.5647 34.0152
L127.5647 34.1710
" />
<path d="M126.4742 32.5353
L126.3185 32.5353
" />
<path d="M126.3185 32.5353
L126.1627 32.6131
" />
<path d="M126.1627 32.6131
L126.0848 32.6910
" />
<path d="M126.0848 32.6910
L126.0069 32.8468
" />
<path d="M126.0069 32.8468
L125.9290 33.1584
" />
<path d="M125.9290 33.1584
L125.9290 33.5479
" />
<path d="M125.9290 33.5479
L126.0069 33.8594
" />
<path d="M126.0069 33.8594
L126.0848 34.0152
" />
<path d="M126.0848 34.0152
L126.1627 34.0931
" />
<path d="M126.1627 34.0931
L126.3185 34.1710
" />
<path d="M126.3185 34.1710
L126.4742 34.1710
" />
<path d="M126.4742 34.1710
L126.6300 34.0931
" />
<path d="M126.6300 34.0931
L126.7079 34.0152
" />
<path d="M126.7079 34.0152
L126.7858 33.8594
" />
<path d="M126.7858 33.8594
L126.8637 33.5479
" />
<path d="M126.8637 33.5479
L126.8637 33.1584
" />
<path d="M126.8637 33.1584
L126.7858 32.8468
" />
<path d="M126.7858 32.8468
L126.7079 32.6910
" />
<path d="M126.7079 32.6910
L126.6300 32.6131
" />
<path d="M126.6300 32.6131
L126.4742 32.5353
" />
<path d="M125.3837 32.5353
L124.2932 32.5353
" />
<path d="M124.2932 32.5353
L124.9943 34.1710
" />
<path d="M123.8259 32.5353
L122.7354 32.5353
" />
<path d="M122.7354 32.5353
L123.4364 34.1710
" />
<path d="M122.2680 32.5353
L121.2554 32.5353
" />
<path d="M121.2554 32.5353
L121.8006 33.1584
" />
<path d="M121.8006 33.1584
L121.5670 33.1584
" />
<path d="M121.5670 33.1584
L121.4112 33.2363
" />
<path d="M121.4112 33.2363
L121.3333 33.3142
" />
<path d="M121.3333 33.3142
L121.2554 33.4700
" />
<path d="M121.2554 33.4700
L121.2554 33.8594
" />
<path d="M121.2554 33.8594
L121.3333 34.0152
" />
<path d="M121.3333 34.0152
L121.4112 34.0931
" />
<path d="M121.4112 34.0931
L121.5670 34.1710
" />
<path d="M121.5670 34.1710
L122.0343 34.1710
" />
<path d="M122.0343 34.1710
L122.1901 34.0931
" />
<path d="M122.1901 34.0931
L122.2680 34.0152
" />
<path d="M118.9965 32.5353
L118.6849 32.5353
" />
<path d="M118.6849 32.5353
L118.5291 32.6131
" />
<path d="M118.5291 32.6131
L118.3733 32.7689
" />
<path d="M118.3733 32.7689
L118.2954 33.0805
" />
<path d="M118.2954 33.0805
L118.2954 33.6258
" />
<path d="M118.2954 33.6258
L118.3733 33.9373
" />
<path d="M118.3733 33.9373
L118.5291 34.0931
" />
<path d="M118.5291 34.0931
L118.6849 34.1710
" />
<path d="M118.6849 34.1710
L118.9965 34.1710
" />
<path d="M118.9965 34.1710
L119.1523 34.0931
" />
<path d="M119.1523 34.0931
L119.3081 33.9373
" />
<path d="M119.3081 33.9373
L119.3859 33.6258
" />
<path d="M119.3859 33.6258
L119.3859 33.0805
" />
<path d="M119.3859 33.0805
L119.3081 32.7689
" />
<path d="M119.3081 32.7689
L119.1523 32.6131
" />
<path d="M119.1523 32.6131
L118.9965 32.5353
" />
<path d="M117.5944 34.1710
L117.5944 32.5353
" />
<path d="M116.8934 34.1710
L116.8934 33.3142
" />
<path d="M116.8934 33.3142
L116.9713 33.1584
" />
<path d="M116.9713 33.1584
L117.1270 33.0805
" />
<path d="M117.1270 33.0805
L117.3607 33.0805
" />
<path d="M117.3607 33.0805
L117.5165 33.1584
" />
<path d="M117.5165 33.1584
L117.5944 33.2363
" />
<path d="M116.1144 34.1710
L116.1144 33.0805
" />
<path d="M116.1144 33.2363
L116.0365 33.1584
" />
<path d="M116.0365 33.1584
L115.8807 33.0805
" />
<path d="M115.8807 33.0805
L115.6471 33.0805
" />
<path d="M115.6471 33.0805
L115.4913 33.1584
" />
<path d="M115.4913 33.1584
L115.4134 33.3142
" />
<path d="M115.4134 33.3142
L115.4134 34.1710
" />
<path d="M115.4134 33.3142
L115.3355 33.1584
" />
<path d="M115.3355 33.1584
L115.1797 33.0805
" />
<path d="M115.1797 33.0805
L114.9460 33.0805
" />
<path d="M114.9460 33.0805
L114.7902 33.1584
" />
<path d="M114.7902 33.1584
L114.7123 33.3142
" />
<path d="M114.7123 33.3142
L114.7123 34.1710
" />
<path d="M114.0113 34.0931
L113.8555 34.1710
" />
<path d="M113.8555 34.1710
L113.5439 34.1710
" />
<path d="M113.5439 34.1710
L113.3882 34.0931
" />
<path d="M113.3882 34.0931
L113.3103 33.9373
" />
<path d="M113.3103 33.9373
L113.3103 33.8594
" />
<path d="M113.3103 33.8594
L113.3882 33.7037
" />
<path d="M113.3882 33.7037
L113.5439 33.6258
" />
<path d="M113.5439 33.6258
L113.7776 33.6258
" />
<path d="M113.7776 33.6258
L113.9334 33.5479
" />
<path d="M113.9334 33.5479
L114.0113 33.3921
" />
<path d="M114.0113 33.3921
L114.0113 33.3142
" />
<path d="M114.0113 33.3142
L113.9334 33.1584
" />
<path d="M113.9334 33.1584
L113.7776 33.0805
" />
<path d="M113.7776 33.0805
L113.5439 33.0805
" />
<path d="M113.5439 33.0805
L113.3882 33.1584
" />
</g><g transform="rotate(-90.000000 191.7791 105.0036)">
<text x="191.7791" y="105.8215"
textLength="14.2762" font-size="2.1810" lengthAdjust="spacingAndGlyphs"
text-anchor="middle" opacity="0">120.00 mm</text>
</g>
<g class="stroked-text"><desc>120.00 mm</desc>
<path d="M191.0298 110.8456
L191.0298 111.7803
" />
<path d="M191.0298 111.3130
L192.6655 111.3130
" />
<path d="M192.6655 111.3130
L192.4318 111.4687
" />
<path d="M192.4318 111.4687
L192.2761 111.6245
" />
<path d="M192.2761 111.6245
L192.1982 111.7803
" />
<path d="M192.5097 110.2225
L192.5876 110.1446
" />
<path d="M192.5876 110.1446
L192.6655 109.9888
" />
<path d="M192.6655 109.9888
L192.6655 109.5993
" />
<path d="M192.6655 109.5993
L192.5876 109.4435
" />
<path d="M192.5876 109.4435
L192.5097 109.3656
" />
<path d="M192.5097 109.3656
L192.3539 109.2877
" />
<path d="M192.3539 109.2877
L192.1982 109.2877
" />
<path d="M192.1982 109.2877
L191.9645 109.3656
" />
<path d="M191.9645 109.3656
L191.0298 110.3003
" />
<path d="M191.0298 110.3003
L191.0298 109.2877
" />
<path d="M192.6655 108.2751
L192.6655 108.1193
" />
<path d="M192.6655 108.1193
L192.5876 107.9635
" />
<path d="M192.5876 107.9635
L192.5097 107.8857
" />
<path d="M192.5097 107.8857
L192.3539 107.8078
" />
<path d="M192.3539 107.8078
L192.0424 107.7299
" />
<path d="M192.0424 107.7299
L191.6529 107.7299
" />
<path d="M191.6529 107.7299
L191.3413 107.8078
" />
<path d="M191.3413 107.8078
L191.1855 107.8857
" />
<path d="M191.1855 107.8857
L191.1077 107.9635
" />
<path d="M191.1077 107.9635
L191.0298 108.1193
" />
<path d="M191.0298 108.1193
L191.0298 108.2751
" />
<path d="M191.0298 108.2751
L191.1077 108.4309
" />
<path d="M191.1077 108.4309
L191.1855 108.5088
" />
<path d="M191.1855 108.5088
L191.3413 108.5867
" />
<path d="M191.3413 108.5867
L191.6529 108.6646
" />
<path d="M191.6529 108.6646
L192.0424 108.6646
" />
<path d="M192.0424 108.6646
L192.3539 108.5867
" />
<path d="M192.3539 108.5867
L192.5097 108.5088
" />
<path d="M192.5097 108.5088
L192.5876 108.4309
" />
<path d="M192.5876 108.4309
L192.6655 108.2751
" />
<path d="M191.1855 107.0288
L191.1077 106.9509
" />
<path d="M191.1077 106.9509
L191.0298 107.0288
" />
<path d="M191.0298 107.0288
L191.1077 107.1067
" />
<path d="M191.1077 107.1067
L191.1855 107.0288
" />
<path d="M191.1855 107.0288
L191.0298 107.0288
" />
<path d="M192.6655 105.9383
L192.6655 105.7825
" />
<path d="M192.6655 105.7825
L192.5876 105.6267
" />
<path d="M192.5876 105.6267
L192.5097 105.5489
" />
<path d="M192.5097 105.5489
L192.3539 105.4710
" />
<path d="M192.3539 105.4710
L192.0424 105.3931
" />
<path d="M192.0424 105.3931
L191.6529 105.3931
" />
<path d="M191.6529 105.3931
L191.3413 105.4710
" />
<path d="M191.3413 105.4710
L191.1855 105.5489
" />
<path d="M191.1855 105.5489
L191.1077 105.6267
" />
<path d="M191.1077 105.6267
L191.0298 105.7825
" />
<path d="M191.0298 105.7825
L191.0298 105.9383
" />
<path d="M191.0298 105.9383
L191.1077 106.0941
" />
<path d="M191.1077 106.0941
L191.1855 106.1720
" />
<path d="M191.1855 106.1720
L191.3413 106.2499
" />
<path d="M191.3413 106.2499
L191.6529 106.3278
" />
<path d="M191.6529 106.3278
L192.0424 106.3278
" />
<path d="M192.0424 106.3278
L192.3539 106.2499
" />
<path d="M192.3539 106.2499
L192.5097 106.1720
" />
<path d="M192.5097 106.1720
L192.5876 106.0941
" />
<path d="M192.5876 106.0941
L192.6655 105.9383
" />
<path d="M192.6655 104.3805
L192.6655 104.2247
" />
<path d="M192.6655 104.2247
L192.5876 104.0689
" />
<path d="M192.5876 104.0689
L192.5097 103.9910
" />
<path d="M192.5097 103.9910
L192.3539 103.9131
" />
<path d="M192.3539 103.9131
L192.0424 103.8352
" />
<path d="M192.0424 103.8352
L191.6529 103.8352
" />
<path d="M191.6529 103.8352
L191.3413 103.9131
" />
<path d="M191.3413 103.9131
L191.1855 103.9910
" />
<path d="M191.1855 103.9910
L191.1077 104.0689
" />
<path d="M191.1077 104.0689
L191.0298 104.2247
" />
<path d="M191.0298 104.2247
L191.0298 104.3805
" />
<path d="M191.0298 104.3805
L191.1077 104.5362
" />
<path d="M191.1077 104.5362
L191.1855 104.6141
" />
<path d="M191.1855 104.6141
L191.3413 104.6920
" />
<path d="M191.3413 104.6920
L191.6529 104.7699
" />
<path d="M191.6529 104.7699
L192.0424 104.7699
" />
<path d="M192.0424 104.7699
L192.3539 104.6920
" />
<path d="M192.3539 104.6920
L192.5097 104.6141
" />
<path d="M192.5097 104.6141
L192.5876 104.5362
" />
<path d="M192.5876 104.5362
L192.6655 104.3805
" />
<path d="M191.0298 101.8879
L192.1203 101.8879
" />
<path d="M191.9645 101.8879
L192.0424 101.8100
" />
<path d="M192.0424 101.8100
L192.1203 101.6542
" />
<path d="M192.1203 101.6542
L192.1203 101.4205
" />
<path d="M192.1203 101.4205
L192.0424 101.2647
" />
<path d="M192.0424 101.2647
L191.8866 101.1868
" />
<path d="M191.8866 101.1868
L191.0298 101.1868
" />
<path d="M191.8866 101.1868
L192.0424 101.1089
" />
<path d="M192.0424 101.1089
L192.1203 100.9531
" />
<path d="M192.1203 100.9531
L192.1203 100.7195
" />
<path d="M192.1203 100.7195
L192.0424 100.5637
" />
<path d="M192.0424 100.5637
L191.8866 100.4858
" />
<path d="M191.8866 100.4858
L191.0298 100.4858
" />
<path d="M191.0298 99.7069
L192.1203 99.7069
" />
<path d="M191.9645 99.7069
L192.0424 99.6290
" />
<path d="M192.0424 99.6290
L192.1203 99.4732
" />
<path d="M192.1203 99.4732
L192.1203 99.2395
" />
<path d="M192.1203 99.2395
L192.0424 99.0837
" />
<path d="M192.0424 99.0837
L191.8866 99.0058
" />
<path d="M191.8866 99.0058
L191.0298 99.0058
" />
<path d="M191.8866 99.0058
L192.0424 98.9279
" />
<path d="M192.0424 98.9279
L192.1203 98.7721
" />
<path d="M192.1203 98.7721
L192.1203 98.5385
" />
<path d="M192.1203 98.5385
L192.0424 98.3827
" />
<path d="M192.0424 98.3827
L191.8866 98.3048
" />
<path d="M191.8866 98.3048
L191.0298 98.3048
" />
</g></g>
<g style="fill:#000000; fill-opacity:0.0; 
stroke:#000000; stroke-width:0.1000; stroke-opacity:1; 
stroke-linecap:round; stroke-linejoin:round;">
<path d="M181.0011 165.0036
L190.5875 165.0036
" />
<path d="M181.0011 45.0036
L190.5875 45.0036
" />
<path d="M190.0011 165.0036
L190.0011 45.0036
" />
<path d="M190.0011 165.0036
L190.0011 45.0036
" />
<path d="M190.0011 165.0036
L190.5875 163.8771
" />
<path d="M190.0011 165.0036
L189.4147 163.8771
" />
<path d="M190.0011 45.0036
L189.4147 46.1301
" />
<path d="M190.0011 45.0036
L190.5875 46.1301
" />
</g>
<g style="fill:#000000; fill-opacity:0.0; 
stroke:#000000; stroke-width:0.1422; stroke-opacity:1; 
stroke-linecap:round; stroke-linejoin:round;">
<text x="148.5011" y="41.0435"
textLength="12.7183" font-size="2.1810" lengthAdjust="spacingAndGlyphs"
text-anchor="middle" opacity="0">75.00 mm</text>
<g class="stroked-text"><desc>75.00 mm</desc>
<path d="M154.5768 39.3392
L153.4863 39.3392
" />
<path d="M153.4863 39.3392
L154.1873 40.9749
" />
<path d="M152.0842 39.3392
L152.8631 39.3392
" />
<path d="M152.8631 39.3392
L152.9410 40.1181
" />
<path d="M152.9410 40.1181
L152.8631 40.0402
" />
<path d="M152.8631 40.0402
L152.7073 39.9623
" />
<path d="M152.7073 39.9623
L152.3179 39.9623
" />
<path d="M152.3179 39.9623
L152.1621 40.0402
" />
<path d="M152.1621 40.0402
L152.0842 40.1181
" />
<path d="M152.0842 40.1181
L152.0063 40.2739
" />
<path d="M152.0063 40.2739
L152.0063 40.6634
" />
<path d="M152.0063 40.6634
L152.0842 40.8192
" />
<path d="M152.0842 40.8192
L152.1621 40.8970
" />
<path d="M152.1621 40.8970
L152.3179 40.9749
" />
<path d="M152.3179 40.9749
L152.7073 40.9749
" />
<path d="M152.7073 40.9749
L152.8631 40.8970
" />
<path d="M152.8631 40.8970
L152.9410 40.8192
" />
<path d="M151.3053 40.8192
L151.2274 40.8970
" />
<path d="M151.2274 40.8970
L151.3053 40.9749
" />
<path d="M151.3053 40.9749
L151.3832 40.8970
" />
<path d="M151.3832 40.8970
L151.3053 40.8192
" />
<path d="M151.3053 40.8192
L151.3053 40.9749
" />
<path d="M150.2148 39.3392
L150.0590 39.3392
" />
<path d="M150.0590 39.3392
L149.9032 39.4171
" />
<path d="M149.9032 39.4171
L149.8253 39.4950
" />
<path d="M149.8253 39.4950
L149.7474 39.6507
" />
<path d="M149.7474 39.6507
L149.6695 39.9623
" />
<path d="M149.6695 39.9623
L149.6695 40.3518
" />
<path d="M149.6695 40.3518
L149.7474 40.6634
" />
<path d="M149.7474 40.6634
L149.8253 40.8192
" />
<path d="M149.8253 40.8192
L149.9032 40.8970
" />
<path d="M149.9032 40.8970
L150.0590 40.9749
" />
<path d="M150.0590 40.9749
L150.2148 40.9749
" />
<path d="M150.2148 40.9749
L150.3705 40.8970
" />
<path d="M150.3705 40.8970
L150.4484 40.8192
" />
<path d="M150.4484 40.8192
L150.5263 40.6634
" />
<path d="M150.5263 40.6634
L150.6042 40.3518
" />
<path d="M150.6042 40.3518
L150.6042 39.9623
" />
<path d="M150.6042 39.9623
L150.5263 39.6507
" />
<path d="M150.5263 39.6507
L150.4484 39.4950
" />
<path d="M150.4484 39.4950
L150.3705 39.4171
" />
<path d="M150.3705 39.4171
L150.2148 39.3392
" />
<path d="M148.6569 39.3392
L148.5011 39.3392
" />
<path d="M148.5011 39.3392
L148.3453 39.4171
" />
<path d="M148.3453 39.4171
L148.2674 39.4950
" />
<path d="M148.2674 39.4950
L148.1895 39.6507
" />
<path d="M148.1895 39.6507
L148.1116 39.9623
" />
<path d="M148.1116 39.9623
L148.1116 40.3518
" />
<path d="M148.1116 40.3518
L148.1895 40.6634
" />
<path d="M148.1895 40.6634
L148.2674 40.8192
" />
<path d="M148.2674 40.8192
L148.3453 40.8970
" />
<path d="M148.3453 40.8970
L148.5011 40.9749
" />
<path d="M148.5011 40.9749
L148.6569 40.9749
" />
<path d="M148.6569 40.9749
L148.8127 40.8970
" />
<path d="M148.8127 40.8970
L148.8906 40.8192
" />
<path d="M148.8906 40.8192
L148.9685 40.6634
" />
<path d="M148.9685 40.6634
L149.0464 40.3518
" />
<path d="M149.0464 40.3518
L149.0464 39.9623
" />
<path d="M149.0464 39.9623
L148.9685 39.6507
" />
<path d="M148.9685 39.6507
L148.8906 39.4950
" />
<path d="M148.8906 39.4950
L148.8127 39.4171
" />
<path d="M148.8127 39.4171
L148.6569 39.3392
" />
<path d="M146.1643 40.9749
L146.1643 39.8844
" />
<path d="M146.1643 40.0402
L146.0864 39.9623
" />
<path d="M146.0864 39.9623
L145.9306 39.8844
" />
<path d="M145.9306 39.8844
L145.6969 39.8844
" />
<path d="M145.6969 39.8844
L145.5412 39.9623
" />
<path d="M145.5412 39.9623
L145.4633 40.1181
" />
<path d="M145.4633 40.1181
L145.4633 40.9749
" />
<path d="M145.4633 40.1181
L145.3854 39.9623
" />
<path d="M145.3854 39.9623
L145.2296 39.8844
" />
<path d="M145.2296 39.8844
L144.9959 39.8844
" />
<path d="M144.9959 39.8844
L144.8401 39.9623
" />
<path d="M144.8401 39.9623
L144.7622 40.1181
" />
<path d="M144.7622 40.1181
L144.7622 40.9749
" />
<path d="M143.9833 40.9749
L143.9833 39.8844
" />
<path d="M143.9833 40.0402
L143.9054 39.9623
" />
<path d="M143.9054 39.9623
L143.7496 39.8844
" />
<path d="M143.7496 39.8844
L143.5159 39.8844
" />
<path d="M143.5159 39.8844
L143.3601 39.9623
" />
<path d="M143.3601 39.9623
L143.2822 40.1181
" />
<path d="M143.2822 40.1181
L143.2822 40.9749
" />
<path d="M143.2822 40.1181
L143.2044 39.9623
" />
<path d="M143.2044 39.9623
L143.0486 39.8844
" />
<path d="M143.0486 39.8844
L142.8149 39.8844
" />
<path d="M142.8149 39.8844
L142.6591 39.9623
" />
<path d="M142.6591 39.9623
L142.5812 40.1181
" />
<path d="M142.5812 40.1181
L142.5812 40.9749
" />
</g></g>
<g style="fill:#000000; fill-opacity:0.0; 
stroke:#000000; stroke-width:0.1000; stroke-opacity:1; 
stroke-linecap:round; stroke-linejoin:round;">
<path d="M186.0011 50.0036
L186.0011 41.4172
" />
<path d="M111.0011 50.0036
L111.0011 41.4172
" />
<path d="M186.0011 42.0036
L111.0011 42.0036
" />
<path d="M186.0011 42.0036
L111.0011 42.0036
" />
<path d="M186.0011 42.0036
L184.8746 41.4172
" />
<path d="M186.0011 42.0036
L184.8746 42.5900
" />
<path d="M111.0011 42.0036
L112.1276 42.5900
" />
<path d="M111.0011 42.0036
L112.1276 41.4172
" />
</g>
<g style="fill:#000000; fill-opacity:0.0; 
stroke:#000000; stroke-width:0.0488; stroke-opacity:1; 
stroke-linecap:round; stroke-linejoin:round;">
<g transform="rotate(-90.000000 118.3761 58.6436)">
<text x="118.3761" y="58.9240"
textLength="1.6098" font-size="0.7478" lengthAdjust="spacingAndGlyphs"
text-anchor="middle" opacity="0">Cap</text>
</g>
<g class="stroked-text"><desc>Cap</desc>
<path d="M118.1726 58.9774
L118.1459 59.0041
" />
<path d="M118.1459 59.0041
L118.1192 59.0843
" />
<path d="M118.1192 59.0843
L118.1192 59.1377
" />
<path d="M118.1192 59.1377
L118.1459 59.2178
" />
<path d="M118.1459 59.2178
L118.1993 59.2712
" />
<path d="M118.1993 59.2712
L118.2527 59.2979
" />
<path d="M118.2527 59.2979
L118.3595 59.3246
" />
<path d="M118.3595 59.3246
L118.4397 59.3246
" />
<path d="M118.4397 59.3246
L118.5465 59.2979
" />
<path d="M118.5465 59.2979
L118.5999 59.2712
" />
<path d="M118.5999 59.2712
L118.6533 59.2178
" />
<path d="M118.6533 59.2178
L118.6800 59.1377
" />
<path d="M118.6800 59.1377
L118.6800 59.0843
" />
<path d="M118.6800 59.0843
L118.6533 59.0041
" />
<path d="M118.6533 59.0041
L118.6266 58.9774
" />
<path d="M118.1192 58.4967
L118.4130 58.4967
" />
<path d="M118.4130 58.4967
L118.4664 58.5234
" />
<path d="M118.4664 58.5234
L118.4931 58.5768
" />
<path d="M118.4931 58.5768
L118.4931 58.6837
" />
<path d="M118.4931 58.6837
L118.4664 58.7371
" />
<path d="M118.1459 58.4967
L118.1192 58.5501
" />
<path d="M118.1192 58.5501
L118.1192 58.6837
" />
<path d="M118.1192 58.6837
L118.1459 58.7371
" />
<path d="M118.1459 58.7371
L118.1993 58.7638
" />
<path d="M118.1993 58.7638
L118.2527 58.7638
" />
<path d="M118.2527 58.7638
L118.3061 58.7371
" />
<path d="M118.3061 58.7371
L118.3328 58.6837
" />
<path d="M118.3328 58.6837
L118.3328 58.5501
" />
<path d="M118.3328 58.5501
L118.3595 58.4967
" />
<path d="M118.4931 58.2297
L117.9322 58.2297
" />
<path d="M118.4664 58.2297
L118.4931 58.1762
" />
<path d="M118.4931 58.1762
L118.4931 58.0694
" />
<path d="M118.4931 58.0694
L118.4664 58.0160
" />
<path d="M118.4664 58.0160
L118.4397 57.9893
" />
<path d="M118.4397 57.9893
L118.3862 57.9626
" />
<path d="M118.3862 57.9626
L118.2260 57.9626
" />
<path d="M118.2260 57.9626
L118.1726 57.9893
" />
<path d="M118.1726 57.9893
L118.1459 58.0160
" />
<path d="M118.1459 58.0160
L118.1192 58.0694
" />
<path d="M118.1192 58.0694
L118.1192 58.1762
" />
<path d="M118.1192 58.1762
L118.1459 58.2297
" />
</g></g>
<g style="fill:#000000; fill-opacity:0.0; 
stroke:#000000; stroke-width:0.1270; stroke-opacity:1; 
stroke-linecap:round; stroke-linejoin:round;">
<path d="M174.0011 52.3036
L148.0011 52.3036
" />
</g>
<g style="fill:#000000; fill-opacity:0.0; 
stroke:#000000; stroke-width:0.0762; stroke-opacity:1; 
stroke-linecap:round; stroke-linejoin:round;">
<path d="M169.0011 46.2036
L153.0011 46.2036
" />
<path d="M169.0011 70.2036
L169.0011 46.2036
" />
</g>
<g style="fill:#000000; fill-opacity:0.0; 
stroke:#000000; stroke-width:0.2540; stroke-opacity:1; 
stroke-linecap:round; stroke-linejoin:round;">
<path d="M167.5011 47.2036
L165.5011 47.2036
" />
<path d="M167.5011 52.7036
L167.5011 47.2036
" />
<path d="M167.0011 53.7036
L155.0011 53.7036
" />
<path d="M167.0011 68.2036
L167.0011 53.7036
" />
<path d="M165.5011 47.2036
L163.0011 47.2036
" />
<path d="M165.5011 52.7036
L165.5011 47.2036
" />
<path d="M163.0011 47.2036
L163.0011 49.7036
" />
<path d="M163.0011 49.7036
L161.0011 49.7036
" />
<path d="M161.0011 47.2036
L159.0011 47.2036
" />
<path d="M161.0011 49.7036
L161.0011 47.2036
" />
<path d="M159.0011 47.2036
L159.0011 49.7036
" />
<path d="M159.0011 49.7036
L157.0011 49.7036
" />
<path d="M157.0011 47.2036
L154.5011 47.2036
" />
<path d="M157.0011 49.7036
L157.0011 47.2036
" />
<path d="M155.0011 53.7036
L155.0011 68.2036
" />
<path d="M155.0011 68.2036
L167.0011 68.2036
" />
<path d="M154.5011 47.2036
L154.5011 50.7036
" />
</g>
<g style="fill:#000000; fill-opacity:0.0; 
stroke:#000000; stroke-width:0.0762; stroke-opacity:1; 
stroke-linecap:round; stroke-linejoin:round;">
<path d="M153.0011 46.2036
L153.0011 70.2036
" />
<path d="M153.0011 70.2036
L169.0011 70.2036
" />
<path d="M145.5011 53.5036
L139.5011 53.5036
" />
</g>
<g style="fill:#000000; fill-opacity:0.0; 
stroke:#000000; stroke-width:0.0500; stroke-opacity:1; 
stroke-linecap:round; stroke-linejoin:round;">
<path d="M143.5011 48.0036
L141.5011 48.0036
" />
<path d="M143.5011 48.1536
L141.5011 48.1536
" />
<path d="M143.5011 51.3536
L141.5011 51.3536
" />
<path d="M143.5011 51.5036
L141.5011 51.5036
" />
<path d="M141.5011 45.5036
L143.5011 45.5036
" />
<g >
</g>
<g >
</g>
<g >
</g>
<g >
</g>
<g >
</g>
<g >
</g>
<g >
</g>
<g >
</g>
<g >
</g>
<g >
</g>
<g >
</g>
<g >
</g>
<g >
</g>
<g >
</g>
<g >
</g>
<g >
</g>
<g >
</g>
<g >
</g>
<g >
</g>
<g >
</g>
<g >
</g>
<g >
</g>
<g >
</g>
<g >
</g>
<g >
</g>
<g >
</g>
<g >
</g>
<g >
</g>
<g >
</g>
<g >
</g>
<g >
</g>
<g >
</g>
<g >
</g>
<g >
</g>
<g >
</g>
<g >
</g>
<g >
</g>
<g >
</g>
<g >
</g>
<g >
</g>
<g >
</g>
<g >
</g>
<g >
</g>
<g >
</g>
<g >
</g>
<g >
</g>
<g >
</g>
<g >
</g>
<g >
</g>
<g >
</g>
<g >
</g>
<g >
</g>
<g >
</g>
<g >
</g>
<g >
</g>
<g >
</g>
<g >
</g>
<g >
</g>
<g >
</g>
<g >
</g>
<g >
</g>
<g >
</g>
<g >
</g>
<g >
</g>
<g >
</g>
<g >
</g>
<g >
</g>
<g >
</g>
<g >
</g>
<g >
</g>
<g >
</g>
<g >
</g>
<g >
</g>
<g >
</g>
<g >
</g>
<g >
</g>
<g >
</g>
<g >
</g>
<g >
</g>
</g> 
</svg>
