<?xml version='1.0' encoding='ASCII' standalone='yes'?>
<svg xmlns="http://www.w3.org/2000/svg" version="1.1" width="297.0022mm" height="210.0072mm" viewBox="0.0000 0.0000 297.0022 210.0072">
            <title>Picture generated by PcbDraw </title>
            <desc>Picture generated by PcbDraw</desc>
        <defs><clipPath id="cut-off"><path d=" M 116.0011 45.0036 A 5 5 0 0 0 111.0011 50.0036 L 111.0011 160.0036 A 5 5 0 0 0 116.0011 165.0036 L 181.0011 165.0036 A 5 5 0 0 0 186.0011 160.0036 L 186.0011 50.0036 A 5 5 0 0 0 181.0011 45.0036 L 116.0011 45.0036 " style="fill-rule: evenodd;"/></clipPath><mask id="pads-mask-silkscreen"><rect x="98.085023" y="24.415399" width="94.414843" height="140.664401" fill="white"/><g style="fill:#000000; fill-opacity:0.0;  stroke:#000000; stroke-width:0.0000; stroke-opacity:1;  stroke-linecap:round; stroke-linejoin:round;">
<g style="fill:#000000; fill-opacity:1.0000;  stroke:#000000; stroke-width:0.0000; stroke-opacity:1;  stroke-linecap:round; stroke-linejoin:round;">
<circle cx="118.5011" cy="52.5036" r="1.5250"/> 
</g>
<g style="fill:#000000; fill-opacity:1.0000;  stroke:#000000; stroke-width:0.0000; stroke-opacity:1;  stroke-linecap:round; stroke-linejoin:round;">
<circle cx="178.5011" cy="142.5036" r="1.5250"/> 
</g>
<g style="fill:#000000; fill-opacity:1.0000;  stroke:#000000; stroke-width:0.0000; stroke-opacity:1;  stroke-linecap:round; stroke-linejoin:round;">
<circle cx="178.5011" cy="67.5036" r="1.5250"/> 
</g>
<g style="fill:#000000; fill-opacity:1.0000;  stroke:#000000; stroke-width:0.0000; stroke-opacity:1;  stroke-linecap:round; stroke-linejoin:round;">
<circle cx="148.5011" cy="157.5036" r="1.5250"/> 
</g>
<g style="fill:#000000; fill-opacity:1.0000;  stroke:#000000; stroke-width:0.0000; stroke-opacity:1;  stroke-linecap:round; stroke-linejoin:round;">
<circle cx="155.1111" cy="158.6936" r="0.3250"/> 
</g>
<g style="fill:#000000; fill-opacity:1.0000;  stroke:#000000; stroke-width:0.0000; stroke-opacity:1;  stroke-linecap:round; stroke-linejoin:round;">
<circle cx="160.8911" cy="158.6936" r="0.3250"/> 
</g>
<g style="fill:#000000; fill-opacity:1.0000;  stroke:#000000; stroke-width:0.0000; stroke-opacity:1;  stroke-linecap:round; stroke-linejoin:round;">
<path style="fill:#000000; fill-opacity:1.0000;  stroke:#000000; stroke-width:0.0000; stroke-opacity:1;  stroke-linecap:round; stroke-linejoin:round;fill-rule:evenodd;" d="M 153.6811,159.3152 153.5254,159.2947 153.3803,159.2346 153.2557,159.1390 153.1601,159.0144 153.1000,158.8693 153.0795,158.7136 153.0795,157.6136 153.1000,157.4579 153.1601,157.3128 153.2557,157.1882 153.3803,157.0926 153.5254,157.0325 153.6811,157.0120 153.8368,157.0325 153.9819,157.0926 154.1065,157.1882 154.2021,157.3128 154.2622,157.4579 154.2827,157.6136 154.2827,158.7136 154.2622,158.8693 154.2021,159.0144 154.1065,159.1390 153.9819,159.2346 153.8368,159.2947 153.6811,159.3152 Z"/> 
<path style="fill:#000000; fill-opacity:1.0000;  stroke:#000000; stroke-width:0.0000; stroke-opacity:1;  stroke-linecap:round; stroke-linejoin:round;fill-rule:evenodd;" d="M 153.6811,163.2452 153.5254,163.2247 153.3803,163.1646 153.2557,163.0690 153.1601,162.9444 153.1000,162.7993 153.0795,162.6436 153.0795,162.0436 153.1000,161.8879 153.1601,161.7428 153.2557,161.6182 153.3803,161.5226 153.5254,161.4625 153.6811,161.4420 153.8368,161.4625 153.9819,161.5226 154.1065,161.6182 154.2021,161.7428 154.2622,161.8879 154.2827,162.0436 154.2827,162.6436 154.2622,162.7993 154.2021,162.9444 154.1065,163.0690 153.9819,163.1646 153.8368,163.2247 153.6811,163.2452 Z"/> 
<path style="fill:#000000; fill-opacity:1.0000;  stroke:#000000; stroke-width:0.0000; stroke-opacity:1;  stroke-linecap:round; stroke-linejoin:round;fill-rule:evenodd;" d="M 162.3211,163.2452 162.1654,163.2247 162.0203,163.1646 161.8957,163.0690 161.8001,162.9444 161.7400,162.7993 161.7195,162.6436 161.7195,162.0436 161.7400,161.8879 161.8001,161.7428 161.8957,161.6182 162.0203,161.5226 162.1654,161.4625 162.3211,161.4420 162.4768,161.4625 162.6219,161.5226 162.7465,161.6182 162.8421,161.7428 162.9022,161.8879 162.9227,162.0436 162.9227,162.6436 162.9022,162.7993 162.8421,162.9444 162.7465,163.0690 162.6219,163.1646 162.4768,163.2247 162.3211,163.2452 Z"/> 
<path style="fill:#000000; fill-opacity:1.0000;  stroke:#000000; stroke-width:0.0000; stroke-opacity:1;  stroke-linecap:round; stroke-linejoin:round;fill-rule:evenodd;" d="M 162.3211,159.3152 162.1654,159.2947 162.0203,159.2346 161.8957,159.1390 161.8001,159.0144 161.7400,158.8693 161.7195,158.7136 161.7195,157.6136 161.7400,157.4579 161.8001,157.3128 161.8957,157.1882 162.0203,157.0926 162.1654,157.0325 162.3211,157.0120 162.4768,157.0325 162.6219,157.0926 162.7465,157.1882 162.8421,157.3128 162.9022,157.4579 162.9227,157.6136 162.9227,158.7136 162.9022,158.8693 162.8421,159.0144 162.7465,159.1390 162.6219,159.2346 162.4768,159.2947 162.3211,159.3152 Z"/> 
</g>
<g style="fill:#000000; fill-opacity:1.0000;  stroke:#000000; stroke-width:0.0000; stroke-opacity:1;  stroke-linecap:round; stroke-linejoin:round;">
<circle cx="148.5011" cy="52.5036" r="1.5250"/> 
</g>
<g style="fill:#000000; fill-opacity:1.0000;  stroke:#000000; stroke-width:0.0000; stroke-opacity:1;  stroke-linecap:round; stroke-linejoin:round;">
<circle cx="118.5011" cy="127.5036" r="1.5250"/> 
</g>
<g style="fill:#000000; fill-opacity:1.0000;  stroke:#000000; stroke-width:0.0000; stroke-opacity:1;  stroke-linecap:round; stroke-linejoin:round;">
<circle cx="118.5011" cy="97.5036" r="1.5250"/> 
</g>
<g style="fill:#000000; fill-opacity:1.0000;  stroke:#000000; stroke-width:0.0000; stroke-opacity:1;  stroke-linecap:round; stroke-linejoin:round;">
<circle cx="178.5011" cy="112.5036" r="1.5250"/> 
</g>
<g style="fill:#000000; fill-opacity:1.0000;  stroke:#000000; stroke-width:0.0000; stroke-opacity:1;  stroke-linecap:round; stroke-linejoin:round;">
<circle cx="133.5011" cy="157.5036" r="1.5250"/> 
</g>
<g style="fill:#000000; fill-opacity:1.0000;  stroke:#000000; stroke-width:0.0000; stroke-opacity:1;  stroke-linecap:round; stroke-linejoin:round;">
<circle cx="118.5011" cy="82.5036" r="1.5250"/> 
</g>
<g style="fill:#000000; fill-opacity:1.0000;  stroke:#000000; stroke-width:0.0000; stroke-opacity:1;  stroke-linecap:round; stroke-linejoin:round;">
<circle cx="178.5011" cy="127.5036" r="1.5250"/> 
</g>
<g style="fill:#000000; fill-opacity:1.0000;  stroke:#000000; stroke-width:0.0000; stroke-opacity:1;  stroke-linecap:round; stroke-linejoin:round;">
<circle cx="118.5011" cy="67.5036" r="1.5250"/> 
</g>
<g style="fill:#000000; fill-opacity:1.0000;  stroke:#000000; stroke-width:0.0000; stroke-opacity:1;  stroke-linecap:round; stroke-linejoin:round;">
<circle cx="118.5011" cy="157.5036" r="1.5250"/> 
</g>
<g style="fill:#000000; fill-opacity:1.0000;  stroke:#000000; stroke-width:0.0000; stroke-opacity:1;  stroke-linecap:round; stroke-linejoin:round;">
<circle cx="178.5011" cy="157.5036" r="1.5250"/> 
</g>
<g style="fill:#000000; fill-opacity:1.0000;  stroke:#000000; stroke-width:0.0000; stroke-opacity:1;  stroke-linecap:round; stroke-linejoin:round;">
<circle cx="178.5011" cy="52.5036" r="1.5250"/> 
</g>
<g style="fill:#000000; fill-opacity:1.0000;  stroke:#000000; stroke-width:0.0000; stroke-opacity:1;  stroke-linecap:round; stroke-linejoin:round;">
<circle cx="118.5011" cy="112.5036" r="1.5250"/> 
</g>
<g style="fill:#000000; fill-opacity:1.0000;  stroke:#000000; stroke-width:0.0000; stroke-opacity:1;  stroke-linecap:round; stroke-linejoin:round;">
<circle cx="178.5011" cy="82.5036" r="1.5250"/> 
</g>
<g style="fill:#000000; fill-opacity:1.0000;  stroke:#000000; stroke-width:0.0000; stroke-opacity:1;  stroke-linecap:round; stroke-linejoin:round;">
<circle cx="178.5011" cy="97.5036" r="1.5250"/> 
</g>
</g> 
</mask></defs><g transform="scale(-1,1) translate(-297,0)" id="boardContainer"><g id="substrate" clip-path="url(#cut-off)" mask="url(#pads-mask-silkscreen)"><g id="substrate-board" style="fill:#143324; fill-opacity:0.25098039215686274; stroke:#143324; stroke-width:0;"><path d=" M 116.0011 45.0036 A 5 5 0 0 0 111.0011 50.0036 L 111.0011 160.0036 A 5 5 0 0 0 116.0011 165.0036 L 181.0011 165.0036 A 5 5 0 0 0 186.0011 160.0036 L 186.0011 50.0036 A 5 5 0 0 0 181.0011 45.0036 L 116.0011 45.0036 " style="fill-rule: evenodd;"/><g style="fill-opacity: 0.0;stroke-width: 0.1524;stroke-opacity: 1;stroke-linecap: round;stroke-linejoin: round">
<path d="M181.0011 45.0036 L116.0011 45.0036 "/>
<path d="M186.0011 50.0036 A5.0000 5.0000 0.0 0 0 181.0011 45.0036"/>
<path d="M111.0011 50.0036 L111.0011 160.0036 "/>
<path d="M116.0011 45.0036 A5.0000 5.0000 0.0 0 0 111.0011 50.0036"/>
<path d="M186.0011 160.0036 L186.0011 50.0036 "/>
<path d="M181.0011 165.0036 A5.0000 5.0000 0.0 0 0 186.0011 160.0036"/>
<path d="M111.0011 160.0036 A5.0000 5.0000 0.0 0 0 116.0011 165.0036"/>
<path d="M116.0011 165.0036 L181.0011 165.0036 "/>
</g> 
</g></g></g></svg>
